/* XPM */
static char * mini_recycler_xpm[] = {
"15 15 8 1",
" 	c None",
".	c #9E79DF7DAEBA",
"X	c #38E3C30B4103",
"o	c #082024920000",
"O	c #082061850820",
"+	c #2081A6992081",
"@	c #5965D75C6185",
"#	c #5144618579E7",
"     ..XoOO    ",
"    ...oOOO+   ",
"   @XX# OO+++  ",
"   X+++ oO++o  ",
"    o+o O++X   ",
"X..@         O ",
" O@@X  X   +++ ",
" X++++  o  +X@+",
" +++     o  X+o",
"  +O     o  Oo ",
"  +oOO+ ..@+Oo ",
"   o#++ .@X+O  ",
"   O#OX .#+O   ",
"        ooo    ",
"         o     "};
