/* XPM */
static char * redbar_xpm[] = {
"155 22 9 1",
" 	c None",
".	c #7A3144",
"+	c #702D3B",
"@	c #682736",
"#	c #5E232E",
"$	c #531E28",
"%	c #471821",
"&	c #381118",
"*	c #1A070A",
"......+........................................+................+.....................................++..+....@.@.@@.@..............+.....................",
"......+........................................+................+.....................................++..+....@.@.@@.@..............+.....................",
"......+........................................+................+.....................................++..+....@.@.@@.@..............+.....................",
"......+........................................+................+.....................................++..+....@.@.@@.@..............+.....................",
"@+@+.@@@@+........++++++........++..........+++..++++@++.....+.+@@+@......+.+..++@+++++++@+++++++.+.@+@@@.@@+@.@.@@@@@.@@@@@+.....+@@++@@@+@@@@@@+......+@+",
"@@@@@@@@@@@+.+.+++++#+@+@++#+@@@@@.@.@@@@@@+++++@+@@@@@@@@+@+@@@@@@@@++.@@@+@+@@@@@++@@@@@@@@@@@+@@+@@@@@@@@@@@@@@@@@@@@@@@@@@++++@@@@@@@@@@@.@@@+@+++@@@@@",
"@@@@@@@@@@+++++++#+@+@@@##@@#@#@@@@@@@@@@@@@++++++++@@@@@@@@+@@@@@@@@@@@@@+++@+#@#@@++@@@@@@@@@@@.@@@@@@@@@#@@@@@@@@$@$@@@@@@+@@@@@@#@@@@@@.@@@@+#++@+++@@@",
"@@@@@@##@#@++#+##++#@#@#@#@#@#@#@@@@@@##@@@@@+++@@+@@@@@@@@@@@@@##@@@@@@@@@++@@#@+#+@@+@@@@@@@@@@@@@@@@$@$@$@#@$@$$@$@$@#@##@@++##@##@@@@@@@@.@@@@#+#@+@@@#",
"##@@@@@@#@#########@@#####@@@@##@@@@@@@####@@@@@@@@####$$##@@@##@@##@#@@############@#@@@@@@@@@@@@@@@$@$@$@$$@@$@@$@$$$#########@@$@$#@@@@@@@@#@#######@@@@",
"##@#####$###########@$$$$#####$$#$@#@#@##$###@@@##$#$$$$$$$#######@#@###@##########@#@#########@#$#$$$$$$$$$$##@$$@$$@$$#$#$#####$@$######$@#######$###@##@",
"#$########@###$###@@#@#$$$$$$$$$$$$#####$#$########$#$$$$$#$@###$###$#@$#@#$###@####+@#@#@@#@@$##$$$$$$$$$$$$$$@$#$@$$#$##$######$$$$$@$@$@##@####$####+@##",
"$$$$$$$#####$#$$$$$$$#$$%%$$$$$$$$$$$$$#$$$$$$##$$$$$$$####$$$##@##$#$$$############$##$###$$$$$$$$$$$%$%$$$$###$$$$$$$$@$$##@##$$$$$$$@$$$#$$$#$$$$$######",
"$$$#$#######$##$$$#$$$$$%$%$$$$$$$#$#$$$##$$#######$$$#$$$$$$$$$@@###############$$$$##$#####$$$$$$$$$%$%$$$$$#####$#$#$#$#$##@#$$$@$$$#$$$@##$$$$#$$###$#$",
"$$$#$#######$##$$$#$$$$$%$%$$$$$$$#$#$$$##$$#######$$$#$$$$$$$$$@@###############$$$$##$#####$$$$$$$$$%$%$$$$$#####$#$#$#$#$##@#$$$@$$$#$$$@##$$$$#$$###$#$",
"$$$$#$$##$$###$$#$$$$%$%$%$%$%%$$$$$$$$$##$#$####$$$$$$$#$$$$$$$#$######$###$#$###$###$#$$$$$$$$%$%$$%$%$$$$$$#$$$$$$$##$$$$$$$$$$$$$$$$$$$$$#$$$$$$$$#$$$$",
"$%$$$$$$$$$$$$$$$$%%$%$%%%%%$%%%$%$$$$$$$$$$$$$$$$$$$%$$$$$$$$#$$$$$$$##$$$$$$$$#$$#$#$$$$$$$%$%%%%$%%%%%$%$$$$$$$$$$$$$$%$$$$$$%$%$$$$$$$$$$$$$%$%$$%$$$%$",
"$$%$%$%$$%$%$$$$$%%%%$%$%$%%%$%%$%$$$$$$$$$$$%$$%$%%$%%%$$%%%$$$%$$$$$$#$$#$$$$$$$$%$$%$$$$$$$%$%$%%%%$%$$$$$%$$$$%%$%$%$$%$$$$%$$$%$$$$$%$%$%$$$$$$%$$%%%$",
"%%$%$$$%$$%$$%%%$$%%$%$%$%%$%$%$%$%$$$$#$$$$$$%$%%$%$%$$%$$$$%$$$%$%$$$#$$$#$$$$%$$$$$$%$%$$$%$%$%$%%%%%$$$$$%$%$%$%%%%$%$$$%%$%$%$%$%$$$$$%$$$$$%$%$%$$%$%",
"%%%%%%%&%%%%&%%%&&%%%%%%&%%%%%%%%&%%%%$%$%%%&%%&&%%&%%&%%%%%%%%$%%%%%%$%%$%%%%%%$%%$$$%&%%%%%%%%%%%%%%%%%%%%%%%%%%&%%%%%&%%%&%&%%%%%%%%%%%%%%%%%%%%%%%&%%%%",
"&&&&&&&&&&&&&&&&*&&&&&&&&&&&&&&&&&&&&&&&%&&&&&&&*&&&&&&&&&&&&&&&&&&&&&&%&&&&&&&&&&&&&&&&&&&&&&&&&&&&&&&&&&&&&&&&&&&&&&&&&&&&&*&&&&&&&&&&&&&&&&&&&&&&&&&&&&&",
"*********************************************************************&*************************************************************************************",
"***********************************************************************************************************************************************************"};
