/* XPM */
static char * south_xpm[] = {
"20 4 5 1",
" 	c None",
".	c #967D7D",
"+	c #6E5B52",
"@	c #494138",
"#	c #282018",
"....................",
"++++++++++++++++++++",
"@@@@@@@@@@@@@@@@@@@@",
"####################"};
