#define iconify_width 16
#define iconify_height 16
#define iconify_x_hot 8
#define iconify_y_hot 8
static unsigned char iconify_bits[] = {
   0xe0, 0xff, 0x30, 0x80, 0x20, 0xc0, 0x28, 0xa0, 0x20, 0xd0, 0x34, 0xa8,
   0x20, 0xd4, 0x2a, 0xaa, 0x20, 0xd5, 0xb5, 0xaa, 0xff, 0xff, 0x71, 0x44,
   0x29, 0x11, 0x75, 0x04, 0x2b, 0x01, 0x7f, 0x00};
