#define kill_width 16
#define kill_height 16
#define kill_x_hot 8
#define kill_y_hot 8
static unsigned char kill_bits[] = {
   0x04, 0x20, 0x0a, 0x50, 0x13, 0xc8, 0x26, 0x64, 0x4c, 0x32, 0x98, 0x19,
   0x30, 0x0c, 0x60, 0x06, 0x20, 0x04, 0x90, 0x09, 0xc8, 0x13, 0x64, 0x26,
   0x32, 0x4c, 0x19, 0xd8, 0x0e, 0x70, 0x04, 0x20};
