#define resize_br_width 16
#define resize_br_height 16
#define resize_br_x_hot 7
#define resize_br_y_hot 7
static unsigned char resize_br_bits[] = {
   0xff, 0x01, 0x81, 0x00, 0x43, 0x00, 0x25, 0x00, 0x4b, 0x00, 0x9d, 0x00,
   0x37, 0x01, 0x63, 0x82, 0xc1, 0xc4, 0x80, 0xa9, 0x00, 0x93, 0x00, 0x86,
   0x00, 0x8c, 0x00, 0x96, 0x00, 0xab, 0x80, 0xff};
