#define resize_h_width 16
#define resize_h_height 16
#define resize_h_x_hot 7
#define resize_h_y_hot 7
static unsigned char resize_h_bits[] = {
   0x00, 0x00, 0x00, 0x00, 0x20, 0x04, 0x30, 0x0c, 0x28, 0x14, 0xe4, 0x27,
   0x02, 0x40, 0xa9, 0xaa, 0x56, 0x55, 0xec, 0x2f, 0x38, 0x14, 0x30, 0x0c,
   0x20, 0x04, 0x00, 0x00, 0x00, 0x00, 0x00, 0x00};
