/* XPM */
static char * new [] = {
/* width height ncolors cpp [x_hot y_hot] */
"48 48 9 1 0 0",
/* colors */
" 	c #3A002C004800",
".	c #0E000B001300",
"X	c #EF00E100D700",
"o	c #F400AA004900",
"O	c #F00060000C00",
"+	c #C90031001C00",
"@	c #06002800B300",
"#	c #7300B900B700",
"$	s none	m none	c none",
/* pixels */
"                                                ",
" ...... ...................................... X",
" .oXO+.@@@@@@@@@@@@@@@@@@@@@@@@@@@@@@@@@@@@@@@@X",
" .oXX+ @@@@@@@@@@@@@@@@@@@@@@@@@@@@@@@@@@@@@@@@X",
" .OXX++ @@@@@@@@@@@@@@@@@@@@@@@@@@@@@@@@@@@@@@@X",
" .+OXXO.@@@@@@@@@@@@@@@@@@@@@@@@@@@@@@@@@@@@@@@X",
" .+OoX+..@@@@@@@@@@@@@@@@@@@@@@@@@@@@@@@@@@@@@@X",
" .++OXX+ @@@@@@@@@@@@@@@@@@@@@@@@@@@@@@@@@@@@@@X",
" .++OoXo+.@@ @ @ @@@@@@@@@@@@@@@@@@@@@@@@@@@@@@X",
" .+++OXX+.. @@@ @@@@ @@@@@@@@@ @ @@@@@@@@@@@@@@X",
" .++++oXo+.@.@.@.@ @@@ @ @@ @@@@@.@ @ @@@@@@@@@X",
" ..++++XX+ . .@. @@  .@ @ @@@ @ @@@@@@@@@@@@@@@X",
" ..+ ++oXO+.       .@@.@ @ @ @@@@@@@@@@@@@@@@@@X",
" ...++++XX+. . .   @.@.@ .@ @@@  @@@@@@@@@@@@@@X",
" ....+++Xo+ ... @..... . @ .@ @@@@@@@@@@@@ @@ @X",
" .... .++Xo . ..... @...  .   @  @ @ @ @@@@ @@@X",
" .. ..+++o   ..... .  .OO+.. @ @ @ @ @ @  @ @.@X",
" ......++ XXX....... .+XXO+. .@.@ @.@ @.@@.@.@@X",
" ...... ##X   ........oXXOO...  . . .@ @@......X",
" ......##  XXX........OXXOO ...................X",
" .....  .#XXXX .......OoXOO.................. .X",
" ....... ###XXX........OXO ............+ ... . X",
" ......   ##XXX .......+XO .......... XX+ .....X",
" .......  ###XXX....... oO...........+XXO..... X",
" .......   #XXXX .......oO...........+XoO......X",
" ........  ###XX#.+..+..Xo+..+ ......+oO.......X",
" .. ++++..  ##XXX ++++++oo+++++++++++XO+++.+ +.X",
" .+++++OO    ##XX#+OOXOXoOoO.+OOOOOOOX+++OO++++X",
" .OOOOOOO+   ##XXX.OOOOoooOooooXXXOoXo+OOOOOOOOX",
" .OOOOOOOO  .###XX#++OOoOooOooooXXoXooX++OOOOOOX",
" .OOOO+Ooo+.  ##XXX.+OOOOOoooooooooXooXXo++OOOOX",
" .O+XO+oX+++.  ##X .. OOooooOooooXooXooXXO.+o+OX",
" .OOoXXX++...+   ..  . OOOOooooooooXoXoXXXXXXo+X",
" .OO+XXX++.+ .....     +OoooooXXooXoXoXXXXXXo OX",
" .OOooXO+.+++.   . .+.  OoOooXX+.XoooXoXXo++++OX",
" .OOooX+. +.+.O.  . . + +OoooXX+.ooXoXXXX++++OOX",
" .OOooX++.+++.. . .+.+O  ooOo+. OoXoXoXXo++++OOX",
" .OOOOooOO.++.. .  ...O..+oooo. oXooXXXO++++++OX",
" .OoO+ooXXo .+.OOO .+.. + OoooooXoXooXoO++++OOOX",
" .OOOoooooo.+OOoXX+ . .+  +ooXO+oXXXoO+++++OOOOX",
" .OOOOOOOOoXXoXooOO  . .   oXO+.+++++++ ++OOOOOX",
" .OOOOOOOOOOooXoOOOoXoXooXXoO+++++++++++OOOOOOoX",
" .OOOOOOOOOOOOooOO+ooXoOO++O+++.+++++O+OOOOOOOOX",
" .O+OOOOOOOOO++OOOO+++++++++.++OO+OOOOOOOOOOoOoX",
" .OO+OOOOOOOOOOOOOOOO+O++++O+O+OOOOOOOOOOoOooOoX",
" .++O+OOOOOOOOOOOOOOOOOOOOO+OOOOOOOOOoOooooooooX",
" .OOOO+O+OOOOOOOOOOOOOOOOOOOOOOOOOOooOooOooooooX",
"XXXXXXXXXXXXXXXXXXXXXXXXXXXXXXXXXXXXXXXXXXXXXXX$"};
