/* XPM */
static char *magick[] = {
/* columns rows colors chars-per-pixel */
"48 48 11 1",
"  c #090908",
". c #3b352b",
"X c #5e646b",
"o c #63608e",
"O c #539360",
"+ c #6f9e86",
"@ c #c06f15",
"# c #9a36a6",
"$ c #aba9af",
"% c #ebedf0",
"& c None",
/* pixels */
"&$$$$$$$$$$$$$$$$$$$$$$$$$$$$$$$$$$$$$$$$$$$$$&&",
"$%%%%%%%%%%%%%%%%%%%%%%%%%%%X.%%%%%%%%%%%%%%%$$&",
"$%%%%%%%%%%%%%%%%%%%%%%%%%$X@@O%%%%%%%%%$%%$%$$&",
"$%%%%%%%%%%%%%%%%%%%%%%%XO@@@@ X%%%$%$%$%$%$%oX&",
"$%%%%%%%%%%%%%%%%%%%%%oX@@@@O  .%%%%%%$%$%$$%o &",
"$%%%%%%%%%%%%%%%%%%%%O@@@@@.    $%%%%$%$%$%$$o.&",
"$%%%%%             X @@@O@@@     .       $%$$+ &",
"$%%%%% XXXXXXXXXX+.  .O. .@@.    XXXXXXXO%$%$o.&",
"$%%%%% XXXXXXXXX@@@@@     .@@     oXXXXXo%$$%X &",
"$%%%%% XXXoXXo.@@. @.     .@@.    XXXX+X+%%$$o &",
"$%%%%% XXXXX. @.           .@@.    X+XXXX%$$$+ &",
"$%%%%% X+oXX @@    ..@.    .@@.  . .XXXX+%$%$o.&",
"$%%%%% XXXX. .@@.@@@@@@.    .O.####.oX+XX%$$$X &",
"$%%%%% +XXX.. @@@@..  @@     .##..##.+XX+%$$$o &",
"$%%%%% XX+X..         @@   .##.   ## XX+X%$$$o &",
"$%%%%% +XXo ..       @@   ##.    ##  .XX+%$$$o.&",
"$%%%%% XX+X... @@@.@@@    .##  ###    o+X%$$$X &",
"$%%%%% +XXX  . .@@@@. .O.  ##.##.     .X+%$$$o &",
"$%%%%% XX+... .     .OO.OO..###        XX%$$$X &",
"$%%%%% X+X.  . .   .O    OO.##         .+%$$oX &",
"$%%%%% X+X. .  .   O.   OOO. ##        .X%$$$X &",
"$%%%%% +oX   .    .O. OOO.   ##        o+%$$$X &",
"$%%%%% X+X.    .  .OOOO..  O. ##      .+X%$$$. &",
"$%%%%% X+X+  .    .OO..   .O  ..      XX+%$$+o &",
"$%%%%% +X+X.      .OO.    OO.         X+X%$o$X &",
"$%%%%% X+X+X       .OOO..OO.         .X++%+$+X &",
"$%%%%% +X+X+        .OOOOO.  .       X+X+%$+$. &",
"$%%%%% X++X+o         .... .         XX++%+$+o &",
"$%%%%% +X++X+       .   . . . .     .+++X%$++X &",
"$%%%%% O+X++X+        .. . . .      ++X++%++Oo &",
"$%%%%$ +++X++X.     ... .. .  .   X+X++++%$o$. &",
"$%%$%% +XO+X+O+      . .. . .   +++O++X++%+ooo &",
"$%%%%%$%%%%%%%%.    .... .. . X%%%%%%%%%%%$ooX &",
"$%$%%$%$%%%$%%$$    .. .. . X$$$$$+$+$XoXoo$oo &",
"$%%%$%%$%$$%$$%+.   .... .X$$+$$$$$+$+oOO$+Xo. &",
"$%$%%%$%$%%$%$$$$  ... .X$+$$$$$+++$++O$$$oooo &",
"$%$oooo+oooXoX+oo. .. XXXXXXX.o.oXo.o.o.OXoX.. &",
"$o                  X                          &",
"&&&&&&&&&&$%X.X...X$$+oXX... .  .....&&&&&&&&&&&",
"&&&&&&&&&$%$XXXoXXXoo+oXo.... ...oXoo &&&&&&&&&&",
"&&&&&&&&$%%+oo$XoooXXX......o.ooooo++X &&&&&&&&&",
"&&&&&&&$%%$$$$$$$$$$$$$$$$$$o$$$$$$$$$X &&&&&&&&",
"&&&&&&$%%%%%%%%%%%%%%%%%%%%%%%%%%%%%%%%o.&&&&&&&",
"&&&&&&$%$$$$$$$$$$$$$$$$$$$$$$$$$$$$$$$$ &&&&&&&",
"&&&&&&$%$$$$$$$$$$$$$$$$$$$$$$$$$$$$$$$$ &&&&&&&",
"&&&&&&&X                                &&&&&&&&",
"&&&&&&&&&&&&&&&&&&&&&&&&&&&&&&&&&&&&&&&&&&&&&&&&",
"&&&&&&&&&&&&&&&&&&&&&&&&&&&&&&&&&&&&&&&&&&&&&&&&"
};
