/* XPM */
static char *magick[] = {
/* columns rows colors chars-per-pixel */
"56 56 10 1",
"  c Gray2",
". c #272626",
"X c #303058",
"o c #4632dd",
"O c #6e5fe2",
"+ c #433ba8",
"@ c #905fc5",
"# c #9d94ed",
"$ c #e0dbf2",
"% c #91893d",
/* pixels */
"++++++++++++++++++++++++++++++++++++++++++++@+@+@@@@+@@@",
"XooooooooooooooooOoOO##OOOOOOOoOOoOOOOO########$####$##@",
"+ooooooooooooOOOOOOO#$#OOO$#OOOOOOOOO##O#########$####$+",
"+oooooooooooOoOOOOOO$$OOO#$#OOOOOOO#OOO##O#####$###$#$#@",
"+oooooooooooOOOoOOOO#$OOOO$$OOOOOOOOO#O#O########$##$#$+",
"+oooooooooooO$$#OOO#$$#OO$$$OOO#$##O#$$$###@%%%%%%%####@",
"+ooooooooooO#$#$OOO#$$$OO#$$OO#$$$OO#$$$#O@%%@@@@%%%#$##",
"+ooooooooooO$#O$OOOO$$OOO#$#OO$$O$#O#$#O#@%%@#@##@%%@$#@",
"+ooooooooooo##O$OOoO#$OoOO$#OO#$O$###$####@%%@$####@#$#@",
"+oooooooooOoO#$$OOOO#$OOo#$#OO$$#$#O#$$O@@@%%%@%@@$#$#$@",
"+ooooooooooo#$$$#oOo$$oOoO$#OO#$$$#O#$####@@@%%%%%%@###@",
"+ooooooooooO$#O$OoOO#$OoO#$#Oo$$OOOO#$#O#@##@@@@@%%%@#$@",
"+ooooooooooO$#O$OOoo#$oOoO$#OO#$O$OO#$$O#O%@@###@#@%%#$@",
"+ooooooooOoO$OO$OoOO#$ooOO$#oO#$#$#O#$#O@@%%@####@@%%$#@",
"+ooooooooooo$$#$OOoo$$oOoO$#OO#$#$#O#$$O#@@%%%@@@%%%@@$@",
"+oooooooooooO$$$Oooo##OooO$#OoO#$#OOO$#OO@@@%%%%%%%@$##@",
"+ooooooooooOooooOooOoOoOOoOoOOO@OO@O@O@@O##@@@@@@@@###$+",
"+oooooooooooX.. .. .  .                 @@@@@@@@@@@@@##@",
"+ooooooooooX                            +@%%%%%%%%%%%$#@",
"+ooooooooOX..                           +#%$%%%%%%$%%##+",
"+oooooooo+.X.                           @@#@#$%%%$#####@",
"+ooooooo+...                            @OOO##%%@######+",
"+oooooooX.X..                           +#O#O#@%%######@",
"+ooooooX.....                           +O#OO#%%%##O###+",
"+ooooo+......                           @OO#O#@%%#O####+",
"+oooo+......                            +#OOO#%%@###O##+",
"+ooo+ .......                           +O#O#O@%%#O##O#+",
"+oooX.......                            +OOOO#%%%#O#O##+",
"+ooX .. .....                           +OOOO#@%##@####+",
"+oo+ . .....                            +OOOOO@#@#O#OO#+",
"+ooX . . . .                            +#OO@%%%%X##O##+",
"+ooX. . . ..                            +OO+%%++%%%@O##+",
"+ooX  .  . .                            +O@%%O##OO%%#O#+",
"+ooX .  . ..                            +O%%OOOOO#+%+##+",
"+ooX  .    .                            @+%%+%+%+%%%%O#+",
"+ooX     . .                            +%%%%%%%%%%%+##+",
"+ooX      . .                           ++%%OOOO#O#####+",
"+ooX   .   .                           .O+%%O#O#O##+O##+",
"+ooX       .                            +#%%OOO#OO%%+##+",
"+ooX       .                           .+OO%%%OOO%%%###+",
"+ooX        .                           X#OO%%%%%%%####O",
"+ooX   .   .                            +#O#O#+%%O#####+",
"+oo.        .                           +O+O++#+OO+O###+",
"+ooX       .                            X@@@@@+@@+@@O##+",
"+ooX   .    .                           @O@@@@####@@@##+",
"+ooX       ........... .. . .          XO@@+###@##@+@##+",
"+ooX     ..........  ..  .            +#O@@@@+@@+@@@@@#+",
"+ooX     ......... ... .  .          @#O#@@@@@@@@@@@@##+",
"+oo.    ........ .. . ..            @OO#O@@@@@@@@@@@###+",
"+ooX   ............... . . .       +#O#@#@@@@@@@@######+",
"+oo.  ..X........... . .. .      .O#O#O##@@@@##########@",
"+ooX .X...X....... . . .        .OOOOO###@@@#@#####@###+",
"+oo. X..X............. . . .   .O#O#O#O#O#@@@###O######+",
"+ooX...X.......... .. .  .    XOOO#OO###@@@@###O####O##+",
"+ooo+@+@+@++@++++X@+@O@@@+@@+@O#OOO#OO#O##@@@##@##O####+",
"X++++X+X+X++X++X+++++++++++++++++++++++++++@o++O++O++@++"
};
