/* XPM */
static char *magick[] = {
/* columns rows colors chars-per-pixel */
"48 48 10 1",
"   c #353535",
".  c #545356",
"X  c #4a4b3c",
"o  c #5b63d1",
"O  c #c64949",
"+  c #ab75cc",
"@  c #dddf48",
"#  c gray74",
"$  c #848af4",
"%  c #4dc05f",
/* pixels */
"################################################",
"############################. ##################",
"##########################.X.O #################",
"########################.XXOO   ################",
"######################  OOO      ###############",
"###################.   XOOOO   OX ##############",
"#################.     XOOOOOOO    #############",
"###############.        OOOOOO      ############",
"#############           OOOOOOO      ###########",
"###########             O OOOOOO      ##########",
"########.   X@@XX          OOOOOO      #########",
"######.    @@@@@@@@X        OOOOO      X########",
"####X      @@@@@@@@@@@XX     OOX      .+.#######",
"##        X@@@  O@@@@@@@@OX          ++o  ######",
"#          @@@%   X@@@@@@@@       ++++.    #####",
"#         X@@@O  @@@XX@@X         ++++.     ####",
"#          @@@@@@%X               .++++.     ###",
"#          @@@@X           X%%%X   .++++      ##",
"#X         @@@@X         %%%%%%%%   .++++.     #",
"# X        @@@@        X%%   %%%%X   .++++      ",
"#X         @@X.oo      %%%  X%%% X%   .++.      ",
"#X X         .oooo.o   %%%%%%%  %%%X            ",
"#X X          .ooooo    %%%%    X%%X            ",
"# X X X       oooooo    %%%%%X %%%%             ",
"#.   X        o ooooo    %%%%%%%%               ",
"#  . X X X       ooooo.    X%%%                 ",
"#.    .  X X  ... oo$oo. X                      ",
"#.  .X  X X   .....o$$$$.XX                     ",
"# X    .   . X ..#.%.$$o..XXX                   ",
"#.   .   .  X   ..#.#o.%.%.                     ",
"##. X  .   .  . XX#.#.#...                      ",
"###. .   X  X      #.#..                        ",
"####.  X .   . X    ..                          ",
"#####.    . X   . XXX                           ",
"######. .   . X   X                             ",
"#######.  .     . X                             ",
"########.   . .   X                           X#",
"#########.X    X  .  X                      .###",
"##########. .  .                          .#####",
"###########.  X  X .                    +#######",
"############.  .  X                  X##########",
"#############.   . X               .############",
"##############.X   .             .##############",
"###############. .            ..################",
"################.  X        X###################",
"#################..       .#####################",
"##################.     .#######################",
"###################. X.#########################"
};
