/* XPM */
static char *magick[] = {
/* columns rows colors chars-per-pixel */
"48 48 11 1",
"  c #050504",
". c #504a3f",
"X c #6c0284",
"o c #26a52a",
"O c #b3381e",
"+ c #a01fa4",
"@ c #d1c40e",
"# c #a6a5af",
"$ c #bfbec4",
"% c #eaeaec",
"& c None",
/* pixels */
"&&&&&&&&&&&&&&&&##&&&&&&&&&&&&&&&&&&&&&&&&&&&&&&",
"&&&&&&&&&&&&&&&$%%&&&&&&%#&&&&&&&&&&&&&&&&&&&&&&",
"&&&&&&&&&&&&&&&$%&&&&&&&%#&&&&&&&&&&&&&&&&&&&&&&",
"&&&&&&&&&&&&&&&$%&&&&&&&%#&&&&&&&&&&&&&&&&&&&&&&",
"&&&&&&&&&&&&&&&$%&&&&&&&%$&&&&&&##&&&&&&###$&&&&",
"&&&&$%%$&&&&&&%%%%&&&&&%%%#&&&&$%%$&&&&&$%%$&&&&",
"&&&&%%$%&&&&&&#%%$&&&&&#%$&&&&&%$$%&&&&&$%&&&&&&",
"&&&&%$$%#&&&&&&$%&&&&&&&%#&&&&&%##%&&&&&$%&&&&&&",
"&&&&$##%$&&&&&&$%&&&&&&&%$&&&&&%$#%&&&&&$%&&&&&&",
"&&&&&$%%#&&&&&&$%&&&&&&&%#&..&&%$%%&&&&&$%&&&&&&",
"&&&&$%$%$&&&&&&$%&&&&&&&%#.@@.&%%%%&&&&&$%&&&&&&",
"&&&&%$#%#&&&&&&$%&&&&&&..@@@O #%#&&&&&&&$%&&&&&&",
"&&&#%##%$&&&&&&$%&&&&..@@@@    %##%&&&&&$$&&&&&&",
"&&&$%##%#&&&&&&$%&&&.@@@@@     ###%&&&&&$%&&&&&&",
"&&&#%$#%$&&&&&&$%&. .@@..@@     ##%&&&&&$%&&&&&&",
"&&&&%%%%#&&&&&&##.  ..   @@.    .%#&&&&&$%&&&&&&",
"&&&&&$###&&&&&.OOOOO      @@     #&&&&&&##&&&&&&",
"&&&&&&&&&&&&..OOO OO      @@.    .&&&&&&&&&&&&&&",
"&&&&&&&&&&&. OO            @@     #&&&&&&&&&&&&&",
"&&&&&&&&&&. OO     OOO     @@.  X .&&&&&&&&&&&&&",
"&&&&&&&&&&. .OOOOOOOOOO     ..++++ &&&&&&&&&&&&&",
"&&&&&&&&&&.. OOOOO   OO     X+X. +X.&&&&&&&&&&&&",
"&&&&&&&&&& .         OO   X++.   ++ &&&&&&&&&&&&",
"&&&&&&&&&& ..       OO   ++.    ++  .&&&&&&&&&&&",
"&&&&&&&&&.. . OOO.OOO    X+X  X++    &&&&&&&&&&&",
"&&&&&&&&&.. . .OOOO. .oo  ++X++X     .&&&&&&&&&&",
"&&&&&&&&&. . .     .oo ooo ++X        .&&&&&&&&&",
"&&&&&&&&&. .  .   oo    oo.++         .&&&&&&&&&",
"&&&&&&&&&   .     oo   ooo  +X        ..&&&&&&&&",
"&&&&&&&&# .  . . .o  ooo    ++        #&&&&&&&&&",
"&&&&&&&&&.        oooo    oo ++      .&&&&&&&&&&",
"&&&&&&&&&.  .  . .ooo    oo  XX      .&&&&&&&&&&",
"&&&&&&&&&&.       oo     oo          #&&&&&&&&&&",
"&&&&&&&&&&.        ooo ooo          .&&&&&&&&&&&",
"&&&&&&&&&&&.     .  ooooo . .  .    .&&&&&&&&&&&",
"&&&&&&&&&&&+             .   .     ..&&&&&&&&&&&",
"&&&&&&&&&&&&.      .  . .  .       .&&&&&&&&&&&&",
"&&&&&&&&&&&&#        . .  .  . .   &&&&&&&&&&&&&",
"&&&&&&&&&&&&&.     .. . ..  .    .&&&&&&&&&&&&&&",
"&&&&&&&&&&&&&&  .   . . .  .   &&&&&&&&&&&&&&&&&",
"&&&&&&&&&&&&&&.    . . . . . .&&&&&&&&&&&&&&&&&&",
"&&&&&&&&&&&&&&&    .. . . ..&&&&&&&&&&&&&&&&&&&&",
"&&&&&&&&&&&&&&#.   . .. ..&&&&&&&&&&&&&&&&&&&&&&",
"&&&&&&&&&&&&&&&&   .. ..&&&&&&&&&&&&&&&&&&&&&&&&",
"&&&&&&&&&&&&&&&&. .. .&&&&&&&&&&&&&&&&&&&&&&&&&&",
"&&&&&&&&&&&&&&&&& ..&&&&&&&&&&&&&&&&&&&&&&&&&&&&",
"&&&&&&&&&&&&&&&&&.&&&&&&&&&&&&&&&&&&&&&&&&&&&&&&",
"&&&&&&&&&&&&&&&&&&&&&&&&&&&&&&&&&&&&&&&&&&&&&&&&"
};
