/* XPM */
static char *magick[] = {
/* columns rows colors chars-per-pixel */
"56 56 10 1",
"  c #53546d",
". c #393964",
"X c #6068db",
"o c #4b50a5",
"O c #778fcc",
"+ c #af6676",
"@ c #959cea",
"# c #e2e2f8",
"$ c #a5a5b1",
"% c #998198",
/* pixels */
".oo.oo.oooo.ooo.ooooXOoOoOoOoooooooooooooooooooooooooo.X",
"ooooooooXooXooXoXXXOX$@@@@@@OXXXoXXoXXXOXXXXXoXXoXooXoXX",
"oooooooooXXoXoXXXX@@@@@@@@@@@XXXXXXXX@X@@@##XXXXXXXXXoXX",
"oooooooXoXooXXXXXX@@@@@#@@@@@XXXXXXX@X@@###@XXXXXXoXXoX@",
"ooXooooooooXXXXX@@@@@@@@@@@O@XXXXXX@@@X@@##XXXXXXXXXooXX",
"oXXooooooooooXXXX@@@@@@@@@@@@XXXXX@X@@@@@##@XXXXoXooooXX",
"oXXXoooooooXXXX@@@@@@@@@@X@O@X@XX@X@@X@@@@##@XXXXXoooooX",
"ooXXXoXoooXXXXXXX@@@@@@@O@X@@XO@#@@XO@@@@@##@@XXXXooooXX",
"oXXXXXXoooXXXX@@@@X@@@@O@X@@X@@####OX@@@@O@##@XXXXXooooX",
"oXXXoXXoXXXXXXX@OXX@##@@X@@X@@@#@@#@@@X%  @##@@XXXXoooXX",
"oXXXXXoXXoXXXX@XX@@X@##@@@X@@X@##@##@X %$+ O##OXXXXooooX",
"oXXXXXoXXXXXXXXX@X@@O##@@@@X@@O##@@#$+$+$+.X##@XXXXoooXX",
"oXXXXXXXXXXXX@OXX@X@X@###@@@XX@X####$$++  . O##XXXXXXoXX",
"ooXXXXoXXXX@##XXOX@X@###@@@X@X@@$##$++   ...o##@XXXXoXX@",
"ooXoXXXXXXX@#@XXXX@@X@@##@O@@Oo +#$++$+  ....O@XXXXXXXXX",
"ooXXXXXXXXXX##@X@XXX@@@##@@Oo  +$$# +#$  ....oXXXXXXXXX@",
"oooXXXXX@X@X@#@@XX@X@X@@##O  .. + #$ $#+  ... OXXXXXXXXX",
"ooXXXXXXX@XX@###XXXXX@X@$#+++++.. +#%$$+ . ...o@XXXXXXX@",
"ooXoXXXX@XX@###@XXXXX@X +##++++...  ##+++ . ...OX@XXXXXX",
"ooXXXXXXXOXXX@##XXXXX  +++# ......    +++  .. .o@X@XXXX@",
"oXXXXXXXXX@XOX@#@XXo..++..#$ .. . .    +++  ....O@@@XXX@",
"oXXXXXXXOXX@XXX##XX..++...%# ++++.  .. +++      o@XO@X@@",
"ooX##@X@XXXXXXX@#@o.. ++  +##+++++ . .  ++ %%@@+.@@@@X@@",
"oX####@XXXXXXXXX##o   ++++++$   ++    .  %%@+.+@oo@@@X@@",
"oX#O@#@XXXXXXXXoX#%o .  + ...   ++   .  %%%  o.+X.%@@@X@",
".X##X##@XXXXXXXXX##   .... . ..+++    %$%    .+X+.o@@@@@",
"oo@#X@##XXXXXXoXX@#%o ..  .  . ++    +@+.    +X+o..O@X@@",
"oXXX@###XXXXXXXXXX##  .+++  ++++     X+X  .X+@X+  . X@O@",
"ooXX@#@##XXXXXXXXo %.o  +++++++       +@+o+@++o.. ..%XX@",
"ooXX##X##XXXXXXXXo .   .  ++    $ $$ +X+@+X+o.     ..@@@",
"ooXo@#XX##XXXX@XXo .    .  .  $     $% +@+o .    .. .oX@",
"ooXX@#OX##@X@XXXOo..  o  .   $       $%X++..+.    ...o@@",
"oooXX##@@##XXX@XX.  o                   %@+ .   ..  .OX@",
"ooXXXO###@@XXXXXX...      . $       $   +@+        . O@@",
"ooooXXX@@XXXXXXXX . .                 $  +@+  +    .%@X@",
"oXXXXXXXXXXXXXXXXo...       $  $       % o+X+     ..X@@@",
"ooXoXXXXXXXoXXXXXX . .   %   $        $   +X+   ..  @@@@",
"oXXXXXXXXXXXoXXXXXo..                 $  o+       .%@@@#",
"oXXXXXXXXXXXXXXXXXXo. .    %  $     $   %      . ..O@@@#",
"oXXXXXXXXXXXXXoXXXOo.. .          $   $ % %     .. @@@@#",
"oXX@XXXXoXXXXXXXXX@@ ..             $ % %       . %@@@##",
"oX@XXXXXXXXXXXXXXXXOO.. .           % % % %   . . @@@@@#",
"oXX@XXXXXXXXXXXXXX@X@.           $ $  % %  %    . @@@@##",
"oX@@XXXXXooXXXXXX@XO@o. .      $  %  %% % %    . @@@@@@#",
"XO@XXXXXoXXXXXXX@XX@@@ .         $ % % %       %@@@@@@@#",
"o@@@XXXXXXXXXXXXXX@@@@O.      $ $   %  % % % %@@@@@@#@@#",
"O@@O@XXXXXXXXXX@X@O@@@@ .        $ $ %  %  $#@@@@@@@@@@#",
"o@@X@XXXXXXXX@X@X@@@@@@O.     $ $  % % % $#$#@#@@@@@@#@#",
"OO@@X@XXX@@X@X@X@@@O@@@O .     % $ %   $$#$@#@@@@@@@@@@#",
"o@@@XX@X@XXX@X@@@@X@O@@OO.    $   %  $$#$#@#@@@@@@@@@#@#",
"X$X@X@X@X@@XX@@X@@@X@@OXO .  % $ $ %$$#$#@#@@#@@@#@@@@##",
"oX@X@X@@@XXX@X@@X@X@@X@OOO    $  %$#$####@@@@@@#@@@@@@@#",
"o@X@X@X@@@X@X@X@@X@XXXXX@O . % $$$#$##@@@#@@@@@@@@@@@@@#",
"oXXOXXOX@X@XOX@@X@X@X@X@XOO   $$$##@#@@#@@@@@@@@@@@@@#@#",
"oX@X@X@X@@@@X@@X@X@XXXXX@@@O$#@##@#@@#@#@@@@OO@@@@@@@@##",
"X@@@@@@@@#@@#@@@@@@@@@@@@@#@###########@##@#@@@@@@######"
};
