/* XPM */
static char *magick[] = {
/* columns rows colors chars-per-pixel */
"51 52 11 1",
"  c #090909",
". c #383d2d",
"X c #403840",
"o c Gray34",
"O c #0707d3",
"+ c #01bf01",
"@ c #b50a09",
"# c #887188",
"$ c #c6c905",
"% c #c7bcc5",
"& c None",
/* pixels */
"&&&&&&&&&&&&&&&&&&&&&&&&&&&&&&&&&&&&&&&&&&&&&&&&&&&",
"&&&&&&&&&&&&&&&&&&&&&&&&&&&&&&&&&&&&&&&&&&&&&&&&&&&",
"&&&&&&&&&&&&&&&&&&&&&&&&&%%%#%&&&&&&&&&&&&&&&&&&&&&",
"&&&&&&&&&&&&&&&&&&&&&&%%#@@@..#&&&&&&&&&&&&&&&&&&&&",
"&&&&&&&&&&&&&&&&&&&&&&&#@@@@ o.o%&&&&&&&&&&&&&&&&&&",
"&&&&&&&&&&&&&&&&&&&&&%#@@. @XXXX.o%&&&&&&&&&&&&&&&&",
"&&&&&&&&&&&&&&&&&&&%#..@@@@@@XXXXXX#&&&&&&&&&&&&&&&",
"&&&&&&&&&&&&&&&&&&%.X.. @@@@@.X.XoXX.%&&&&&&&&&&&&&",
"&&&&&&&&&&&&&&&&#X.XX...@@@@@@.XXXXoX.o%&&&&&&&&&&&",
"&&&&&&&&&&&%%%#.XXXXXX.@@@@@@@@.....oXo#&&&&&&&&&&&",
"&&&&&&&&&&&&$$$$...XXXXXXXX@@@@@@@@@.oX%&&&&&&&&&&&",
"&&&&&&&&&&%Xo$$$$$$o .XXXXXX.@@@@@@XXoo%&&&&&&&&&&&",
"&&&&&&&&%o.. $o.$$$$$$$....X. @@@@oooXo&&&&&&&&&&&&",
"&&&&&&%o.XX. $$....$$$$$$$$.o$@@oooXoX#&&&&&&&&&&&&",
"&&&&%#.XXXXX .$...o$$$.$$$$$$$@XoooXo.%&&&&&&&&&&&&",
"&&&#.XXoXXX...$..$$$$..$.$$$$ooooXooXX%&&&&&&&&&&&&",
"&&.XoXXX.XXX. $$$$$$oo..$$$$ooooooXoooo#&&&&&&&&&&&",
"&&X.XXoXooXX...$$$ooooo $$oooooXoXXXo.##o%&&&&&&&&&",
"&&#...oo.Xoo . $$o.o..oooooooXoXoooX.o%%oX#&&&&&&&&",
"&&%  .XXXXXo...$$..$oooooooooo.oooXo%###oooo%&&&&&&",
"&&& . Xo.oXX.  o$$$$XooXoooXoooXo..%%%%oooooo#&&&&&",
"&&&o . .ooXoXX $$$$oXoooooooXXooo.X##%%#ooooooo%&&&",
"&&&#. X .o.o.. $$$$ooooooooXooX.++oo#%%%%#Xooooo#%&",
"&&&% X . .oX...$$oooooooXoooo.++++++#%#%%%#XXooo#o%",
"&&&&. X . .ooXo$oooooooooooX.+++++++.###%%%%%ooooo%",
"&&&&o  X X XoXooooooooooooo. ++ ++++oo.#%#%%#oooo.&",
"&&&&#X .  X XooooooooXooooX..+.++++#o.+o##%##ooX.#&",
"&&&&% X X . .ooooooXOXooXo...+++++ooo.++X###ooo.X%&",
"&&&&&. X X X oooooo.XOXXOOo..++++o#oo+++o#X#oXX #&&",
"&&&&&X. X  . oooooX OOOOOoo..+++++++++++oo#oXX X%&&",
"&&&&&%X  X X oXooo..OOOOOo#oo.+++++++++#o#oX ..#%&&",
"&&&&&&%X X . ooooo. OOOOOOoooX.+.++++.+oooX.X.o&&&&",
"&&&&&&&%  X X.XooX..OXOOOOO#ooo.++.++.#o#X X #&&&&&",
"&&&&&&&&#X X XooooX.O X OOOOoooOoooooo#o .X %&&&&&&",
"&&&&&&&&&# . X.oooooooXXOOOOOo.Oooooooo.XX %&&&&&&&",
"&&&&&&&&&&# X  .#o#oooX.X OOOOOO#o#o#o.. .#&&&&&&&&",
"&&&&&&&&&&&oX X Xooo#o#oXXOXOOOOo#o#o. . %&&&&&&&&&",
"&&&&&&&&&&&%.X . X.#ooooo. OXOXo#ooo ...%&&&&&&&&&&",
"&&&&&&&&&&&&%X X ..oo#o#oooXXO o#oo... %&&&&&&&&&&&",
"&&&&&&&&&&&&&% . . ooo#oo#oooo#o#.....%&&&&&&&&&&&&",
"&&&&&&&&&&&&&&%. X Xoo#o#oo#oooo.. . %&&&&&&&&&&&&&",
"&&&&&&&&&&&&&&&#X . .oo#o#o###o....X%&&&&&&&&&&&&&&",
"&&&&&&&&&&&&&&&&%  X .oooooo#o.X. X%&&&&&&&&&&&&&&&",
"&&&&&&&&&&&&&&&&&% X  .o#o##o.X .o%&&&&&&&&&&&&&&&&",
"&&&&&&&&&&&&&&&&&&o. X .oo#.....X%&&&&&&&&&&&&&&&&&",
"&&&&&&&&&&&&&&&&&&%XX . .oo.. Xo%&&&&&&&&&&&&&&&&&&",
"&&&&&&&&&&&&&&&&&&&&. . . ....X%&&&&&&&&&&&&&&&&&&&",
"&&&&&&&&&&&&&&&&&&&&% X X ...o%&&&&&&&&&&&&&&&&&&&&",
"&&&&&&&&&&&&&&&&&&&&&%X . X o&&&&&&&&&&&&&&&&&&&&&&",
"&&&&&&&&&&&&&&&&&&&&&&% X .#&&&&&&&&&&&&&&&&&&&&&&&",
"&&&&&&&&&&&&&&&&&&&&&&&% X#&&&&&&&&&&&&&&&&&&&&&&&&",
"&&&&&&&&&&&&&&&&&&&&&&&&%#&&&&&&&&&&&&&&&&&&&&&&&&&"
};
