/* XPM */
static char *magick[] = {
/* columns rows colors chars-per-pixel */
"64 64 10 1",
"  c #0e0f11",
". c #1b1e21",
"X c #1e2024",
"o c #2b2f34",
"O c #373c42",
"+ c #3d4349",
"@ c #474e55",
"# c #535c63",
"$ c #59636a",
"% c #98a6ab",
/* pixels */
"%%%%%%%%%%%%%%%%%%%%%%%%%%%%%%%%%%%%%%%%%%%%%%%%%%%%%%%%%%%%%%%%",
"%$$$$$$$$$$$############@@@@@@@@@@@@@@@@@@@@+++++++++OOOOOOOOoo ",
"%$$$$$$$$$$############@@@@@@@@@@@@@@@@@@@@+++++++++OOOOOOOOoo  ",
"%$$$$$$$$$############@@@@@@@@@@@@@@@@@@@@+++++++++OOOOOOOOooo  ",
"%$$$$$$$$############@@@@@@@@@@@@@@@@@@@@+++++++++OOOOOOOOoooo  ",
"%$$$$$$$############@@@@@@@@@@@@@@@@@@@@+++++++++OOOOOOOOooooo  ",
"%$$$$$$############@@@@@@@@@@@@@@@@@@@@+++++++++OOOOOOOOoooooo  ",
"%$$$$$############@@@@@@@@@@@@@@@@@@@@+++++++++OOOOOOOOooooooo  ",
"%$$$$############@@@@@@@@@@@@@@@@@@@@+++++++++OOOOOOOooooooooo  ",
"%$$$############@@@@@@@@@@@@@@@@@@@@+++++++++OOOOOOOoooooooooo  ",
"%$$############@@@@@@@@@@@@@@@@@@@@+++++++++OOOOOOOooooooooooo  ",
"%$############@@@@@@@@@@@@@@@@@@@@+++++++++OOOOOOOoooooooooooo  ",
"%############@@@@@@@@@@@@@@@@@@@@+++++++++OOOOOOOooooooooooooo  ",
"%###########@@@@@@@@@@@@@@@@@@@@+++++++++OOOOOOOoooooooooooooo  ",
"%##########@@@@@@@@@@@@@@@@@@@@+++++++++OOOOOOOooooooooooooooo  ",
"%#########@@@@@@@@@@@@@@@@@@@@+++++++++OOOOOOOoooooooooooooooo  ",
"%########@@@@@@@@@@@@@@@@@@@@+++++++++OOOOOOOooooooooooooooooo  ",
"%#######@@@@@@@@@@@@@@@@@@@@+++++++++OOOOOOOoooooooooooooooooo  ",
"%######@@@@@@@@@@@@@@@@@@@@+++++++++OOOOOOOooooooooooooooooooo  ",
"%#####@@@@@@@@@@@@@@@@@@@@+++++++++OOOOOOOoooooooooooooooooooo  ",
"%####@@@@@@@@@@@@@@@@@@@@+++++++++OOOOOOOooooooooooooooooooooo  ",
"%###@@@@@@@@@@@@@@@@@@@@+++++++++OOOOOOOoooooooooooooooooooooo  ",
"%##@@@@@@@@@@@@@@@@@@@@+++++++++OOOOOOOooooooooooooooooooooooo  ",
"%#@@@@@@@@@@@@@@@@@@@@+++++++++OOOOOOOoooooooooooooooooooooooo  ",
"%@@@@@@@@@@@@@@@@@@@@+++++++++OOOOOOOooooooooooooooooooooooooo  ",
"%@@@@@@@@@@@@@@@@@@@+++++++++OOOOOOOoooooooooooooooooooooooooo  ",
"%@@@@@@@@@@@@@@@@@@+++++++++OOOOOOOooooooooooooooooooooooooooX  ",
"%@@@@@@@@@@@@@@@@@+++++++++OOOOOOOooooooooooooooooooooooooooXX  ",
"%@@@@@@@@@@@@@@@@+++++++++OOOOOOOooooooooooooooooooooooooooXXX  ",
"%@@@@@@@@@@@@@@@+++++++++OOOOOOOooooooooooooooooooooooooooXXXX  ",
"%@@@@@@@@@@@@@@+++++++++OOOOOOOooooooooooooooooooooooooooXXXXX  ",
"%@@@@@@@@@@@@@+++++++++OOOOOOOooooooooooooooooooooooooooXXXXXX  ",
"%@@@@@@@@@@@@++++++++OOOOOOOOoooooooooooooooooooooooooXXXXXXXX  ",
"%@@@@@@@@@@@++++++++OOOOOOOOoooooooooooooooooooooooooXXXXXXXXX  ",
"%@@@@@@@@@@++++++++OOOOOOOOoooooooooooooooooooooooooXXXXXXXXXX  ",
"%@@@@@@@@@++++++++OOOOOOOOoooooooooooooooooooooooooXXXXXXXXXXX  ",
"%@@@@@@@@++++++++OOOOOOOOoooooooooooooooooooooooooXXXXXXXXXXX.  ",
"%@@@@@@@++++++++OOOOOOOOoooooooooooooooooooooooooXXXXXXXXXXX..  ",
"%@@@@@@++++++++OOOOOOOOoooooooooooooooooooooooooXXXXXXXXXXX...  ",
"%@@@@@++++++++OOOOOOOOoooooooooooooooooooooooooXXXXXXXXXXX....  ",
"%@@@+++++++++OOOOOOOOoooooooooooooooooooooooooXXXXXXXXXXX.....  ",
"%@@+++++++++OOOOOOOOoooooooooooooooooooooooooXXXXXXXXXXX......  ",
"%@+++++++++OOOOOOOOoooooooooooooooooooooooooXXXXXXXXXXX.......  ",
"%+++++++++OOOOOOOOoooooooooooooooooooooooooXXXXXXXXXXX........  ",
"%++++++++OOOOOOOOoooooooooooooooooooooooooXXXXXXXXXXX.........  ",
"%+++++++OOOOOOOOoooooooooooooooooooooooooXXXXXXXXXXX..........  ",
"%++++++OOOOOOOOoooooooooooooooooooooooooXXXXXXXXXXX...........  ",
"%+++++OOOOOOOOoooooooooooooooooooooooooXXXXXXXXXXX...........   ",
"%++++OOOOOOOOoooooooooooooooooooooooooXXXXXXXXXXX...........    ",
"%+++OOOOOOOOoooooooooooooooooooooooooXXXXXXXXXXX...........     ",
"%++OOOOOOOOoooooooooooooooooooooooooXXXXXXXXXXX...........      ",
"%+OOOOOOOOoooooooooooooooooooooooooXXXXXXXXXXX...........       ",
"%OOOOOOOOoooooooooooooooooooooooooXXXXXXXXXXX...........        ",
"%OOOOOOOoooooooooooooooooooooooooXXXXXXXXXXX...........         ",
"%OOOOOOoooooooooooooooooooooooooXXXXXXXXXXX...........          ",
"%OOOOOoooooooooooooooooooooooooXXXXXXXXXXX...........           ",
"%OOOOoooooooooooooooooooooooooXXXXXXXXXXX...........            ",
"%OOOoooooooooooooooooooooooooXXXXXXXXXXX...........             ",
"%OOoooooooooooooooooooooooooXXXXXXXXXXX...........              ",
"%OoooooooooooooooooooooooooXXXXXXXXXXX...........               ",
"%oooooooooooooooooooooooooXXXXXXXXXXX...........                ",
"%ooooooooooooooooooooooooXXXXXXXXXXX...........                 ",
"%                                                               ",
"%                                                               "
};
