/* XPM */
static char *magick[] = {
/* columns rows colors chars-per-pixel */
"65 65 10 1",
"   c #054708",
".  c #287739",
"X  c #186828",
"o  c #2e7d44",
"O  c #043c04",
"+  c #38884e",
"@  c #4b9b60",
"#  c #7cc27c",
"$  c #6cbc85",
"%  c #76c48a",
/* pixels */
"$%@%$$%#$$$$$$$$$$$$$$$$$%$%$$$$$$$$$$$$$%$%$$%$$$$$$$$$#%%#$#$%#",
" $%%$$%@$$$$$$$$#$$#$#$#$#$#$$$$$$$$$$$$$$$#$$$#$$$#$$#$#$$$$$$#O",
"O$%$@@@@@@@+@@+@@+@@@@+@@+@@@@@@@@@@@@@@@@@@@@@@@@@@@@@@@@@@@o.O ",
" $$@$@++++++++++++++++++++++++++@@@@@@@@@@@@@@@@@@@@@@@@@@@@+o.O ",
"O$$@@o..XX.X.X.X.X.X......o.+.+o....o.o.+o+o++++++++++++++++o.. O",
" $$@oXX XXXXXXXXXXXXXXXXXXXXXXXX.X........o.oo.o...o.oo++++ooXX  ",
" $#+ooXX X X X XX XXXXXXXXXXXX.XXXXX.X..XX.X.X....+.+.+...o..XX O",
"O$$@oXX X XX XXX XX X X XXXXXXXXXXXXXXXX..X..............ooXoXXO ",
" #$++XX X X XX XXXXXXXXXXXXXXXXXX.X.X..X.X...X....+..+..+.+.oXXO ",
"O##@+XXX XXXXXX XXX XX XXXXXXXXXXXXX.X.X.......o......+.o.+.oXXO ",
" $#++XX X X  XXXX XXXXXXXXXXXXXX.X.XX....X.X.....o.o....o.+..XX O",
" @#@+XXXXX XXXX XXXX XXXXXXXX.XX.X.X...X.......oo..o..+.+o+.oXX  ",
" %$@+XX X XXX XXXXXXXXXXXXXXXXX.XX.X.X...........o.oooooo.+o.XXO ",
" $$@+XXXXX XXXX XXX XXXXXXXXX.XXX.X.X...X.......oo.o.o.+o++..XX  ",
" #$++.XXXXXX XXXXXXXXXXXXXX.XX.X.X........o+.o..o.o.oo+o+o+...XO ",
" $$@+.X X XXXX XX XXXXXXXXXXX.X.X..X....o.o...ooooo..oo++++..XXO ",
" $$++.XXXXX XXXXXXXXXXXXXX.X.XX..........o...+.o.oo++o+++.+o.XXO ",
" $$@o.XXX XXXX XXXXXXXXXX.XX...XX.X......+.o..oooo+o++++++@.+XX  ",
" $$@+. XXXXX XXXXXXXXXXXX....X............o+.+..ooo++o+++o++.XXO ",
" $$++.XXXX XXXXXXXXXXXX.XXXXX.X........+...+..oo.o+oo++++++.oXX  ",
" #$@+.XX XXXXXXXXXXXXXXXX......X.........o+.o+.o++++++++++@o..XO ",
" $$++.XXXX XXXXXXXXXXX.X.X...X......o.o.o..o.o.ooo++++++++++oXX  ",
" #$@+.XXXXXXX XXXXXX.XXX..............o.+.o.+.o+o+++++++@+@.o.XO ",
" #$++.XX XXXXXXXXXXX.X.X.XX.X.X.....o.o.+.oo.o.o++++++++++++.XX  ",
" $$@++XXXXXXXXXXXX.XX.X.......+....+..+...+o+o+++++++++@@o@oo.X O",
" #$@+.XXXXXXXXXX.XX..X.....X.....o...o..o.ooo+o+o++++@+o@o++..X  ",
" #$@++XXXXXXXXXXXX.XX.X.X........o.+..+.+.+o+o+++++++++@++@+..X  ",
" ##@+.XXXXXXXXXX.XX.X..........+..o..+.+.oo+o+o+++++++@+@+++o.X  ",
" $$+++XXXXXXXXXXX..X..X.X.X.....+..o....+o+o+o++++++@++@@o@+o.X O",
" #$@++XXXXXX.X.X.X.X........o....+.+.+++ooo+++o++++@++@o@+@+..X  ",
" #$+++XXXXXXXXX.X.X..X..X.o..o......o.+.++++o+++++++@+@+@o@++.X O",
" #$@++XXXXXX.XXX.X.X.......o.oo.+ooo.+++o++++++++++++@+@@+@++.XO ",
" $#@++XXX.XX............+.....+o.o.oo+++++++++++@++@++@+@+@++.X O",
" @#@++X.XXX..X..X.XX.....+.+oooooooooo++++++@+@++@++@+@+@@@++.X  ",
" %$@@+XX.X..X...........o.ooo+.ooooo+++++++++++@+@++@+@@@+@++.XO ",
" $$@++.XXX.X..X.X.....oo.o.o.ooooo+o+++o@++@+@++@+@+@+@+@+@++.XO ",
" $$@@+.X..X.............+.ooo+.+oo++@o@oo+@o++@++@+@@+@@@+@++.XO ",
" $$@++.X.X.X.........o.oooo.o.++o+o+o++++@o@+++@+@++@@@+@@@++.X  ",
" $$@@+X.....X..X....o.ooo.+.+o+o+++o+o@o@o@o@+@++@@@@+@+@+@++.X O",
" $#@++..X.X............o.+.+.+o+++oo@+o+++o@++++@+@+@@@@@@@++.X  ",
" $#@@+......X....ooooooo..o++o++o+++o+@o@o@o@@@@@+@@+@+@@+@@+..O ",
" $$@+++X..X......ooo.o.+.+o+o+++o++++oo@o@+@o@+@+@@+@@+@@+@+@.XO ",
" $#@@+...XoX....o.o.o.o.+.+++++++++++@+@+@+@+@@@+@+@@@@@@+@@+.. O",
" $$@+++.X.....o..oooo+o+.+++++++++o@+o@o@o@+@++@@@@+@++@@+@+@.X  ",
" %#@@+.X.......oooo.+.+o+o+++++++++++@+@+@+@+@@@++@@@@@@@+@@+..O ",
" $#@+o+.......o.o.+o.o.+.+++.++++++@+++@++@@@+@+@@@++@+@@@@+@oX  ",
" $#@@+.....o.o..oo.+.++++o++++++++@++@+@+@@+@@@@+@+@@@@@@+@@+o.O ",
" $#@@++X....o....+.ooo.+o++++++++++@+@+@@+@@+@+@@@@@@@+@@@@+@oX  ",
" ##@++.o.o.+.oooooooo+++++++++++++@++@+@+@+@+@+@+@++@@@@@@@@+.. O",
" @#@@+..o.o.+.o.o.ooo+oo++++++++@++@++++@+@+@@@+@@@@+@@@@@@@+..  ",
" $$@@+.o..+..o.ooooo+o++++o++++++@++@@@+@@@@@+@@@+@@@@@@@@#@+..  ",
" #%@++.+..o.o...ooo+++++++++++@+@++@++@@+@+@+@@+@@+@@@@@@@@@@..  ",
" #$@@@.oo.o.oooo+o++++o++++@+@++@+@+@@+@@+@@@@+@@@@@@@@@@@@@+..  ",
"O#$@@+.o.+.+.ooo+++++++++++++++@+@+@@+@@+@@+@+@@++@@@@@$@@@@@..  ",
" $$@@+.+o.o.ooo++++o++++@+@+@+@+@+@@+@@+@+@@@@+@@@@@@@@@@@#@@..  ",
" #$@++..o..+.+o+++o++o@+o@o@++@+@+@+@@@@@+@@+@@@+@@@@@@@$@@@@o.  ",
" %$@@@+.oooo++++++++@o@o@+@+@@+@@@@@@+@@@@@@@@@@@@@@@@$@@@@@@..  ",
" $##@+.+.+.+o+++o+o+o+o++@+@o@@+@+@+@@+@@@@+@@@@@@@$@@@@@@@@+.o  ",
"O@%@++o......o.o++o+++@o@o+@+@+@++++++@+++@+@+@+@@@+@@@@$@@@@..  ",
" $%@++.+..........ooo.oooooooooo+++++++++@++++++@+@+@@@++@@+o.XO ",
" ##@+.XXXXXXXXXXXX.X.X.X......oo.X...X...........+++.ooooo+...X  ",
" #@@++ XXXXXXXXXXXX XXXXXXXXXXXXXX.XX.XX.XXX.X...XXXX.......X  O ",
" %  O    OO  O OOOO OOOOOOOOOO    O                   OO O O     ",
" #O   O             OOOO O O   O O                      O     O  ",
"    O  O O  O O O O   O O  O O  O   O O  O          O O  O O     "
};
