/* XPM */
static char *magick[] = {
/* columns rows colors chars-per-pixel */
"64 64 10 1",
"  c #6b6a72",
". c #333436",
"X c #72718b",
"o c #74888a",
"O c #86777a",
"+ c #87749f",
"@ c #898e96",
"# c #9d95aa",
"$ c Gray80",
"% c #93aecc",
/* pixels */
"$$$$$$$$$$$$$$$$$$$$$$$$$$$$$$$$$$$$$$$$$$$$$$$$$$$$$$$$$$$$$$$.",
"$$$$$$$$$$$$$$$$$$$$$$$$$$$$$$$$$$$$$$$$$$$$$$$$$$$$$$$$$$$$$$ .",
"$$###################################@#@#@#@#@#@#@#@@@@@@@+@+o .",
"$$#$#$%#$#$#$#$###$#############@#@#@#@#@#@#@#@@@@@+@@+@o+@@oo .",
"$$####$#########$@##$########@#@#@#@###@#@#@#+#@#+@@@@@@+@+O+@ .",
"$$$#$###$#$#$#$###############@###@#@#@#@#@#@@+@@@@@@@X@@@o+o+..",
"$$###$############$##########@###@#@#@#@#@#X@@#@@@+@+@+@+o+@+o .",
"$$#$###$##$####@$#######%@%#@#@#@#@#@#@#o#@@@@@@+@@@o@+@o+o@o@..",
"$$###$@##$@#$###########@#@####@#@#@#@#@#+#@#@@@@o@@+O+o+O+oOo .",
"$$##$##$######$###########@#@#@#@#@#@#@#@@@@@+@+@@+@@@o+o+o+o+..",
"$$#$@####$###########@#@###@#@#@#@#@#+#+@@+#@o+@@@+O+o+o+oOo+o .",
"$$$@$@$####@$######@%#%#@#@#@#@#@#@#o#@@o#@@@@@@X@o@o+o+o+o+oo..",
"$$#####$############@@#@###@#@#@#o#@#@#@#@@o+@@O+o+@+@+oOoOo+X .",
"$$$##$#@#########@%###@#@#@#@#@#@#@#@@+@+@+@@@o@@@o+o+o+o+oXoX..",
"$$#@####$@########@######@#@#@#@#@#+@@#@@@+@+@+@+o+o+oOo+oOXOo .",
"$$##$@$##@$#####@###@#@#@#@#@#@@o##o#@o#X@@@o@X@o+o+o+o+oXoooX..",
"$$#$@######@#@#@###@#@#@#@#@#@#@#@#o#@@@@@+O+@+oO@+oOoOoOXOXOX .",
"$$#####@$#####%###@#@#@#@#@#@#@#@+@+@+@+@@o@o@o+o+o+o+oXooXXoo..",
"$$######@@#@#@#@#@###@#@#@#@#@#@@@@@@@+@+o+@+o+o+oOXOoOXXXOoXX .",
"$$##$@$###@$@#%#@#@#@#@#@#@@@@@+@@@@+@o@o@o@o+o+o+o+oXoooXo+Xo..",
"$$####@@###@@#@####@#@#@#@#@#@#o#+@@+@@++O+oOo+oOoOoOX+ O@X @  .",
"$$########@###@#@@@#@#@#@#o#@@+@@@@@@@o@@@o+o+o+o+oXoo @oXOXXX..",
"$$#######@###@###@#@#@#@#@#@@@@@+@+X+@+O+o+o+oOXOXOXX+OXX XX@  .",
"$$$#####@###@#@#@#@@@#@@@@@@+@+@o@@@o@o@o+o+oXo+oXooo o@ @XXXX..",
"$$@##@#@###@#@#@#@#@#@#@#@@o#@@@+@+@+O+oOo+oOo+oOXOXO@X + o X  .",
"$$##@$@#%#@#@#@#@#@#@@@#@+@@+@@+@@o+o@o+o+o+o+oXooX@XXXoOXXXXX..",
"$$#@#@@#@@#@#@#@#@#@#@#X@@@@@@+o+@+O+o+o+oOXOXOoXXOX OXXX X X ..",
"$$##@#@#@#@#@#@#@#@@@@@@@@@@X@+@o@o@o+o+oXoooXoXo+oXXoXX XX@ +..",
"$$#####@#@#@#@#@#@#@#@@@@+@@+@@@+O+oOo+o+XOoOXOoO oOX @ X X X  .",
"$$@###@#@#@#@#@#@@@@@@+@@@X@@@o+o+o+o+o+o+oXooXXX@XXXXXXX+XX X..",
"$$#@#@#@#@#@#@#@#@#@@o@@+@+@+O+o+o+o+oOXOXOXX+ @  X+X X X X X ..",
"$$@#@#@#@#@#@#@@@@@+@@@@o@@@o@o@o+o+oXoooXo@XooXXXX  @ @ X @ +..",
"$$#@#@#@#@#@#@#@#@@@@+@@+@+X+@+oOo+o+XOXOoOXOX+ X @ X X XOX O ..",
"$$@#@#@#@#@#@@@@@@@@@@@@+@o+o+o+o+oXo+oX@ + Xo @XXXXX@ XXX XOX..",
"$$#@#@#@#@#@@@#@@o+@+o+@+o+O+oOo+oOXOoOXXoX@XOX X X X X X + X ..",
"$$@#@#@#@#@@@@@+@@@@o@+@o+o@o+o+oXoooXoo +X XX + @ + X + X X X..",
"$$#@#@#@#o#@#@@o@@+@+O+O+@+oOoOoOXOXOX+XOoXOX XOX X X+X OO O  ..",
"$$@#@#o#@@@@@@@@@@o@@@o+o+o+o+oXooXXoo @XXXXXo XX@ X X XoX Xo ..",
"$$#@#@#@@@#@@o++@@+@+o+o+oOo+oOX+ @XX+ XoOX X X X X+X O X     ..",
"$$@#@#@@@@@@+@@@o@X@o+o+o+o+oXoooX@ @ @X XXXOXOXXX X X X X    ..",
"$$#@#@#@#@@@@@+O+@+o+@+oOoOoOXOXOXX @ X X X X X X XOO   O   O ..",
"$$@#@@@@+@@+@@o@@@o+o+o+o+oXooXXo@ @XXX+XoOXXX X+X X XoX      ..",
"$$#@@@+#@o+@+o+@+o+o+oOo+oOX+ @XXXXX OX X X XOX X @           ..",
"$$@+@@@@+@@@o@o@o+o+o+o+oXoooX@ @ @XXXX@ + @ XXX X X X        ..",
"$$#o#+@o+@+O+@+oOo+oOoOoOXOXOX OX @ X X X X X X @     O       ..",
"$$@@@@@@@@o@@@o+o+o+o+oXoXoXoX@XoXXXXX X X X+X X X XO         ..",
"$$@+@@+@+@+o+o+o+oOXOoOXoXOX@ XX+ X XOXXX+X X @               ..",
"$$@@@@X@X@o@o+o+o+o+oXoXo+oXX @ X X@ X + X X X X X         X. ..",
"$$@++@@@+O+oOo+oOoOoOX@ OXoOoOXOX X X XOO O O               X ..",
"$$@@@@o@@@o+o+o+o+oXoXXoo+XXXXXXX@ XXX X XoX X X         X.X. ..",
"$$+@+X+@+o+o+oOXOXOXo+O @ X @ X X X X XXX              .X XX  ..",
"$$X@o@o@o+o+oXo+oooXo o+ oXXXXXXXX X+X X XO O          X X. X...",
"$$@@+O+oOo+oOXOoOX+OOoXOXOXOX X X XO OOOo   o        .X .XX  X..",
"$$o+o@o+o+o+o+oXoXXo +oXoXXXXX X+X XoX X X X         X   XX.X...",
"$$+@+o+o+oOXOX@XX@OXXOXXX X X X X O X O           .X  .X .X X ..",
"$$o@o+o+oXoXoXoXo oXXo + XX@ X @ XXX X           X X.   XX. X...",
"$$+oOo+oOXOoOXO+OX@ X +OX X XXX O OOo   o       .X XX  .X X   ..",
"$$o+o+o+o+oXoXo @ XXXX X + X X XOX X   X        XX.X. XX. X.X...",
"$$+o+oOXOX@XX+ @X XOX X X XXX+  X O           .X  XX  .XXX.XX...",
"$$o+oXooo o+XoXXXXXX @ oXX + X X Xo           XX.X.X.XXX.XX. X..",
"$$+oOX+ @+O O+ OX o X XOX XOO OO            .X  XX  X .XX.X X...",
"$$oXo+oXo OXoOXoXXOXX@ XXX XoX Xo        X.X X.X.X.X.XXX.X .X...",
"$$   .   .  . . . . .. .. ......................................",
"$..............................................................."
};
