/* XPM */
static char *magick[] = {
/* columns rows colors chars-per-pixel */
"65 65 10 1",
"   c #100f30",
".  c #4e4d76",
"X  c #262553",
"o  c #5a5a88",
"O  c #645e8d",
"+  c #6a6897",
"@  c #7876a7",
"#  c #847eb1",
"$  c #8785b6",
"%  c #a2a1d0",
/* pixels */
"%%%%%%%%%%%%%%%%%%%%%%%%%%%%%%%%%%%%%%%%%%%%%%%%%%%%%%%%%%%%%%%%%",
" %%%%%%%%%%%%%%%%%%%%%%%%%%%%%%%%%%%%%%%%%%%%%%%%%%%%%%%%%%%%%%$ ",
" %%%$$$@@#@@@#@@#@$#@#@#@@$@$@$#$$$$$$$$$$$$$$$$$$$%$$%$$$%$@++X ",
"X%%%$#++@@@@+@@@+@+++@+@+@+@+@@@@@@#@@$@@#@#@###@$@@@#@#$@#@@+o  ",
" %%#$+ooo.ooooooooooOOoOOOoO+O++oOoOOOOO++@+@+@+@+@@@@+@++@+oo.  ",
"X%%@Oo.X...X...............o....oooooooOOOooOOOOOooOooO+@+@OO..  ",
" %%@Oo...X...X.X...............o.ooooooooooooooooOOOO+OOoOOoo..  ",
" %%$OoX.X.X.X....X..X................ooooo.oooooooooooOoOO+....  ",
" %%@+.........X........X.........o.oo.oo.ooooooOooOOOOo+Oo+++..  ",
" %%$+...X.X.X....X..............o..o..o.oooooooOoOoOOOOo+O++...  ",
" %%@+...............X............o.oooooo.oo.oOOoOOOo++OoO++...  ",
" %%@@..X.X.X..X...X............o..o.ooooOoOoOoo+OOOoOOO+O+@.+..  ",
" %%@+......................o.o..o.o...o.ooooOoO.+o+Oo+O+O+@+... X",
" %%$@.oX..X...................o.o..o.oooo.OO+.OOOOOoO+O++++++..  ",
" %%@+........X...........o.o.o..o.OoOo.OoOO.+O.+OO+O+O+++++O...  ",
" %%@@o...........X........o...O.oo...oO.+.O+.o+OO+Oo+++++++++..  ",
" %%#O....X.X.............o..o..OooOOOoOOO+OO+OO+oO++o+++@+@O+.. X",
" %%@OO.X....oX.........o..o.ooO.o.oooooo+oOOOo+OO+++@++@++@+O..  ",
" %%$+..............o.o...ooo.o.oOoOooOoOOo+O+O+o+O+o++++++++O..  ",
" %%@+o.....X...........o....O.o.ooooOoOOOoOO+oOOo+++++++@+@++..  ",
" %%$.+...Xo......o...o...oo.O.OooOooOOooOO+O++Oo+++@+@@+@+@+O..  ",
" %%$@..............o..o..oooOoooOoooOoo+o+o+o+O+++++++++@+@++o.  ",
" %%@+O..............o..ooo.O.O.OoOooOOOO+Oo+o+o+++@+@+@+@+@+o.. X",
" %%$.O...X.......o.o.o.o...O.OooOoOOOo+oo++o+o+++++@+++@@@@++o.  ",
" %%$@O........o......oo.OOoOo.OOoOoOOoOOoO++++++++++@@@+@+@+O..  ",
" %%$+O...........o.oo.o.O.O..OOOooOo+oO+O+OO+O+++@+@+@+@@+@++..X ",
" %%$.+.........o..o..O.OoO.+O.+oOOOOO+oOo++++++++++@@+@@@+@++..  ",
" %%$$+....o.o...o..o..oO..O.+.+.+Oo+oOO++O++++++@+@+@+@@@@@@+oo  ",
" %%$.+.......o...o.ooO.OOO.++O.+++oOo++o+++++++++@+@@@@+@+@++..  ",
" %%$$+....o.o..o.oo...O.o.+.+.+OO+oO+OO+O+++++++@+@+@+@@@@@@+.o  ",
" %%$.+..o.....oo..oOOOO.+.+.++OOOo+Oo++++++++++@++@@@@@@@@@@+o. X",
" %%$$+o...o.o..oO.o.O.O.+.++.+OoO+o+O++++++@++@+@++@+@@@@+@@+.o  ",
" %%$+.O.o.o.oooo.Oo.OOO+++.+OO++O+OO++++@+@+@@@+@@@@@@@@@@$++O.  ",
" %%$@+o....oooooooOoooooOO+OO+o+OO++++@@+@+@@+@@@++@+@@@@@@@@.o  ",
" %%$@.O.oooo.o.Oooooooo+oO++O+Oo+O++++@+@+@+@@+@+@@@@@@@#@#@+..X ",
"X%%$@+oo.o.ooooooooooOo+o+oo+O++++++@@++@+@@+@@@@@@@@@@@@@#@+O.  ",
" %%$@Ooo.oooooooooooOoOo+Oo+o+o+++@@+@+@+@+@@+@+@@@@@@@@@@#+@..X ",
" %%$@+.oooo.oooooooOoOo+O++oO+++@+++++@++@+@+@@@@@@@@$@@$@$@+O.  ",
"X%%$@+ooo.ooooooooOoOOOo++o+++++++@+@++@@+#+@+#+@@@@@@@#@@#+@..X ",
" %%$#Oooooooooooooooo+o+OoOO+++++@++++@++@+@+@@@@@#@#@$@#@$@++.  ",
" %%$#+Ooo.oooooooO+O+o+Oo+++++O+++@++@@@+@@@@@@@@@@@#@@@$@$@+..X ",
"X%%$@+oooooooooOOOO+o+o++O++++++@++@+++@+@@+@+#@@#@@@@$@@@@$@+.  ",
" %%$#+Ooooo.ooooOo+OOo+O++++++@++@++@@@@@@@@@#@@@@@@#@@@$@@@+..X ",
" %%$@+oooooOooOOo+O+O++o++++@++@+@+@+++@+@+@@@@#@@#@@@$@$@$@$+.  ",
"X%%$#+OooooooOOOOO+o+o++++++++++++@+@@@@@@@@@@@@@#@@$@@@#@$@+..X ",
" %%$@+oooooooOOo+o++o+++o++@+@+@+@+@@+@@@@@@@@@#@@#@@@$@#@@@$+.  ",
" %%$@+OOoooOOooO+O+oO+++++++++++@@+@+@@@+@@@@@@@@@@@$@@#$@$$.+.X ",
"X%%$#+ooooOOoOOoOo++O+++++@++@+@+@+@@+@@@@@@@#@@@$@#@##@$+$$$..  ",
" %%$@+OOoOOOO+OO++o+O+++@+++@++@@+@@+@@@@@@@#@#@#@@@@##$$$$@++.X ",
" %%$$+OOoOo+OOOOoO+O+++++++@+@+@+@+@@+@@@@$@@@@@@@@#@#@$$$$$@+.  ",
" %%$@+OOOOOOoOo+o+O+++@+@+@+@+@@@@@@@@@@@@@@#@$@$@@#@$$#$$$@+.+  ",
" %%$@+OOOOOOo+Oo+++++@++++@+@@@+@@+@@@@@@@@@@@@@@@#@$###$$$$$+.X ",
" %%$$++oOO+o+oOO++++@++@+@+@+@@+@@@@@@#@@@$@###@$@#$##$#$$$$+.+  ",
"X%%$@@oO+Oo+oO++++@+++++@+@+@@@@@@@@#@@@#@#@@@@#@@@#$$$$$$$$$+.  ",
" %%$@+O+Oo+o++o++@++@+@@+@@@@+@@@@@@@$@#@@#@##@@##$$$#$$#$$$+.@  ",
" %%$@@Oo+oOO+O+++++++@+@@@++@@@@@@@$@@@##@#@#@##@#@#$$$$$$$$@@.  ",
" %%%$++oO++O++@+@+@@+@@+@@@@@@@@@@@@@$@#@@#@##$#$$$$$$$$$$$$@.+  ",
"X%%$@+++ooOOO+++++++@++@@@@#@@#@@@#@@@@@$@##@#@@$#$$$$$$$@$$@+OX ",
" %%$$@OoOO+o+O++++++++@++++@@@@@@@@@@@@@@@#@@@#@##@###$@%$$$+..  ",
" %%$+OOOooooooooo+oo+oo+o+o+o+O++++O++++@@++@++@+@+@@@@@@@@@+@.  ",
" %%$+.........o.oooo.oo.ooooooooo.o.O.o..O.O.+o.+O+Oo+O+OOO....  ",
" %$$@.....................o.oooo.......O........O..ooooo+.@...XX ",
" %X                                  X   X  X X  X         X     ",
" %   X  X  X  X      X  X          X           X   X    X      X ",
"                                                                 "
};
