/* XPM */
static char *magick[] = {
/* columns rows colors chars-per-pixel */
"64 64 10 1",
"   c #020257",
".  c #02026f",
"X  c #04097a",
"o  c #03247e",
"O  c #020136",
"+  c #0c2095",
"@  c #0e59ac",
"#  c #3359c9",
"$  c #4096d6",
"%  c #90b2de",
/* pixels */
"#@#$%$%$##+++#++++++++++++++++++#+++###%%$%$##+@#$$%%$$$@@###+##",
"@+@######++++++#+#+#+#+++#+#+#++#++++ ######@+++@$$$$$@@@+++++++",
"@+.o+@++++++++++++++++++++++++++++++. +++@++++.+o@@$$@@+o+++++.X",
"@oXoo++++.+XX++XX.... X   . ....X+XX.+Xo+o+++.X.o@@@$@@+...++++.",
"#++.++@+oX.+.X .. .     X   . ...X.X.++X++@ooX..+@@$@@@@oXX.+++X",
"#+.XXo++X+.....X      .   .     ...+X+XXoo+++..oOo@@@@@oo.+++++.",
"++++.++++X..X....X...   . . X.X..X.X++X+X++oX...ooo@$@$@o+.++++.",
"+++XXX+++XX... .. .. X . . . . . ...++X.+++++X...oo@@@@@oo..+oX+",
"#++XX++@+oX.X.......... X X..... X.X+X++.++++...Xooo@$@@@+oX.oo+",
"#++X.X++++X.X+X..X .  X . . . .X. .+++.+++++......o@@@@@@@+oooo+",
"+++ X+++++.XXX... . .   .  . .  .XX+#XXX.+++.. ...o+@@@@@@@o++oo",
"#+XX o+++XX.+XX...    .      .  X.X+++XX++X+.. .X.X++@@@@@@@@@+o",
"+#XX+X++oX.X....   .    . .   X ..+#+++XXX+X......o++@@@@$@@@@o.",
"#++XX++oX+.... ..... ..   . X ...XX+#+XXX.++....X.o+++o@@@@@@@oX",
"#++XX++oX..... X.........X......XXX+#++X.+XX..X . .+++@@@@@@@@oo",
"#++X+++XX...X   .............+X.X+X+#++XX.++....X..o@oo@@$@@@@oX",
"++++XXXX...... ...........X.......X++++X++XXX.X....oo@@@@@@@@@oo",
"+++++XXX.XXX...   . ...............X++++XXXX+XX.+Xo oo@@@@$@@@oo",
"+++++X...X....  X  X...............++#++++XXXX+....oo@@@$@@@@@oo",
"+++++XX...+..X . X . ..............X++@++++XXX...ooo@@@@@@@@@@oo",
"#++++XX.X.... . . X X............XX.++#+++.X.X..o +o@@@@$@@@@@oo",
"#++++XX..X... . .. ..............XX.++@@+++.+.X o@o@@@$@@$@@@@oo",
"+++++XX....... ..... ..........X+.+..++#+@XoXoo+@@@$$@@@@@@@@@oo",
"++++XX.+X....... . .............XXXX.++@@o+++@@@#@$@@oooo@o@o@oo",
"#++++.X..... ...............X.X.XX+...++@@@@@@#$@@@@oooOoOoooo .",
"#+++.+XX..........X .. ........+X.XX..+++@@@@$@@@#@ooOooOoo  Xo.",
"#++++.X......................XX.XXX+..oo@@@$@@$@@@@+oo oo  oo . ",
"#++X.+.+X......X.............X.XXXX..Xo+@@@@$@@@@@++ .oXXoX .X. ",
"#++XX+.X......X+..... X.....X.+XX+...X+@@@$@@@@@@+o XX..X..X..  ",
"%++.+.+X.....XX.X....... ....XXX.X...o@@$@@@@@@@+o.XX.X.XX... . ",
"##+..X.+.....+.+............X.XXX.X.o+@@@@$@$@@@oo X.X.X...     ",
"%++.+.+.X...XXX.+..... X .....+.X.Xoo@@$@@@$@@@+o.XX.........   ",
"##XXXX.+.+.+.+.+..... X. X.......+.o+@#@@@@@@@@+oX.....+....   O",
"$@oo+.+.XX.XX.X........ . .....X...+@@$@@@$@$@@+XXX..........   ",
"$#+o+XX++.+.X.X.X.... .... ...+.XXo@@@@@@@@$@@++X.X.....X...   O",
"$#++++++.+..+X.+X......X X ....X.oo@@@@@@$@@@@+XXX...........   ",
"$@@++++++XXX.....X+............o+@@@@$@@@@@$@@oX...........    O",
"$@+@@+@++X+..X..+X..X....  ...+@@$$@$@@@@@@@@+X+X.... ....... O ",
"##++@++@++XXX....X+.....+...XX+##$$$$@@@@@@@@+o..... .. . .    O",
"$@+++++@++oX+X..+..+.X......X.oo@@$$$@@@@@@@@+X............ . O ",
"$@+o+++++++XX.X.XXX..+.....XX.Xo@@@$@$@@@@@@+X..... . . ....  O ",
"#+oXooo++++XXXXX..X+X+XoX.X....oo@@@$@@@o@+oo......... ....   O ",
"@+.XXXXXXXXX+.X+.X+++@++ooX.oX++@@$@@@@@oooo.XX+... ..... . .  O",
"#+X.XX...XXXXX..X.++@#@@@++oo++@@@@@@oo oo .XX....... ......  O ",
"++X+..+...XXX+X.Xoo@@#@@@@@++o+++ooooo o XXooX++.X......... .  O",
"++X.+..X...+.XXX.XX@+@@@#@@+++++ooo o oXXoXX++X+X+..........    ",
"@++.X.+..+.XXXX+.oo@@@@@@@+@++oXXX+XXXXX++++++X+.XX.....+....  O",
"#++.+X.....+X.XXoo@@@@@@@@+oo++++XXoX+X++++++++.+.+....XXX+.    ",
"##+X+.+.+.+.....o+@@$@@@@@oo.oX+X+X+++++++++++++.XXX+XX+XX.+.   ",
"#+X+XXXX..... ..@@@$@$$@@@+ooXX+X++.+X.+++#@#@#+++++X+X+.++... O",
"+++XX+.+......oo+@@@@$@$@@@+++++++++X+X++@@@+++#++++++++++..    ",
"#+XX........ XX+@@@@@@$@#@@@++++@+@++X++o@+ooX+X+++.+#++++X.   O",
"++XX+X.. .  .Xo++@@@@$@@@@#+@+@#@@#+#+++@o+o.X ..XXX++##++X.. OO",
"#+X+X.. ... .o++++@@@@@@@++++++++++@@+@@@oo  XXX..X.++++++.    O",
"##XX..... ..o++o@++@@+++XoXX+++++++++@+@@@oo   X..+.Xo++++X  O O",
"++++XX+ ....+++@oo+o+oo oX  ..+.+++++++@@+@ooX.......X+++++.  OO",
"#++.X.....o+++++@+ooo     .X .....XX+X+@#@@+o .......X++++..  O ",
"+++X+XX...o++@+@o+oo. X .. .. .....+.++@@@@@oX.........+++X   OO",
"#+XXX.X.X+++++++++....XX..+........XX+X+@@++ooX........X++X.  O ",
"#++X..+XX+++++++X.X.XX..+.............++#+@@o....  .  .X++oX   O",
"$+X...X++@@@++oX.......  . . .. . X ..X++@@++o..  .  ..X++o.  OO",
"$#   .X+#+#++oo   . X .     .       .  oo@+@o..  O   OX ++oo O O",
"%+    oX+++oo O  O O O     OOO O         oooo X   O     ooo  OOO",
"%#o   .Xo.   O O O OO OOOOOOOOOOO O   O Oo  XO  O OOOO    oo  OO"
};
