/* XPM */
static char *magick[] = {
/* columns rows colors chars-per-pixel */
"64 64 11 1",
"  c Gray0",
". c #54697f",
"X c #5f768f",
"o c #359fff",
"O c #7592af",
"+ c #70b1ff",
"@ c #839eb8",
"# c #88baf7",
"$ c #a1ceff",
"% c #c2e4ff",
"& c None",
/* pixels */
"&&&&&&&&&&&&&&X&@#&&OX&&&&&O&&&&&&&&&&&&&&&&&&&&&&&&&&&&&&&.O&&&",
"&&&&&&&&&&&&&&&&&$X&&#&&&&&&#&&&&&&&&&&&&&&&&&&&&&&&&&&&&&&&#&&&",
"&&&&&&&&&&&&&&&&&@$&&&.&&&&&O&&&&&&&&&&&&&&&&&&&&&&X&&&&&&&&X&&&",
"&&&&&&&&&&&&&&&&&&@&&&&&&&&&&X&&&&&&&&&&&&&&&&&&&&&&&&&&&&&&&X&&",
"&&&&&&&&&&&&&&&&&&&&&&&&&&&&&&&&&&&&&&&&&&&&&&&&&&&&X&&&&&&&&&&&",
"&&&&&&&&&&&&&&&&&&&&&&&&&&&&&&&&&&&&&&&&&&&&&&&&&&&&&&&&&&&&&&&&",
"&&&&&&+######+#++#####+#++#++#$$#+++#$++#$##$$$$$###$$#$$&&&&&&&",
"&&&&&&++#+###+++++++##+++++#++#$#+++###++###$$$$$$$#$$$$$&&&&&&&",
"&&&&&&+++++##++++++++++++++++++#$#+++##++####$$$$$$$$$$$$&&&&&&&",
"&&&&&&++++++++++++++++++o+o++++#$#+++###++###$$$$$$$$$$$$O&&&&&&",
"&&&&&&++++++++++++++oo++oo+o++++#$#+++##++##$$$$$$$$$$$$$$O&&&&&",
"&&&&&&+++++++++++++++oo++o+o+#++###+++###+##$$$$$$$$$$$$$X#&&&&&",
"&&&&&&+++++++++++++++oo++oo++#++##$#+++##+##$$$$$$$$$$$$$&XX&&&&",
"&&&&&&++++++++++++++++oo++o+++#++#$$+++#####$$$$$$$$$$$$$&&$&&&&",
"&&&&&&++##+++#+++#++++oo+#++++##+#$$##+##$##$$$$$$$$$$$%%#&@X&&&",
"&&&@&&#+##+++##++##+#++++#++++####$$$###$$$$$$$%$$$$$$$%%%##$&&&",
"&&&$#&####$+++#++##+##+++#$+##+###$$$$$#$$$$$$$%%$$$$$%%%%$$$@&&",
"&&&X$#$###$#++##+#$####+++$#####$#$$$$$$$$$$$$$%%%$$%$%%%%%$$$&&",
"$X&&$$$###$$#+#$+#$$####+##$##$#$$$$$$$$$$$$$$%%%%%$%%%%%%%%$%$&",
"$$$$$%$$$$$$$#+$$##$$#$$###$$#$$$$$$$%$$$$$$$$%%%%%%%%%%%%%%%$%O",
"$$$$$%%$$$$$$###$##$$#$$##$$$$$$$$$$$$$$$$$$$$%%%%%%%%%%%%%%%$$$",
"$$%$$%%%$$$$$$##$$#$$$$$$$$$$$$$$$$$$$%$%$$$$$$%%%%%%%%%%%%%%%$$",
"$O%$$$%%$##$$$###$$$$$$$$$$$$$$$$$$$$$%$$%$$$$$%%%%%%%%%%%%%%%$$",
"$&O%$$%%%$#$$$$##$$$$$$$$$$$$$$$$$$$$$$%$%$$$$$$%%%%%%%%%%%$$%$X",
"XO&%$$$%%$$$$$$##$$$$$$$$$$$$$$$$$$$$$$%$$$$$$$$$%%%%%%%%%%$$$%&",
"&O&O$$$$%$$$$$$$#$$$$$$$$$$$$$$$$$$$$$$$%$$$$$$$$$%%%%%%%%%$&O%@",
"&&&&$$$$%%$$$$$$$$$$$$$$$$$$$%%$$$$$$$$$$$$$$$$$$$$%$$%%$$%$&&O%",
"O&&&&$$$$%$$$$$$$$$$$$$$$$$$$$%$$$%$$$$$$%$$$$$$$$$$$$$$$$$$&&&$",
"%&&&&@$$$%%$$$$$$$$$$$$$$$$$%$%%$$$$$$$$$%$$$$$$$$$$$$$$$&$$&&&X",
"@@&&&&$$$$%$$$$$$$$$$$%$$$$$$$%%$$$$$$$$$$$$$$$$$$$$$$$$$O&#&&&&",
"&$&&X&$$$$%%$$$$$$$$$$%%$$$$$$$%%$$$$$$$$$$$$$$$$$$#$$$$$$&&X&&&",
"&#O&O&$$$$$%$$$$$$$$$$$%%$$$$$$$%%$$$$$$$$$%$$$$$$$##$$$$$&&O&&&",
"&@$&O$$$$$$%$$$$$$$$$$$%%$$$$$$$$%$$$$$$$$$$%$##$$$###$$$$@&&O&&",
"&@$O&$$$$$$$%$$$$$$$$$$$%%$$$$$$$$$$$$$$$$$$%$$##$$$##$$$X@&&&&&",
"&&$$&@$$$$$$%$$$$$$$$$$$$%$$$$$$$$$$$$$$$$$$$%$##$$$###$$&&&&&&&",
"&&$$O&$$$$$$$$$$$$$$$$$$$$$$$$$$$$$$$$$$$$$$$$$$##$$$##$$&&&&&&&",
"&&O$O&$$$####$$$$$#$$$$$$$$$$$$$$$$$$##$$$$$$$$$###$$##$$&&&&&&&",
"&&&$O&$$$####$$$$$##$$#$$$$$$$$$$$#$$$###$$$$$$$$##$$$##$&&&&&&&",
"&&&O#&$$$#####$$$$######$$$$$$$$$$###$####$$$$$$$###$$##$&&&&&&&",
"&&&&$&$$$######$$$#+###+##$#$$$#$$###$$+##$$$$$$$####$###&&&&&&&",
"&&&&&@$$$$#+##+$$##++##++####$$#$$##+#$####$$$$$$$####$##&&&&&&&",
"&&&&&@$$$$#++++#$##++###++####$#####++$#####$$$$$$$###$##&&&&&&&",
"&&&&&&$$#$#++++#$$#+++##+++#+##$####++#$####$$$$$$$######&&&&&&&",
"&&&&&&$$##$#+#+##$$+++###++##+#$#####+#$$#######$$$$#####&&&&&&&",
"&&&&&&$$$###+####$$#+++#$+++$+#$$##$###$$########$$$$####&&&&&&&",
"&&&&&&$$$$#######$$$#++#$#++###$$$#$####$$#$#####$$$$####&&&&&&&",
"&&&&&&$$$$####$$$$$$$+##$$#+#$##$$$$$$##$$#$$#####$$$$###&&&&&&&",
"&&&&&&$$$$$#$#$$$$$%$$##$$$##$$$$$$$$$$$$$$$$####+#$#$#+#&&&&&&&",
"&&&&&&$$$$$$$$$$$$$%%$$$$$$$$$$$$$$$$$$$$$$$$$#+##+$$#$++&&&&&&&",
"&&&&&&$$$$$$$$$$$$$%%%$$$$$$$$$$$$$$$$$$$$$$$$#++++#$###+&&&&&&&",
"&&&&&&$$$$$%$$$$%$$%%%%$$$$$$$$$$$$$$$$$$$$$$$$#++++$###+&&&&&&&",
"&&&&&&$$$$$%$$$$$%%%%%%$$$$$$$$$$$$$$$$$$$$$$$$#++++#$###&&&&&&&",
"&&&&$&$$$$$$%$$$$%%%%%%%$$$$$$$$$$$$$$$$$$$$$$$$+++++$###&&&&&&&",
"&&&&$@$$$$$$%$$$$%%%%%%%%$$$$$$$$$$$$$$$$$$$$$$$#++++#$##&&&&&&&",
"&&&&#$$$$$$$$%$$$$%%%%%%%%$$$$$$$$$$$$$$$$$$$$$$$+++++$$#&&&&&&&",
"&&&&&$$$$$$$$%%$%$$%%%%%%%$$$$$$$$$$$$$$$$$$$$##$#+#++#$$&&&&&&&",
"&&X&&@$$$$$$$$%$$$$$$$$%%%$$$$$$$$$$$$$$$$$$$$$###+####$$&&&&&&&",
"&&&&&&$#X$$#&$%%O$$$$$$$%$$$&&&&&#OO$$&&&&&&&&&&&&&&&&&&&&&&&&&&",
"&&&&&&X$&X$#&&$%@$$&XO&&$$@$&&&&&&X&#$&&&&&&&&&&&&&&&&&&&&&&&&&&",
"&&&&&&&@&&@$&&$$O&$X&&&&O%&O&&&&&&X&&#&&&&&&&&&&&&&&&&&&&@X&&&&&",
"&&&&&&&&&&&&O&@$$&@@&&&&&@O&O&&&&&&&&&&&&&&&&&&&&&&&&&&&&X$&&&&&",
"&&&&&&&&&&&&&&&$$&&$&&&&&&@&&&&&&&&&&&&&&&&&&&&&&&&&&&&&&&$@&&&&",
"&&&&&&&&&&&&&&&O$@&XO&&&&&@&&&&&&&&&&&&&&&&&&&&&&&&&&&&&&&@$&&&&",
"&&&&&&&&&&&&&&&&$@&&@&&&&&&#&&&&&&&&&&&&&&&&&&&&&&&&&&&&&&&$&&&&"
};
