/* XPM */
static char *magick[] = {
/* columns rows colors chars-per-pixel */
"65 65 10 1",
"   c gray13",
".  c #6f706f",
"X  c #787880",
"o  c #788078",
"O  c #788080",
"+  c #807878",
"@  c #807880",
"#  c #808078",
"$  c #8c8b8c",
"%  c #afafaf",
/* pixels */
"%%%%%%%%%%%%%%%%%%%%%%%%%%%%%%%%%%%%%%%%%%%%%%%%%%%%%%%%%%%%%%%%%",
" %%%%%%%%%%%%%%%%%%%%%%%%%%%%%%%%%%%%%%%%%%%%%%%%%%%%%%%%%%%%%%% ",
" %%%%%%%%%%%%%%%%%%%%%%%%%%%%%%%%%%%%%%%%%%%%%%%%%%%%%%%%%%%%%$  ",
" %%%%%$$$$$$O$$$$$$$$$$$$$$$$$$$$$$$$%$$%$%$%$$%$%$$%$%$%$%$$.$  ",
" %%%%............X..X+X#X$.$#$$$$$$O$.$$$$$$$$$$$$$$$$$$$$$$$..  ",
".%%%$..............................o.@.$.O.$.$X$@$@$@$@$$$$#$..  ",
" %%%@... .............................O........+.o$.$.$X$.$O...  ",
" %%$$..... .. .........................$.$.#@@@@.@+OX$.$.$@$...  ",
" %%%$.. ........ ...................@.....$.@.$o$$.$@$#$#$.$#..  ",
" %%$$..o ... ......... ................@#@.$.X#@.$.$.$.$.$$##..  ",
" %%%$..... ....... ................@.$...@@.@@$#$.O$.$O$.$$@o..  ",
".%%$$.. ....... .......................$.$.@X#X#.$$X$.$.$$$$+..  ",
" %%%$.............................@.$..@.@@#O#$.$.O$.$$$.$$.o..  ",
" %%$$... .... ...... .............$...$.@#O#@.$XX$$.$O@$$$$$$..  ",
" %%%$...... .......................@.$X.$.$$O$.$#X#$.$$@$@$+...  ",
" %%%$............ .............@.$.#X+X@.@#.#@O$.$$.$@$$$$$$#..  ",
" %%%@@............................@..@.$$@o$X$.$$.$O$#$$$$$$...  ",
" %%$$.... .... ...............@.$.X$@#$.#.$.$.$@O@$$$$$$$$$$$..  ",
" %%%$X.....................@.$...$..@O@#$$.$@$##$.$$$$$$@$$@$..  ",
".%%%$...... ...............X...$@.@#@.$O.X#$.$.$X$$@$@$$$$$$$..  ",
" %%%@X.....................@.$...$.$.$##$@$.$#$.$$$$$$$$$$$$@..  ",
" %%$$... ................@.#@.X@@#X#$.$.@O#$.$.$$$$$$$$$$$$$$..  ",
" %%%$$...... ............@.O.$@.$X+$.$O$O$.$$.$$@$$$$@$$$$$$@..  ",
" %%%$..................@..X#.@X.X#.$#O.$.$O$.$$@$$$$@%@%@%$$$@.  ",
" %%%$@.................@.$.#X#X#@O$.$@$@$.$$$$@$$$@$$@$$$$$$@..  ",
" %%$$................@.$.XX@.@.$#@.$.$.$.$#$.$$$$$@%@%$$%$$$$.$  ",
" %%%$$...............X..$..$.$O#@$O$O$#$#$$$$$$$$$$$$$$$$$%$@..  ",
" %%%$................@.@.$.X@O.$OO##.$.$.@$@$$$$@%@$$$$$$$$$$.$  ",
" %%%$$............X.@.$.@X@O@#$.$.$$#$.$$$$$$$@$$@%@%$%$$%$$$X.  ",
" %%%$..............@...X++X#O$.$.$$.$.$$@$@$$$$$$$$@$$@%$$%$$..  ",
" %%%$$..........X..@.@@.@O$#@#$O$.$.$$$$$$$$$$$$@%$%$$$$$$$$$X.  ",
" %%%$X.............$.@@@#X+.$.$.$.$$.$X$$$$$@%@%$$$@$%$$%$%$$.$  ",
" %%%$$........X@.$.@X.$.$.$o@$.$$.$.$$$$$@$$@@%@$$%$$$$$$$$$$@.  ",
" %%$%.......X...@...@@.$X#O$.$O$.$$$@$$$$$$@%$$@%$$$$$%$%$%$$XX  ",
" %%%$$.....X.@.$+X@$.$#o$.$.$.$.$.$$@$$$$$$%@$$%@$$%$$$$%$$$$$.  ",
".%%%$$...X...$.X..X.@@.$.$.$#$.$$$$$$$$@$$$@$$$$$$$$$%$%$$%$$.#  ",
" %%%$$X...@...@#@$+@XO$+$.$O$.$$.$$$$$$$$$$%$$%$$%$%$$$$%$%$$O.  ",
" %%%$$.....$.$..X+X.#$@#@$.$.$@$$$$$$$$$@%$@$$$$$$$$$%$%$$$$$X$  ",
" %%%%$@.@X@.@.$@.@#@$.$.$#$.$$$$$$$@$$@%@@%$$%$$$%$%$$%$$%$%$#.  ",
" %%%$$X@..#.$.@.@O@O@.$O$.$$$@$@$@$$@%@@%$@%@$$$%$$$%$$$%$%$$O.  ",
" %%%$$.#.$.X+X#$$o$.$$.$.$.$$$$$$$$$$@%@$$$$$%$%$$%$$%$%$$$$$$.  ",
" %%%$$$.$.@.X.$..$.$$.$@$$$$@$@$$$$@%$$@%@%$$$$$$$$%$$%$$%$%$$@  ",
" %%%$$O.X.$@X@O#O@$.$#$.$.$$$$$$$$$$@$%$$$$$%$$%$%$$%$$%$%$$$$.  ",
" %%%%$$.#@X.+O+$@.$.$X#@$$$$$$$$$@$@%$$$@%$$$%$%$$%$$%$$%$$%$#X  ",
" %%%$$@.@.@$X#@#$@$#$.$$$@$$$$$$$%@%@$$%$$$%$$$$%$$%$$%$$%%$$$.  ",
" %%%$$X$.$.X#.$@.$.$.$@$@$@$@$@%@$$$$$$$$%$$%$%$$$%$$%$%$$%$$.$  ",
" %%%%$@.@$#$$O@O$.$O$$$$$$$$$$@@%@%$%$$%$$$$$$%$%$$%$$$%$%$%$$.  ",
" %%%$$$@.$X..$#.$$.$.#@$@$$$$@%$@$$$$$$$$$%$%$%$$$%$%$%$$%$$$.$  ",
" %%%$$@O@#O$$.$$.$$.$$$$$$$$$$$@%$$$%$%$%$$$$$$%$%$$$%$%$%%$$$.  ",
" %%%$$$#.$#.$.$.$.$$@$$$$$$$@%@%$@%$$$$$$$$%$%$%$$%$%$%$%%$%$$$  ",
" %%%%$X$O$.$O$.$$.$$$$$@$$@%@$@$$$$$$%$%$%$%$$%$$%$$$%$$%$%$$$.  ",
" %%%$$$##O$.$.$$.$@$$$$$$$$$$$%$%$$%$$$$$$$$$%$$%$$%%$%%$%$%$#$  ",
" %%%$$@#$.$#$.$.$$$$$@$$$$$$$$$$$$%$$%$%$%$%$%$%$%%$$%$%$%%$$$X  ",
" %%%%$.$.$.$.$@$$$$$$$$$@%@%@%$$$$$$%$$$%$%$$$%$$$%$%$%$%%$%$#$  ",
" %%%$$$$.$$.$#$$$$$$$$$%@$$$$$$%$%$$$%$%$$$%$%$$%$$%%$%%$%$%$$.  ",
" %%%$$$.$.$#$$X$$$$$@$$$$@%$$%$$$$$%$%$$$%$%$$%$%$%$%$%$%$%%$$$  ",
" %%%%$$@$#O@#$$$$@$$$%@%$$$$%$$%$%$$$$%$%$$%$%$%$%$%$%%$%%$%$O@  ",
".%%%$$$.$.$$$$$$$$@%@$@$@%$$$%$$$$$%$%$%$$%$$%$$%$%%$%$%%$%$$$$  ",
" %%%%$O$.$@#@@@@$$@@$$$$$@$$$$$%$$$$$$$$$%$$%$$%$%$$%$%$$%%$$$.  ",
" %%%$.$.$.O@O@#$@$@$@@$@$@$$$O$$$$$$$$$$$$$$$$$$$$$$$$$$%$$$$X.  ",
" %%%$$..............X..@.@...XO.OOOO#O#OOoO$O$O$#O$$$$O$o$$$X..  ",
" %%$$.........................................o.oOoo.oO.O.X....  ",
" %                                                               ",
" %.                                                              ",
"                                                                 "
};
