/* XPM */
static char *magick[] = {
/* columns rows colors chars-per-pixel */
"48 48 11 1",
"  c #0a0909",
". c #362332",
"X c #565856",
"o c #284fcb",
"O c #668fdc",
"+ c #925334",
"@ c #c5797e",
"# c #fe8b44",
"$ c #aeaabc",
"% c #fdfdfe",
"& c None",
/* pixels */
"&&&&&&&&&&&&&&&&&&&&&&&&&&&&&&&&&&&&&&&&&&&&&&&&",
"&&&&&&&&&&&&&&&&&&&&&&&&&&&&&&&&&&&&&&&&&&&&&&+#",
"&&&&&&&&&&OooO&&&&&&&&&&&&&&&&&&&&&&&&&&&&&&&+##",
"&&XXXXXXXXoOOXoXXXXXXXXXXXXXXXXXXXXXXXXXXXXX+###",
"&&X%$O$%$o$$$OoO%$O%%%%%%%%%%%%%%%%%%%%%%%%+###+",
"&&.%OOOoo$%OooXooooO%%%%%%%%%%%%%%%%%%%%%%+###++",
"&&XOOO$$$OOooooO$$$oO%%%%%%%%%%%%%%%%%%%%+###+++",
"&&XOO$oooo. ..ooooo.X$%%%%%%%%%%%%%%%%%%+###++++",
"&&XOO$oo  .ooo..oooo $%%%%%%%%%%%%%%%%%+###+++++",
"&&oo%Oo .oO$$$Oooooo.XXXXX%X XXX%XXXX%+###++++++",
"&oo$Oo .O%%oXo$$ooooXo$%%%%%%%%%%%%%%+###++++++ ",
"Oo%$o  o%$. ..oO oOooOoX XX%%%%%%%%%+###++++++..",
"o$Ooo oO%O oooo..oOOoooX%%%%%%%%%%%+###++++++ ..",
"oOOoo o%$O ooooooooOoo .XXX XXXX$%+###++++++....",
"&oOoo o%O$.oooooooo$oo X$%%%%%%%%+###++++++ ....",
"&oooo o$$O.oooooooO$o  XXX.X %$%+###++++++..... ",
"&Oo$o.oO$OXoooo%ooOOo .$$%%%%%%+###++++++ .....&",
"&OO$oooo$$Oooo%O o$Oo XXXXXX$%+###++++++..... &&",
"&o$Ooo.oooO$$%OO O$oo.o$%%%%%+###++++++ .....+&&",
"&OOoooooooo..  .o%Ooo XX%.$%+###++++++..... .X&&",
"&&o.ooooOooooooO$Ooo  X$%%%+###++++++ ..... .X&&",
"&&XO. oooOOOOO%$o.  ..XX@%+###++++++..... + .X&&",
"&&X%$oOooooOOOooo  XXO$%%+###++++++ .....+% .X&&",
"&&X%%%oOooo. ooo. XX$XX%@#@#++++++..... +%% .X&&",
"&&X%%%OOo   o... .O$%%%+$%#++++++ .....+%%% .X&&",
"&&X%%%XX...XXXo..XXX X%@$#%@##++..... +@.%% XX&&",
"&&X%%%%%$$$$%$%O$$$%%%+$#%#@@@+. ....+%%%%% .X&&",
"&&X%%%XXX XXXXXX$%XX%%+%$@@@@.+.... +%%%%%% .X&&",
"&&X%%%%%%%%%%%%%%%%%%@@$#@$#X......+%%%%%%% .X&&",
"&&X%%%%%%%%%XX%XX X$%+%#@#@+....+ +%%%%%%%% .X&&",
"&&X%%%%%%%%%%%%%%%%%+$#$@@.....+.@%%%%%%%%% .X&&",
"&&X%%%XX XXXX XX%X$%+%@#@+. +.++@%%.XX%%%%% .X&&",
"&&X%%%%%%%%%%%%%%%%@@#@XX..+X+@%%%%%%%%%%%% .X&&",
"&&X%%%  XX%XXXXXX%$+@@+...X+@%%%%%%%%%%%%%% .X&&",
"&&X%%%%%%%%%%%%%%% @X...++@%%%%%%%%%%%%%%%% .X&&",
"&&X%%%XXX%X XX.$%X  ...+@%%%%%%%%%%%%%%%%%% .X&&",
"&&X%%%%%%%%%%%%%%    ++%%%%%%%%%%%%%%%%%%%% .X&&",
"&&X%%%%%%%%%XXX%X   .$$%X XXXX%X XXXXX%%%%% .X&&",
"&&X%%%%%%%%%%%%%  X%%%%%%%%%%%%%%%%%%%%%%%% .X&&",
"&&X%%% %XX XXX%X XXX XXXX%XX%XXX%XXX XXX%%% .X&&",
"&&X%%%%%%%%%%%%%$$@$$%%%%%%%%%%%%%%%%%%%%%% .X&&",
"&&X%%%%%%%%%%%%%%$$$X$@$%%%%%%%%%%%%%%%%%%% .X&&",
"&&X%%%%%%%%%%%%%%%X$$$$$$$$%%%%%%%%%%%%%%%% .X&&",
"&&X%%%%%%%%%%%%%%%%$$$$X$X$@$$%%%%%%%%%%%%% XX&&",
"&&X                                         .X&&",
"&&&..........................................X&&",
"&&&&XXXXXXXXXXXXXXXXXXXXXXXXXXXXXXXXXXXXXXXXXX&&",
"&&&&&&&&&&&&&&&&&&&&&&&&&&&&&&&&&&&&&&&&&&&&&&&&"
};
