/* XPM */
static char *magick[] = {
/* columns rows colors chars-per-pixel */
"48 48 11 1",
"  c Gray1",
". c #452e25",
"X c #403939",
"o c #59544a",
"O c #678255",
"+ c #5e8fcf",
"@ c #8e7196",
"# c #d1a960",
"$ c #bea4b4",
"% c #f8f4f7",
"& c None",
/* pixels */
"&&&&&&&&&&&&&&&&&&&&&&&&&&&&&&&&&&&&&&&&&&&&&&&&",
"&&&&&&&&&&&&&&&&&&&&&&&&&&&&&&&&&&&&&&&&&&&&&&&&",
"&&&&&&&&&&&Xo%%%% &&&&&&&&&&&&&&&&&&&&&&&&&&&&&&",
"&&&&&&&&&&Xo@%%%  &&&&&&&&&&&&&&&&&&&&&&$ %%% &&",
"&&&&&&&&&Xo$%%%   &&&&&&&&&&&&&&&&&&&&&&$ $%% o&",
"&&&&&&&&Xo@%%%    &&&&&&&%$.%%%o &&&&&&&&$ %%$ &",
"&&&&&&&XX%%%%$X   &&&&&&&%.%%%%o &&&&&&&&$ $%% o",
"&&&&&&&XOOO++$X   &&&&&&%#.%%%$  &&&&&&&&&$%%%o ",
"&&&&&&&X+$%$+$X   % o%% %.%%%%$  &&&&&&&&&%$ooo ",
"&&&&&&&O...o.oX    o$%@ %%%%%#.  &&&&&&&&&o. .  ",
"&&&&&&%%$$+++$X    $%%X %#####.  &&&&&&&&&o. .  ",
"&&% %%%#oo....X    %%@X %##.##.  &&&&&&$&&o  .  ",
"&% o%%%Oo. X.XX  XX$+$X #.oo..   . %%%% %%$%ooo ",
"% o$%%X#......X  XX+$OX %##o##.  X %%%% $%o.... ",
"%%%%%$X%$$%++$X   XXoo  %####$.  X %%%% o%$#oXo ",
"%OoooX #O.....X  XX$$@X $.....   . %%%%X %$%ooo ",
"%#OoOX %OOO++$X  XXXXX  %##$##.  .%%%%%X %$$ooo ",
"$o X   %OO$$++X  XX+$@X %#$.##.  XXXXXXX %$%ooo ",
"%OOoOX %O$%$+$X   XXXX  %##.#$.  XX.XXX. %$#%.o ",
"$O     %Oo$o++X  XX+$+X %##.$#.  .@O@O@X %%$ooo ",
"$OX. X %OX%$+$X  XX$X$X %##$##.  ..X...X %$$.oo ",
"%o X   %OX@@++X  XX#o+. %##.##.  X@$@$@X %#%ooo ",
"%OOoOX %O$%X+@X  XX+X#X %##.#$.  X@.. $. %%#.oo ",
"$O     %+X$X++X  XX#o+X %#$.$#.  X@@@@@X %$$ooo ",
"%#ooOX %O$$$+$X  XX+$#X %##.##.  .XXoXXX %$%$oo ",
"%OoOoX %Oo$X++X  XX#o+X %#$.##.  X.o@o.. %$$.oo ",
"%$OoOX %OX$X+$X  XX+O$X %$###$.  XXXXXXX %%#ooo ",
"%OoOoX %+$$@++X  Xo+$@X %##.##.  .X.X.X. %#%$oo ",
"%#OoOX %OX$X+@X  XX$+$X %##.##.  ..X XXX %$$$Oo ",
"%OooOX %Oo$X++X  XoOOOX %#$.##.  XX XX.X %$%ooo ",
"%@OoOX %O$%$+$X  XX$o$X %$###$.  X.X.XXX %$#ooo ",
"$O X   %+$$$++X  XX$$@X %##o##.  .X X.X. %$%ooo ",
"%#OoOX %O$%$+$X  XX+X$X %##.##.  .XXXX.X %$$ooo ",
"$O     %O%$$++X  XX#OOX %#####.  Xo+@+@X %$%ooo ",
"$oX X  $o.....X  XX+X$X %####$.  Xo...X. %o.... ",
"$O.    %$$$%+$X  XX#o+X %#o.o#.  .@o@O@X %#$ooo ",
"%#OoOX $o....oX  XX+o$. %#.$.#.  .@+O+@X %o. .  ",
"$O X   $.o....X  XXO$O. %#.#o#.  .@o@o@. %o. .  ",
"%OOoOX $oo...XX    XXo  %$.#.#o  XX.XXX. %o.    ",
"%#oOoX %@$$$+$X  XX+$+X %#.o.#.  X@O@+@X %$$ooo ",
"o     o$o.o...X  XX$+$  %#####.  .XXX..X $%$ooo ",
"&&&&&&&&OO$$+%X o      o$#####.  .XX.X.X o     o",
"&&&&&&&oO++++$X &&&&&&&&o       o       o&&&&&&&",
"&&&&&&&o       o&&&&&&&&&&&&&&&&&&&&&&&&&&&&&&&&",
"&&&&&&&&&&&&&&&&&&&&&&&&&&&&&&&&&&&&&&&&&&&&&&&&",
"&&&&&&&&&&&&&&&&&&&&&&&&&&&&&&&&&&&&&&&&&&&&&&&&",
"&&&&&&&&&&&&&&&&&&&&&&&&&&&&&&&&&&&&&&&&&&&&&&&&",
"&&&&&&&&&&&&&&&&&&&&&&&&&&&&&&&&&&&&&&&&&&&&&&&&"
};
