/* XPM */
static char *magick[] = {
/* columns rows colors chars-per-pixel */
"48 48 11 1",
"  c #07080a",
". c #282f4c",
"X c #5e110f",
"o c #5f5656",
"O c #55568a",
"+ c #827770",
"@ c #808770",
"# c #969a8d",
"$ c #d0b9ac",
"% c #eee6eb",
"& c None",
/* pixels */
"&&&&&&&&&&&&&&&&&&&&&&&&&&&&&&&&&&&&&&&&&&&&&&&&",
"&&&&&&&&&&&&&&&&&&&&&&&&&&&&&&&&&&&&&&&&&&&&&&&&",
"&&&&&&&&&&&&&&&&&&&&&&&&&&&&&&&&&&&&&&&&&&&&&&&&",
"&&&&&&&&&&&&&&&&&&&&&&&&&&&&&&&&&&&&&&&&&&&&&&&&",
"&&&&&&&&&&&&&&&&&&&&&&&&&&&&&&&&&&&&&&&&&&&&&&&&",
"&&&oo&&&&&&&&&&&&&&&&&&&&&&&&&&&&&&&&&&&&&oo&&&&",
"&&&#.oo&&&&&&&&&&&&&&&&&&&&&&&&&&&&&&&&ooo.@&&&&",
"&&&@o@@oo@&&&&&&&&&&&&&&&&&&&&&&&&&@ooo@$$#o&&&&",
"&&&@o@#$####@#@@+o+o#&&&&&&oo@@@@@##$$%%%%#o&&&&",
"&&&oo##$$$%%%%%%%%$#@o&&&o@#$$%%%%%%%%%%%%#o+@&&",
"&&#oo##$$$%%%%%%%%%$$#o@oo#%%%%%%%%%%%%%%%#o.o&&",
"Oo@oo#@#$$%%%%%%%%%$$#@..o$%%%%%%%%%%%%$$%#ooooo",
"O.$oo#@@##$%%%%%%%%%$@oo.@#%%%%%%%%%%###%%@@oo .",
"O.%oo##$$####@@##$%$$#@..o$%%%$#####$$%%%%#+.o .",
"O.%oo#@o$$%%%%%%#@#%##@oX@%##@#%%%%%%%%##%@+oo .",
"O.%oo@##o##%%%%%%%%%@#oo @%%%%%%%%%%%###%%#@.o .",
"O.%oo###$###$##$#%X%$#@..@%o%%%$#$##$%%%%%@+oo .",
"O.%oo#@@#$%%@X#%$oX%#@@o.@%oo$$%o#%%%%$##%#oo...",
"O.%oo####@$#XX+$XXX%##@.X#%ooo$%oo+%$##$%%#+oo .",
"O.%oo#@#$%+XXo#oXXX%%%$##%%$$$$%#+o@%%%%$%#ooo .",
"O.%oo@#@%oXXo#XXXXXoooo+oooooooo$#oo+%#@%%++o...",
"O.%oo##$oXXo$XXXXXXXXXXXXXXXXXXX+$ooo@%%%%#ooo .",
"O.%oo#%oXXX%XXXXXXXXXXXXXXXXXXXX+#ooooo%#%#+oo .",
"O.%oo##%XXXo$XXXXXXXXXXXXXXXXXXX+$Xooo%#%%#o.o .",
"O.%oo##$%oXX+#XXXXXXXoXXoXXoXXoX+$ooo%%%%%@@oo .",
"O.%oo#++$%XXX+#XXXX%%%%%%%%%%%%%%#X+%%%##%#Ooo .",
"O.%oo##@+#%oXX$#XXX%##+.X@%ooo#$oo+$$##$%%#ooo .",
"O.%oo###$#$%oX+%#XX%##@.o@%+o#%$o+%%%%%$%%#@o...",
"O.%oo##+#$$%%o#%%$X%##@oX@%o$%$%+%%%%$##$%@ooo .",
"O.%oo####@####%$$$$%#@@..@%%%$%%$####$$%%%#+oo .",
"O.%oo#$$%$%$%%%%#@#%$#@oX@%$###%%%%%%%%%%%#ooo .",
"O.%oo#$$$%%%%%%%%%%#@@@o.@@#%%%%%%%%%%%%%%#+.O .",
"O.%oo#$$$%%%%%%%%%%%$@@o.@#%%%%%%%%%%%%%%%@+oo .",
"O.%oo@$$%$%%%%%%%%%$$#@Xo@$%%%%%%%%%%%%$#oo+oo .",
"O.%#$o#+#$$$$$$%$%$$$@@..@#%%%%$%$$$##@ooo#$.o .",
"O.%#%%##+o.. . ...o@#@@o.@#$@oo.. . .oO#$$$$oo .",
"O.%#%%$#+oo.. . . . .o@ Xoo.  . . ...oo@@##$o...",
"O.%#oo... . . . X . . oo .. X . X. .  . ..oo.o .",
"O.o.. .  .X.X. .. oX ..  .X. . .. o ... . .  . .",
"O.  . . . . . .    . . ... ...  . . . . .. ..  .",
"O.. . . . . . . ... . .  . .  .. . . . . .  . ..",
" . . . .....o&&&&&&@.......&&&&&&o.o..... .. ...",
"&&&&&&&&&&&&&&&&&&&&&&&&&&&&&&&&&&&&&&&&&&&&&&&&",
"&&&&&&&&&&&&&&&&&&&&&&&&&&&&&&&&&&&&&&&&&&&&&&&&",
"&&&&&&&&&&&&&&&&&&&&&&&&&&&&&&&&&&&&&&&&&&&&&&&&",
"&&&&&&&&&&&&&&&&&&&&&&&&&&&&&&&&&&&&&&&&&&&&&&&&",
"&&&&&&&&&&&&&&&&&&&&&&&&&&&&&&&&&&&&&&&&&&&&&&&&",
"&&&&&&&&&&&&&&&&&&&&&&&&&&&&&&&&&&&&&&&&&&&&&&&&"
};
