/* XPM */
static char *magick[] = {
/* columns rows colors chars-per-pixel */
"47 47 11 1",
"  c #0b0602",
". c #5d280b",
"X c #433f51",
"o c #5a4a21",
"O c #7160b0",
"+ c #469d10",
"@ c #ae2800",
"# c #a1500c",
"$ c #d56a03",
"% c #c69d26",
"& c None",
/* pixels */
"&&&&&&&&&&&&&&&&&&&&&&&&&&&&&&&&&&&&&&&&&&&&&&&",
"&###oo#####%###########OOOOXXXXOOOO+%%%%#.#.#o&",
"&+$$$$$$$$$$$$$$$$%$$$$OOOOOOOOOO++++%%%$@@$##&",
"&+#$$$$$$$$%$$$$$$$$$$$OOOOOOOOOO++++%%%$@@#+o&",
"&$$$$$$$$$$$$$%$$$%$%$$OOOOOOOOOO++++%%%$@@#+o&",
"&$$$$$$$$$$%$$$%$$$$$%$OOOOOOOOOO++++%%$$@@+##&",
"&$$$$$$$$$#% $%%$$$$$$$OOOOOOOOOO++++%%$$@$#$#&",
"&$$$$$$$$%   %$%$%%$$$$.OOOOOOOOO++++%%$$@$$##&",
"&$$$$$$%%    %o$%$%$%$$ oOOXXXXOO++++++$#.#+$o&",
"&$$$$$$%     ..%%%$%$%$ XOOXXXXOO++++++## #$$o&",
"&$$$$##   O   .%%%%%                       +##&",
"&$$$%%    o    $%%%%%%# oXoXXXX+++o++###. #.#o&",
"&$$$$#          %%$%%%@ ..XX XXoo      .. ...#&",
"&$$$$# o  o     .%%%%%$ o.oXXXXX+oo+o++#. X.#o&",
"&$$$$% ooo       #%%%$$ #.oXXXX++ooo+++#. #.##&",
"&$$$$#  X        #%%$%$ X.oXXXXXXoo++++#. o.#o&",
"&$$%$#  .o       #%%$$$ o.XXXooXXooo+++#. #.#o&",
"&$$$$#  oo      o#%$$$$ o.oXXoXoXooo++##. o.#o&",
"&$$$$$%         .#%$%$$ o.XXX oooooo++##. #.#o&",
"&$$$$%$        .o#%%%$$ o.XoX.oooooo+o#.. o.#o&",
"&$$$$$$        .o@%%$$$ o.XXXoooooooo###. #.#o&",
"&$$%$$$        ..$%%$$$ o.XoXo.oooooo##.. o.#o&",
"&$$$$%$XOOOOOXX.o$$%$$$ ..#.Xoo#oooooo#.. #.#o&",
"&$$$$$%OO&&OOXX .$$$%%$ ..oX..ooooooooo.. #.#o&",
"&$$$$$$OOOOOOXX..$$$$$$ o..#o..o#oooo.... #.#o&",
"&$$$$$$OOOOOOXX..$$$$$$ o.#.#..#oooo#o.#. o.##&",
"&$$$$$$OOOOOOXX..$$$$$$ o......ooooo..o.. o.#o&",
"&$$$$$$OOOOOOXX..$$$$$$ o.....oo#oooo.... o.##&",
"&$$$$$$OO%OOOOX..$$$%#                       #&",
"&$$$$$$OO&&OXX ..$$$$$$ o ooooooooooooo.o X.o#&",
"&$$$$$#oX% oX  ..$$$$$$#........... ..... ....&",
"&$$$$$#XX%%XX   .$$$$$$## o...o..oo...... X.#X&",
"&$$$$#.oo%%o#    $#$$$$################...#.#o&",
"&#$$$##oo%%#    ..#$$$$#+###.########.#...#.##&",
"&$$$$o .X%#o     .#$$$$###############.#.@####&",
"&##$$ .  o.      .#$$$$##############@#.@@#$##&",
"&$#$$oo.%%%o     .o$$$$################@#@+###&",
"&+#$$oo.%%%o     ..$$$$##################@#++o&",
"&+$$#ooo%%oX     ..$$$$##+#+#+##+#####@##@+++#&",
"&#$#$oo.%%#o     ..$$$$#+########+###.##.###+o&",
"&+####o %%.X     ..$$$$+++#+####+######@#@#+##&",
"&#++#o. %%#o     ..$$$$#+####+++#+#+#+###@#+##&",
"&#@##o..%%oO     ..$$$$++++++++######@#@@#####&",
"&###@...% oo     ..$#$$$#$###++$+##+++#+#@###.&",
"&@@##. %%ooo     ..+$$$+#+$++####++#+######@##&",
"&@##@o.#%oo      ..#$$$$$$+#$+$+$#+#+####@####&",
"&&&&&&&&&&&&&&&&&&&&&&&&&&&&&&&&&&&&&&&&&&&&&&&"
};
