/* XPM */
static char *magick[] = {
/* columns rows colors chars-per-pixel */
"48 48 10 1",
"  c Gray1",
". c #616063",
"X c #737688",
"o c #a39fa6",
"O c #bebac7",
"+ c #bec3c7",
"@ c #c7becf",
"# c #c7c3be",
"$ c #ddd9de",
"% c None",
/* pixels */
"%%%%%%%%%%%%%%%OO#$$$$$$$$$$$$$@+OO%%%%%%%%%%%%%",
"%%%%%%%%%%%%%%O$$$$$$$$$$$$$$$$$$$OO%%%%%%%%%%%%",
"%%%%%%%%%%%%O$$$$$$$$$$$$$$$$$$$$@@@OO%%%%%%%%%%",
"%%%%%%%%%%O$$$$$$$$$$$$$$$$$$$$$$$$@@@OO%%%%%%%%",
"%%%%%%%%OO$$$$$$$$$$$$$$$$$$$$$$$$$$@OO+%%%%%%%%",
"%%%%%%%O@$$$$$$$$$$$$$$$$$$$$$$$$$$$@$OoO%%%%%%%",
"%%%%%%O$$$$$$$$$$$$$$$$$$$$$$$$$$$@$@@@ooO%%%%%%",
"%%%%%O@$$$$$$$$$$@$$#$$++$$$#$#+$O@@@@@@ooo%%%%%",
"%%%%OO$$$$$$$$$$.o.o..o.o.@.o.o.o $@@@+#+ooo%%%%",
"%%%oO$$$$$$$$$$Oo$$o++..o.oo$...o.@@@+++++ooo%%%",
"%%%o$$$$$$$$$$$@.+.oooo.#.O.O.o...@@#@++OOOooo%%",
"%%oO$$$$$$$$$$$$Oo$ooo$o$o$oo+oOoo@+@++++OOOoo%%",
"%%o$$$$$$$$$$$$$$$$$$$$$$$$$$$@@@@+#++#OOOOoo.%%",
"%oO$$$$$$$$$$$$$$$$$$$$$$$@$@@@@@@+++O+OOOoOoo.%",
"%O$$$$$$$$$$$$$$$$$$$$$$$$$@$@@@#++++OOOOOoooo.X",
"OO$$$$$$$$$$$$$$$$$$$$$$$$$@@@@+++++OOOOOooooo..",
"o@$$$$$$$$$$$$$$$$$$$@OoooooOO@+++O#OOOOOoooooo.",
"o$$$$$$$$$$$$$$$$$$@ooooooooooo+++#OOOooooooooo.",
"o$$$$$$$$$$$$$$$$$Oooooooooooooo+OOOOOoooOooooo.",
"o$$$$$$$$$$$$$$$$@oooooooooooooooOOOoOoooooooooo",
"o$$$$$$$$$$$$$$$@ooooooooooooooooOOOoooooooooooo",
"o$$$$$$$$$$$$$$$+ooooooooooooooooo+oooOooooooooX",
"o$$$$@Oooooooo+$OoooooooooooooooooOOoo.o..oooooX",
"o$$$$$$$$$$$$$$$+oooooooooooooooooooooooooooooo.",
"o$$$$o+oOooooo$$@oooooooooooooooooooooooooo.ooo.",
"o$$$$#oooooooo$$+oooooooooooooooooOoooXoooXoooo.",
"o$$$$$$$$@+@O#@$OoooooooooooooooooOoooooooooooo.",
"o$$$$$$$$oooOo+@+Ooooooooooooooooo+oooo.ooooooo.",
"o$$$$$$$$$$$$@@@@OoooooooooooooooOOoooooooooooo.",
"o$$$$$$$$$$$$@@@@+OooooooooooooooOooooooooooooo.",
"oO$$$$$$$$$$@@@@@+@Ooooooooooooo@oooooooooooooo.",
"o@$$$$$$$@$@@@@+++#++ooooooooo+Ooooooooooooooo. ",
"%o$@$$$$$$@@@@@++++OO@@oOooo@+oooooooooooooooo..",
"%o#@$$$$@@$@@++++OOOOOOOOoOooooooooooooooooooo .",
"%%o@@$$$$@@@@+++O+OOOOooooooooooooooooooooooo..o",
"%%oO+@$@@@@+++++OOOOooooOoooooooooooooooooooo .%",
"%%%o@O@@@@#++#+OOOOOOooooooooooooooooooooooo..%%",
"%%%%OOO@@@+++#OOOOOoooo...o..oooooooooooooo. %%%",
"%%%%%+oO+#++#OOOOooo.ooooooooooooooooooooo. %%%%",
"%%%%%%Ooo++O+OOOOoooooooo..oooooooooooooo..%%%%%",
"%%%%%%%ooo+OOOOoOooooooooo.ooooooooooooo..%%%%%%",
"%%%%%%%%oooOOOOooooooooooo.oooooooooooo..%%%%%%%",
"%%%%%%%%%oooOooooooooooooooooooooooooo. %%%%%%%%",
"%%%%%%%%%%%oooooOoooooooooooooooooooo. %%%%%%%%%",
"%%%%%%%%%%%%o.ooooooooooooooooooooo. %%%%%%%%%%%",
"%%%%%%%%%%%%%o...ooooooooooooooo.. .%%%%%%%%%%%%",
"%%%%%%%%%%%%%%%X....ooo.X......  .%%%%%%%%%%%%%%",
"%%%%%%%%%%%%%%%%%%X......... ..%%%%%%%%%%%%%%%%%"
};
