/* XPM */
static char *magick[] = {
/* columns rows colors chars-per-pixel */
"47 47 11 1",
"  c #010203",
". c #544c4f",
"X c #645da0",
"o c #63ae5c",
"O c #638fba",
"+ c #9a585c",
"@ c #b66e90",
"# c #a6915a",
"$ c #bba070",
"% c #c2b1a1",
"& c None",
/* pixels */
"&&&&&&&&&&&&&&&&&&%&%%&&&&&&&&&&&&&&&&&&&&&&&&&",
"&&&&&&&&&&&&&&&%%%$%o$o%%#&&&&&&&&&&&&&&&&&&&&&",
"&&&&&&&&&&&&%%%%o#o...o.oo$%&&&&&&&&&&&&&&&&&&&",
"&&&&&&&&&&&&%$##o.#.o.+#%%$%%%%&&&&&&&&&&&&&&&&",
"&&&&&&&&&&%%####.#.##$%$##$o%%oo#%O%&&&&&&&&&&&",
"&&&&&&&&%%%$$#.#+#%%####oo.oo.#o%oo.&&&&&&&&&&&",
"&&&&&&&%%$##.##+#$$$##.o....o$%%%%%%ooo&&&&&&&&",
"&&&&&&%$$####$$##$o##.#$%##.o.o.o.o.#@%@o&&&&&&",
"&&&&&%@$$###$%#####o.$%$$###.#...o.ooooo#+&&&&&",
"&&&&&%$%+$$#%######$%$####o.#..o.o.o.#o+ooo&&&&",
"&&&%%%%@$##%$$$$###%$$###.#.#o..#.o#oo#o#ooX&&&",
"&&&%%%@$$$%$#$$##$%#########.#.o...o#ooo#o@oo&&",
"&&%%%%@$$$%$$$+#$$$$#$###+#.#.#..o#.o#o#o#o$Oo&",
"&&%%%@$@%%$$$+$$%$$#####.##.##..o..oooooooo%oo.",
"&&%%@@%$%%%@$$$%$$$#$#######..o.+o#o#ooooo$oo%%",
"&%@@@@$%%%@$@$%$@$$+#########..#..oo#ooo#ooooo%",
"&%%@@@+%%@$%%%%$$$@$$####+##+#..o.#ooo#ooo$o$o%",
"%%@$+@%%@$@@%%%@$@$$$######.#.o.#.oo#ooo$oo%o%o",
"&%@@+@%$@@@@%%%$@$$@$$+#######...o#oooooooooo%%",
"&%+@+@%%+@@@%@%@$%@$@$$#######.o#.oooo$o$o%o%o%",
"%@@+@+%@@@@@%@%@@$@$@$$$+##+#+#.oo#ooooooo$o%o%",
"&@@@++%@+++@$@@$@@@$@@@$$##$## ..+oo$o$%o%o%oOo",
"&@@+@@@@+@+++@+@@@@@@@$@$$$$+.o.o..#oo%o%oooo%%",
"@@++++@+@+++@@+@++@+@+@@@$##....o#oooo%oo%oOoOo",
"&%X++X@@+@+@++@+@+@@+@@@+@+....o%$.#oooOooooOoO",
"&&+X+@@+@+@@+@++++++++++@$#...o....ooo%oOoOoooO",
"&%X+.+@@+++@@++@@+@@+@+@+@+.o.oooOoO.oooooooOoo",
"&&@..X@@++@@+@++@+@++@+++@@#.%.#@o%%.oOoOoOoooo",
"&&&+..@@X+X@+@+@++@++++++.@..@.o%O%O.oooooooOoO",
"&&%X.X@+X+.++++++++++X+.X..X$Oo%O%$oo.o.ooooooo",
"&&&@...@X.X+X+X+X+X+X+X.+...@X%O%$O ...o.OoOooX",
"&&&@@..@X...X+X+X+.X...X...X..X.X. X..o.o..o.o.",
"&&&&X..X+.X.@..+.X.+.++..XXXXXXo.OOOX....o..oX.",
"&&&&@X.X@..+@X....+.X.X.X.XXXOOOOOOOO.OO...o.o.",
"&&&&&@...X..X@.X..X...X.XXXX@XOOOOOOO.O.OO.o.X.",
"&&&&&&...XX..@.+X..+.X.+XX@XXO@OOOOXOO.XX......",
"&&&&&&&X..X.XXX....XX.XXXXXXXX@OOOOOOOO.oXO.oX.",
"&&&&&&&&X.....+.X.X..X+XXXX@X@XOOOOXOX.XXX.X.o.",
"&&&&&&&&&.....XX..X.X.XXX@XXXXOOOOOOOOOXO.O....",
"&&&&&&&&&&....X.X...XXXXXXX@X@O@OOOOOOO.O..O.O ",
"&&&&&&&&&&&&. X.X..XXX@XX@XXXXO@OOOOXOOOOXoX. .",
"&&&&&&&&&&&&&&&+X .+XXXXXXXX@X@OOOOOOOOOX.X .&&",
"&&&&&&&&&&&&&&&&&&..XXX@X@X@XOXOOOOOXOXOO.. &&&",
"&&&&&&&&&&&&&&&&&&&...XXXXXXXX%O@OOOOOOX...&&&&",
"&&&&&&&&&&&&&&&&&&&&&...XX@X@OOOOOOOOXO . &&&&&",
"&&&&&&&&&&&&&&&&&&&&&&&..XXXO@OO@OOO.. .&&&&&&&",
"&&&&&&&&&&&&&&&&&&&&&&&&. . .X.X.. . .&&&&&&&&&"
};
