/* XPM */
static char *magick[] = {
/* columns rows colors chars-per-pixel */
"48 48 10 1",
"  c #000101",
". c #2f2b4e",
"X c #304161",
"o c #41346b",
"O c #59595f",
"+ c #617495",
"@ c #38fb30",
"# c #a8a7aa",
"$ c #d9dad9",
"% c None",
/* pixels */
"%%%%%%%%%$$$$$$$$$$$$$$$$$$$$$$$$########%%%%%%%",
"%%%%%%%%%$$$$$$$$$$$$$$$$$#############OO##%%%%%",
"%%%%%%%%%$$$$$$$$$$$$$$$$$#############OOOO##%%%",
"%%%%%%%%%$$$###########################OOOOOOO%%",
"%%%%%%%%%$$$                        ###OOOOOOO%%",
"%%%%%%%%%$$$                        ###OOOOOOO%%",
"%%%%%%%%%$$$                        ###OOOOOOO%%",
"%%%%%%%%%$$$  ..................    ###OOOOOOO%%",
"%%%%%%%%%$$$  ........oXoXo.o...    ###OOOOOOO%%",
"%%%%%%%%%$$$  .....o.ooooooooo.o    ###OOOOOOO%%",
"%%%%%%%%%$$#  ....oooooooOoooooX    ###OOOOOOO%%",
"%%%%%%%%%$$#  ...oooooOoOooooooo    ###OOOOOOO%%",
"%%%%%%%%%$$#  ..oXoOoO+++OoOoooo    ###OOOOOOO%%",
"%%%%%%%%%$$#  ...oooO+++O+Oooooo    ###OOOOOOO%%",
"%%%%%%%%%$$#  ..oooOoO+OoOoOoooo    ###OOOOOOO%%",
"%%%%%%%%%$$#  ...oooooOoOoOooooo    ###OOOOOOO%%",
"%%%%%%%%%$$#  ..oXoooOoOoOoOoooo    ###OOOOOO%%%",
"%%%%%%%%%$$#  ...ooooooooooooooo    ###OOOOOO%%%",
"%%%%%%%%%$$#  ..XXoooooooooooooX    ###OOOOO%%%%",
"%%%%%%%%%$$#  .....ooooooooooo.o    ###OOOOO%%%%",
"%%%%%%%%%$$#  ....X.o.oXoXoXo.o.    ###OOOO%%%%%",
"%%%%%%%%%$$#                        ###OOOO%%%%%",
"%%%%%%%%%$$$                        ###OOOO%%%%%",
"%%%%%%%%%$$$                        ###OOOO%%%%%",
"%%%%%%%%%$$$$$$########################OOO%%%%%%",
"%%%%%%%%%$$$$$###################@@####OOO%%%%%%",
"%%%%%%%%%##############################OOO%%%%%%",
"%%%%%%%%%%%%%%%%$$$####################OO%%%%%%%",
"%%%%%%%%%%%%%$$%$###O+OOOOOOOOOOOOOOOOOOOOO++++O",
"%%%%%%%%%%$$$$$####+++++OOOOOOOOOO OOOOOOO++++OO",
"%%%%%%%%$%$$$$####++++++++OOOOOOOOOOOOO+++++OOOO",
"%%%%%%%%%######$$$$######OO++OOOOOOOO+++++OOOOOO",
"%%%%%%%%%##############$$$$$############OOOOOOOO",
"%%%%%%%%%##   ##################$$$$$##OOOOOOOOO",
"%%%%%%%%%## @@#########################OOOOOOOOO",
"%%%%%%%%%##############################OOOOOOOOO",
"%%%%%%%%$#####################OOOO#####OOOOOOOOO",
"%%%%%%%%#####################$$$$$$####OOOOOOOOO",
"%%%%%%###$##$##$#######################OOOOOOOOO",
"%%%%##$$##########$##$##$##############OOOOOOO%%",
"%%##$$$###################O#$##########OOOOO%%%%",
"O#$$$####$##$##$##########$########O##O.OO%%%%%%",
"O###$$$$$$$$#############$########O##OO.%%%%%%%%",
"%+++O####$$$$$$$$$$$####$#########$#OO.%%%%%%%%%",
"%%%%%%+++++O####$$$$$$$$$$#######$#OO.%%%%%%%%%%",
"%%%%%%%%%%%%%+++++O####$$$$$$$$$$#OO.%%%%%%%%%%%",
"%%%%%%%%%%%%%%%%%%%%+++++O###$$$#OO.%%%%%%%%%%%%",
"%%%%%%%%%%%%%%%%%%%%%%%%%%%++++++OO%%%%%%%%%%%%%"
};
