/* XPM */
static char *magick[] = {
/* columns rows colors chars-per-pixel */
"48 48 11 1",
"  c #07070b",
". c #2d2747",
"X c #3f3261",
"o c #504f61",
"O c #5d5c8e",
"+ c #38fb30",
"@ c #86718e",
"# c #a4a4a9",
"$ c #c2c4c5",
"% c #ecebef",
"& c None",
/* pixels */
"&&&$%%%%%%%%%%%%%%%%%%%%%%%%%%%%%%%%%%%%%%%$&&&&",
"&&&%%%%%%%%%%%%%%%%%%%%%%%%%%%%%%%%%%$$$$$$#o&&&",
"&&&%%%%%%%%%%%%%%%%%%%%%%%%%%%%%%%%$$$$$$$$@.&&&",
"&&&%%%%%%%%%%%%%%%%%%%%%%%%%%%%%%%%$$$$$$$$@.&&&",
"&&&%%%%%%%%%%%%%%%%%%%%%%%%%%%%%%$$$$$$$$$$@.&&&",
"&&&%%%%%                               %$$$o.&&&",
"&&&%%%%% ...........X..................%$$$O.&&&",
"&&&%%%%% ........XXXXX.X...............%$$$o &&&",
"&&&%%%%% .....X.XXXXXXXXXXX............%$$#o &&&",
"&&&%%%%% ....XXXXoXoooXXXXXX.X.........%$$#O &&&",
"&&&%%%%% ...XXXoOoOoOooXXXXXX..........%###o &&&",
"&&&%%%%% ..XXXoOoOOOoOooXXXX.X.........%###O &&&",
"&&&%%%%% .XXoXooOOOoOooooXXXXXX........%###o &&&",
"&&&%%%%% ..XXooOoOoOoOooXoXXXX.........%###O &&&",
"&&&%%%%% .XXXXooOoOoOooXoXXXX.X........%###o &&&",
"&&&%%%%% ..XXXXooOooooooXXXX.X.........%###O &&&",
"&&&%%%%% .X.XXXXoooXoXoXXXX.XXX........%###o &&&",
"&&&%%%%% ..XXXXXXoXXXoXXXXXX.X.........%###O &&&",
"&&&%%%%% ...X.XXXXXXXXXXX.X.X..........%###o &&&",
"&&&%%%%% ....X.X.XXXXXXX.X.X...........%###o &&&",
"&&&%%%%% .........X.XXX.X.X............%###o &&&",
"&&&%%%%% ............X.................%###o &&&",
"&&&%%%%% ..............................%###o &&&",
"&&&%%%%% ..............................%###o &&&",
"&&&%%%%% ..............................%###o &&&",
"&&&%%%%% ..............................%###o &&&",
"&&&%%%%% ..............................%##@. &&&",
"&&&%%%%%%%%%%%%%%%%%%%%%%%%%%%%%%%%%%%%%##@o &&&",
"&&&%%%%%%$$$$$$$$$$$$$###############.o.##@. &&&",
"&&&%%%%%%$$$$$$$$$$$$$###############X++@#oX &&&",
"&&&%%%%$$$$$$$$$$$$$###################o@o@. &&&",
"&&&%%@@@O@OoOOOOoOoOoOoOoOooooooXoXoooXo.X.. &&&",
"&&&@                                         &&&",
"&&&&&&&&&&&&$%$$%$%%$##@o...   .o@##&&&&&&&&&&&&",
"&&&&&&%%%%%%%#ooooo####@o...  ..oooo .X.X.&&&&&&",
"&&&&&%%ooo@#$#@#@#ooooo.......o#o@o#o oooX.&&&&&",
"&&&&%%oooo%%%%%%%%%%%%%%%%%%%%%%%%%%%o ooo .&&&&",
"&&&%%################################# oo## .&&&",
"&&%%######o...........................Xo@### .&&",
"&%%########################################## .&",
"&%%%%%%%%%%%%%%%%%%%%%%%%%%%#%%%%%%%%%%%%%%%%% &",
"&%%%%%%%%%%%%%%%%%%%%$$$$$$$@%$$$############# &",
"&%$oOo$###############@#@@@@@%#.           .## &",
"&%%O++%%%%%%%%%%%%%%%%%%%%%%$%$$%%%% ..$%%%$## &",
"&%%%%%%%%%%%%%%%%$%$$$$$$$$$o%################ &",
"&%%%%%%%%%%%%%%%%$$$$$$$$$$$@%##############@# &",
"&%%%%%%%%%%%%%%$$$$$$$$$$$##@%##############@o &",
"&@                          .X                .&"
};
