/* XPM */
static char *magick[] = {
/* columns rows colors chars-per-pixel */
"48 48 11 1",
"  c #030302",
". c #2e4a52",
"X c #59545b",
"o c #334ea6",
"O c #5e5ac9",
"+ c #73876a",
"@ c #7192bb",
"# c #973c54",
"$ c #b3a1c1",
"% c #faf2fc",
"& c None",
/* pixels */
"&&&&&&$+OXO.OOO.OX$$$&&&&&&&&&&&&&&$X+XX+.X+&&&&",
"&&&&+O.ooooooooOOOo@+@$&&&&&&&&&&$.@@%$%%%+..&&&",
"&&$XOoooooOoOoOOO@O@@O$$&&&&&&&&+X+$%%%$$+$$..&&",
"&$.o.oooooooo@OOoOOOOOO@+&&&&&&$X@$%$$+$@$@X  &&",
"$+ooooooOoOoOoOO@O@@$@$@$$&&&&&++%%$%+$+$.  X&&&",
"Oo.ooooooooOOO@OO@OOO$@@@@&&&&$.$%$%+$@X  .&&&&&",
"$oooooOoOoOOOOO@@@@@$@$@$O&&&&+X%%%$$@X .&&&&&&&",
"oooooooooOOOo@OOOOO$@@@$@@&&&&X$%$%$+$ .&&&&&&&&",
"OoooOoOoOoOOOO@@$@$@$@$O%o&&&&+$%$%$$$ .&&&&&&&&",
"oooooooOOOOO@@OOO$@@@$@$oo&&&&.%$+$%@$  $&&&&&&&",
"OoOoOoOOOO@O@O@@$@$@$@$@O &&&&X%$X %%@+ +&&&&&&&",
"OOoOoOOOo@OOOO@$@@@$O$Oo..&&&+.%. ..%$...$&&@&&&",
"O@$O$OOOOO@@$@$@$@$@$Oo.o.&&&+$%X %%%$$. +$&&&$ ",
"O@O@@$@O@@O@O$OOOO.o...o.o&&&X$%@X%..%+@ .&&$$. ",
"OO$@$@$@@OOOOOooo.o.o.o.o.&&X+%$+@ %%%%$X %$$+. ",
"O@O$@$@$O@oooooo.......o..&&.$$$+$.%..%$X  $@. .",
"OO$@$$$@$OOoOoooo.o.o.o.o.&++%$+%$$+$$%$$$ .  #&",
"O$O@@$@@OOOOoo.o.o.....o.o+.%$+$+$.....X .   .&&",
"OO$@$@$@@@OoOoooo.o.o.o.o.#%$.%$$.        .X&&&&",
"O@O$@$@$OOOooooo.XoX.X.X .%$ $$+.  X X. .X &&&&&",
"O@$@%$$@$OOoOoooX$%$%$%+X%$.%$$X  $@+@$$   +&&&&",
"O@OO@$@O@OOOoo.oX%$%$%X.%$.$$$.  $+$.++$@$ +&&&&",
"OO$$$@$@@OOoOooo.$%$%##%$.$$$.  $++$#+$$$$ +&&&&",
"O@O$@$@$O@Oooooo#$$%X.%$.$$$.  $+$+$.$$%$$ +&&&&",
"OO$@$$$@$OOoOoooo$%X#%$.$$$.  # ####### ## +&&&&",
"@$O@@$@@OOOOoo.oX%XX%+.$$$.  +X$$$$$+%%%%% +&&&&",
"$O$@$@$@@@OoOoooXX#%$.$$$.  $$+$$%%%$%%%%%.#&&&&",
"&@O$@$@$OOOooooo .%$.$$$.  XX..#.#.X.XXX+X +&&&&",
"&&@$$$$@$OOoOoo.X%$.$$$.  $$%$$$%%%%$%%%%%.+&&&&",
"&&$@@$@@OOOOoo..%$.$$$.  $$$+%+$%%%%$%%%%% +&&&&",
"&&&&$@$@@@OoO.X%$.$$$.  #.#X#.+X+XXXX+XX+X.#&&&&",
"&&&&&&$$$OOO..%$.$$$.  $ +$$$%+%%%%%$%%%%% +&&&&",
"&&&&&&&&&&&+X%$.$$$.  $+#$%$%%$%%%%%$%%%%%.+&&&&",
"&&&&&&&&&&+.%$ $$$.  XX.##.+.XXXX+XXX+XX+X +&&&&",
"&&&&&&&&&+#%$.$$$.  $+++#$$%%%$%%%%%$%%%%%.#&&&&",
"&&&&&&&&+.%$.$$$.  $+$$$ %$%%%$%%%%%$%%%%% +&&&&",
"&&&&&&&++%$.$$$.  XXXX#.##++XX+X+XX+XX+X+X.+&&&&",
"&&&&&&+.%$.$$$.  $+$++$$#%%%%%$%%%%%$%%%%% +&&&&",
"&&&&&+#%$.$$$.  X+++$$%$#%%%%%$%%%%%$%%%%%.#&&&&",
"&&&&+X%$+.$$.  &X.X#X#.##XXXX+XX+X+XX+XX+X +&&&&",
"&&&+X%$@$$$.  &&X$$$%$$$#%%%%%$%%%%%$%%%%%.+&&&&",
"&&+.%. .@$.  &&&X+$$+%$$#%%%%%$%%%%%$%%%%% +&&&&",
"&&@.$   $.  &&&&#.#+++X+#XXX+XX+X+XX+X+X+X.#&&&&",
"&&+ .%%..  &&&&&.$$$$$$$#%%%%%$%%%%%$%%%%% +&&&&",
"&&+  .#.  &&&&&&+$$$%$%$#%%%%%$%%%%%$%%%%%.+&&&&",
"&&&.     &&&&&&&+ ..  .  .  . . . . . . .  +&&&&",
"&&&&..#.&&&&&&&&&+++++++++++++++++++++++++++&&&&",
"&&&&&&&&&&&&&&&&&&&&&&&&&&&&&&&&&&&&&&&&&&&&&&&&"
};
