/* XPM */
static char *magick[] = {
/* columns rows colors chars-per-pixel */
"48 48 11 1",
"  c #050502",
". c #215522",
"X c #63180b",
"o c #4a6138",
"O c #64645e",
"+ c #2c8230",
"@ c #699269",
"# c #982412",
"$ c #a65b50",
"% c #c8b8be",
"& c None",
/* pixels */
"&&&&&&&&&&&&&&&&&&&&&&&&&&&&&&&&&&&&&&&&&&&&oooo",
"&&&&&&&&&&&&&&&&&&&&&&&&&&&&&&&&&&&&&&&&&&&@o++o",
"&&&&&&&&&&&&&&&&&&&&&&&&&&&&&&&&&&&&&&&&&&Oo+++o",
"&&&&&&&&&&&&&&&&&&&&&&&&&&&&&&&&&&&&&&&&&O.++++o",
"&&&&&&&&&&&&&&&&&&&&&&&&&&&&&&&&&&&&&&&%Oo+++++o",
"&&&&&&&&&&&&&&&&&&&&&&&&&&&&&&&&&O &&&@.o++++++o",
"&&&&&&&&&&&&&&&&&&&&&&&&&&&&&&&&&OO&&@.++++++++o",
"&&&&&&&&&&&&&&&&&&&&&&&&&     OO&OO&@.+++++++++o",
"&&&&&&&&&&&&&&&&&&&&OOOOo    ..o  .Ooo+++++++++o",
"&&&&&&&&&&&&&&&%$OXXX O%%O     XX   oo+++++++++o",
"&&&&&&&&&&&&$OXXXX#X   %%O   Xoo.    .o++++@+++o",
"&&&&&&&&&&%oX######X    O      X.    .o..o+++@+o",
"&&&&&&&&&OX########     O O           . .o+++++o",
"&&&&&&&&o##$######X     $%Oo         .....+++++o",
"&&&&&&&oX$$$$$$#XXXXXXXXO$O     %%%O ......++++o",
"&&&&&&o  $$$$#X##########XX      %%% ......++++o",
"&&&&&o   $$$XX$$###########X     %%% ......oooo.",
"&&&&OX  o$$X$$$$$###########X     O .........  .",
"&&&$XX o$X$%%$$$$############X       ..        .",
"&&&o##$$X%%%%$$$$#############            .o.  .",
"&&Oo##$X$$%%%O$$$#############X  .... ....o....O",
"&&XX###X$$X    XX$########XXXXX X........... .O&",
"&OX###X$$$      X#########X X#X  .......... .O&&",
"% X##X##$$      X#########XXXXX   .....o. . O&&&",
"O X#XX###$X     X############X     ...... .O&&&&",
"XXX#XX#####XX   X###XXX#####XX  .   ... ..O&&&&&",
"XXXXXX######XXXXXXXXX XX###XX  ..   .    O&&&&&&",
"XXXXX##########XXX     X###X  ...      .O&&&&&&&",
"XXXXXXXX####X###X      XXXX  ....      O&&&&&&&&",
"XXXXXX##XXXX###XX      XXX  ......    O&&&&&&&&&",
"oXXXXXXXXXX#XX#XX     XXXX ......    O&&&&&&&&&&",
"OXXXXXXXXXX#X##XXX  XXXX  ......    O&&&&&&&&&&&",
"O XXXXXXXXXXXXXXXXXXXXX  .....      .&&&&&&&&&&&",
"& XXXXXXXXX   XXX##XXX  .....    .O. &&&&&&&&&&&",
"&oXXXXXX       XX##XX  .....    .&@OX&&&&&&&&&&&",
"&O XXXX        XX##X  .....    O&@&OO&&&&&&&&&&&",
"&& XXXX        XXXXX X...     &&&&&&&&&&&&&&&&&&",
"&&O XXX       XXXXX   ..    .&&&&&&&&&&&&&&&&&&&",
"&&&OXXX      XXXXX   ..    .&&&&&&&&&&&&&&&&&&&&",
"&&&%XXXXXXXXXXXXX X  .    O&&&&&&&&&&&&&&&&&&&&&",
"&&&&& XXXXXXXXXXX.       O&&&&&&&&&&&&&&&&&&&&&&",
"&&&&&o XXXXXXXX...     .&&&&&&&&&&&&&&&&&&&&&&&&",
"&&&@.oo..X.XXX....    .&&&&&&&&&&&&&&&&&&&&&&&&&",
"&&@oooooooo......    O&&&&&&&&&&&&&&&&&&&&&&&&&&",
"&&oooo+@+++....     O&&&&&&&&&&&&&&&&&&&&&&&&&&&",
"&ooooo++++++..     O&&&&&&&&&&&&&&&&&&&&&&&&&&&&",
"ooooooo++++o.    .&&&&&&&&&&&&&&&&&&&&&&&&&&&&&&",
"OOOoooooooo. . .O&&&&&&&&&&&&&&&&&&&&&&&&&&&&&&&"
};
