/* XPM */
static char *magick[] = {
/* columns rows colors chars-per-pixel */
"48 48 11 1",
"  c #030302",
". c #3a5760",
"X c #5e3921",
"o c #605530",
"O c #5d6756",
"+ c #697d7c",
"@ c #758a5e",
"# c #68a5d3",
"$ c #a55a20",
"% c #afc9d8",
"& c None",
/* pixels */
"&&&&&&&&&&&&&&&&&&&&&&&XX&&&&&&&&&&&&&&&&&&&&&&&",
"&&&&&&&&&&&&&&&&&&&&&&&XX&&&&&&&&&&&&&&&&&&&&&&&",
"&&&&&&&&&&&&&&&&&&&&&&X$XX&&&&&&&&&&&&&&&&&&&&&&",
"&&&&&&&&&&&&&&&&&&&&+.OOX.oO&&&&&&&&&&&&&&&&&&&&",
"&&&&&&&&&&&&&&&&&&&%%%%%%%%+++&&&&&&&&&&&&&&&&&&",
"&&&&&&&&&&&&&&&&&%%%%%%%%%%%%%%O&&&&&&&&&&&&&&&&",
"&&&&&&&&&&&&&&&%%%%%%%#%%%%%+%+++&&&&&&&&&&&&&&&",
"&&&&&&&&&&&&&&%%%%%%%%%#%%%%%%+%++&&&&&&&&&&&&&&",
"&&&&&&&&&&&&&%%%%%%%%##%%%+%++%+++O&&&&&&&&&&&&&",
"&&&&&&&&&&&&%%%%%%%%#%#%%+%+%%+%+@Oo&&&&&&&&&&&&",
"&&&&&&&&&&&%%%%%%%%##%#%#@@@++%$+OoOo&&&&&&&&&&&",
"&&&&&&&&&&&%%%%%%%%#%%%%@@@oO$OOOoOOoO&&&&&&&&&&",
"&&&&&&&&&&+%%%%%%%%#%%%@@@@oO@OoooOoOo&&&&&&&&&&",
"&&&&&&&&&#%%%%%%%%%%%%@o@@@Oo.oOo.o.o.o&&&&&&&&&",
"&&&&&&&&&#%%%%%%%%%%%@@@%@ooOOo.oooo.oo&&&&&&&&&",
"&&&&&&&&#%%%%%%%%%%%@@@@@@@Oo.ooo.o.oo.o&&&&&&&&",
"&&&&&&&&##%%%%%%%%%%%@@@++@o.oooo.ooOoOo&&&&&&&&",
"&&&&&&&O#%%%%%%%@@%%%@@@@@o.oo.o.oo.o@o.X&&&&&&&",
"&&&&&X$O#%####%%%@$@@@@O@@oo.oo.o@o.oo@o.XX&&&&&",
"&&&$$$$.###%###%%@@@@ooOooo@oo@ooo@o@oOoXXXXX&&&",
"&&X$$$$.##%######@@@o@oOoOOo.ooo@o@oo.@O ooXXX&&",
"&&X$$$$.#######+++@O@OOOoOo.@...o.O.@ooOooX$XX&&",
"&&X$$$$o#######.@@@O++OO+..o..@@.oOooOoooX$XXX&&",
"&&$$$$$$$$####.+OOO++++.O...o..oooOO.oXXX$X$XX&&",
"&&&X$$$$$$$$@.+............OO.oOo.o$oooo$XXXX &&",
"&&&&XX$$$$$$$$$@$$$$$$$$$$$$$$$$$o$$o$X$XXXXX&&&",
"&&&&&&XXX$$$$$$$$$$$$$$$$$o$$o$o$ooo$XoXXXX &&&&",
"&&&&&&&&oXXXXX$o$$o$oooooooooooo$o$XX$X$ X&&&&&&",
"&&&&&&&&&.@$ooXXXXXXX$XX$XX$XX$XXXXO...X&&&&&&&&",
"&&&&&&&&&&...Ooo.XoXXXXXXXXXXoXooO....&&&&&&&&&&",
"&&&&&&&&&&&+...Oo.oOO.oOo.OOoo.o.....&&&&&&&&&&&",
"&&&&&&&&&&&&+.+.....ooOoO@oo.o...+..&&&&&&&&&&&&",
"&&&&&&&&&&&&&...+...+OOOoOOOo......&&&&&&&&&&&&&",
"&&&&&&&&&&&&&&....+..OOooOOoo.....&&&&&&&&&&&&&&",
"&&&&&&&&&&&&&&&.....+..@OoO......&&&&&&&&&&&&&&&",
"&&&&&&&&&&&&&&&&&....+.OOO......&&&&&&&&&&&&&&&&",
"&&&&&&&&&&&&&&&&&&.oo$$oXXoX X &&&&&&&&&&&&&&&&&",
"&&&&&&&&&&&&&&&&$$$$$$$XXXXoX. XX&&&&&&&&&&&&&&&",
"&&&&&&&&&&&&&&&$$$$$$$oXXX$XX X XX&&&&&&&&&&&&&&",
"&&&&&&&&&&&&&&$$$$$$X$$$XXXX X. . X&&&&&&&&&&&&&",
"&&&&&&&&&&&&&X$$$$$$$XXXXXXXX XX XXX&&&&&&&&&&&&",
"&&&&&&&&&&&&&$$$$$$$$XXXXXXX XX X XX&&&&&&&&&&&&",
"&&&&&&&&&&&&&X$$$$$$$$XXXXXXXX .XXXX&&&&&&&&&&&&",
"&&&&&&&&&&&&&X$$$$$$$$XXXX XX XXX XX&&&&&&&&&&&&",
"&&&&&&&&&&&&&&X$$$$$$$$$XXXXXXX XXX&&&&&&&&&&&&&",
"&&&&&&&&&&&&&&&X$$$$$$$$$XXXXXXXXX&&&&&&&&&&&&&&",
"&&&&&&&&&&&&&&&&&XX$$$$X$XXXXXXX&&&&&&&&&&&&&&&&",
"&&&&&&&&&&&&&&&&&&&XXXXXXXXXXX&&&&&&&&&&&&&&&&&&"
};
