/* XPM */
static char *magick[] = {
/* columns rows colors chars-per-pixel */
"48 48 11 1",
"  c #090909",
". c #2a423e",
"X c #5e5b5b",
"o c #2c2cb1",
"O c #26b947",
"+ c #48cdcb",
"@ c #b33134",
"# c #ce4bad",
"$ c #dbc44b",
"% c #bbb9b7",
"& c None",
/* pixels */
"&&&&&&&&&&&&&&&&&&&&&&&&&&&&&&&&&&&&&&&&&&&&&&&&",
"&&&&&&&&&&&&&&&&&&&&&&&&&&&&&&&&&&&&&&&&&&&&&&& ",
"&&&&&&&&&&&&&&&&&%%%%X. X%%%%&%%&&&&&&&&&&&&&&& ",
"&&&&&&&&&&&&&&&%%%%%%%$%$ .%%%%%%%&&&&&&&&&&&&& ",
"&&&&&&&&&&&&&%%%%%%$$$$$$$$  %%%%%%X%%&&&&&&&&& ",
"&&&&&&&&&&&%%%%%$$$$$$$$$$OX. +%%%XX%%&&&&&&&&& ",
"&&&&&&&&&&%%%%$$$$$$$$$$$$$$O. X%%%%%%%&&&&&&&& ",
"&&&&&&&&&%%%$$@$@$$$$$$$$$$$$$. +%%%%%X%&&&&&&& ",
"&&&&&&&&%%%$@@$@$$$$$$$$$$$$$$OX.X%%%%XX%&&&&&& ",
"&&&&&&&%%$@@$@@$@@$$$$$%$$$$O$$O%XX%%%%.X%&&&&& ",
"&&&&&&%%%@@@@$@$@$$$$$$$$$$$$$O$%%X  %%%X%&&&&& ",
"&&&&&&%%@@@@@@@@$$@$$$$$%$$$$O%%%X... %%%.XX%&& ",
"&&&&&%%@@@@@@$@$@$@$$$$$$$$$O$%%%.X... XX%%%X%& ",
"&&&&%%#@@@@@@@@@@$@$$$$$$$$$X%%X.X.O.  X%%%%%.& ",
"&&&&%%@@@@@@@@@$@@$@$$$$%$OX%%%XXO.....X+%%%%.& ",
"&&&%%@@@@@@@@@@@@$@@$$$$$X%%%X XO.. OO  XX%%..& ",
"&&&%%#@@@@@@@@@@@@@$@$$$XX%%X .....OOO.  XX .X& ",
"&&%%#@@@@@@@@@@@@@$@$$$.%%XX  O....OOOOO  .  .& ",
"&&%%#@@@@@@@@@@@@@@@$#XX%XX   ...OOOOOOO  .. .& ",
"&&%%@@@@@@@@@@@@@@@@$XX%XX  ..O..OOOOOOOOO.. X& ",
"&&%%#@@@@@@@@@@@@@@XXX%XX  .. .OOOOOOOOOOO.. X& ",
"&&%#@#@#@@@@@@@@@@@XX%#X  .....OOOOOOOOOOOOO..& ",
"&&%%@#@#@##@#@@@@@XX%XX  ...@.OOOOOOOOOOOOOOO.& ",
"&&%##@#@##@#@###@XX%XX  ...XXXOOOOOOOOO+O+O+..& ",
"&&%#####@####@#@X#%XX  .X@.X%%.++++++++O+O+OO.& ",
"&&%#@#@#######%#X%XX  ....X%%XO+O+O+O+O+O+O+O & ",
"&&%%#########@X%%%X  ...@X%%%X+++++++O++++++..& ",
"&&%#########%X.%%X  ...XX%%%.+++++++++++O+O+.X& ",
"&&%%#######%%XXX   ...@X%XXXX++++++++++++++O.X& ",
"&&%%######X.%%%.   oo..X.oXo+++++++++++++++O.X& ",
"&&%X#####%XXX%....XX.oooo.o+o++++%+++++++++O.%& ",
"&&&%%###%%%#X   XXo@ooooooo+o++++++++%+++++..%& ",
"&&&%%###.X%%X   o@..oooooooo+o+++++++++%+++.#%& ",
"&&&%%%%XXXX. ..X.ooo#ooooooooo+o++++++++++..%&& ",
"&&&%XX%%%X   Xo@oX#ooooooooo+o+o+++++%++++.X&&& ",
"&&&%%XX%%X   XXoXoo#ooooooooo+o+o++++++++..%&&& ",
"&&%XX%XX. .XoXo@#o#ooooooooooo+o+o++++++X.%&&&& ",
"&&%XX%#   o@o@ooo#oooooooooo+oo+o+o++++X.X%&&&& ",
"&&XX%XX.  .o.o##oo#ooooooooooo+o+o++++o.X%&&&&& ",
"&&X.XX  X..@o#o#o#oooooo.ooo+oo+o++o+o X&&&&&&& ",
"&&X.. ..X. .#o#o#ooooooooooooo+o+o+oo X%&&&&&&& ",
"&&&#...@..X.o#o#ooo#oooooooooooo+oo .X%&&&&&&&& ",
"&&&&&.X..&&%X.oo#ooooooooooooo+oo...%%&&&&&&&&& ",
"&&&&&&&.&&&&%#X..oooooooooooooo ..X%%&&&&&&&&&& ",
"&&&&&&&&&&&&&&%XX@ . ... .    .X%%&&&&&&&&&&&&& ",
"&&&&&&&&&&&&&&&&&%#X.. . ..XXX%&%&&&&&&&&&&&&&& ",
"&&&&&&&&&&&&&&&&&&&&&&&&&&&&&&&&&&&&&&&&&&&&&&& ",
"                      .  .  .                   "
};
