/* XPM */
static char *magick[] = {
/* columns rows colors chars-per-pixel */
"48 48 10 1",
"  c #040204",
". c #3c3c3c",
"X c #5a5c5a",
"o c #5c6264",
"O c #646264",
"+ c #9b9b9c",
"@ c #9c9aa4",
"# c None",
"$ c #cfcecf",
"% c #fcfefc",
/* pixels */
"################################################",
"################################################",
"##################            ##################",
"###############                  ###############",
"#############                      #############",
"###########                          ###########",
"##########                            ##########",
"#########                              #########",
"########                        X+++++++       #",
"#######                         +%%%%%%%+      #",
"######                          +%%%%%%%%o     #",
"#####                           +%%%%%%%%%X    #",
"#####                           +%%%%%%%%%$    #",
"####                            +%%%%%%%%%%X   #",
"####                            +%%%%%%%%%%$   #",
"###                             +%%%%%%%%%%%.  #",
"###                             +%%%%%%%%%%%X  #",
"###                             +%%%%%%%%%%%X  #",
"###                             +%%%%%%%%%%%$  #",
"###                             +%%%%%%%%%%%$  #",
"##                              +%%%%%%%%%%%%+ #",
"##                              +%%%%%%%%%%%%+ #",
"##                              +%%%%%%%%%%%%+ #",
"##                              +%%%%%%%%%%%%+ #",
"##               X++++++++++++++$%%%%%%%%%%%%+ #",
"##               +%%%%%%%%%%%%%%%%%%%%%%%%%%%+ #",
"##               +%%%%%%%%%%%%%%%%%%%%%%%%%%%+ #",
"##               +%%%%%%%%%%%%%%%%%%%%%%%%%%%+ #",
"###              +%%%%%%%%%%%%%%%%%%%%%%%%%%%  #",
"###              +%%%%%%%%%%%%%%%%%%%%%%%%%%%  #",
"###              +%%%%%%%%%%%%%%%%%%%%%%%%%%+  #",
"###              +%%%%%%%%%%%%%%%%%%%%%%%%%%X  #",
"####             +%%%%%%%%%%%%%%%%%%%%%%%%%$   #",
"####             +%%%%%%%%%%%%%%%%%%%%%%%%%$   #",
"####             +%%%%%%%%%%%%%%%%%%%%%%%%%.   #",
"#####            +%%%%%%%%%%%%%%%%%%%%%%%%$    #",
"#####            +%%%%%%%%%%%%%%%%%%%%%%%%X    #",
"######           +%%%%%%%%%%%%%%%%%%%%%%%X     #",
"#######          +%%%%%%%%%%%%%%%%%%%%%%+      #",
"##       ++++++++$%%%%%%%%%%%%%%%%%%%%%$       #",
"##       O%%%%%%%%%%%%%%%%%%%%%%%%%%%%$        #",
"##         $%%%%%%%%%%%%%%%%%%%%%%%%%O         #",
"##          +%%%%%%%%%%%%%%%%%%%%%%$X          #",
"##            +%%%%%%%%%%%%%%%%%%%+            #",
"##              +$%%%%%%%%%%%%%$+              #",
"##                 ++@%%%%%+++                 #",
"##                                             #",
"################################################"
};
