/* XPM */
static char *magick[] = {
/* columns rows colors chars-per-pixel */
"48 48 11 1",
"  c #0a0a0b",
". c #2f2b48",
"X c #38433b",
"o c #443251",
"O c #59575a",
"+ c #767189",
"@ c #788888",
"# c #88778c",
"$ c #99989f",
"% c #fafffe",
"& c None",
/* pixels */
"&&&&$$$$#$#O+OOOOOOOOOOOOOOOOOOOO&&&&&&&&&&&&&&&",
"&&&$   ..XX.X.XoXoX.XXXX.. .     &&&&&&&&&&&&&&&",
"&&&$  #O$+OOOXoXoXoXoXOOOO$$$$   &&&&&&&&&&&&&&&",
"&&&$ .               O  O$%%%    &&&&&&&&&&&&&&&",
"&&&$.X ..................  O$%%  &&&&&&&&&&&&&&&",
"&&&$XX ....................  O$%%%&&&&&&&&&&&&&&",
"&&&$oX ...$$$$#$+O+OOOOOOOOOO O$$%OOOOO&&&&&&&&&",
"&&&$XO ..$   ..XX.XXX.X.X.XXXX O$$%O$%%&&&&&&&&&",
"&&&@oO ..$  #O$@OOOXoXoXoXoXOOO O$$%$%%O&&&&&&&&",
"&&&#XO ..$ .                     O$$%$$O&&&&&&&&",
"&&&$OO ..$.X ....................OO$$%%O&&&&&&&&",
"&&&$OO ..$XX ...................O%OOOO$%O&&&&&&&",
"&&&$OO .o$XX ...$$$$#$#O+OOOOOOO%%$O  O$%OOOO&&&",
"&&&$OO ..$XO ..$   ..XX.X.XoXoO%%$O OO O$%OOOO&&",
"&&&$OO ..@oO ..$  #O$+OOOXoXoO%%$O OOOO OO$%%$O&",
"&&&$XO ..#XO ..$ .          O$%$O .     OO$%%%$O",
"&&&@OO ..@OO ..$.X .......OO$$$$ ...... OO$$$%% ",
"&&&+XO ..$OO ..$XX ......OO%$OO .......O OO$$$ &",
"&&&OoX ..$OO ..$oX .....OO$$$O .........  OO$ &&",
"&&&O.X@+@$OO ..$XO ....OO$$OO ...........  O &&&",
"&&&O.XoXO$OO ..@oO ...OO$$OO  o.o........    &&&",
"&&&O XXoX$OO ..#XO ..OO$$OO  o.o......... XX &&&",
"&&&O     @OO ..$OO .OO$$OO  ooooo.o...... XX &&&",
"&&&&&&&&&+XO ..$OO OO$$OO  Ooooo.o....... XX &&&",
"&&&&&&&&&OoO ..$OOOO$$OO  ooooooo.o...... oX &&&",
"&&&&&&&&&O.X@+@$OOO$$OO  ooooooo.o....... X. &&&",
"&&&&&&&&&O.XoXO$OO$$OO  o.ooo.o.o.o...... XX &&&",
"&&&OOO   O XX.XOO$$OO  ..ooooooo......... XX &&&",
"&&$$#+   O   %OO$$OO  ......o............ XX &&&",
"&$$$$$$$$$@+OO%$$OO  .................... .X &&&",
"&XoXoXoXOOO$OOO%$O  ..................... .  &&&",
"&  . ..X..%O$OOO   +@+OOXXXXXXXXXXXOO+$$$$X  &&&",
"&XOOOOOOOOO%$$O   oXOOOOOOOOOOOOOOOXXXXX.    &&&",
"&  . ...$OOO%$O   XoXOOOOOOOOOOOOOXXXo.XX    &&&",
"&   .X.%O$OOO  O                             &&&",
"&&&&&&OO%$$O   $@+@+OOO              OOOO&&&&&&&",
"&&&&&&OOO%$O   XOOOOOOOO            OXXX.&&&&&&&",
"&&&&&O$OOO  O...X.X....XXoXoXoXoXoXoX    X&&&&&&",
"&&&OO%$$O   OOOO+++O+OOXOOOOOOOOOOOOOXoX.&&&&&&&",
"&&&OOO%$O   ..XOOO    O                   OO &&&",
"&&O$OOO  O.X.X$$#+                        OOOO &",
"&OO$$O   &&&&$$$$$$$$$@+@+O+OOOOOOOOOOOOOOOOOOO&",
"OO$$OO   &&&&XoXoXoXOOOOOOOOOOOoOXOXoXoXoX.X...&",
"OO$OO O&&&&&&  . ..X..X.X..... X.... .         &",
"O OO  &&&&&&&XOOOOOOOO+O+O+OO   OOOOOOOXOXoXoX.&",
"&O  O&&&&&&&&  . .....X.X.X.X. ..... .         &",
"&&&&&&&&&&&&&   .X.X.Xo..X.X.. .. . .          &",
"&&&&&&&&&&&&&&&&&&&&&&&&&&&&&&&&&&&&&&&&&&&&&&&&"
};
