/* XPM */
static char *magick[] = {
/* columns rows colors chars-per-pixel */
"48 48 9 1",
"  c #010203",
". c #242c55",
"X c #304179",
"o c #51556c",
"O c #38458e",
"+ c #475293",
"@ c #8a8a9e",
"# c #e5e2e6",
"$ c None",
/* pixels */
"$$$$$$$$$$$$$$$$$$$$$$$$$$$$$$$$$$$$$$$$$$$$$$$$",
"$$$$$$$$$$$$$$$$$$$$$$$$$$$$$$$$$$$$$$$$$$$$$$$$",
"$$$$$$$$$$$$$$$$$$$$$$$$$$$$$$$$$$$$$$$$$$$$$$$$",
"$$$$$$$$$$$$$$$$$$$$$$$$$$$$$$$$$$$$$$$$$$$$$$$$",
"$$$$$$$$$$$$$$$$$$$$$$$$$$$$$$$$$$$$$$$$$$$$$$$$",
"$$$$$$$$$$$$$$$$$$$oooooooo++$$$$$$$$$$$$$$$$$$$",
"$$$$$$$$$$$$$$$$$     ........oo$$$$$$$$$$$$$$$$",
"$$$$$$$$$$$$$$$  ..XOOOOOOOOOOOOXo$$$$$$$$$$$$$$",
"$$$$$$$$$$$$$X   ..XOOOOOOOOOOOOXoo$$$$$$$$$$$$$",
"$$$$$$$$$$$.. ..XOOO++####+OOO+++OOo$$$$$$$$$$$$",
"$$$$$$$$$$.  XOOOOOO######@XX+++++++oo$$$$$$$$$$",
"$$$$$$$$$$.  XOOOOOO######@XX+++++++oo$$$$$$$$$$",
"$$$$$$$$.. XXOOOOOOO#######..++++++++++$$$$$$$$$",
"$$$$$$$o  XOOOOOOOOO######@  ++++++++++$$$$$$$$$",
"$$$$$$$o  XOOOOOOOOO######@  ++++++++++$$$$$$$$$",
"$$$$$$$ ..OOOOOOOOOO++@#@@...++++++++++++$$$$$$$",
"$$$$$$o XXOOOOOOOOOOOOX.  .XX++++++++++++$$$$$$$",
"$$$$$$o XXOOOOOOOOOOOOX.  .XX++++++++++++$$$$$$$",
"$$$$$...OOOOOOOO+##########++++++++++++++@$$$$$$",
"$$$$$  XOOOOOOOO+OO #######  +++++++++++++$$$$$$",
"$$$$$  XOOOOOOOO+OO #######  +++++++++++++$$$$$$",
"$$$$$  XOOOOOOOOOOO+#######  +++++++++++++$$$$$$",
"$$$$$  OOOOOOOOOO+++#######  +++++++++++++$$$$$$",
"$$$$$..OOOOOOOOO++++#######  +++++++++++++$$$$$$",
"$$$$$..OOOOOOOOO++++#######  +++++++++++++$$$$$$",
"$$$$$..OOOOOOO++++++#######  +++++++++++++$$$$$$",
"$$$$$  OOOOOO+++++++#######  +++++++++++++$$$$$$",
"$$$$$  OOOOOO+++++++#######  +++++++++++++$$$$$$",
"$$$$$..OOOO+++++++++#######  +++++++++++++$$$$$$",
"$$$$$ooXOO++++++++++#######  ++++++++++++$$$$$$$",
"$$$$$ooXOO++++++++++#######  ++++++++++++$$$$$$$",
"$$$$$$$.++++++++++++#######  ++++++++++++$$$$$$$",
"$$$$$$$o++++++++++++#######  ++++++++++$$$$$$$$$",
"$$$$$$$o++++++++++++#######  ++++++++++$$$$$$$$$",
"$$$$$$$$XX++++++++++#######  ++++++++++$$$$$$$$$",
"$$$$$$$$@@+++++++#############++++++++$$$$$$$$$$",
"$$$$$$$$$@+++++++#############++++++++$$$$$$$$$$",
"$$$$$$$$$$+++++++++             ++++$$$$$$$$$$$$",
"$$$$$$$$$$$$$++++++++++++++++++++++$$$$$$$$$$$$$",
"$$$$$$$$$$$$$$+++++++++++++++++++++$$$$$$$$$$$$$",
"$$$$$$$$$$$$$$$$++++++++++++++++$$$$$$$$$$$$$$$$",
"$$$$$$$$$$$$$$$$$$$$++++++@$$$$$$$$$$$$$$$$$$$$$",
"$$$$$$$$$$$$$$$$$$$$$$$$$$$$$$$$$$$$$$$$$$$$$$$$",
"$$$$$$$$$$$$$$$$$$$$$$$$$$$$$$$$$$$$$$$$$$$$$$$$",
"$$$$$$$$$$$$$$$$$$$$$$$$$$$$$$$$$$$$$$$$$$$$$$$$",
"$$$$$$$$$$$$$$$$$$$$$$$$$$$$$$$$$$$$$$$$$$$$$$$$",
"$$$$$$$$$$$$$$$$$$$$$$$$$$$$$$$$$$$$$$$$$$$$$$$$",
"$$$$$$$$$$$$$$$$$$$$$$$$$$$$$$$$$$$$$$$$$$$$$$$$"
};
