/* XPM */
static char *magick[] = {
/* columns rows colors chars-per-pixel */
"48 48 10 1",
"   c #1d1605",
".  c #532b0d",
"X  c #5f4010",
"o  c #3b555d",
"O  c #a05811",
"+  c #be5c2b",
"@  c #e6a220",
"#  c #f5cc49",
"$  c #ecdcc1",
"%  c #ff7780",
/* pixels */
"$$$$$$$$$#$############################@#@#@#@# ",
"$$$$$$$$$$#$$#$#$####################@######@#  ",
"$$++@+@@@@@@@@@@@@@#@@@@@@@@@@@@@@@+@O@OOOOOOX  ",
"$$+@O+@O@+@+@@@@@@@@@@@@@@@@@+@@O@+@O+O+X@O@OX  ",
"$$@O@@O@+@@@@+@@@@@@@@@@@@@@+@@@@+@O+%%+..OOOX  ",
"$$++@+@+O....O+@@@@@@@@@@+@@@@@O@@O%%$%++.X+O.  ",
"$$@+@OOOXOOXX..O@@@@@@@@@@@@@@+@@++$$% +%.. OX  ",
"$$@@+@XO++++O.X+@@@@@@@@@@@+@@@+@+%$%.o%+.. O.  ",
"$$+@+OO+@@@+XO#.X@@@@@@@@@@@@@@@+$$% +%+ .. +.  ",
"$$@+@.O+#$#O+$X .@@@@@@@@@@@@@@+%$% +%+ ..  O.  ",
"$$@@+XO+@#O+$+O. @@@@@@@@@@@@++$$% +%. .o. ++.  ",
"$$@+@.O++O@$@O.. @@@@@@@@@@@@+%%% +%+ ..  ++ .  ",
"$#@@+XOOOO$+OXX..@@@@@@@@@@@+$$%.+%. .+  +OX..  ",
"$$+@@X..X#+OOX. X@@@@@@@@@@+%$%..%+ ..  +O. X   ",
"$$@@+@..%O..... @@@@@@@@@@+$$%.+%. .+  ++X.. X  ",
"$#@+@@O+.....  @@@@@@@@@#+%$%..%+ .o  +@.X .X   ",
"$$@@@@@@X.  .O@@@@@#@@@@+$$% +%+ .+  +@...X X.  ",
"$#@@+@@@@@@@@@@@@#@@#@#+%$% +%+ o.  @@......X   ",
"$$@@@@@@@@@@@@@#@@@@@@oo++.+%. ..  +@ ... X .o  ",
"$#@@@@@@@@@#@#@@#@#@#o++. ..+...  @@X.XX..o..   ",
"$#@@@@@@@@@@@@#@#@#@#O$%+o .o.+  @+X....... X.  ",
"#$@@@@@@@#@#@##@#@###o%$%+....  @@XXX..o.... .  ",
"$#@@@@@@@@@@#@####@@#@ +o+.o   %@.....X.. X X  .",
"#$@@@@@@@#@##@##@##@#   ....  @@.XXX.o.X X..XX  ",
"$#@@@@@@@@#@######@#o$   ..  @@.XX.X....X.. OX. ",
"##@@@@@@#@#@##@#@##o$o  #   @@@.XX.oX...X X+O.. ",
"$#@@@@@@@#@#@###@#$$$  @@@#@@@@X.X.......oOOOX .",
"##@@@@@#@#@##@##@$$o  @@#@@@@@@@XXX.X.XX.OO@OX  ",
"#$@@@@@@@@#@##@#$$$oo@#@@@@@@@@X.X.XX.. @OOOOX .",
"##@@@@@#@##@#@#$$$oo#@@@#@@#@@X.XXX.X..@OOOOOX  ",
"##@@@@@@@@#@##$$$oo@@#@@@@@@@XXX..@...+O@O+O@.  ",
"##@@@@#@@###@$$$oo##@@#@#@@@XXXXX+XX..XXO+OOO.  ",
"###@@@@#@#@@$$o$o@@@#@@@@@@XXX.X+OOOOXXX.@OOOX  ",
"##@@@@@@@#@$$$oo@#@#@#@#@@XX.OX+XO++++O X+@+OX  ",
"###@@@@@@@$$$oo@#@@@@@@@@XOXXX@OO+@@@+OX#.XOOX  ",
"##@@@@@@#$$$oo##@#@#@#@@XXXX.@@XO+#$#OO$X XOO.  ",
"#$@@@@@@$o$oo@@@#@@#@@@XOXXX@@+.O+@#O+$@XX OOX  ",
"##@@@@#$$$oo#@#@@#@@@#XXXXX@@+@.O@+O@$+OX. OOX  ",
"#$@@@@$$$o @@@@@#@@@@XOXXX@@+@@.OO.+$@OO...OO.  ",
"##@@@$$$o o@@#@@@@#@XXXXX@@@@@@...O#+OX.. XOO.  ",
"#$@@$$$o  @@@@@@@@@XOXXX@@+@+@+@..%O..O.. +OOX  ",
"$#@o$$o o@@#@@@#@@XXXXX@@@@@@@@+O+.....  @OOO.  ",
"#$@@o$ @@@@@@@@@@XXXXX@@@+@+@+@+@@X.  .X+OOOO.  ",
"$#@@@ @@@@@@@@@@XXXOX@@@@@@@@@+@O+O+O+O+OOOOO   ",
"#$@@@@#@@@@@@@@XXXXX.@@@@@+@+@+@+@+@+O+OOOOOO.  ",
"#$OOXOOXOOXOOOXXXXXX.OXX.X.OXXX.X....XXXX... .  ",
"$XXX.....X...   .  .......... ..                ",
"O.OX.O.X.......  .... .. .   .   . .            "
};
