/* XPM */
static char *magick[] = {
/* columns rows colors chars-per-pixel */
"48 48 10 1",
"  c #040517",
". c #2b2941",
"X c #525367",
"o c #6e6d8a",
"O c #718293",
"+ c #867196",
"@ c #9399a4",
"# c #a2abcc",
"$ c #dfdfe0",
"% c None",
/* pixels */
"%%%%%%%%%%%%%%%%%%%%%%%%%%%%%%%%%%%%%%%%%%%%%%%%",
"%%%%%%%%@XXXXXXoooooo@o@@@ooooooXXXXXXXX@%%%%%%%",
"%%%%%%%@XXXXXXXXXXXXXXXXXXXXXXXXXXXXXXoXX%%%%%%%",
"%%%%%%@@XXXX$$$$XXXXXXXXXXXXXXXXXXXXXXX@X@%%%%%%",
"%%%%%@$@XXXX$XXX$XX$$XX$XXX$XX$$XX$X$XX@XX%%%%%%",
"XXXXX@$@XXXX$XXX$X$XX$X$X$X$X$XX$X$$XXX@XX@X@XXX",
"     $$@XXXX$$$$XX$XX$X$X$X$X$$$$X$XXXX@XX.     ",
"    X$$@XXXX$XXXXX$XX$XX$X$XX$XXXX$XXXX@XXX.    ",
"    @$$@XXXX$XXXXXX$$XXX$X$XXX$$$X$XXXX@X.XX    ",
"    $@$@XXXXXXXXXXXXXXXXXXXXXXXXXXXXXXX@X.X..   ",
"   X$o$@XXXXXXXXXXXXXXXXXXXXXXXXXXXXXXX@X..X.   ",
"   @$o$@XXXXXXXXXXXXXXX$$XXXXXXXXXXXXXX@X .X.   ",
"   $@o$@XXXXXXXXXXXXXXX$$XXXXXXXXXXXXXX@X ..X.  ",
"  X$@o$@XXXXXXXXXXX@$$X$$X$$@XXoXoXoXXX@X  .X.  ",
"  @$@X$@XXXXXXXXXX$$$$X$$X$$$$oXoXoXoXX@X  ..X  ",
"  $@oo$@XXXXXXXXX$$$@oo$$oo@$$$oooooooX@X  ..X  ",
"  $@Xo$@XXXXXXXX$$$Xooo$$ooo+$$$+O+O+oX@X   .X  ",
"  $@Xo$@XXXXXXX@$$Xoooo$$+O+o@$$#@O@O+X@X   .X  ",
"  $oXo$@XXXXXXX$$@oooo+$$o@o@@#$$@@o@oo@X   ..  ",
"  @oX@$@XXXXXXX$$oooooO$$@@@@@@$$@@@@@o@X    .  ",
"  @Xo@$@XXXXXXX$$ooo+o@$$@@@@@@$$@@@@oo@o    .  ",
"  Oo@@$@XXXXXoX$$oooO@@$$@@@@@@$$@@@@@o@o    .  ",
"  oX@@$@XXXXXXo$$o+O@@@@@@@@@@@$$@@@@oo@@    .  ",
"  Xo@@$@XXXXXoo$$@O@@@@@@@@@@@$$$@@@@@o@@    .  ",
"  Xo@@$@oXXXooo@$$@@@@@@@@@@@@$$#@@@@@o@@    .  ",
"  oo@@$@oXXooooo$$$@@@@@@@@@@$$$@@@@@@o@#    .  ",
"  oo@@$@oXoXoo+O@$$$#@@@@@@$$$$@@@@@@@o@#    .  ",
"  @@@@$@XXXoooO@@@$$$$$$$$$$$$@@@@@@@@o@#    .  ",
"  @@@@$@oX+Xoo+@@@@#$$$$$$$$#@@@@@@@@@@@$    .  ",
"  @@@@@$XXXoooo@@@@@@@@@@@@@@@@@@@@@@@@$@    .  ",
"  @@@@@$@XXooo@@@@@@@@@@@@@@@@@@@@@o@o@$@    .  ",
"  @@@@@@$$X@@@@#@@@@@@@@@@@@@@@@@@@@@$$@X    .  ",
"  @@@@@XX@$$####$$$$$$$$$$$$$$$$$$$$$@@X.    .  ",
"  @@@@OXX.                                   .  ",
"  @@@@oXX                               .    .  ",
"  @@@@XX..                              .    .  ",
"  @@@oX.X.                              .    .  ",
"  @@@oXX..                               .   .  ",
"  @@+XX..                               . .  .  ",
"  @@OoXX..                               .   .  ",
"  @@XXX...                            . .    .  ",
"  @+XXXX..   .                           .   .  ",
"  @OoXX..     .                       .   .  .  ",
"  OoXXX...     .                         ..  .  ",
"  +XXXX...    . ...                   . ...     ",
"   oXX.. .   . ... .                     ..     ",
"    XXX..     . ..... ....... .       .  .. X   ",
"       . .     .   .                     X.X    "
};
