/* XPM */
static char *noname[] = {
/* width height ncolors chars_per_pixel */
"48 48 12 1",
/* colors */
"` c #FFE779",
"a c #878787",
"b c #FFAE00",
"c c #FF6F6C",
"d c None",
"e c #4ABD40",
"f c #B72828",
"g c #5C5C5C",
"h c #FFFFFF",
"i c #FFFF00",
"j c #D3D3D3",
"k c #C1C1C1",
/* pixels */
"dddddddddddddddddddddakakadddddddddddddddddddddd",
"dddddddddddddddddddakgggggkadddddddddddddddddddd",
"ddddddddddddddddddaagdjdddggkddddddddddddddddddd",
"dddddddddddddddddkgdddddddjdggdddddddddddddddddd",
"ddddddddddddddddgagjdddddddddagddddddddddddddddd",
"ddddddddddddddddaadddddddddddagddddddddddddddddd",
"ddddddddddddddddkgkddddddddddgaadddddddddddddddd",
"ddddddddddddddddagdddddddddddkkgdddddddddddddddd",
"ddddddddddddddddagddddddddddddagkddddddddddddddd",
"dddddddddddddddjagddddddddddddkgdddddddddddddddd",
"ddddddddddddddddaadddddddddddgagjddddddddddddddd",
"dddddddddddddddddkgdddddddggaaagdddddddddddddddd",
"dddddddddddddddddgaaddgggaaaggggggdddddddddddddd",
"ddddddddddddddddddgajakggkgggggggggddddddddddddd",
"dddddddddddddggagaahaakgkcggggagggggkddddddddddd",
"dddddddddddggaabaajjg`ga`aggggafggggdddddddddddd",
"ddddddddddgagak`jajak`a`h``ggfaeggfggddddddddddd",
"dddddddddgcgaa`jgkcahkkhjk`j`acggaaggddddddddddd",
"dddddddddkgafajkgkgkj`chkggga`abaggaggkddddddddd",
"ddddddddd`aaeckgcgga`kgj`ggfg`akbaafggdddddddddd",
"dddddddddakgggaaeagg`jgaj`a``jkcaaeaagkddddddddd",
"dddddddddd`ggggaagggghag`h`hh``a`a`fggdddddddddd",
"dddddddddddgggacgaggg``gghj``h`ja`akagkddddddddd",
"ddddddddddkafgaaagggggkgg`jhhh``ac`iagdddddddddd",
"ddddddddddgggggg`gaggggagga`hhj`akajakdddddddddd",
"ddddddddkgkggggggkkcggggggggk``hckckgddddddddddd",
"dddddddddkaggggaggaaacggggggggajaa`acddddddddddd",
"ddddddddd`gfgggbaca`jhh`gfaggggggce`akdddddddddd",
"dddddddddagagbgagakkahhjhk`gaggg`kckckakdddddddd",
"dddddddddd`aaggbaggakacakkd`gcggak`a`aaddddddddd",
"ddddddddddagcgaaabgaaaakkddahaggbdk`k`cakddddddd",
"ddddddddkacgegacaaggagkadddkkcgggddaa`k`dddddddd",
"dddddddddkgagg`abgggaacekdddkj`ggddkkc`kakdddddd",
"dddddddkaabggbgaaggcaakkdddkgkagggdd`akckddddddd",
"ddddddddkagaggkgcgkakacddddddk`agakdkkcjaa`ddddd",
"dddddddacaegggbakaakgkedddddkgkggggdda`a`c`adddd",
"ddddddghaaaacaa`gkaaackdddddddkcggkkddka``kkdddd",
"ddddkghabaggk`gckgkgkadddddddjgagggddkk`ajcadddd",
"dddddjgkgagg`gcgdkagabddddddddd`gaggddkk`k`kkddd",
"ddddkcacag`dkagdkkaakddddddddddgcagagddkaajkdddd",
"ddddahakgbgdddkddakgadddddddddddkagagkddd`kkdddd",
"dddd`a`aggdddddddaceadddddddddddgbgggadddddddddd",
"ddddacegcgddddddgakgbddddddddddddkgaggjddddddddd",
"dddddkgfgdddddddkagkgddddddddddddgafggdddddddddd",
"dddddgggddddddddkcaajdddddddddddddaaejdddddddddd",
"ddddddjddddddddkkaaadddddddddddddddddddddddddddd",
"ddddddddddddddddkakajddddddddddddddddddddddddddd",
"ddddddddddddddddkagkdddddddddddddddddddddddddddd"
};
