/* XPM */
static char *magick[] = {
/* columns rows colors chars-per-pixel */
"48 48 10 1",
"   c #37240c",
".  c #533314",
"X  c #6e471f",
"o  c #916132",
"O  c #ac7747",
"+  c #bb8756",
"@  c #ce9e6e",
"#  c gray",
"$  c #e0b48c",
"%  c #ebcaac",
/* pixels */
"@++O+o+OOOO++O++OOOOO++@@@@@+++++++@@++++++@@+@@",
"+++++OOO++++++++O+O+++@+++@@@+++++@@@+@+@+@@+@@@",
"O++@@@++++++++++++++@@@++@@+++++@@@@@@++++@++@+@",
"+++O+++@++++@+++++@+@+OOooOO+@+@++@+++@++++@++@@",
"++O+++++@++++@+@@+@OoX.......XO+@@@@+@@++++@+@@@",
"+++++@@@@@@++@+@@@o.... . ......O+@@@++O@+@@@@@@",
"@+@@+@@@@@@@@@@++X...X ..... ....o@@@@@++@+@@@@@",
"@@@@@@@++@@+@@@@X...X.....  . ....o@@@@@@+@+@@@@",
"++@@@@@@@@@@@@@o...oOooX.. .. .....O@@@@+@@@@@@@",
"@@+@@@@@@@@@@$@.X+@@$@@+OoX.........+@@@@@@+@@@@",
"+@@@@@@@@@@@$@o.+@$%%%$@@+oX.. .....X@@@@@@@@@@@",
"+@+@@@@@@@@$$+ o@%%%%%%%@@OX...  ....+@@@@@@@@@@",
"@@@@@@@$@@$%$X.+$%%%%%%%$@OoX.... ...o@@@@@@@@@@",
"@@@@@@@@@@$%+X.+$%%%%%%$$@Ooo...   . .@++@@@@@@@",
"@$@@@@@@@@@@o.X+$%%%%%%$@@@+ooX..    .oo++O+@@@@",
"@@@@@@@@@@@+..o@$%%%%%%%$$@@+oX.... . XooooO@+@O",
"O+@$%@%@%@%o..o@$$%%%%$@@@@@+oX....   XooooOOO+O",
"OOO+@@@%@%@o..X@@+@$$@OOOOOoooX.......XXXooOo+Oo",
"oXooo@@@%@OX..XXooo@@OXoOoX..XX........XXXXooooo",
"XXooo@%@@@+X....O XO$ooOO XXoOX.... . .XXXXoooXX",
"XXXoo@@oO++.. o+++O@$oO@@+o+@+o.....  .XXXXXoXXo",
"X.XXXooo.oo.. o$$@@@$O+@@$$$@OX.........XXXoXXXX",
"oX.XX XXXXXX  o@$$$$@@O%$%$@@OX.X......XXXXXXXXX",
"X......X... ..X@$$$$$+@@%$$@OoX..X.X...XooooOOoO",
".X. XX. . ..  .@@$@$$+O$@$@+oXX..........XXoXooO",
"X.XX.... . ... O@@+$@oo$$$@Ooo....X........XXXXX",
"X.X...... .... o+@@+X o@@@+ooX...X...........X.X",
"X............ .XOO@@oOOOO+OooX..X.XX....XXXXXXXX",
"...... ... ... XO+O+Oooo+++OXX..X.......XXXXXXX.",
"............... o+@@OOoO+@+ooX...........XXXXXXX",
"........... ... .o@@OOOO+OoXX............X.XXXXX",
"...XXXXXXX.X .... O@%$++ooXX.............XXXXXXX",
".......XXX. .... . +@+OoXXXX.............XXXXXXX",
"......XoOoX.....    oXXXX.X..............XX.XXXX",
" .XXXXXXooX.....     .X X...X............X..XX..",
"XXXoXOOOooo. ....    X.X ....XX... .... ..XX.XXX",
"XXoOOOOXOooX..... .  ooXX..XXXXX.........X.XoXXX",
"XoXOoXOOXoXX....   . XOOooXXXooX..... ....XXXXXo",
".X.XOXXoooX.....    .XOOOoooooOoX......  ......X",
"X.X. .X.....  .   ..XoO++OOOO+Ooo......... .....",
"X.X.. ... .........o+@@@+++@@@@+oX.XX..... .....",
"XX..   ... ......Xo+@$@$@@@@@@@+OoXXo........XXo",
"XXX. .  ........o+@@$$$@@$$%@@@@oXoXoX........Xo",
"XX.  ...........+@@%$$%%$$%@%@@@OoXXX..........X",
"X.............Xo@$$%%%@%@%@%@%@@OXoXX....... ..X",
"XXX...........XO@@%%%$%$@%%$%@@@oooXX....X......",
"oXX.XX......XXo+%%@%%%$%$$%$$%@@oXoXX...XX.X....",
"oo#.XX.  ...XoO@%$$%%$%%%%%$%@@@ooXXXXoooooXX.. "
};
