/* XPM */
static char *magick[] = {
/* columns rows colors chars-per-pixel */
"48 48 11 1",
"  c #040204",
". c #462d3a",
"X c #69636c",
"o c #676f88",
"O c #798a81",
"+ c #b62230",
"@ c #887689",
"# c #9e9ea7",
"$ c #c3c1c4",
"% c #eef1f1",
"& c None",
/* pixels */
"&&&&&&&&&&&&&&&&&&&&&&&&&&&&&&&&&&&&&&&&&&&&&&&&",
"&&%%%%%%%%%%%%%%%%%%%%%%%%%%%%%%%%%%%%%$#+ %$$&&",
"&%%%%%%%%%%%%%%%%%%%%%%%%%%%%%%%%%%$%%$++. @$#X&",
"&%%%%%%%%%%%%%%%%%%%%%%%%%%%%%%%%$%%%+++. X#OX.&",
"&%%%%%%%%%%%%%%%%%%%%%%%%%%%%$%$%$%%$+++ .XX@o &",
"&%%%%%%%%%%%%%%%%%%%%%%%%%%%%%%$%%%%+++ .XX##X.&",
"&%%%%%                          .%%+++  ..OO#o.&",
"&%%%%% XXXoXXXo@o@O@O@O@O@OoOXoX$%++++ ..###$@ &",
"&%%%%% X@OX#@@@#@#@##@@#@@@@@@X#%#+++ ...##$$X &",
"&%%%%% Xo@o@o@#@#@####o#@#O@O@o%%+++  ..X$$$#@ &",
"&%%%%% XX@@##@#@#######@#@#@@#$%+++ ....X%$#$o &",
"&%%%%% @O@#o##################%$++. ...XX%$$#o.&",
"&%%%%% o@#@#@##$$#$##$####@o#%%+++ ...XXX%$#$X &",
"&%%%%% o@o######$%%%########$%+++ ....Xoo%$#$o &",
"&%%%%% @#@###$$$%%#+.#######%$++  ..XXXXo%$##o &",
"&%%%%% @oo####$%$++++o#####%%+++ .X..XOXO%#$#o.&",
"&%%%%% o##@###%%+++++ @###$%+++ ...XoXXOX%$##X &",
"&%%%%% @o#####$@++++++X@##%$++  ..XXOoXoo%#$#o &",
"&%%%%% @@@#####+#+++++ o#$%+++ .X.XXXOX@X%###X &",
"&%%%%% oo##@###$%+++++..#%+++ ...XOXOXoX#%###o &",
"&%%%%% @@oo#####$#+++++.%%++. ..XXXXo@XXX%$##X &",
"&%%%%% oo#o#o#@#$$++++++%+++ .X.XXOXoXX@o%###o &",
"&%%%%% X@o@#@#@#@$+++++++++  ..XXoX#XO@XX%###X &",
"&%%%%% @o@o@oo#@@$%++++++++ .X.XOXoXXXoX#%##Oo &",
"&%%%%% XX@o@@@@@@@%+++++++  ..XXXOX@X#XXX%###X &",
"&%%%%% @ooo@o@@@@@#$++++++ ..XXXo@XXoX@Xo%##Oo &",
"&%%%%% XX@oo@o@o@@@%+++++  X.XXXoX@OXX@OX%###. &",
"&%%%%% X@XoX@oo@o@@@#+++. ...ooXOXoXOoXX#%O#Oo &",
"&%%%$% XX#XX@Xo@oX@@X   ...XXXXOX@X@X@XXX%##OX &",
"&%%%%% XoX@XoX@XoX@X@XX.....XX@XoXOXX@X@o%O#OX &",
"&%%%$% X@XXOX@XOX@X@XXXXX.XXoXoX@X@X@XXOX%#@O. &",
"&%%$%$ XOXo@OXoX@XXX@@XXXoXXOXo@OXoXOXoX#%O#OX &",
"&%%%%%#%%%%%%%%%%%%%%%%%%%%%%%%%%%%%%%%%%%#X@. &",
"&%$%$$%$%$$%$$$$$$$$$$$#$$#$#$########XX.#O#OX &",
"&%%$%$%$$$$$$$$$$$#$#$####$##########O...$OX@. &",
"&%%$%$%$$%$$$$$$#$$#$#$#$#########O#O#O$$$OOoX &",
"&%#OXOXOXXOXOXoXOXoXoXoXXXoXXXXX.X.X.XX.X.X... &",
"&O                                             &",
"&&&&&&&&&&&%X.X.X.$###@XX....  ......&&&&&&&&&&&",
"&&&&&&&&&&%#OoXXXX.oO@OXX... ....XOoX.&&&&&&&&&&",
"&&&&&&&&&%%OOO#OOOoXX......o.XXoOOOO#X.&&&&&&&&&",
"&&&&&&&&%%#############$#######$###$##X.&&&&&&&&",
"&&&&&&&%%%%%%%%%%%%%%%%%%%%%%%%%%%%%%%%X.&&&&&&&",
"&&&&&&&%$#$#$#$#$#$#$#$##$######$#$#$#$# &&&&&&&",
"&&&&&&&%#$#######$#####$##$#$#$####$#### &&&&&&&",
"&&&&&&&o                                .&&&&&&&",
"&&&&&&&&&&&&&&&&&&&&&&&&&&&&&&&&&&&&&&&&&&&&&&&&",
"&&&&&&&&&&&&&&&&&&&&&&&&&&&&&&&&&&&&&&&&&&&&&&&&"
};
