/* XPM */
static char *magick[] = {
/* columns rows colors chars-per-pixel */
"48 48 11 1",
"  c #0d0e0e",
". c #36472a",
"X c #2c4a55",
"o c #515456",
"O c #306186",
"+ c #486a8d",
"@ c #498f3c",
"# c #668ca1",
"$ c #91842e",
"% c #abb1b2",
"& c None",
/* pixels */
"&&&&&&%%%%%%o&&&& ...o  o%%%%. &&&&&&&&&&&&&&&&&",
"&&&&%%%%%%%%%%o @.@$.@#o. .#%%%   &&&&&&&&&&&&&&",
"&&&%#%%%%%%%%%%o@@o.%%%%%%#  #%%%.  &&&&&&&&&&&&",
"&&&& ooo%%%%%%%%o%%%%%%%#$o%# #%%%..o&&&&&&&&&&&",
"&&&&&&o oo%$%%#%oo%#+%#@@$$$%# o%%%o%%%&&&&&&&&&",
"&&&&&&&&o %%#%%.o @@#%.@@+$@+%% o%%%%%%o&&&&&&&&",
"&&&&&&&.@.o%%$%oo o%%%%#@oX.@#X@ o%%%%%# &&&&&&&",
"&&&&&&O@@oo#%%o.%o #%#@o#%@o.@XX#oo%%%%o. &&&&&&",
"&&&&&.%%%oo%%#o%o% @@%@@@@%#o..@o%#oo#%%o. &&&&&",
"&&&&X%%#%o%$% %.%. X@X##%%@@#$@+%%%o  #%%.. &&&&",
"&%%.%#%%%X%%% o%o% .@.%%+@.%##o%%%+ oo o%%oooo&&",
"&#%%%%O%X%%# %%%%% ..o#O@..@oo%%%o %++o o#%%%%o&",
"&o%%%%%%+%%% o%%o%% ..%##...o%%%# %X#+o oo%%%%%o",
"&oo%%%%o%%# %%%%%%# ....#.o.%%%% %+++++ oo%%%%% ",
"&  %%%%o%#% o%%o%%%% ....oo%%oo %X+++++o oo%%%.&",
"&o# .%.%%%oo%%%%%%$%o...o$%%%o o+++++++O  oo%  &",
"&##%o  %$%.%o%o%$%%#%..o$#%.o oo+O+++++oX  o  .&",
" #####.     %o%%%.%%%%oo#%oo  +++++++O++XX   .  ",
"o%%###%oo @.   #%%.%$%%.%.o  o++++++++OoXXX ..  ",
"#######o #@@@..  %%o%%%%oo  +++++++oO+XOXX...  .",
"#%###%%###@..$... %%o$%%$o o++++++O+OoOXX.X . . ",
"###########.@@.@@..%%o#%%%o++#++++O+X+XXXX ... X",
"############@.@..oo %%o%%%%o+++O+OoXOoXX XX X  .",
"###%##+####@#.@.oo%%.%%o$%#%oO++OXOoXXXXXX X  .X",
"#######++##+#+@.$%$oo %%o%%%#o+XoXXXXXXX X   .X.",
"+###+########%oo#%oo  .%%%#%%%oXoXXXXXX XX X X .",
"#+#+#+#+#+#+o$%%%oo  o. %%%$%%%oXXXX X X  o   XX",
"+#+#+#+#+++%o+$%%o   +o+.%%%#%#%oXXXX X. X . X X",
" #+++++#++%o%ooo   ..ooXo %%%%%%#oX XX  X     X ",
"X++++#++oo%%$%o   .....OXo.%%$%$%%oX.  X  X X X ",
" ++$+++o%ooo%%o   ..X..XX   %%%%%#%o .. X   X . ",
"&o+++++%o%$oo  .XoXoXX. . ...%%%$%%%o  . X X X &",
"&XoOoooo%%#o   oOXXOoXX.      %%%%#%%o  . X  X &",
"& O+X%oo$%%o  XOX+XXXXX . . . .%#%%$%%o.   X X &",
"&&XO%o%ooo   oXXOXXXXXX  .      %%%%%#%o . . X&&",
"&& o#%%%o   oXXXXXXXXX..   . .  .%%%$%%%o X . &&",
"&&%ooo%%o  .XXXXXXX X X . .       %%%%#%%o X &&&",
"&%o%o$o   X X XX X X X.           .%%o$%#%oX &&&",
"&oo$%o   . X XX X X X  .            %%o%%%%.&&&&",
" o$%oo    X X  X X X X .            .%%o$%#%o&&&",
" o%oo o .X  . X X       .         .   %%o%%%#o&&",
"  oo  &X   X X   X X X X .   .      .o.%%o. oo&&",
"&o  o&&& X     X    X   X   .  ..  .. X %%  %%o&",
"&&&&&&&&& X X X  X X X X  ..  .   ..XX &.%o%%%o&",
"&&&&&&&&&&     X  X   X .X   . ....X  &&  %%%oo&",
"&&&&&&&&&&&& X  X  X X X ... .  .o  &&&&&  .o o&",
"&&&&&&&&&&&&&&      X . o   . $.. &&&&&&&&o  o&&",
"&&&&&&&&&&&&&&&&& X  X X ....  &&&&&&&&&&&&&&&&&"
};
