/* XPM */
static char *magick[] = {
/* columns rows colors chars-per-pixel */
"48 48 10 1",
"   c #0f0b13",
".  c #3a2c48",
"X  c #0523a0",
"o  c #0732d4",
"O  c #f0600c",
"+  c #c9311c",
"@  c #f4a949",
"#  c #f5f1f0",
"$  c #e3c5ac",
"%  c #73b9b7",
/* pixels */
"..............................................%.",
". .  . .  .   .  .                   .  .      #",
". @$@+ oooXoooXoooooooooooooooooooooooooooooooo#",
". @$$+.XXoXoooooooooooooooooooooooooooooooooooo#",
". O$$++.oXoXXXooooooooooooooooXoXoooooooooooooo#",
"..+O#$O XXXXXXXXXoXoooooooooooXXoXXXXXooooooooo#",
". ++@$+# oXXXoXooXXXXooooooooXXoXXoXooXoooooooo#",
". +@+#$+.XXXXXXXXXXoXXXXXXooXXXXXoXXXXXXXXoXoXo#",
". +++$$$+ XXXXXX.XXXXXoXXXXoXXXXXXXoXXoXoXXoXXo#",
". ++++$$+  .X.X.XXXXXXXXoXXXXXXX.XXXXXXXXXXoXXo#",
". ++++@$@+.X.X X.X.X.XX.XXX.XX.XXX.XXXXXXXXoXXo#",
".  ++++$$+  X X .XX.X..XX.XXXXXXXXXXXXXXXXXXoXo#",
".  +.++$$@+  X X X X XX X.XX.XXXXXXXXXoXoooXXXo#",
".   ++++$#+ X .. X X X XX X.XXXX.XXXXXoXoXXXoXX#",
".   .+++$$+.   .X  .  .  X X XXX.XXXXXXXXX.XX.X#",
". +  .#++@$. .     .X   X.. X.X.XXXXXXXXXXXXXXX#",
".     +++$+..    .X . .OO+   XX XX X.X XX.X XX.#",
".   + .++.$##       X.+##O+ X. X XX X.XX.X.XX X#",
".      .%%#...        @#$OO   X X  X X XXX     #",
".      %%.X%##        O$#OO.                   #",
".     .. $%###.       O@$OO                  X #",
".       X%%$##$        O#O+            +. .    #",
".      ...%%###.       +#O         .  ##+   X  #",
".       ..%%%##$        @O           +##O      #",
".       ...%%##%.       @O           +$@O      #",
".      . ..%%%##$ +  + .$@+  +  .    +$O       #",
".  .++++ ...%%###.++++++@@+++++++++++$O+++ +.+ #",
". ++++++O....%%##%+OO#O$$O@O +OOOOOOO$+++OO++++#",
". OOOOOOOO...$%%## OOOO@@@O@@$@$#$O@$@+OOOOOOOO#",
". OOOOOOOO.. %%%##%++OOO@O@O@@@@##$#@@#++OOOOOO#",
". OOOO+O@OO ..%%##% +OOOOO@@@@@@@@@$@@$#@++OOOO#",
". OO$O+@#O.+ ..%%$.  .OO@@@@@@@@@$@@#@@##O$+@+O#",
". OO@$$#++$  +... . + .OOOO@@@@@@@$$@$$##$$##@+#",
". OO+#$$++ +.     .... @O@@@@@##$@$@$@$##$#$@.O#",
". OO@@#O. +++ ... + +.. O@O@@$#+ @$@$$@$#@++++O#",
". OO@@$+ ++ + O +  . .+.+O@@@#$O $@$@#$$#++++OO#",
". OO@@#++ +++  . . . +O..@@O@+$ O@$@$$#$@++++OO#",
". OOOO@@OO ++  . ..   O. +@@@@..$$@$$$$OO ++++O#",
". O@OO@$#$@. + O@O..+  .+.@O@@@@$@$@$#@O++++OOO#",
". OO@O@@@@@ +OO@##O. . ...O@@#OO@$#$OO+++++OOOO#",
". OOOOOOOO@$$$@$@OO.. . %..@#O+%+O+++++.+++OOOO#",
". OOOOOOOOO@@@#@OOO@#@#@@#$@O++++ ++++++OOOOOOO#",
". OOOOOO@OOOOO@OOOO@O$@OO++O++ ++++++O+OOOOOO@O#",
". O+OOOOOOOOO++OOOO+O+++++++$+O+OOOOOOOOOOOO@O@#",
". OO+OOOOOOOOOOOOOOO++O++++++O+OOOOOOOOOO@O@O@@#",
". ++O+O+OOOOOOOOOOOOOOOOOOOOOOOOOOOOO@O@@@@@@@@#",
". OOO++O+OOOOOOOOOOOOOOOOOOOOOOOOOO@@O@@O@@@@@@$",
"################################################"
};
