/* XPM */
static char *magick[] = {
/* columns rows colors chars-per-pixel */
"64 64 10 1",
"   c #4e3244",
".  c #6ca473",
"X  c #5dba9e",
"o  c #a96559",
"O  c #c37b84",
"+  c #9e9c6a",
"@  c #d7a959",
"#  c #cab44f",
"$  c #eeece2",
"%  c #afaf95",
/* pixels */
"$$$$$$$$$$$$$$$$$$$$$$$$$$$$$$$$$$$$$$$$$$$$$$$$$$$$$$$$$$$$$$$$",
"$$$$$$$$$$$$$$$$$$$$$$$$$$$$$$$$$$$$$$$$$$$$$$$$$$$$$$$$$$$$X$$ ",
"$$OOOO%%%O%%O%%%O%%O%%%%@%@+#+#+++.++....XXXXXXXXXXXXXXXXXXXXX  ",
"$$%OOO$O%O$O%%O%%%%%%%@%@%@+#%#%+#+++%.O..X X.XXXXXXXXXXXXXXXX  ",
"$$OOOOOO$OOO$O%$O%%+%#%@#%#+%#%.#++++++...XXX.XXXXXXXXXXXXXXXX. ",
"$$OOOO$OOOOOOO%O%%%%@##%#####.##%+++%.%O...XXXXXXXXXXXXXXXXXXX  ",
"$$OOOOOOO$O%%%%$O%@%#%####%#%#X#.#X++..XO.X XXXXXXXXXXXXXXXXXX  ",
"$$OOOOOOOOO$OO%O%@$#%###%######X#.%...O.X XXX XXXXXXXXXXXXXXXX  ",
"$$OOOOOOOOOOO$%@%@@#$##%###%%#X#X..X%..XOXXXXXXXXXXXXXXXXXXXXX  ",
"$$OOOOOOOOOO%%@$@@$#######%####..#X#.+X.XX XX XXXXXXXXXXXXXXXX  ",
"$$OOOOO@@@O@@@@@%@##$#%#%##%%X#X#X#XX.%XOXXXXXXXXXXXXXXXXXXXXX  ",
"$$OOOO@@%@@@%#$@@#$####%###%##X#.XX.%.XXXXXXXXXXXXXXXXXXXXXXXX  ",
"$$OO@@@@@@@@@@##@###$####%%#..#XX#XXXXXXXXXXXXXXXXXXXXXXXXXXXX  ",
"$$O@@@@@@@@#$#@##$####%#%#%.#.X#.X.X%X.XXXXXXXXXXXXXXXXXXXXXXX  ",
"$$@O@@@@@@#########$###$#%#%X##X.X.XXXXXXXXXXXXXXXXXXXX$XXXXXX  ",
"$$@@@@@##############%###X#X#.X..X.X.XXXXXXXXXXXXXXXXXXXXXXXXX  ",
"$$@@@@@@###############%#%#X%.#XXXX.X.XXXXXXXXXXXXXXXXXXXXXXXX  ",
"$$@@@@@##############%##.##X#X%X%XXXX.X..XX%X.XXXXX%X%XXX$XXX.  ",
"$$@@@@@##############%#%#X##X%X%XX#X...X%%XX%X%.XXOX.XX%XXX%XX  ",
"$@@@@##############%#%##.%#X%%X%X%X.X%X%.X%X%X%X%X%.%%X%X%XXX.  ",
"$$@@@@@############%##.#.#X#X#%X%X%X#X.%X%X%%X%.%%O+X+%X.%.%.O  ",
"$$@@@@@##########%##%#%#.#%%%X%%%%X%X....%.%.%%%XOXO+%.%.%XO..  ",
"$$@o@@@@#############.#X#X#%%%%%X%%X#.#X#X%%%%O%O%+O..+.%XOXOX  ",
"$@@o@o@@##########%#%#.#%%%%%X$%%%%X%X#X%X%.%%%%O.O.o+OXOOXOX   ",
"$$o@o@@@@############.#.#%.%%%%%%%%%%..%.#%%%O%OOO.o%O.O.OO Xo  ",
"$@o@o@@@############%#%#%#%%%%$X$%%%X#%#%..OXOOOOOO.O.OOOX Oo   ",
"$$@o@@@@@##############%#%%#$%%%%X%%%%%X%%%+O.OOO%OOOOoOXoO O   ",
"$@@o@o@@##############%#%%#$X%%%%$X%%%#%%%%.OOOOOOOOOOOoOO OO   ",
"$$@o@@@@@@#############$#%#%%$X$%%%%%$%%%%%OOOOOOOOOOOO O OO O  ",
"$@@oo@@@@############$####%%%%%%$%%$%%%%@%@%OOOOOOOOOOOOOOO O   ",
"$$@o@o@@@@@##########@@@$##$%%$%%%$#%$%%%$@%OOOOOOOOOOOOOOOOO   ",
"$@ooo@@@@@@#@######@@@@@@@%#$%%%$%%$%%@$@O$O$O@OOOOOOOOOOOOoO   ",
"$$@@@oo@o@@@@#######@@$@@@$#%%$%%%%%%$@%$%@OOOOOOOOOOOOOOOOOO   ",
"$$o@o@o@o@@@@@#####@@@@@@@@%%%%%$%%$%O%@$O$O$OOOOOOOOOOoOOOOO   ",
"$@@@@@o@o@@@##@#####@@@@%%%%%$%%%%%%#%%%@O@OOOOOOOOOOOOOOOOoOo  ",
"$$o@o@@o@@@@@####@#@@@@@@@%#%%%X$X%%%%+%O+O%OOO@OOOOOOOOOoOoO   ",
"$$#@@@o@o@@@#@###@#@#@@@%#%%%%X$%%%X%+%%@+O+OOOOOO@oOOoOoOOOo   ",
"$@#oo@o@@@@@@###@##@@@#++#%%%X%%XX%%%%@%%+O+OOOOOOOOOOOOoOOOO   ",
"$$o#@o@o@o@o@#@@#@@#@%#%#%%%%%X%%%X+%+%+++%O+OO+OOOoOOOOOOOoOo  ",
"$$#oo@o@@o@@o@o@###$#@##%#%%%X%X%%+%+%%+++++O+OOOoOoOoOoOoOOo   ",
"$$oo@o@oo@o@o@@o#@###%##%%%%X%X%X%X%+++++++O++O@OoOoOoOOOOoOoO  ",
"$@oooooo@o@o@o@@@o@@###%##%%%%%X%..+.++++++O+@OoO@ooOo+OOOOOo   ",
"$$ooo#o@ooo@oo@o@#@#@%#%#X%#XX%%X#%.#.+++++#+O+oOoO@o+@OoOoO o  ",
"$$ oooooo@@oo@o@o#o#+##.##%X#%%X#X%.+++++#o++o@+o@oO@oO+%OOoO   ",
"$$ooooo#ooo@oo@o@o##o#++++#%X#.%..#..#.++++#o#o@oo#o@++O+OoOoo  ",
"$$  .ooooooooooo@o#o#++#++..#..#..X#.+.#o+#+#o#o#o@@o@+@+o+OO   ",
"$$ # ..ooo#o@o@@o##oo#o+.+++..+...+.+.o.#.o##o#o#o@@@+++@+O++.  ",
"$$ ..o.o.ooooooo@o#o#o++.++.+.+..#..# ++++#+o#o#o#oO@+@++++o%   ",
"$$ + .o+ooo#o#o@ooo#o.oo.o.o.+.+..+ ..+.o+o##o##o##@++++++%+..  ",
"$$ + + .+ #oooo@ooooooo . + . # +o..o.o.o.o#o#oo#oOoo@%+++.+.   ",
"$%. .o +o+oo#ooooooo o o o.oo+o.o. + +o # #o#o#oo#+++++++++.+.  ",
"$$ o .o + oo@oooooooooo .o  o o.o .o. +. +o#oooo#ooo+o++%+++..  ",
"$$ . o .oo#oooooooo o o  . .o +oo o o.o oo # #oooo#@o++++.+.%.  ",
"$%  . # # oooooooooo o  O O  o o o. o  o .oooooo#ooo+.++.+...   ",
"$$. o .ooooooooooo o o X  X O O O  o . o o o ooooo++O+..+.....  ",
"$#    o  o ooooo oo  O  O  O  O  O  O   . o oo oo+oo.+........  ",
"$$  .  oo  ooooooo  o     O  O OO  O  O O o . o. oo.o...X+X.X   ",
"$$    o   o o ooo oo  O     O O O O       . oo o+ .o...X......  ",
"$%     o     oo oo  o   O O O O  O   O    O  o . .o.. X.XX.X..  ",
"$%   .      o o o oo  O    O O OO  O    O  X O o  . ..X...X.X   ",
"$$             o o  o   O O O O   O          X OX X X X.X.X.XX  ",
"$%            o    o  O         O         O  O    X X X XX X..  ",
"$%                          O    O             X X  X XX..X.X.  ",
"$                                                               "
};
