/* XPM */
static char *magick[] = {
/* columns rows colors chars-per-pixel */
"48 48 10 1",
"  c #121315",
". c #2a4513",
"X c #6c6866",
"o c #3c3eb0",
"O c #67caee",
"+ c #ef600a",
"@ c #9e2cc7",
"# c #a89a5c",
"$ c #b6bbab",
"% c #e5e9e6",
/* pixels */
"XXXXXXXXXXXXXXXXXXXXXXXXXXXXXXXXXXXXXXXXXXXXXXXX",
"X                                              %",
"X XX#X$O #$X$$X$X$XXX.      .  . . ............%",
"X X$XO#O O$$$$$OX$#$XX.  ......................%",
"X #O##OO #$X$$$#$$OX$XX..  . ..................%",
"X OOOOOOOOOOOOOOOOOOOOOoo. ....................%",
"X  .. .O.. . . .            ......$%#X$%$..$%..%",
"X X$$O$O $$O$$O$O$$$$$#$XX.  ......%O.X%...$...%",
"X $$X$$O $$$$%$%$$$$$$$$$XX.. .....#$..%$..#...%",
"X #O$$$O.$O$$$$$$%$%$$$O$$$X. ......%.X$%.O....%",
"X $#$$$O %$%$%%$%$%$$$$$$$$XXX  ....%$#.%X#....%",
"X $$$O$O $$$$$%$%$%$%%%$$$$$$X......#%O.$$O....%",
"X $$$$$O.$%$%%@@@@@@%@@@@@@O@oo   ...%X..%.....%",
"X $$$$%O %O%$%$%%%%%%%O%%$$$$$#XX....$...$.....%",
"X $$$$$O.%$%$%@@@@@@@$@@@@@@@@@o   ............%",
"X $$O$%O $%%$%%%%%%%%%%%%%%$$$$$$XX............%",
"X $$$$%O.%$%%%@o@%.X.XX.X.XXX$@@o@ X ........  %",
"X $$%$%O %%$%%%%%%.oooooooooX%$$$$$X........ ..%",
"X $$%$%O.%%%%$@@@%XooOooooooX$@@$ooo . ..... .X%",
"X $%$$%O $%%%%%%%%.OOOOOOOOOX%%$%$$$$XX.... .XX%",
"X $$%%$O.%%%%%@@@%XOOoOOOOOO %@@@o$@oo .. ..XXX%",
"X $%$%%O %%%%%%%%%XOOOOOOOOOX%%%$%$$#$$X.o.XXX$%",
"X $%$%%O.%%%%%@@@%X%%%%%%%%%X%@o@@@o@oo$XXXX$X$%",
"X $%$%%O %%%%%%%%%X.O.O.O.O.X%%%%$%$$$#$$$XXO$$%",
"X $%$%%O.%%%%%@@@%XX.X.X.X.XX%@@@%@@@@@$X$$$X$$%",
"X O%$%%O %%%%%%%%%%%%%%%%%%%%%%%%%%%%%$$$$$$$$$%",
"X %$%%%O.%%%%%@@@@@@@@@%@@@@@@@@%@@@@@@$%$$$$$$%",
"X $%$%%O %%%%%%%%%%%%%%%%%%%%%%%%%%%%%$%$O$$O$$%",
"X.%%%%%O.%%%%%@@@@%@@@@@@%@@@@@@@@@@@@@%$%$$%$$%",
"X $%$%%O %%%%%%%%%%%%%%%%%%%%%%%%%%%%%%$%$%$$$$%",
"X %$%%%O.%%%%%@@#$$%$$$%$$$$%$$$$%$$$$$$$$%$%$$%",
"X $%%%%O.%%%%$$$$%$$$%$$$%$$$$$%$$$$$$$%$$$$$$%%",
"X $%%%%OX%$$$$%$$$##+#+#+#+##+#+#+#+#+#+#+##+#+%",
"X %$%$%%$%$$$$$#$++++++++++++++++++++++++++++++%",
"X $$XXXX+###+#++#++++++++++++++++++++++++++++++%",
"X %$XX   +@+@+@++++++++++++++++++++++++++++++++%",
"X $%%%%X X .+ +X+++++++++++++++++++++++++++++++%",
"X $%$%%O $X.   ................................%",
"X $%$%$O XXX .  .+.+.+.+.+.+.+.+.+.+.+.+.+.+.+.%",
"X $%$%%O #XX X.                                %",
"X $$%$$O $XXXX                                 %",
"X $O%$%O $$$$X#@XXX.X.... . .  . . . . . .  . .%",
"X $$%$%O %%$%$@X@ @ XX XX X X.X  X  X  X X X X %",
"X $$$$%O %%%%%$$$$$$@#@XXXXXX@XXXXXXXXXXXXXXXXX%",
"X $$$$%O %$%$%%%%%$%$$$$$$$$#$#$$@$#$X$X#XX#XX#%",
"X $$O$$O %$%%%%%%%%%$%$$$$$$$$$$$$$$$$$$$$$X$$$%",
"X $$$%$O %$%%$%$%$%%%%%%%%%%%$%$%$%$$$$$$$$$$$$%",
"%%%%%%%%%%%%%%%%%%%%%%%%%%%%%%%%%%%%%%%%%%%%%%%%"
};
