/* XPM */
static char *magick[] = {
/* columns rows colors chars-per-pixel */
"48 48 11 1",
"  c #0c0c0c",
". c #3f403f",
"X c #403f40",
"o c #5f5f5f",
"O c #807e7f",
"+ c #a0a0a0",
"@ c #bfbfc0",
"# c #bfc0c0",
"$ c #c0bfbe",
"% c Gray85",
"& c None",
/* pixels */
"&&&&&&&&&&&&&&&&&&&&&&&&&&&&&&&&&&&&&&&&&&&&&&&&",
"&&&&&&&&&&&&&&&&&&+o.+&+o....o+&&&&&&&&&&&&&&&&&",
"&&&&&&&&&&&&&&&&oX   .o.        X+&&&&&&&&&&&&&&",
"&&&&&&&&&&&&&&o                  o&&&&&&&&&&&&&&",
"&&&&&&&&&&&$+.     o             o&&&&&&&&&&&&&&",
"&&&&&&&&&#%%+     +%%o           o&&&&&&&&&&&&&&",
"&&&&&&&$%%%%%.    %%%%%+X        +&&&&&&&&&&&&&&",
"&&&&&&%%%%%%%o   X%%%%%%%o        o&&&&&&&&&&&&&",
"&&&&&&%@%%%%%+   o%%%###%o         o&o. +&&&&&&&",
"&&&&&&+o%%%%%%+++#%#####$.         .X   X+&&&&&&",
"&&&&&&o.+%%%%%%%%%#####$+                o&&&&&&",
"&&&&+.  +%%%%%%%#####$$$+                .+&&&&&",
"&&$@+. o%%%%%%%####$$$$$$+.   oo          .&&&&&",
"&&%%%%o%%%%%%#####$$$$$$$++X.#%+           o&&&&",
"&&%%%%%%%%%#####$$$$$$$+++++$%$+X          o&&&&",
"&$%%%%%%%%#####$$$$$$++++++++++++.       .o&&&&&",
"&%%%%%%%#####$$$$$$$+++++++++++++o      .+&&&&&&",
"&%%%%%#####$$$$$$$++++++++++++++++o      o&&&&&&",
"&$+%%#####$$$$$$$++++++++++++++++++X     .&&&&&&",
"&o o$####$$$$$$++ooo+++++++++++++++o      +&&&&&",
"&&o. #@$$$$$$+++... .o+++++++++++o.       o&&&&&",
"&&&&X$$$$$$$+++X.    .o+++++++++o.           o&&",
"&&&&X$$$$$$++++.      o+++++++Ooo.           o&&",
"&&&&+#$$$++++++.      X$+++++ooooX           o&&",
"&&$%%#$+++++++o.  $+   +$+++oooooo          .o&&",
"&$%%$$+++++++++. X+.   X%+oooooooo         .Xo&&",
"&$%$+++++++++++.X $..   %+ooooooooo.     ..Xoo&&",
"&$%$+++++++++++oo o+    #$oooooooooooo. .XXoXo&&",
"&&%%+++++++++++oo. .    ++oooooooooooo..XoXX +&&",
"&&%%+++++++++++++o      $+oooooooooooo.XoXX o&&&",
"&&$%+++++++++++++%.    o%+oooooooooooo.XXX o&&&&",
"&&&%++++++++++++O+%o  o%%ooooooooooooX.XX +&&&&&",
"&&&$.   X++++++ooo$%%%%$oooooooooooXXX.. X&&&&&&",
"&&&++++o o+++ooooooo++oooooooooooXX.X.    X&&&&&",
"&&&&&&&&oX+OooooooooooooooooooooXX...      &&&&&",
"&&&&&&&&&XooooooooooooooooooooXXXX.       o&&&&&",
"&&&&&&&&#%oooooooooooooooooooXXXX.       o&&&&&&",
"&&&&&&&&%$oooooooooooooooooXXXXXX.      o&&&&&&&",
"&&&&&&&&%ooooooooooooooooXXXXXXX...    o&&&&&&&&",
"&&&&&&&&$XooooooooooooooXXXXXXX....   o&&&&&&&&&",
"&&&&&&&&&+..ooo.ooooooXXXXXXXX...... +&&&&&&&&&&",
"&&&&&&&&&&+X X .X .ooXXXXX......... +&&&&&&&&&&&",
"&&&&&&&&&&&+o. o&+.XXXXXX.    ...  +&&&&&&&&&&&&",
"&&&&&&&&&&&&&&&&&&o.XXXXXX     ..X+&&&&&&&&&&&&&",
"&&&&&&&&&&&&&&&&&&o.XXX..X     .+&&&&&&&&&&&&&&&",
"&&&&&&&&&&&&&&&&&&o......X   X+&&&&&&&&&&&&&&&&&",
"&&&&&&&&&&&&&&&&&&&X.... .o&&&&&&&&&&&&&&&&&&&&&",
"&&&&&&&&&&&&&&&&&&&&&&&&&&&&&&&&&&&&&&&&&&&&&&&&"
};
