/* XPM */
static char *magick[] = {
/* columns rows colors chars-per-pixel */
"48 48 10 1",
"  c #010001",
". c #1f042f",
"X c #634d47",
"o c #49184c",
"O c None",
"+ c #9b16db",
"@ c #a59070",
"# c #ffc8a0",
"$ c #f9f6f6",
"% c #691092",
/* pixels */
"OOOOOOOOOOOOOOOOOOOOOOOO@XXXXXXXXXXXXXOOOOOOOOOO",
"OOOOOOOOOOOOOOOOOOOOOOXXX###########@@XXOOOOOOOO",
"OOOOOOOOOOOOOOOOOOOOXX##################XOOOOOOO",
"OOOOOOOOOOOOOOOOOOOX#####################XOOOOOO",
"OOOOOOOOOOOOOOOOOOX###########@###########XXOOOO",
"OOOOOOOOOOOOOOOOOX#######@@@@@@@@@@@XX@#####XXOO",
"OOOOOOOOOOOOOOOOX######XXXXXXXXXXXXX@@########XX",
"OOOOOOOOOOOOOOOX####XXX#########################",
"OOOOOOOOOOOOOOX@##XX############################",
"OOOOOOOOOOOOOX@##X##############################",
"OOOOOOOOOOOOX@###X##############################",
"OOOOOOOOOOOX@###@X##############################",
"                 XX@@@X@X XXXXX@@###############",
"$$$$$$$$$$$$$$$$$@XX           XX@##############",
"@@@#@@@@@@@@@@@@@@@XXXXXX         @#############",
"$@$@@$@$@$@$@$@$@$@$@@@XX          #############",
"@@@@@@@$$$$$$$$$$$$$$.@@X           ############",
"@$@@@$@$@@@@@@@@@@@@X.@$X            @##########",
"@@@@@@@$@.X$@@$@@X.@X.@@X.             #########",
"$@@$@@@$@X.X@@@@X.X$X $@X               @#######",
"@@@@@@$$@@X.X$@%oX@@X.@@X.               X@@####",
"@$@@@$X$@$@X.XX.X@$@X $@X                  X@###",
"@@@@@@@$@@@$X..X@@@@X.@@X.               XXX@@#@",
"$@@@@@@$@@@@X  X$@@$X $@X      XX     XXXX@@@#@#",
"@@@@@@@$@@$X.XX X@@@X.@@X.    XOOXX    XX@X@@@#@",
"$@@@@@@$@@X.X@@X.X@@X.@$X      OOOOOXXXX oXX@X@@",
"@@@@@@@$@X.X@$@$X.X$X.@@X.X    OOOOOOOOOOXXoXXXX",
"$@@@@@@$@.X$@@@@@X.@X $@X XX   OOOOOOOOOOOOOXXXX",
"@@@@@@@$@@@@@$@@$@@$o @@X.OXX OOOOOOOOOOOOOOOOOO",
"$@@@@@@$XXXXXXXXXXXXX $@X OOOOOOOOOOOOOOOOOOOOOO",
"@@@@@@@............   @@X.OOOOOOOOOOOOOOOOOOOOOO",
"$@@@@@$@@$@@$@@$@@@@$@@$X OOOOOOOOOOOOOOOOOOOOOO",
"@@@@@@@$@@@$X@$@@$@@@@@@X.OOOOOOOOOOOOOOOOOOOOOO",
"X%@X@XXXXXXXXXXXXXX%XX%XX OOOOOOOOOOOOOOOOOOOOOO",
" ............. .......... OOOOOOOOOOOOOOOOOOOOOO",
"@@$@@$@@@$@@@@$@@@@@@$@@@ OOOOOOOOOOOOOOOOOOOOOO",
"@@@@$@@$@@@$@@@@$@$@@@@$@.OOOOOOOOOOOOOOOOOOOOOO",
"$@$@@@@@@$@@@$@$@@@@$@$@@ OOOOOOOOOOOOOOOOOOOOOO",
"@@@@@@@@@@@@@@@@@@$@@@@@$ OOOOOOOOOOOOOOOOOOOOOO",
"@$@@@@@@@@@@@@@@@@@@@@@@@ OOOOOOOOOOOOOOOOOOOOOO",
"@@@@@@@@@@@@@@@@@@@@@@@$@.OOOOOOOOOOOOOOOOOOOOOO",
"XX%@X@%@X@X@X@%@X@XX$@@@@ OOOOOOOOOOOOOOOOOOOOOO",
"...................$$@@@$ OOOOOOOOOOOOOOOOOOOOOO",
" ...o.X%o%%%%%+++++X$@@@@ OOOOOOOOOOOOOOOOOOOOOO",
"  ..oooo%%%%+%+++++$$@@$@.OOOOOOOOOOOOOOOOOOOOOO",
" ...o.o%o%%%%++++++@$@@@@ OOOOOOOOOOOOOOOOOOOOOO",
" ....o%.%%%%%%+++++@$@$@@.OOOOOOOOOOOOOOOOOOOOOO",
"  .o.o.%o%%%%++++++@$@@$@.OOOOOOOOOOOOOOOOOOOOOO"
};
