/* XPM */
static char *magick[] = {
/* columns rows colors chars-per-pixel */
"48 48 10 1",
"  c #0f120b",
". c #4a303c",
"X c Gray43",
"o c #375389",
"O c #7f8b71",
"+ c #66a048",
"@ c #cb34e6",
"# c #bfc24a",
"$ c #abb5bf",
"% c Gray98",
/* pixels */
".X.X.X.X.X.X.X.X.X.X.X.X.X.X.X.X.X.X.X.X.X.X.X.X",
".                                              %",
"X   .  . . . . . .... .......... %%%%%%%%%%%%%%%",
". .. ... ....................... %%%%%%%%%%%%%%%",
"X  .. .... .........o..o.o.o.o.o %%%$$$$$$%%%%%%",
". . .%$$$$%$$$$$$$$$$$$$$$$$$%$$ %%%$. ... .$%%%",
"X ...$%%%%%%%%%O%%%%%%%%%O%%%%%% %%%%$ X%%%  $%%",
".  . %%%%%%%%%%O%%%%%%%%%O%%%%%% %%%%$ O%%%X $%%",
"X ...$OOOOOOOOOOOOOOOOOOOXOOXOXO %%%%$ X%%%O $%%",
". ...%%%%%%%%%%O%%%%%%%%%O%%%%%% %%%%$ O%%$ X%%%",
"X ...$%%%%%%%%%$%%%%%%%%%O%%%%%% %%%%$ XX..$%%%%",
". .o.%%%%     ...+ +.%%%%O%%%%%% %%%%$ O%%%%%%%%",
"X ...$XO$     ####$#+XOOOXOOOOOO %%%%$ X%%%%%%%%",
". ...%%%%     $#$$+# %%%%O%%%%%% %%%%$ O%%%%%%%%",
"X .o.$%%%     #$+#$#+%%%%O%%%%%% %%%%$ X%%%%%%%%",
". .o.%%%%     #+$#$+.XOO%O%%%%%% %%%$.  X%%%%%%%",
"X ..o$OOO     #$+#+#+...OOOOOOOO %%%$$$$$%%%%%%%",
". .o.$%%%     $+#+$+.OOO%X%%%%%% %%%%%%%%%%%%%%%",
"X .o.%%%%     #+$#+$+oOO%O%%%%%% %%%%%%%%%%%%%%%",
". .@.$%%%     $#+$++.OOO%O%%%%%%               %",
"X ..o%XOX     ++#+#++..oXOOOOOOOXX. . .        %",
". .@.$%%%     +#+$++.OOX%O%%%%%%%$O.XXXX.XXXX.X%",
"X o.@$%%%     #++++#+XOO%$%%%%%%%%$XOO$O.$OO$.O%",
". @o.%%%%     ++#++    +...+..%%%%$.$$$$.$$$$X$%",
"X .o@$OOO     +$++     ######+OOOOOOXXXXXXXXXXX%",
". .@.$%%%     ++++    .######.%%%%%O%%%%O%%%%X%%",
"X o@.%%%%     ++++    .#######%%%%%O%%%%O%%%%O%%",
". @.@$%%%     +#++. . .######.XOO%%O%%%%O%%%%O%%",
"X .@.%XOO     ++++   . ######+...OOOOOOOOOOOOOO%",
". @o@$%%%     ++++. . .######.OOO%%X%%%%X%%%%O%%",
"X o@@$%%%     ++++  . .######.#XO%%O%%%%O%%%%O%%",
". @.@$%%%     ++++ . ..######.OXO%%O%%%%O%%%%O%%",
"X @o@         ++++ . . ######.                 %",
". @@.@...     ++ +. ...######.....o.o.o.o.o.o.o%",
"X o@@@o@@     +++. ..  ######...o@@@@@@@@@@@@@@%",
". @@o@@o@     + ++ ....######..@.@@@@@@@@@@@@@@%",
"X @@@@@@@     ++ + . . ##.#     ooooooo@@@@@@@@%",
". .@@.@@@  +   + + ....####     $%$$$$o@@@@@@@@%",
"X @@@@@@@     ++ + ... #.##     $$$$$$o@@@@@@%@%",
". @@@@@@@     + + .....##.#    .$$$$$$o@@@@%@@@%",
"X @@@@@@@     + + .... #.##   . $$$$$$oOXX@@@%@%",
". @@@@@@@  +   + +......##X  o .$$$$$ooXo@@%@@@%",
"X @@@@@@@     + +  ....#.#..  . o$$o$$oo@.@@@%@%",
". @@@@@@@     + + .+...##.#  o oo$o$ooo@..%@%@@%",
"X @@@@@@@   +    + .....#.# o o $o$o$ooXo@@@@%@%",
". @@@@@@@      +  .....#.#.  o oooo$ooo@.X@%@@%%",
"X @@@@@@@     + + .+....#.# o o oo$oo+oXo@@@%@@%",
"%%%%%%%%%%%%%%%%%%%%%%%%$%%%%%%%%%%%%%%%%%%%%%%%"
};
