/* XPM */
static char *magick[] = {
/* columns rows colors chars-per-pixel */
"48 48 9 1",
"  c #111111",
". c #3f4040",
"X c #403f3f",
"o c #413f40",
"O c #565656",
"+ c #807f7f",
"@ c #959595",
"# c #f4f4f4",
"$ c None",
/* pixels */
"$$$$$$$$$$$$$$$$$$$$$$$$$$$$$$$$$$$$$$$$$$$$$$$$",
"$$$$$$$$$$$$$$$$$$$$$$$$$$$$$$$$$$$$@@OOX@$$$$$$",
"$$$$$$$$$$$$$$$$$$$$$$$$$$$$$$@OOXX  .OO$X@$$$$$",
"$$$$$$$$$$$$$$$$$$$$$$$@@OoX  Xoo@@###@O@OXO$$$$",
"$$$$$$$$$$$$$$$$@@OOX    O@@#$@@@O@OOX     o$$$$",
"$$$$$$$$$$@OO.X  .OO@@@@O@@@OOOXX @@#.   X X$$$$",
"$$$$@OoX  .ooOOO@@@@@OXoXO###     ###    #. $$$$",
"$$$@  O@@@@@OoOoXO@#@    ###@    @##O   @#O $$$$",
"$$$@X OO$@#@     @##X   O###    .###    ##@ @$$$",
"$$$#@ O####.    .##@    ###O    @##@   @@@O @$$$",
"$$$#O .###@     ###    @###    O@@@     XXoO$$$$",
"$$$@@  ###     @##X    @#@.     XXOO@@$$$$$$$$$$",
"$$$@@X ##@    X@@O      X.OO@@$$$$$$$$$$$$$$$$$$",
"$$$$@  @@      XXOO@@@$$$$$$$$$$$$$$$$$$$$$$$$$$",
"$$$$@        oOO@@$$$$$$$$$$$$$$$$$$$$$$$$$$$$$$",
"$$$$@X    XOooXXXX .XOO@@$$$$$$$$$$$$$$$$$$$$$$$",
"$$$@# X.@   X.OOOOOO@OOOOoXoXOO@@$$$$$$$$$$$$$$$",
"$$$@# X@#O    O@@OXXoOOO@@@@@@@Oo  X.OO@@$$$$$$$",
"$$$@O X@##    O##@    O@@OXoOO@@@@@@@OOXX  o$$$$",
"$$$$.. ###@    ###.    ###     @@@OOO@@@@#@ O$$$",
"$$$$O   .O@    @##@    @##@    ####X   @@@@ X$$$",
"$$$$o           @@@X   .###    O###@   @###. $$$",
"$$$$oO OooXXX           @@#@    ####    ### X$$$",
"$$$$XO OOOOOOOooOoXX            @###@   @## X$$$",
"$$$@OoXOOOOOOOooOOooooXXXXX        .O    #@ O$$$",
"$$$@O.oOOOOOO@OoOOooOoo.oo..XXXXX        X  O$$$",
"$$$OO OOOOOOOOOOOooO@OOooooXOXXXXXXXXXX    .@$$$",
"$$$oO OOOOOOOooOOooOOOOOoOOo@OXXXXXXXXXXXX $$$$$",
"$$$OO OOoOOOO@@@OOOo..ooooXXoOOOOOXXXXXXX  $$$$$",
"$$$XO Ooooooooo@OOO@@OOOOXXXXXXXOXXXXXXXX o$$$$$",
"$$@XoXoooOOOooo@o.o..oOOOOOOOOOXXXXXXXXXX O$$$$$",
"$$@OXXOOoOO@OoO@oo..XXXXXXXXOOOOOOOOoXXXX @$$$$$",
"$$OOXooooOO@OoOOooO@OoOOXXXXXXXXXXoOOOOXX $$$$$$",
"$$.OXoooooooooOOoo@OO+@OOOoXXXXXXXXXXXXX X$$$$$$",
"$$XO ooO@@OOOOOOXXXXXoOXOOOX@OXXXXXXXXXX O$$$$$$",
"$$XOXoooooOOOO@OOOOOXXXXXXXXoOOOXXXXXXXX O$$$$$$",
"$@XoXoooo.oo..OooOOOOOOOOOXXXXoXXXXXXXXX @$$$$$$",
"$@XXXoooOO...XOoXXXXXXXOOOOOOOOoXXXXXXX  $$$$$$$",
"$OX oooo@O@OXOOXXXXXXXXXXXXXXoOOOOOOOXX X$$$$$$$",
"$O  o.oo.oOXXOoXXXXXXXXXXXXXXXXXXXXXoXX O$$$$$$$",
"$$  .o...XXXXOXXXXXXXXXXXXXXXXXXXXXXX   @$$$$$$$",
"$$. XXXXXXXXXXXXXXXXXXXXXXXXXXXXXXXX    @$$$$$$$",
"$$@OXX      XXXXXXXXXXXXXXXXXXXXXXX     $$$$$$$$",
"$$$$$$$$@@OOXX        XXXXXXXXXXX      .$$$$$$$$",
"$$$$$$$$$$$$$$$$@@OOX         XX       O$$$$$$$$",
"$$$$$$$$$$$$$$$$$$$$$$$@@OOoX          @$$$$$$$$",
"$$$$$$$$$$$$$$$$$$$$$$$$$$$$$$$@@OO.X  $$$$$$$$$",
"$$$$$$$$$$$$$$$$$$$$$$$$$$$$$$$$$$$$$$$$$$$$$$$$"
};
