/* XPM */
static char *magick[] = {
/* columns rows colors chars-per-pixel */
"48 48 11 1",
"  c #050303",
". c #383840",
"X c #542910",
"o c #704524",
"O c #5f6061",
"+ c #8e5f3e",
"@ c #d3bb5f",
"# c #a0a3a2",
"$ c #cdc0ad",
"% c #d8dadb",
"& c None",
/* pixels */
"&&&&&&&&&&&&&&&&&&&&&&#$O&&&&&&&&&&&&OO&&&&&&&&&",
"&&&&&&&&&&&&&&&&&&&&#%#oXO&&&&&&&&&&&+o #&&&&&&&",
"&&&&&&&&&&%%##&&&&&%$oXXXXO&&&&&&&&&&oo &&&&&&&&",
"&&&&&&&&&$%#%O#&&%$oXXXXOXX#&&&&&&&&OO.O&&&&&&&&",
"&&&&&&&&&%#.$#.OOo XXX+%%#XX#&&&&&&&OO.#&&&&&&&&",
"&&&&&&&&&$#OOOOO......%%%%OXX#&&&&&#OO.&&&&&&&&&",
"&&&&&&&&&&$OOOO.......O%%%%OX.#&&&&#@oO&&&&&&&&&",
"&&&&&&&&&$$#O....... O%%$%%%oX.&&&&@@ #&&&&&&&&&",
"&&&&&&&$$##....... .$%$#$%%%$XXO&&&@+.&&&&&&&&&&",
"&&&&&$$+o#...... .#%%##%%%%%%&X O&$@XO&&&&&&&&&&",
"&&&$$+oo+O......#%%%%%%%%%%%%$#XXO@@ #&&&&&&&&&&",
"&$$+oooo+O... #%%%%%%%%%%%%%%$&OXX@o.&&&&&&&&&&&",
"%@ooooo+$#. O%%%%%%%%%$$%%%%%%$$O+@XO&&&&&&&&&&&",
"%%+oo+$%%%.%%%%%%%%%%####%%%%%$$$@@ #&&&&&&&&&&&",
"#%$oo#%%%%%%%$%%%%%$#$$%%%%%%%$$$@o .#&&&&&&&&&&",
"&$%@oX$%%%%#%#$%%%%#%$#%%##%%$$$$@XXX.&&&&&&&&&&",
"&&%%+oX%%%###$%%%#%$#%%$###%%$$$@@ #X .&&&&&&&&&",
"&&&%$ooo%%%#%%%#%%##%%%#####%$$$@oO##X .&&&&&&&&",
"&&&$%@ooO%%%$#%$%##%$####$$##$$@@ ###OX O&&&&&&&",
"&&&&%%+oX#%%%##%##%##$$$$####$&@+.$###O  O&&&&&&",
"&&&&&%$ooX$%%%&#$%$##$$#O##%%#$@oO$####oX O&&&&&",
"&&&&&#%@oo.%%%##%%##$####$$%##@@ #######oX #&&&&",
"&&&&&&$%+oXO%%%##%#%#####%$#$#@+.$$$#####X  #&&&",
"&&&&&&&%$ooX#%%%##%###O%%#$O#$@XO$$$######XX.&&&",
"&&&&&&&#%@ooX%%%$###$%%$##O&#@@ #$$$$######X .#&",
"&&&&&&&&$%@oo.%%%#O%$%###$##%@o.$$$$$######X  O&",
"&&&&&&&&&%%ooX#%%%%%%#$####%$@X#$$$$######.   #&",
"&&&&&&&&&&%$ooX$%%%###O$###%@@ $$$$######.   #&&",
"&&&&&&&&&&#%@XX.%%%###$#$#%$@oO$$$$#####.   #&&&",
"&&&&&&&&&&&$%+XX.%%%O$$##%%@@X#$$$$####    #&&&&",
"&&&&&&&&&&&&%$oXX#%%$O#%%%%@+X$&$$$##O    #&&&&&",
"&&&&&&&&&&&&#%@XX $%%$%%%%%@X#&$$$#O.    #&&&&&&",
"&&&&&&&&&&&&&$%+XX.%%%%%%%%+O$##O..     #&&&&&&&",
"&&&&&&&&&&&&&&%$oXXO%%%%%%$oO....O. X  #&&&&&&&&",
"&&&&&&&&&&&&&&&%@XXX#%%%%O#..O#$$. X  O&&&&&&&&&",
"&&&&&&&&&&&&&&&$%+XX $%%%%$%%$&#. X  #&&&&&&&&&&",
"&&&&&&&&&&&&&&&&%%oXX.%%%%%%%$$. X  O&&&&&&&&&&&",
"&&&&&&&&&&&&&&&&&%$XXXO%%%%%%#  X  #&&&&&&&&&&&&",
"&&&&&&&&&&&&&&&&&#%@XXX#%%%%#  X  O&&&&&&&&&&&&&",
"&&&&&&&&&&&&&&&&&&$%+XX $%%#  X  #&&&&&&&&&&&&&&",
"&&&&&&&&&&&&&&&&&&&%$XXX.%# XX  O&&&&&&&&&&&&&&&",
"&&&&&&&&&&&&&&&&&&&#%@XX . XXX O&&&&&&&&&&&&&&&&",
"&&&&&&&&&&&&&&&&&&&&$%+XX XXX O&&&&&&&&&&&&&&&&&",
"&&&&&&&&&&&&&&&&&&&&&%%oXXX  O&&&&&&&&&&&&&&&&&&",
"&&&&&&&&&&&&&&&&&&&&&&%$XXX O&&&&&&&&&&&&&&&&&&&",
"&&&&&&&&&&&&&&&&&&&&&&#%#X O&&&&&&&&&&&&&&&&&&&&",
"&&&&&&&&&&&&&&&&&&&&&&&$%.O&&&&&&&&&&&&&&&&&&&&&",
"&&&&&&&&&&&&&&&&&&&&&&&&%#&&&&&&&&&&&&&&&&&&&&&&"
};
