/* XPM */
static char *magick[] = {
/* columns rows colors chars-per-pixel */
"48 48 11 1",
"  c #080303",
". c #614732",
"X c #788c78",
"o c #ae6520",
"O c #907890",
"+ c #db9f34",
"@ c #f1bf4e",
"# c #b0acb0",
"$ c #fdea9f",
"% c #fffefb",
"& c None",
/* pixels */
"%%%%%$%$$$$$$$$$$$$$$@@@@@@@@@ &&&&&&&&&&&&&&&&&",
"%ooo+++++++++++++++++++++ooooo &&&&&&&&&&&&&&&&&",
"%+o+++++++++++++++++++++o+ooo. ...............#&",
"%o+       o++%%%%%%%%%%%%% oo. %%%%%%%%%%%%%%%#&",
"%++ OXOXOX%++%###########. +o. #############.%#&",
"%++ XOXOXO%@+%###########. ooo #############.%#&",
"%++ OXOXOX%+@%###########. oo. ....#########.%#&",
"%++ XOXOXO%@@%###########. oo. ....#########.%#&",
"%++ OXOXOX%@@%###########. +o. ....#########.%#&",
"%++ XOXOXO%@@%###########. ooo ....#########.%#&",
"%++ %%%%%.%@@%###########. oo. ....#########.%#&",
"$++ %#### %@@%###########. oo. ....#########.%#&",
"$++ %#### %@@%............ +o. ....#########.%#&",
"$++ %#### %@@              ooo ....#########.%#&",
"$++ %#### %@@@@@@@++++++++ooo. ....#########.%#&",
"$++ %#### %@@@@@@@@@+++++++oo. ....#########.%#&",
"$++ .     %@@.............%oo. ....#########.%#&",
"$++ XOXOXO%@@............#%ooo .oo$$$$@$@@@@@@@ ",
"$++ OXOXOX%@@..%%%%%%%%%%#%oo. ...++++++o+oooo. ",
"$++ XOXOXO%@@..%%%%%%%%%%#%oo. ...+++++++++ooo. ",
"$++ OXOXOX%@@..%%%%%%%%%%#%oo. ...+++++o..ooooo ",
"$++ XOXOXO%@@..%%%%%%%%%%#%oo. ...++++oo+oo.oo. ",
"$++ OXOXOX%@@..%%%%%%%%%%#%oo. ...+++oo++@oo.o. ",
"$++ XOXOXO%@@..%%%%%%%%%%#%oo. ...+++.++%@+o o. ",
"$++ OXOXOX%@@..%%%%%%%%%%#%oo. .o.+++.o@++o. oo ",
"$++ XOXOXO%@@.############%oo. ...+++o.o+oo..o. ",
"$++o%%%%%%%++%%%%%%%%%%%%%%oo. .o.++++.... .oo. ",
"$++++++++++++++++++++++oooooo. ..o@@+++....o+o. ",
"$+++++++++++++++++++++ooooooo. .oo@+++++++++ooo ",
"$ooooooooooooooooo.o.o.o.o.o.. .oo@@+++++++++o. ",
"ooo............ .              .o.@+@+++++++oo. ",
"&&.%##..........................oo@@+++++++++o. ",
"&&.%##...........o..o.oooooooooooo@@++++++++ooo ",
"&&.%##...........o...o.ooooooooooo@@++++++++oo. ",
"&&.%##...........$++@+@@@@@@@@@@@@@+++++++oooo. ",
"&&.%#############$++@@@@@@@@@@@@@@@@+++++++ooo. ",
"&&.%#############$++++o...+@@@@@@@@++++o..oooo. ",
"&&.%#############$+++oo+oo.+@@@@@@++++oo+oo.oo. ",
"&&.%#############$++oo+++oo.@@@@@++++oo++@oo.o. ",
"&&.%#############$++.+@%@oo @@@@@++++.++%@+o o. ",
"&&.%#############$++oo+@+oo.@@@@+++++.o@++o. o. ",
"&&.%#############$++o.+ooo..@@@@+++++o.o+oo..o. ",
"&&.%#############$+++......o@+++++++++.... .oo. ",
"&&.%#############$++++....o++++++++++++....ooo. ",
"&&.%.............$++++++++++++++++++++++oooooo. ",
"&&.%%%%%%%%%%%%%%$+++++++++++++++++++++ooooooo. ",
"&&###############$ooooooooooooooooooo...o...o.. ",
"&&&&&&&&&&&&&&&&&.o.............                "
};
