/* XPM */
static char *magick[] = {
/* columns rows colors chars-per-pixel */
"114 107 13 1",
"  c #00111f",
". c #0a1c2a",
"X c #0e212e",
"o c #11242e",
"O c #182a38",
"+ c #1e313e",
"@ c #212e3f",
"# c #21333e",
"$ c #1f3040",
"% c #243644",
"& c #2e414e",
"* c #31444f",
"= c #324452",
/* pixels */
"O+++++OoXo.X%%%%OoXoX.X+&o.O%%%%%%OXoOo.O%+...O+X..oOOOO%O....XO+++%+OXooX.oO++OOOO..XOX+%%%%+%%%%+OO+%%++OOO++O++",
"%%%+++OOoOOO%%++OX.oX..O%oX+%%%%%%%++%+O%%+OoOOOo..OO++%+O....oO+++OOoX...XoO+OOOOOooOOOO+%%++++%%OoO%%%%+++%%++oo",
"++OooOOO+%%+%+OoX..oOoOOOO+%+O%%.oOOoooX........OXXoOO+%+OOXXOO+O+OOO++OXoOO++OOOOOO+OO+OO++++++%%+O+%%%%%++++OO++",
"XX...OOO%=%%%OXXX..O+++%+O%%OXOOO+%%+++%O..O%+OOOOOOOO+%%%%%%%++O%%O%*&%oO+%++OOOoO++OoOXoOO+%%%+%%%%%+O%++OOOOoOO",
"XooXO+%+%%%OOOooOoXOO+%%%+%%OoOo..XX...oo..OOooOO++++++%+%%%%%++%%%%%&%+oOO+OOoXoXO++OoOoooO+%%%++%%%%+O++OOO+++OO",
"O++O+%%+OOo.oOOOOOooOOOO%+%%OOOOOOoOOOOO%%%+OOO%O++++++OOOOOOOO+O++O+%%OOOOOOOOOOoO++++%+OoOO%%%%+OO+%%%++++%%%%%%",
"%%+OOOOO.X..oOoOOOOOooOOOO++OO%+%OOO%%++%%%OXXOOOOOOO%+OOOOOOOOOoooOOOOOOOOO+%%+O++O+%%%%OooO%%%%OOO+%%%++%%%%%%%%",
"%%+OOOOo.o..OOoX.oOOOOOOOoOOXO++%OXO%%+O+%%X..XoOOOOO%%+OO%%%+OO+OOOX.XOOoXoO%%%%%%OO%%%%OXXO%%%OOO%%%+++%%%%+OoOO",
"++OO+%+OOoXoOoXo%Oo%%+O+++OoX.oOOOO+++++%OOOX.O%+OOOO+%%OO%%%+OXoO+OX.O+OOO+++OOOO%%+OOOOOOO+++OoO%%%+OO++%%%OOoO+",
"++++OOOOOO+O...O%OO%%++%%%%+OOOOoOOOOO%%%++%%++%%+++OOOOXoO%%+X..oO+++OOOO++OOOOO+%%+OOOO++%%+Oo.O+%+OOOOOOO++OO+%",
"+++OoXXooOOO..O%+++OOOOO%%%%%OOOOO++OO%%%++%%%OO+++++OX.X..O+o....XO%%+OO+++OOO+%%%%%%+OOO%%%OOoXOO++O+++OOOO+++%%",
"OOOo....OX..OOOOO++OoOOOO++%++OO+%%%OO+%+++%%Oo.OOOOOOOXOXXOO..OOOooOOOOO+%%OOO+%%%%%%+OoO+%+OOOOO++++%%%+OO+%+O++",
"+OX..XXX+O.XO+O.O%%%OOOOOOOOOOOO+%%%++OO++++OOOO+OooOO+O+OO+o..+%%+OOOO++%%%%+O+OOOOOOOOOOOOOOOO++++++%%%+OO%%%+OO",
"+OooOOOOOOOOOOOXO+%%+O++++OOOOOOOO++%+OOOO+OO+%%+O...oOOXO++O..o++%+OOO+%%%%%+OOOOOOOOOO++OOoOOO++OOOOO+++O+%%%%OO",
"OOO++%++XOOOOO++OOO+OOO%%+OOOOOOOO+%++++oOOO%%%%%O...XX..XOOOOo.oOOOOOOO%++OOOOO+++OOO+%%+OOOOOO+OOOOO+++OOO++++%%",
"XO#%%%++O+OOO++O+oXOOoO%OOOOOOOOO%%%+O+%OOO%%=%+%+OOOOOo.OOOO%%OOOOOOOOO+Oo...XX+++OOOO%%OOOO+++%++++%%%+OOOOOOO%%",
"%##OOOOO%OoXoOOOOXO%Oo+%%%%%OXoOO%O%O+++OO+++%+OOOOOO++OOXXXXO+ooOOO+%=%%%O..O++%%+OOXXo+OOOOO++%+OO+%%%O+%%+oXXO%",
"O+##OOOO%+OO++OOOoO%OO%%+OXoO+Ooo+O%OOOOoOOOoOoXoX..XO++%%%%%%%%++++%%%%OOoo+%%%OOOO+OO+%%+++%%%++OOO%%OOO+%+o.XO+",
".oO+OoXo+++%%%OXOOO++%%+%o..O+Oo.OOO%O%OOOOoX.XXOX..X+%+OO%%ooOX%%+%%+OOOooO%&%O..o+%%%%%%+++%%%+++O+%%OoOOOOooO++",
"ooOOoXXoOO+++OOoOOOO+%%O%+OoooOOOO+O%O%+%%+OoXOOOOoo+%%O+%%%%%%%+OO++OoOOO+%%%OX..oO++O+++OOOOO++%+++%%O.XOOOO+%+O",
"%+OOOOOOOO+OoXO+%++O+%%O%+OOXoO%%%%O%o%O++OOooOOOoXoO%+OX.oOoO%OOoO++OO++%%%%+OXOOO++OOO+++OOOOOO++OO++OOOOOO+%%OO",
"*#OOOOO++++OXXO%%%+OO%+X%O..O%%%%%+OO.o.OoXXXXoOX...XO+OOoOOO%&%+OOOOooOOO+++OOO+++%+OOO%%%+OOO+O++OO++O%%%+O+%%%%",
"%+OO+OO##+OOOO%%%OOOOO+O%O..O%%+%%oo..o.OX.oOOooXX..XO%%%OOOO%%%%%%OooooOooOOOOO+++%%+++%%%%+O+%+++OO%%%%%%OoOOO%%",
"%+#%%++%#+OOO%%%%oXOOO%+%%OOO+++%%.O.OOO+OoO%+OOOOOO+%%%%O+OO++OO%%OO%%%%OO+%+OOOO+%%%++O+%+OO+%OOOOO+++O++o..XXO+",
"O+%&O%%OO+XX%%O+OOOOOOOO%OOO%%=%=%O%%+%%%+++%%+OOO%%%%%+++%%OOO+OOOooOO+Oo...Oo..O%%OXO%O++OOO+%%OO+%%++OOOOOOX.oO",
"XoO#.O+OoOXX%+oO%%++++OOOoO%%%=&%+O%%%&%++++%Oo.oO+%%+OO+O+++OOO%%%%+%%%OOOXXooXXO+%OOO+%+OOO%%%%OO%%%++OO++%%+Ooo",
".ooO oOOO+OO%+X.+OOO++++Xo+%OoOOoOO%%+%%+%%%%+OO+%%%%+OOOOO++OOO.X...XOo+%%+OOOOOoXOOOoo+OoO+%%+OOOOOOO+OOO+%%%++O",
"XoXo.OO+O++%%+o....XO+%%OOOo  ...Xo%%O%OoooooO+%%%%%+OX.OOO++OooOOOOO%%%%%%+OO%%&%+%%%+O%++%%%+O..XooXoOOOOO%%%+++",
"Xo...OOOXo+%%+O....oO+%%OOOX.XOOOoX%%+%OooooOO%%%%%%%+OoOO%%+ooOooooO+++%+OOOO+%%++%%%+OOO+++OX...XXXoOO+OO+%%%+%%",
"oO.oO%OO..O%+++O+O++%%%+OoooO%%OOOX+%+%OO+%%%%%+%%%%%%%+O+%%+OO+%%+O+%+O+OXXoooO..oO++OOOOoX.....oOOOOO++OOOOOOO%%",
"oOXO%%O#oX+%OO%O+++%%%+OoXXoO%%ooOo+OO+.oOO+%+OXOOOOOOo.O+%%%OO%%%+OOOO.o..XoX.XooO%%%%%%+OOoOOOO++OO++OOOOOoXXX..",
".Oo#%%O#OXO+..O.ooOO+OOOo...X%%OOOO%O.O.OooO%%%+++O++Oo.OO+%%++%%%+OOOo....oOXXooXXO+OOOOOooOOOO+%%OOOOoOOOOX..XOO",
"+OoO+OXO%%++%Oo%OXXO+OO++OOOOO+o++OOO+OOO%%%o.O%OOOoO+OooOOoXOO+%OOO+OOOOOO++%%%%%%%&%%%%%%%%%%+%%OoOO+OOOO...X.oo",
"O+O+%OO%%%OO+Oo+OXo+%%%%%%%%%%%%%%+OO+%+%%%OooO%OOOO+%%+O++OOO++OooO+%%%%%%%%%%%%%%*=%%%++O++%++%%+OO++OO+%%%%%%%%",
"+%%%%++==%Oo++O%%OO%%%+%%%%%%%%+%%%OO%%%+%+OO%%OoOO+%%%%O++OO+++OXXO+%%%%+OOO+%%%++%%OOO++++%%%%%%%%+%+O...O%OOOoO",
"+%++%OO%%%OOO++%%O+%%OOO%+%%%%%o%%+OO++++%%++%O..XOOOOOOOOOOO+%%OOOOOOO+%%%%%%%%%%%%%%%%++%%%%%+%%+++OOOOO+%%%%%%%",
"OOoOOoXOOOOOooOOX.XO+OO+%%%%%%%XOO+O++OO%*%%OOo...Oo...oOOOoO+%%OO+++OOOOOOOOOOOOOOOOOOOO+%%%%OOOOoooOOOO++XXOOooo",
"OOoO%OO+OO%+XXOX..XOOOO%%++++%+.O+++%%Oo%%%OOOOoXoOO..X+++OoO+%%OO+%%+O+%%%%%+OOO++OO+%%O+%%%+OOOXXoOOO+%&%OO%%+Oo",
"O+O+%OO%%%%%oO%O+OO%+OO%%OOOO++X%%%++%+OOOoOO+++%+OOOoO%OOOoO++OOOOOOooOoooooXXXXoo..XooOO++OOOOOOO++++%O++OO%%+OO",
"O++++X.O*%%%O%=%%%%%%+%%%++++%%+*%%+O+%+oXXO%+OX%OXXoooO.XXXOOOOOOX.....OOOOOO+++%%OoOOOoooX.XOO+OO++OOO..O%%+O+%%",
"XO%%O.XO%%%OO%%%%OoO%+OO%OXoOOOo%%OoOOO+O..OO..+++Oo+o.OOOOooOOOX...XoOOoooOO%%%Oo.....OOX.XOOX.OO+%%+o....O%O.O+%",
"%%+++OO+%%%OoOOOX..O++Oo%OOO+OoXoX..oOOOOOOoXo+%+OOO+OO%O++OO+OOoooOO%%%+OOOOO+++OOOOOO+%%+++Oo.OOOO+++O.oXoOOXO+%",
"%%OO++++%%+oXOo.OOOO%%+O%%%%%OoX....oOOOO++OO+%%OooOOO++O++OOOOOOOOOOOO+%%+OoOO+++%%+Ooo%+++++OO+OooOOOOoOX.XOOO%%",
"OOOOOOO+OOo..oOo%%%OO++O+%%%%OOOXoOOOOOOOoO%%+O%O.oOXO+OOOOXXOOO+++OoXXo%%%OooOOOO++OoXXOOOOOOOO%OX..XoOo+o.XOO+%%",
"OOOOO%%%Oo...XoX+%%O.XOOOO+%+OOO+%+OO++OOoO%%%OXOoO+OO%O+++OOO++O+++OO+%%%%+OOO+OOOOOO++%+OoXoOOOo...XooO+O.oOOO+%",
"%+OO%==%%OX..XXXX+%+OO+%+OOOOOO+O+OoXOOOO%+oO%+.OoOOO++O%%%%%%+OOOO+++%%++%%%%%%%%%OOO++OOOX.XO++OX..X..oOo.XX..O+",
"&%OO%*%%%OOOOOOOO+%%%%%%%%+++OO+O+OoXO++O%%oo%%.OOo.O+++%%%%%%+OOOOOOOOO+++%%%++%%%+OOOOXoooXO+%%+OooX..oOXXo..XO%",
"+%%%+++OOoXO+%+O%%+%%%%%=%%%%+O+%%%++%%%+%%%+OOO+%O.O%+%%%+OoOOO+OO+%%%++OOO++OOO%%%%%%+OO+OOOO%+OOOOOOOOOOO%OO%O%",
".+&oOXo...O%%%%%&%%%%%%%&&%%+%%%&%OoO+%+OOO%%+%&%%++%%%++OX..XO%%%%%%%%OOOoO+OO+OOoO+%%%+%%++%%OX..XOOOOO+%%%%%%%+",
"O%%OOooOOO+%%%+%%%%%%+%%&%%OO+%++OOO+%%%%O+%%%%%%%%%%%%O.XX.XO++%%%%OOOOOO+%%OO++OOOO++O%%%%+%%OX..XOOOo++++++%%%%",
"O%OOoX.+%%%%%%+OOO+%%%%%%%OOO%%OOO+%%%%%%++%%++%++%%%+OO.oOO+%%%O%%+ooO+O%%%%OO+&%%%%+Oo%%%+O++OoooOOOOOOOOOOO+%+O",
"+%O%O%O%++%%%%%%oO+%%%%%%+OO+%%++%%%%%%%%%+%%+++%%+OOXXO+++O+%%%+OOO+%%%%%*%+OO+%%%%%%%%+++OOOOOOOOOOOOOOO++OOoX..",
".%O+O%+%OOOO+%%%+%%%%+++++++%%%+%%%%%%%%%%+%%+++%+OOOXoO%%+OO%%%%+O+%%%%%%%%++%%%%%%%%%%OOOoooOOOOOOooooOOOOOOX..X",
".OOO%&%OOOOOO+%%+%%%%%%+++OOO+OOOOOOOOOO+OOO++OO+O+%%+O++%++%%%OOO%%+O%%%%%++%%%%%%%+OOO+OOOooOO+OOOOOOO+OOOOOOOO+",
"%%%%=&%%O+OOO+%%OOOO%%%+%+o.oOOooo...XOOOOOO+%+O+OO%%%%%+%%%%%+OXoO+OoO%+%%%%%%%oOOO%%%&++OOoOO+%OOOO+%%+OOOOO+O+%",
"%OOO%OO++%+OO+%%OOOO+%+O%O...OOoOo..XoOOOOO+%%%%%OO+%%%%%%+OO+OXOooO%%+%O%&%%%+O+++OOO+%+OOOooO++OXXO%%%+++%%+OOoO",
"%O+%+XX+OOo..XoOOO+++OOO&+XoO+++%%%%+OOO++OOO+%%%+OO+++%%+%%+O..O+%%+O%%%%%+ooOOO%%+OO+%OOOOO++OOX.o%%%%++%%%OO+OO",
".XOOX..XO+%%+OOO%%%%%+OO=%+%%%%%%%%%%%%%%%%%+%%%%+OO%%%++%%%%%%O%%%OoO+%%+%+oO%%%%+oXOOOO+++++OOOOoO%%%+OO%%%+%%%+",
".O%+o..oO%%%%OO+%%%%%%%%%%%%%%%%&%%%%%%%%%%%OO+%%OOO+%++O+++%%%+%%+O.XO%OOOO..OO&%+ooO%%O+%+OOOOOO+%%%+OoO%%+O%=%%",
"O%%%O+++O+++OOOOOOOOOO++OOOOO+%%%+OOO+++++OOOOX.oXoOOOOOOOo.o%+oOOOOOOO+OoOO..XX%%%OO+%%OOOOXoOO++%%%+++OO++OO+%%%",
"O+OoO+%+%+OO++OO%+OOoooo.....o+%..XOO+%%+OOO+OX...oOOooO++o..OOXXoO++%%%+O%%OOOoO++OooooXOo...O+%%%%OOOO+OOOOOOOOO",
"OOX.o+%+%++%%%+O++OOOOOO.XX..O%%.XOOOO%%+OO+%%O..XO+OOOO++o..OOoOooOO+++OO+%++Oo.OOo....XoX..XO+%%%OoXoO+OOOOOOOOO",
"+OOoO+%%%++++%+OOOOOO++O.OOOO+%%O+%+OoO%+OOO++OO+OO++OO+OOOOOOOoOOoOO+++OXOOO++XXoo...X.oOOooOOOO+OOooOOOO+%+OooOO",
"OOOOOOO%%%+OOO%%+OOOOOOo.O++%%+OO%%%OO+%++++OO+%%%OO++++OOO%+Ooo+++%%%%%%OO++%%OoX...OOOOOOO+++OoOOOOO+%+%%%%OXoOO",
"%OoXoOOOO++OO%%%%oO+OOOO+o++%%O+O%%OO++O.O%%OO+%%%%%%%%%+%%%OOOoO+%%%+%%%%%%OOOOOOXXOO++O+++%%%+XooXOO+OOO+%+OXX+O",
"OOOoXXoOOOOO++OO+OO%%+%%%++OO+O+oOOXXOOOO+%+OoO%OOOOOOOO%%%+OOOO%%+OOOOOOOOOOOOOOOOO+%%%%%+O+%%+%%%%%&&%+OOOOXoOOo",
"XO+OOOO%+OO%%+OoOO+%%%%%=%%OO+O+.oX..oOo%%+OOoO+O+%%%%%%%%%OO+%%%%OOOO%%+++%%%++OO+%%%%%%%+OO+++OOooOOOo+OOOOOO%+O",
".oO+++%%%OO%%+OOoO+%%+%%%O%%%%OOoOOooOOO+OOOOOOOXO%%%OO%%%%++%%%+OooO+%%%%%%%%%+++%%%%%%%%+OO+%%%%%%+%+OOOO+OOOO+O",
"..oO++++OoO++oo+O%+O+OO%%O%%%%OOOO+++++O+OOO+%+OXO%%+oOO++++%%%OOOOOOOoXoXoOOOOoOOO++++%+%+OO+%%O%%OoXXX.oOOOOOOOO",
"OOOO+%OOOOOOo.o%+%+O%+O%%+%+%%O+oO+%%%%%%+O+%%+O%%&&%++%%%%%%%%OOOOOOOoXooOOO++O+++OO+%%O++OO+%%%%%%OOOOoOOOOOOOOo",
"%+O+%%%+%++OOOO++%+O%%O%&+%++%O%oOO%%%%%%++%%%+O%%%%%O+%%%++%%+OoOOO+++%%%%%%%%%O++++%%%O++OOO+%+++++%+OO++OOO%%+O",
"+OOO+%%%%%+OOOOOO%+O%%+%%+%%%%+%OOO+%%%%+OOO%%+O++++OOO%%+OXoOO.oOOOOO+%%%%+OOOOXOOOO+%%+%+OXOOOOOOO%%%OO++OOO+O+O",
"OOOO%%+OOOOOO+OXO%%+&%+%%+OO%%%%%%%%%%%+%OoO+OoXooXoOO+%%%OOOO+%=&%+OOOoooOOOooOoXoOOOOOXOOOOoOOOOoO+%+OoOOOO+%++O",
"OOOOOOOOOOOOO++O%%%%&%+%%+O+%%%%&==*%%%%+OO%%+Oo..XOOOOO+OOooOO%+%%++%%%OoooooO%OooOOOX..XOOooOO%+O+++OOOOOO+++++O",
"OOOO++%%%%%%+%%%O+OO%+oOOO+%%%++O%%%%%%%+OOOOO+%%%%%%%++OOoXoO+%O+%+OOOOOOOOOOO%%+%%%%OoOOOOOOO+%%+++OOO+OO+%+O+OO",
"OOOO%%%%%%%%+%%%X..XOo..OO%%%+OOO++%%%%%%%+OO+%==%%+Oooo+OOOOO%%+%%OXXXX%%%%%OOOoOO%%+Oo+OOO++OOOO++OOO++oo+%OO+OO",
"OOoO+%%%%+OO+++OOXXOOoooOO%%%+OO%%%++O++%%==*%%%%%%OOOOO%+OOO++%O++OXoO+%%%%%Ooo.oO%%OOOOOoOOOOoOO+OOOO+O..O+oXO++",
"%OOO+%+O+OO+%%%%%OO%OOOO+O+%%+++%%%+OOO+%%%%%%+OOO+%%%%%%+OO++OOO+OOO+%%%+OOOoOOOO%%%OO+oooOOOOoO++OOOOOo..oo.XOO+",
"+%%%+++++O+%&%%%=++%+O+O%OOOO++%%%%&%%%%+%+OoOOO..XO+%%%%+O+++OO+++OO+%%%OoXXooOOoXoOooOOOO+++OO++OOooooXoooXXOOoo",
"oO%%OOO+++%*=%%&=O+%++%+%OXXOO+%%%%%%OOOO+%%%%%++OOOO+%%++++%%+O++OOO%%++OoOOooo%O.XOOOOOO+%++OOOOOoXXX.oO+OoO+%oX",
"O%%%OO%%+%%%%%%%%OOO++++%+OoO+%%OXo+OO%%+%%%OoO%%%++%%%%%%%%%%++%+O+%%+OO..XOOOO%%%%%+OOOO+%%%++%OoOOOO+%%+OO+%+OO",
"O%%+OO+++OoXoO+%+OOO++%%%%%O+%%%+XXOX.Xo+++Ooo+%&%O+%&%%%%%%%+OO+OOO++OXo..XOOO+=%%%%Ooo++%%%%%&%+O+%%%%%%%%%%%O%+",
"O++OOOOO+OX.XOO+OOOO+++%%%+++%+O...X..OOoOOOoO%&%+oO%=%%OO+%%OOo+OO+++OX...oOO+%%%%%+O..OO++%%%&%%%%%%%%%%%+%%+O%%",
"++OOOOOO+OOO+%OOOOOOOOO++++OOOOoOXoOX....oOOO+%%OoXO%%%+OOO++OOOOOO+%%OXooOOO+%%%++%%OooOOOOOO+%++++%%%%+%%%%%%+%%",
"+OO+++++%%%%%%+OOOO+OOO++++++OOOOXO+OOOXOOOOOOOO.XOOOOOOOOOO+OO+oXXO%%O.O+%%%%&=%%%%%%++%%%+OOOOXXoOO%%%%&=%%%%%%%",
"+O+%%%%%%%%%%%%+OOO+OOO%%+++OOOO..o++%%%%+Oo...X.O++OXOOOOOOOOO+OooO%%+oOO+%%%&&&%%%%%++%%%%OOOOOOOOO%%%%%%%OO%%%%",
"OOO%%++%&%%%+++%OO++OoO%%+++OoOO+OO+OOOO%+OoooooOO+OOOO+OOO++OO+%%++++++OOOO+%%+%OOOOOOO+++OOoOO%%%++%%++++OoOOO+O",
"ooO++OOO%%%+OOOO+%%+OXO+%%++OOO%+OOOoO+OOOOO+++O+OoO+%%%OO%%%%%%%%%OooO%%%+O+%+OX.....O+++OOX.oOO%%%%%%%++OO+%%%+O",
"O+%%%%%%%%%%+OOO%%%+OOO%%%+OO+%%%+OOOO+%OOO+++OOOXXO+++%%%%%%&&&%%OoXXO+%%%%%%+OX...XXXoOoXoO%%%+O+%%%%%+%%%%%+Ooo",
"OO++++%%%%%++OOO++%+++%%%%+OoOOO%%+++++%+%%++O+%OooO++O++OOO+%%%+++%%%++%%%%%%+OOooO+OOOO+%+OoO%OOOO+OOOOOOoOOOo.X",
"OOOOOO+%%%+OOOOOO++%%%%%%%+OoOO+%%%%%%%++%%%++%%%%%%%OOoOOOOoOOOOO+%%%%%++OoXXooXXO%%%%%O%%+o..oOOOOOXXoXoo..oOO%%",
"OOOOOOOO%+OO+++O%%%%%%%%%%+OOO+%+%%%%%%+++%%%%%%%%%%%+OOOOOOooOO+OOO++++OOOoXXXoooO+%+OO++OOOOOOOOOOOoOOOOOoXOO+%%",
"XoOOoooo+++++OOO%+OO+%++%++OOO+%OO++++%%++++%%+OOO+++++OOOOo..XoOX.XoooOOO+%+OOOOOO++OOoOOOO+%%%+++OOO+++%%OOO++OO",
"OO+++OOOO+%+OOXXOOooOOOO%+OOOOOOOOOOO++%%+O+%+O.O++OOOOOOOoX....X..XX.XoXOO%%+Oo...oOOOO+%%%OoO%%%%+%%%%+%%OOOOO++",
"+%%%%++OO+%+OooOOOOOOOOO%OoO++OO++++++++%++++OOX%%%+OOOoOOOooX..ooooX.XOooOO+OOX  .oOOO++%%+oXoO%%%+%&%%%%+OOOOOO+",
"++%%+OOOXO+OOoO+%%%%%%++%OXO%%++%%%%++OO++++OOOOO++OoOOOOOO+++OO+OOo..o+%+O+%%+OooO++OOoX..O+%%%++OO%%%O%%+OO++OO+",
"+$%%%+OOOoOO$+X%OO..O%+OOoO%%%O++++OOO++@OooO+%%%+OOOO+%%+%%%%%+OOo...oOOOooooX.XoO+++OOO+OXO%%%%%++%%++OOOO+%%%%%",
"OO++++OOOOOO++.O%%+OO+OoOoO$%OOOOOOOOOOOOOoOO%%%%$+OO+$%$+%%OO%%OoX.XoOOoOOOooooOO+%%%%%%%%OO%%%%+OO+%%%%+%%%%%%%%",
"OOOOOOOOO+%O%%oOO+%++%+OOOO++OoO@@%%%%%%%+OO++OO++++++++OO+OXO%%OOoOO##+.oOOX..o%%%%+OOOOOOoO%%+O+++++%%+++%%%+O%%",
"OOOOOOOO+%%+%%OOOO++%%+OOOO++OOO%%%%%%%%%%+@@+OXOO++++OOOoOo.o+%OOOO+###%%*&%+#%%%+OOooX..XoO+%+O+%%+++%OOOOOOOoOO",
"OO+++++OO%%OO%OO%%%+%%OXOO+++OO+%%%++%%%OO+%%%%O++%%%%++OXooXO+OoO++OOO+++##+OOOOoooOOOOOOOOO+Ooo+%%OO+++OOOOOOO++",
"%%%%%%%%OO+XO+O%&%%+++O.OO++OO+%%%+OO+%%++@%%%%++++%%++++OOOO++OO+%%OO+%#+++#%#+OOOOO++OOO++++Oo.O%OOO+++OOOOOOO%%",
"%%+OO+#%%OOoO#+*%%%++++OO+%+OO+#%%#+++++++++##+OOOOOOOOO%O++O++O+#%%#+#%OoXooOOo+OO+%+OoooOO++OOX+%OOO++OOOOOOOO++",
"%+OooO+%%OOoO#+=%%&%%%%++%%+OO+###%%#+OOOooOO++O+OOOOOO+#+##OO+OOO+++++#%#+OO+++OOO+%%OOOOO+++OOO%%+O+%+OOO+%%+OOO",
"+%%%OoooOo+%+O%%o++ooOoOO++OoOOOOO+%%OO+OOO+++++O%%+#+O+%%+O++++%##+ooOOO+#+++#+%+OOOOOOOOO+OOO+%%OOOO+%%OOOO+%OOO",
".oO++++%%+%%++%%O%+OOOOOOOOooOOOooOOOXoO+++++OOOO%%#%#+#++O+#%%%%+++OO++O++OO+++%+OOOOOOOOO+OOO+%+OO++%%%OOOOO+O++",
".XooO++%%%%%Oo#%o#+oOOOOooX.XoOoXXXX...o+OOOooXXo##O+OOOoooO+%%%+O+#O+%#oOOOOO++%+OOOOOOOOO+OOO+%OOO++%%%oo+OoOO%%"
};
