/* XPM */
static char *desktop[] = {
/* width height num_colors chars_per_pixel */
"    64    64      239            2",
/* colors */
".. c #040204",
".# c #7c8264",
".a c #84221c",
".b c #3c423c",
".c c #bcc2bc",
".d c #9ca29c",
".e c #042a04",
".f c #146274",
".g c #9c867c",
".h c #446e74",
".i c #4c0204",
".j c #041614",
".k c #bca29c",
".l c #2c2a04",
".m c #6c6264",
".n c #2c727c",
".o c #8c928c",
".p c #fcfe6c",
".q c #6c6e6c",
".r c #544244",
".s c #acb2ac",
".t c #1c1614",
".u c #2c626c",
".v c #8c827c",
".w c #343204",
".x c #fcd2cc",
".y c #ccd6d4",
".z c #846e6c",
".A c #a4aedc",
".B c #a49e5c",
".C c #747a79",
".D c #1c0604",
".E c #0c122c",
".F c #041e1c",
".G c #64562c",
".H c #7c8284",
".I c #c4d2bc",
".J c #1c2224",
".K c #040244",
".L c #34525c",
".M c #246274",
".N c #5c6260",
".O c #2c322e",
".P c #9c9694",
".Q c #545252",
".R c #040a08",
".S c #7c726c",
".T c #2c6a75",
".U c #acaaa8",
".V c #3c363c",
".W c #ac968f",
".X c #545a54",
".Y c #bcb2b4",
".Z c #2c2224",
".0 c #242a26",
".1 c #646e6f",
".2 c #d4c6a4",
".3 c #141211",
".4 c #6c7670",
".5 c #1c1e44",
".6 c #8c8a89",
".7 c #2c2a2b",
".8 c #949a95",
".9 c #848a88",
"#. c #3c6e7c",
"## c #444a44",
"#a c #146a78",
"#b c #dce2dc",
"#c c #1c1e1c",
"#d c #d4d6fc",
"#e c #1c2234",
"#f c #2c364c",
"#g c #9c9e9c",
"#h c #346a75",
"#i c #a4aaa7",
"#j c #a4564c",
"#k c #3c767c",
"#l c #a4bea4",
"#m c #d4dad4",
"#n c #b4a6a0",
"#o c #7c7a79",
"#p c #646a68",
"#q c #343a34",
"#r c #0c0a0c",
"#s c #3c2a24",
"#t c #fcf2f4",
"#u c #ac3a34",
"#v c #c4cac4",
"#w c #9c8e84",
"#x c #7c6a74",
"#y c #34727d",
"#z c #949290",
"#A c #746e6c",
"#B c #343233",
"#C c #5c524c",
"#D c #bcbab8",
"#E c #948a84",
"#F c #342e2c",
"#G c #140204",
"#H c #7c827c",
"#I c #444244",
"#J c #c4c2c0",
"#K c #a4a2a0",
"#L c #1c626c",
"#M c #bca2cc",
"#N c #6c6a6a",
"#O c #b4b2b0",
"#P c #aca6ac",
"#Q c #141a18",
"#R c #848284",
"#S c #24221c",
"#T c #445654",
"#U c #246a76",
"#V c #646262",
"#W c #b4aaa8",
"#X c #645e5c",
"#Y c #2c2e34",
"#Z c #0c0204",
"#0 c #743e3c",
"#1 c #bcaaa4",
"#2 c #6c7271",
"#3 c #1c1a1a",
"#4 c #94827c",
"#5 c #aca6a3",
"#6 c #24062c",
"#7 c #441e0c",
"#8 c #cc4e34",
"#9 c #fceee4",
"a. c #84463c",
"a# c #847e7c",
"aa c #5c160c",
"ab c #ccc2bc",
"ac c #647694",
"ad c #6c4a4c",
"ae c #f4fefc",
"af c #042624",
"ag c #3c6264",
"ah c #d4d2cc",
"ai c #2c1a34",
"aj c #b4bab4",
"ak c #ac8e84",
"al c #544e4c",
"am c #ccbab4",
"an c #2c0204",
"ao c #947e7c",
"ap c #4c5a54",
"aq c #3c3e3c",
"ar c #cccac8",
"as c #cccecc",
"at c #5c5a5c",
"au c #4c4e4e",
"av c #a4928c",
"aw c #c4aeb4",
"ax c #747675",
"ay c #241e1c",
"az c #0c1a1b",
"aA c #a49694",
"aB c #24222c",
"aC c #dcdedc",
"aD c #4c5250",
"aE c #3c464c",
"aF c #4c7274",
"aG c #8c868c",
"aH c #d4d2d4",
"aI c #240204",
"aJ c #54565c",
"aK c #ac9a9c",
"aL c #14161c",
"aM c #8c8a94",
"aN c #848e94",
"aO c #0c0e14",
"aP c #9c9294",
"aQ c #0c121c",
"aR c #34363c",
"aS c #84827c",
"aT c #1c667c",
"aU c #242224",
"aV c #c4b2ac",
"aW c #a49e9c",
"aX c #746a64",
"aY c #1c1e24",
"aZ c #fcfefc",
"a0 c #443e3c",
"a1 c #040606",
"a2 c #2c6674",
"a3 c #8c8684",
"a4 c #747e7c",
"a5 c #0c1634",
"a6 c #246672",
"a7 c #9c9a98",
"a8 c #545654",
"a9 c #040e0c",
"b. c #7c7674",
"b# c #2c6e77",
"ba c #acaeac",
"bb c #2c2627",
"bc c #141614",
"bd c #8c8e8c",
"be c #2c2e2c",
"bf c #848e8c",
"bg c #dce6e0",
"bh c #346e75",
"bi c #d4dedb",
"bj c #7c7e7b",
"bk c #0c0e0a",
"bl c #0c1614",
"bm c #347682",
"bn c #949694",
"bo c #747274",
"bp c #343634",
"bq c #5c5654",
"br c #bcbebc",
"bs c #948e8c",
"bt c #c4c6c4",
"bu c #a4a6a4",
"bv c #b4b6b4",
"bw c #848684",
"bx c #242614",
"by c #646664",
"bz c #5c5e5d",
"bA c #3c7e8c",
"bB c #146674",
"bC c #6c6664",
"bD c #2c767c",
"bE c #7c8684",
"bF c #3c3a3c",
"bG c #444644",
"bH c #ccd2cc",
"bI c #24262c",
"bJ c #d4d6d4",
"bK c #0c161c",
"bL c #242624",
"bM c #3c4244",
"bN c #04161c",
"bO c #8c9294",
"bP c #6c6e74",
"bQ c #acb2b4",
"bR c #1c161c",
"bS c #aca2a4",
/* pixels */
"a#a#a#a#a##RaS#R#R.v#Ra3bwa3a3a3.6.6.6.6bd.6bdbsbdbsbd#z#z#z#z#z#zbnbn.Pbn.Pa7a7a7a7a7a7#g#g#g#gaW.daW#K#K#K#Kbu#Kbububu#5#i.U.U",
"a#bja##Ra#aS#R#R.vbwa3#Ra3a3.6a3.9.6bd.6.6bsbdbdbs.o#zbd#z#z#zbn#zbn.Pbn.8.P.8.P.8a7a7#ga7aW#gaW#g#K#K#K.d#Kbu#Kbububu#5#i#P#i.U",
"a#a##RaS#R#R.v#Ra3#Ra3a3a3bwaG.6.6.6.6bdbdbdbsbdbs#zbs#z#z#zbn#zbn.Pbn.P.P.8a7a7a7a7#g#g#gaW#g#g#KaW.d#K#Kbubububu#5bu.U#i.U.U.U",
"a#aS#Ra#.v#R#Rbw.vbwa3aGa3.6a3.6.6bd.6bdbdbsbdbs.obsbO#z#z#z#zbn.Pbn.P.8.Pa7a7a7a7a7#ga7aW#gaW#K.d#K#K#Kbu#Kbu#5bu#5bu.U.U.U.Uba",
"a##R#R#R#R.v.vbwaGa3a3a3.6.6.6#E.6bdbsbdbsbdbsbO#z#z#z#z#zbnbnbnbn.P.8a7a7a7a7a7a7#g#gaW#gaW.daW.d#K#Kbu#Kbu#5bu#5#i.U#i.U.Uba.U",
"a#aS#RaS#R#Ra3#Ra3bwa3.6a3.6#E.6bd.6bdbs.obs.obs#z#z#zbn#zbnbn.Pbn.Pa7a7.8a7a7#ga7#g#g#g#K#g#K#K#K#Kbu#Kbububu.Ubu.U.U.U.U.U.Uba",
"#R#R.v.vbw.vbwa3bw.6bw.6.6.6.6bd.6bsbdbsbd#zbs#z#z#z#zbnbn.Pbn.Pbna7a7a7a7a7#g#g#gaW#gaW.daW#K#K#Kbububu#5bu#5bu.U#i.U.Ubabababa",
"#R.v#Rbwbwbw.9a3.9a3.6.6.6.6.6bdbdbdbsbdbs.o#zbO#z#zbn.P#zbn.P.8.P.8a7a7a7#ga7aW#g#gaW.daW.d#K#K#K#KbSbubu#Pbu.U#i.U.U.Uba.U#Oba",
"#R#Ra3.vbwaGa3.9..a1a1.Ra1a1#Z.R#Z.R#r..azbKbKbK.jaz.jbKblbKbNbKbKbKbNbKbNbKbK.jbKbKbNbKaz#QbR#c.J.J#cbu#5#i.U.U.U.Ubababababa#O",
".vbw.vbwaGbwa3.6bkbw#oa8#zaqa1#3#c#c.0#G.ubD#hb##h#h.Tbh.Tbh#hb##hb##hb##hbh.T#hb#bhbhb#b#.C#PbS.G.#aU#5#i#P.U#i.Uba.Ubaba#Oba#O",
"a3#RaGa3bw.6.6.6bcaD.N#N.X#pax#2.Cax#o.z#hb#b#.Tbh.Tbh.Tbh.Tbh.Tbh.Tbh.Tbh.Tbh.Tbh.Tb#a2bm.HbC#7aI#6#3#i#5.U#i.Uba.Ubababa#Oba#O",
"#Ra3bwa3a3.6bw.6#Y.6bubd#Dar#Daj#ObQ#OaV#.a6#h#hb##hb##hb##hb##hb##hb##hb##hb##hb##hbh#U#y.9#x.e.e..bR#g#g.dbu#5ba.U#Oba#Oba#O#O",
"a3bwa3a3.9.6.6.6#c#Rbwbj.9bO.9#Ra#bjbEaobh#Ubhb##hb##hb##hb##hb##hb##hb##hb##hb#b##hbha2.nbdbsaJ#r.1.0a#a##Rbd.dbababa#Oba#O#O#O",
"a3a3aGa3.6.6.6.6aU#Hbwbnbsaxbwbua7bn#gaAbh.T.T#y#hb##hb##hb##hb##hb##hb##hb##h.T#ybh.T.TbmaN#Ea7#P#DbLauauaJ#Nbs#Oba#Oba#ObQ#Obv",
"a3a3.6.6.6.6.6bdaU#2bjbj.Hbz#oa7bd.9.6#4#hb#.T#h.T#y.T#hb##hb##hb##hb##hb##hb##h.T.Tbh.T#k#pa0ap.X#T.3.7#F.Va8bwba#Oba#O#O#O#Obv",
"a3.6a3.6.6.6.6bdbLbn#g#gbd#ia7.9.9bn#K#n#ya6#hb##h.T#yb##h#yb##h#yb##h#yb##h#yb##h#y.T.TbA##...F.Fafa1bIbx#Yal#Rba#O.s#O#O#Obvbv",
"a3.6.6.6bdbdbdbs#c#V#NaxatbjbPby.N#Vbwa##h.Tb##y.T#h.T#hb##h.T#h.T#hb##h.T#h.T#h.T#y#h.Tbm.1.m.9.Cbf#caUbLbeaubw#O#O#O#O#Obvbvbv",
".6.6.6.6bd.6bdbdbL.d#i#g#i#g#g#gbuba#i#1#ha6#h#h.T#y.T#y.T#y.T#y.T#y.T#y.T#y.T#yb##hb#.T#y#2#WaZbr#t#caUaUbealbw#ObQ#O#Obvbvbv.Y",
".6.6.6bd.6bsbdbs#Bba#JajbJbabrarbiaZaeaZ#ka6b##h#h.T#h.T#h.T#h.T#h.T#h.T#h.T#h.T#hb##h.Tbm#p#naZ#iaZ#cbLaUbealbw#O#O#Obvbvbv.Yaj",
".6.6.6bdbdbdbsbdbLbubu.sbvbu#ibubu#i.U#1#h.T#hb#.T#y.T#y.T#y.T#y.T#y.T#y.T#y.T#y.T#y.T.T.naxabaZaCaZ#3aUbL#YaDbw#O#Obvbvbv.Yaj#D",
".6bdbdbsbdbs.o#zbL.X#Nbyaxbubu#g.P#z.o.Wbh#U#h#y.T#h.T#h.T#h.T#h.T#h.T#h.T#h.T#h#h.T#ya2.nbO.vau.QbG.3aUbLbe.Qbwbvbvbvbv.Yaj#Daj",
"bd.6bdbdbs.obs#zaU#zbn.6bda7bn#zbdbEbw.g#hb#.T#h.T#y.T#y.T#y.T#y.T#y.T#y.T#y.T#y.T#y#h.Tbm.4#C#p#2ax#caUbL#Fau.6bv.Ybv#Daj#D#D#D",
"#Ebdbsbdbsbs.o#z#c.CbObdbObjbw.H#o#ga7aAbh.T#h#y#h.T#h.T#h.T#h.T#h.T#h.T#h.T#h.T#h.T.T.T#y#2#5brbv#Dbx.JbLbe.Qbwbvajbvaj#Dajbr#D",
"bdbsbdbsbd#z#z#zaUbob.bj#pbo.q#2.qbwbOav#h#U#h.T.T#y.T#y.T#y.T#y.T#y.T#y.T#y.T#yb##h#y.T.TbO#W......aLaUbI#FaD.6bvbv#Daj#Dbr#Dbr",
"bdbsbd#z#z#z#z#z.Jbn#ga7.8#g#ga7.8bObd#w#ya2#hb##h.T#h.T#h.T#h.T#h.T#h.T#h.T#h.T#hb##ha2.nbObSbc#3bp#3bLbL.O.Q.6bv#Daj#D#D#Dajbr",
"bd#z#zbd#z#z#zbnaU#N.q#2bo#pa7#gbnbnbnaK#h.T.T#y.T#y.T#y.T#y.T#y.T#y.T#y.T#y.T#y.T#y.T.Tb#.8#5..bk...3aUbLbe.Q.6bv#D#Daj#Dbrbr.c",
"bsbs.o#z#z#z#z#z#S#g.8a7bObnaM.9#Rbw.9.g#h#U#y#h.T#h.T#h.T#h.T#h.T#h.T#h.T#h.T#h#y.T#ha2.n.HbS.c.8bj#3bLbL#F.Q.6#D#D#D#Dbrbrbr.c",
"#zbd#z#z#z#z#zbnaUboa#.c.Y#O.Uba.UbuaW.k#..T#h.T#y.T#y.T#y.T#y.T#y.T#y.T#y.T#y.T.T#hb#a2bm.9.Sbw.6.6aUaUbb.O.Q.9#Dajbrbrbr.cbr#J",
"#z#z#z#z#zbnbnbn#3#p.1.Cax.4#2#2.q.1.4#A#h.Tb##h.T#h.T#h.T#h.T#h.T#h.T#h.T#h.T#y#hb##h.Tbma4aXax#Hbw#cbLbI#B.Qbd#D#Dbrbrbrbr#J.c",
".o#z#zbn#zbn.Pbn.j#aaT.fbB.fbBbB#aaTbB#ab#.T#h#y.T#y.T#y.T#y.T#y.T#y.T#y.T#y.T#h.T#y.T.TbmbP#Cby#N#p#3aUbL.O.Qbd#Dbrbrbrbr.c.c#J",
"#z#z#z#zbnbnbn.PbK#hbhbhb#bhbhbhbhbh#h#y.T#y.T#h.T#h.T#h.T#h.T#h.T#h.T#h.T#hb##hb##h#h.Tbm.Cbqat.Nbj#3bLbb#Y.Qbdbrbrbr.c#J.c#J#J",
"#z#z#zbn.Pbn.PbnbKbhb##hb##hb##h.T#y.T.T#h#h.T#y.T#y.T#y.T#y.T#y.T#y.T#y.T#y.T#y.T#y.T.Tbm.H#Xbzbybd#cbLbL#B.Qbdbr.cbr.c#J.c#Jbt",
"#zbnbnbnbn.Pbna7bN#h.Tbh.T#y.T#y.T#h.T#y.T#hb##h.T#h.T#h.T#h.T#h.T#h.T#h.T#h.T#h#h.Tb#.TbmbE#Vbz#A#p#3bLbL#Fa8bdbrbr#J#J.c#Jbtbt",
"bnbnaPbn.P.8.Pa7bKb##hb##h.T#h.T#hb##h.T#hb##h.T#y.T#y.T#y.T#y.T#y.T#y.T#y.T#y.Tb##h#ya2b#bOaA.4bd#2#3bLbb.Oa8.o.c#J.c.c#Jbtbtbt",
"bn.Pbn.Pbn.Pa7.8bK#hb##hb##hb##y.T#y.T#y.T#y.T#h.T#h.T#h.T#h.T#h.T#h.T#h.T#h.T#y#h#hb#.T#y#zakaPaKaAaUbLbI#Ba8bs.c#J.c#Jbtbtbtbt",
"bnbnbn.P.8a7a7a7bN#hb##hb##h.T#y.T#h.T#h.T#h.T#y.T#y.T#y.T#y.T#y.T#y.T#y.T#y.T#h.T.T#y.T#yaFag.h.haF#QbLbL#Ba8bO#J.c#J#Jbtbtbt#v",
".Pbn.P.8a7.Pa7a7az.T#hb##hb##h#hb##y.T#y.T#y.T#h.T#h.T#h.T#h.T#h.T#h.T#h.T#hb##h#y.T.T.T#ha6#Ua6a6a6bNbIbb#Ba8#z.cbtbt.cbtbt#var",
".Pbn.Pa7a7a7#ga7bNbh#hb##h.T#yb##h.T#h.T#h.T#h.T#y.T#y.T#y.T#y.T#y.T#y.T#yb##hb#a2#y#h#hb##h#ybhb#b#azbLbb#Ba8#z#Jbtbtbtbt#v#var",
"bna7.8a7a7a7a7#gbK.Tbh.T#y.T#h#hb##hb##y.T#y.T#y.T#h.T#h.T#h.T#h.T#h.T#h.T#hb##h#y#h.T#y.T.Tb##h#hbhbNbL.7.Oa8#zbtbtbtbt#varar#v",
"a7a7.Pa7a7#ga7#gbK#hb##h.T#h.T#y.T#y.T#h.T#h.T#h.T#y.T#y.T#y.T#y.T#y.T#yb##hb##h.Tb#.T#h#h#ya2#y.TbhbKbLbbbpa8bnbtbtbtbt#var#vas",
".P.8a7a7a7a7#g#gblb##h#h.nb##y#h#h.T#y.T#y.T#y.T#h.T#h.T#h.T#h.T#h.T#h.T#hb##hb##h#y.T#y.T#h.T#hb##ybKbL.7#Ba8bnbtbt#varar#vasas",
"a7a7a7a7#g#gaW#gbK.T#yb##h#h.T.T#h.T#h#h.T#y#h.T#y.T#y.T#y.T#y.T#y.T#yb##hb##hb##h.T#h.T#h.T#yb##h.TbKbLbL#Batbnbtbt#var#varasas",
"a7a7a7#ga7#g#gaWaz#y#y#h.n#y#y#y#y.nb##y#yb##h#h.T#h.T#h.T#h.T#h.T#h.T#hb##h.n#hb##hb##hb##h.T#hb##hbKbL.7bpa8bn#var#varasasasas",
"a7#g#g#gaW#gaW.dbKb##y#y.n#y#y#y#y#..n#y#y#y#yb##y.T#y.T#y.T#y.T#y.T#y.T#y.T#h.T#hb##h.T#yb##hb##hb#bKbL.7#Batbnar#var#vasasasbH",
"#ga7#gaW#gaW.d#K.......D............#s#G.....n#y.T#h.T#h.T#h.T#h.T#h.T#h.T#h.n#hb##hb##h.T#hb##hb##hbK.0.7#B.Xbn#varasasasasbHah",
"a7#gaW#g#g#KaW.d...RaObM.0aOa9a1.O#F#faE#Y..b##h.T#y.T#y.T#y.T#y.T#y.T#y.T#y.T#hb##h.T#yb##hb##hbhb#bKbb.0#Bat.8ararasasasahasbH",
"#gaW#gaWaW#g#K#K#c.1#xbF.radbMbiaZaZ..#OaZam.M.T#h.T#h.T#h.T#h.T#h.T#h.T#h.T#y.T#h.n#h.T#hb##hb##h.TbK.0.7bpat.8arasasasbHbHbHbJ",
"aW#g#gaW.d#K#K#KaL.6.x.ianaa.Z.I#d.K.p...Aaw#L.T.T#y.T#y.T#y.T#y.T#y.T#y.T#ya2#y.T#hb##hb##hb##hb#bhbKbb.7bpat.8asasasasaHbHbH.y",
"#gaWaW.daW#K.d#KaLbu#9#8#u.aaB#l#M.5aZacai.2a6.T#y.T#h.T#h.T#h.T#h.T#h.T#h.T#h.T#y.T#y#h.T#y.T#h#y.TbN.0bbbpat.8asasbHbHahbHbJbJ",
"#gaW.d#K#K#K#Kbu#3.qa3a.#j#0.taZ.B.LaZaZ..aZ.na2#h.T#y.T#y.T#y.T#y.T#y.T#y.T#y.T#h#h.T#y.T#hb##h.T#hbl.7.7bpata7asahbHaHbHbJ.ybJ",
"aW#K#K#K.d#Kbu#K#cbcbk...R#Q#c.Ebx.wa5ay.l#eaQ.FbKbKaQbKbKbKbKbKbKbKbKbKbKbKbKbKbNazbKbKbKbKbKazbKbK.FbL.7aRat#gasbHaHbHbJ.ybJ#m",
"#g#K.d#K#Kbu#Kbu.6.6bw#N.bbI#c#cay#3ay#3#3#caYay#caY#c#c#caY#caYayaYaYayaYaYay.Jay.JaBaU.JaU.JaU.JaU.7bL.7bpbz#gasbHahbHbJ.ybJbJ",
"#K#K#K#Kbubububu#5#ia7a#au.7bbbLaUbLaBbLbIbLbLaUbLaUbbbIbbbLbb.0bI.7bL.0bb.0.7bI.7bI.7bI.7bb.7.7.7.7.0.7bebpbza7ah.ybJ.ybJ#m#m#m",
".d#K#K#Kbububu#Pbu#i#K#R.Q#qbe.7bebebebe#Fbe#F#Y#F#B.O#F.O#F.O#B#B#B#B#B#B#B#B#B#B#B#Bbp#Bbp#Bbpbpbp.Vbpbp#Iby#KbHah.ybJ#mbJ#m#m",
"#K#Kbububu#5bubu.Ubu#Kbd#N.Q.QauaualaDaual.QaD.QaD.QaD.Q.Q.Q.Q.Q.Qa8a8a8aJa8aJ.Xa8at.Xat.Xat.Xatatat.Xbzbzby#H.s.ybJbJ.ybJ#m#m#m",
"bu#Kbubububu#5#i.U#P#iaWbdbw#Rbwbw#RaGbwbwbwa3.9.6.9.6.9bdbdbdbdbdbdbd.o.o#zbn#zbnbnbnbnbnbna7.8.8a7#g#g#g#Kba#J.ybJbJ#m#m#m#maC",
"#Kbububu#P.U#i.U.U#i.Ubababababa#Oba#O#Obv#Obvbvbv#Daj#Dajbrbrbrbrbr.c#J#J.c#Jbtbtbtbt#varar#vasasasbHasahbHaHbJbJbJ#m#m#m#maCbi",
"#Kbubu#5bubu.U#i.U.Uba.U.U#Oba#O.s#O#O#O#Obvajbvaj.Yajbr#Dbrbrbr.cbr.c#J.cbtbtbtbtbt#var#vasasasasasbHaHbHahbJbJbJbJ#m#m#maCbiaC",
"bubu#5#i.U.U.U.U.U.Ubaba#Oba#O#O#O#Obvbvbvbvbv#Dbv#D#Dajbrbrbr.c#J.c#J.cbt#Jbtbt#varar#varasasasahbHahbHbJ.ybJ.y#m#m#m#maC#maCaC",
"bu#5bu#Pbu.U#i.Uba.Ubababa#Oba#ObQ#O#O#Obvbvbv#Daj#Dbrbrbrbr.cbr#J.c#J#Jbtbt#vbtar#v#varasasasbHasbHahaH.ybJ#mbJ#m#m#m#maCbiaC#b",
"bu#5#i.U.U.U.U.Ubaba#Oba#Oba#O#O#Obvbvbvbv.Yaj#D#D#Dbr#Dbr.c#J.c#J.cbtbtbtbtbt#vararar#vasasasahaHbHbJbJbJ.ybJ#m#m#maCaCbiaC#b#b",
".Ubu.U.U#i.U.Ubababa.U#Oba#O#O#Obv#Obvbvbv#Daj#Dajbrbrbrbrbrbr.c#J#Jbtbtbt#var#vas#vasasasasbHbHbHaHah.ybJbJ#m#maC#maCbiaCaC#b#b",
"#5#i.U.U.Ubabababa#Oba#O#O#O#O#Obvbv.Yaj#D#Dajbr#Dbrbrbr.c#J#J#J#Jbtbtbt#vbtar#varasasasasbHbHbJah.ybJbJ#m#m#m#m#maCbiaC#b#b#b#b",
".U.U.U.U.Uba.Uba#Oba#O#ObQ#O#Obvbvbv#Dbv#Daj#Dbrbrbr.cbr#J.cbt.cbtbtbtbtar#vararasasasasbHbHah.y.ybJ.ybJ#m#m#maCbiaCaCaC#b#b#bbg"
};
SIMPLE  =                    T                                                  BITPIX  =                    8                                                  NAXIS   =                    2                                                  NAXIS1  =                   64                                                  NAXIS2  =                   64                                                  HISTORY Written by XV 3.10                                                      END                                                                                                                                                                                                                                                                                                                                                                                                                                                                                                                                                                                                                                                                                                                                                                                                                                                                                                                                                                                                                                                                                                                                                                                                                                                                                                                                                                                                                                                                                                                                                                                                                                                                                                                                                                                                                                                                                                                                                                                                                                                                                                                                                                                                                                                                                                                                                                                                                                                                                             ᨨ১ߦަݥܤۤڢڡjSOMMNNNPQPOQQQRRSTTTTUUVVWWWXXYYYZZZ\Y[]dءS7-,-,./.-/.00000011112222332223333444667CfסL-&#$###$%%$%%&&&&'''''''((((())))****)++5]נk>&         !!!!!!" !)')6[՟ #+#!')5[՟mZoOJ ]UYYYYYYYYYYYYYYYYYZZZYYYYYZ'*4[Ԟt`A##t#RVYXXXXXXXYYYYYYYYXXYXXXXXYX'*4Zӝ*$
 MWYYYYYYYYYYYYYYYYYYYYYYYYYY(*4Zѝks7GU? MWYYYYYYYYYYYYYYYYYYYYYYYYYY(*4Zќ	?)/,5B/ ZZYYYYYYYYYYYYYYYYYYYYYYYYZY')3YМ        0 ][YYYYYYYYYYYYYYYYYYYYYYYYYY')3Yϛ[]]^[_]\aZ`^\\YYYYYYYYYYYYYYYYYYYYYYYYYYY')3YΚ]\Z]\\^]ZYZ^\XYYYYYYYYYYYYYYYYYYYYYYYYYYY')3X͙YYZYYXYXYZZWZZXYYYYYYYYYYYYYYYYYYYYYYYYYY'(2X̘YXXYXYYYYYWYXYYYYYYYYYYYYYYYYYYYYYYYYYYZZ&(2W˘XYYYYYZYYYYYYYYYYYYYYYYYYYYYYYYYXXYXZWYXZ'(3VʗXYYYYYZYYYYYYYYYYYYYYYYYYYYYYYYYXXYYWYXYX$(3VɖXYYYYYZYYYYYYYYYYYYYYYYYYYYYYYYXYYXYYYZYY&(1UɖXYYYYYZYYYYYYYYYYYYYYYYYYYYYYYYYXXXYSTRRP&'1VȕXYYYYYZYYYYYYYYYYYYYYYYYYYYYYYYWXZX[aVa_f&%2TƕXYYYYYZYYYYYYYYYYYYYYYYYYYYYYYYYYYT^!%'1UŔXYYYYYZYYYYYYYYYYYYYYYYYYYYYYYYYYYTZsp%&1UēXYYYYYZYYYYYYYYYYYYYYYYYYYYYYYYXZXV_c]ng$&1TÓYXYYYYXZZXXYYYYYYYYYYYYYYYYYYYYXXYV`~`]f%%0SXYZZZX[ZZYYX[XYYYYYYYYYYYYYYYYYYYXUaxYZa~%'/RQOJKKLMNNLOVZYXYYYYYYYYYYYYYYYYYYXVbkTdgh%%1RelxsqpnlhupXVXYYYYYYYYYYYYYYYYYXZXT`|lw$'1Q#s}]UZXYYYYYYYYYYYYYYYYXYYT_w!$&0R!XVYZYYYYYYYYYYYYYYYYYZYT[Ö~$&1P"lkppg\TYYYYYYYYYYYYYYYYYYZYXUW  $%/P YUXXYYYYYYYYYYYYYYYYXYXUY8#%/P#rw}grmolYTYXYYYYYYYYYYYYYYYYYYYUW   #%0P!x}z]UXYYYYYYYYYYYYYYYYYYXYW[o$"%-P"WVYYYYYYYYYYYYYYYYYYXYZUbsRfqv"$/O%Ykev\TXXYYYYYYYYYYYYYYYYYXZT\NNE"$.P%YTZXYYYYYYYYYYYYYYYYYYXU\v"%/N0¶ԮcOXYYYYYYYYYYYYYYYYYYYZU`g"".N%ZSYYYYYYYYYYYYYYYYYYYYZU^p#$,Oakt[|nc_bWWXZYYYYYYYYYYYYYYYYWZXVcjey##-M%[RYYZZZZZZZZZZZZZZZZXYYVhF #$.O"o||]{ZWXXYYYYYYYYYYYYYYYYZXYXci>TVN-/7U tZUXZYYYYYYYYYYYYYYYYYYXT_%LMTk |~YVXYYYYYYYYYYYYYYYYYXZYT\U
m',ɼ]SXYYYYYYYYYYYYYYYYYXXYT]r Q_j[htsvtzsZYXXYYYYYYYYYYYYYYYYYYYU_g&vV;'	Q^YXXXXXXXXXXXXXXXXXYYYXZvSy$	 ~                                                                                                                                                                                                                                                                                                                                                                                                                                                                                                                                                                                                                                                                                                                                                                                                                                                                                                                                                                                                                                                                                                                                                                                                                                                                                                                                                                                                                                                                                                                                                                                                                                                                                                                                