/* XPM */
static char * Info_xpm[] = {
"48 48 47 1",
" 	c None",
".	c #69A675D679E7",
"X	c #59655D7579E7",
"o	c #410349246185",
"O	c #69A671C69658",
"+	c #1861186130C2",
"@	c #1040104028A2",
"#	c #186120814103",
"$	c #208128A25965",
"%	c #208120814924",
"&	c #208128A24924",
"*	c #49244D346185",
"=	c #1040186130C2",
"-	c #30C238E371C6",
";	c #38E341038E38",
":	c #38E349248E38",
">	c #38E345148617",
",	c #38E33CF35965",
"<	c #5144555569A6",
"1	c #28A234D34924",
"2	c #30C2410379E7",
"3	c #51445D759658",
"4	c #D75CD75CDF7D",
"5	c #EFBEEBADEFBE",
"6	c #DF7DDB6CDF7D",
"7	c #596561859E79",
"8	c #410349248E38",
"9	c #28A230C26185",
"0	c #E79DE38DE79D",
"q	c #C71BC30BC71B",
"w	c #96589248A699",
"e	c #C71BCB2BCF3C",
"r	c #1861208138E3",
"t	c #410351448E38",
"y	c #79E77DF7A699",
"u	c #CF3CCB2BDF7D",
"i	c #861786179658",
"p	c #1040186128A2",
"a	c #410351449658",
"s	c #492451449658",
"d	c #F7DEF3CEF7DE",
"f	c #86178A28AEBA",
"g	c #D75CD34CD75C",
"h	c #492459659658",
"j	c #492459658E38",
"k	c #FFFFFBEEFFFF",
"l	c #1861186128A2",
"                                                ",
"                                                ",
"                                                ",
"                                                ",
"                                                ",
"                   .XXooooXOO                   ",
"                 ++@++#$$$$%%&**                ",
"               ==$$-;;;;::::::>>,<              ",
"             ,===$$-;;;;::::::>>,<<             ",
"           11@$$2;;;3345667:::888>>X            ",
"          #==9;;;;;;440qqqw228888888XX          ",
"          #==9;;;;;;440qqqw228888888XX          ",
"        11=--;;;;;;;55qqqqerr8888888tty         ",
"       <@@9;;;;;;;;:uuqqeeipp888888tttt         ",
"       <@@9;;;;;;;;:uuqqeeipp888888tttt         ",
"       +%%;;;;;;;:::77weiirrr8888ttttttOO       ",
"      <@--;;;;;;::::::2rppr22888ttttttass       ",
"      <@--;;;;;;::::::2rppr22888ttttttass       ",
"     11%;;;;;;::75555555ddd888ttttttaasssf      ",
"     ==9;;;;;:::7>>@eeeggggppttttttasssss3      ",
"     ==9;;;;;:::7>>@eeeggggppttttttasssss3      ",
"     @@2;;;::::::>>855gggg6ppttttaasssssss      ",
"     ==;;;:::::::888ddgg666pptttasssssssss      ",
"     ##;::::::::8888ddg6666pptaassssssssss      ",
"     ##;::::::::8888ddg6666pptaassssssssss      ",
"     ##:::::::888888dd66660ppasssssssssssh      ",
"     ++::::::8888888dd66000ppsssssssssshhh      ",
"     ++::::::8888888dd66000ppsssssssssshhh      ",
"     ##::::888888888dd60000ppssssssssshhhy      ",
"     <<2::888888888tdd00000ppssssssshhhhh       ",
"     <<2::888888888tdd00000ppssssssshhhhh       ",
"       &888888888tttdd00005ppsssssshhhhhh       ",
"       *88888888ttttdd00555ppsssshhhhhh         ",
"       *88888888ttttdd00555ppsssshhhhhh         ",
"        --8888ttttttdd55555ppssshhhhhh7         ",
"        iij88ttttddddd55dddddkhhhhhh77          ",
"         ij88ttttddddd55dddddkhhhhhh77          ",
"          Ojjttttaapppppppplllllhhh7            ",
"             3ttasssssssssshhhhhhOO             ",
"              ttasssssssssshhhhhhOO             ",
"                3ssssssssshhhh77                ",
"                    yyysyyf                     ",
"                                                ",
"                                                ",
"                                                ",
"                                                ",
"                                                ",
"                                                "};
