/* XPM */
static char *path[] = {
/* width height num_colors chars_per_pixel */
"    64    64      253            2",
/* colors */
".. c #040304",
".# c #7c827d",
".a c #444442",
".b c #bcc2be",
".c c #7c544c",
".d c #9ca39c",
".e c #3c1808",
".f c #5c6264",
".g c #a48468",
".h c #64462f",
".i c #7c6c5c",
".j c #bca490",
".k c #dee2dc",
".l c #242319",
".m c #947156",
".n c #8c938c",
".o c #e4cabc",
".p c #3c3028",
".q c #a49384",
".r c #645442",
".s c #545450",
".t c #acb2ab",
".u c #81766b",
".v c #542f29",
".w c #ccd2cc",
".x c #240604",
".y c #9c8269",
".z c #bcb2a0",
".A c #b49379",
".B c #544332",
".C c #d4c2af",
".D c #aca49a",
".E c #2c3230",
".F c #645b53",
".G c #3c3b39",
".H c #6c726c",
".I c #949a96",
".J c #7c7978",
".K c #ccb29c",
".L c #2c2b23",
".M c #0c1214",
".N c #7c604a",
".O c #948888",
".P c #8c6c57",
".Q c #a4999a",
".R c #726250",
".S c #947a66",
".T c #54443d",
".U c #aca5a5",
".V c #e4d8c9",
".W c #7c605c",
".X c #644a3b",
".Y c #745340",
".Z c #543c32",
".0 c #241a14",
".1 c #c4cac4",
".2 c #a48d7f",
".3 c #9c9389",
".4 c #4c3123",
".5 c #d4ccc3",
".6 c #848a85",
".7 c #412219",
".8 c #7c6d66",
".9 c #342419",
"#. c #b4bbb5",
"## c #bcbcba",
"#a c #6c6c6b",
"#b c #545a58",
"#c c #8c7c76",
"#d c #444a44",
"#e c #64544f",
"#f c #948a7c",
"#g c #745b4a",
"#h c #544b43",
"#i c #140204",
"#j c #a4aba5",
"#k c #fcf2e8",
"#l c #b49b83",
"#m c #acacaa",
"#n c #f4dac4",
"#o c #341909",
"#p c #a48a74",
"#q c #bcaa9e",
"#r c #2c241b",
"#s c #a49b89",
"#t c #acb3b4",
"#u c #d4dad4",
"#v c #4c3c28",
"#w c #7c7e7c",
"#x c #816651",
"#y c #a47e64",
"#z c #744d44",
"#A c #4c2a14",
"#B c #8c8683",
"#C c #ccc5c0",
"#D c #8c7762",
"#E c #1c1b17",
"#F c #a49e9c",
"#G c #947d76",
"#H c #e9decf",
"#I c #3f2a19",
"#J c #9ca2a4",
"#K c #8c9294",
"#L c #403620",
"#M c #54362b",
"#N c #c4baac",
"#O c #d6c2be",
"#P c #ccbaa7",
"#Q c #948e8c",
"#R c #644c44",
"#S c #4c4339",
"#T c #f4eae4",
"#U c #98765e",
"#V c #5c554a",
"#W c #94847a",
"#X c #c4b39f",
"#Y c #343a34",
"#Z c #9c9b94",
"#0 c #342c27",
"#1 c #846147",
"#2 c #e4d9d7",
"#3 c #643e39",
"#4 c #7e726a",
"#5 c #746c62",
"#6 c #5c4c43",
"#7 c #b4adab",
"#8 c #c4ac98",
"#9 c #0c0b07",
"a. c #27120c",
"a# c #140e0c",
"aa c #dcd2c4",
"ab c #f4eedc",
"ac c #1c140e",
"ad c #b48e74",
"ae c #341004",
"af c #8c7261",
"ag c #4c362b",
"ah c #341e04",
"ai c #84725c",
"aj c #ece2d4",
"ak c #e4d2c4",
"al c #747a77",
"am c #271e17",
"an c #64443e",
"ao c #6c6562",
"ap c #ccbdb7",
"aq c #7f665e",
"ar c #3c1e0f",
"as c #fcfaec",
"at c #8c7e68",
"au c #3d2a25",
"av c #9c9694",
"aw c #745c55",
"ax c #84837c",
"ay c #ac866c",
"az c #846a51",
"aA c #ac937b",
"aB c #5c432f",
"aC c #b4a395",
"aD c #34342e",
"aE c #6c5c4f",
"aF c #443d37",
"aG c #d4b6a4",
"aH c #9c7c62",
"aI c #5c3e37",
"aJ c #ac8e7c",
"aK c #dccdc4",
"aL c #c4bbbf",
"aM c #5c5c5a",
"aN c #9c8b77",
"aO c #fcded4",
"aP c #fce6d8",
"aQ c #7c5a52",
"aR c #847e7b",
"aS c #ac9e9c",
"aT c #5c362e",
"aU c #9c8e89",
"aV c #fceeec",
"aW c #ecd2bc",
"aX c #c4c4c2",
"aY c #a4a29c",
"aZ c #646360",
"a0 c #c4a68c",
"a1 c #94928c",
"a2 c #eccec4",
"a3 c #442f26",
"a4 c #6c5343",
"a5 c #b4b2ac",
"a6 c #d4d5d3",
"a7 c #dcc4b0",
"a8 c #747473",
"a9 c #847a74",
"b. c #141310",
"b# c #ac9994",
"ba c #5c433c",
"bb c #b4a6a4",
"bc c #6c4d3c",
"bd c #2c1812",
"be c #cccdca",
"bf c #8c8c8a",
"bg c #846e67",
"bh c #4c4c48",
"bi c #6c554e",
"bj c #bc9d7f",
"bk c #ac8b70",
"bl c #ac9c88",
"bm c #b4b5b4",
"bn c #dcdcda",
"bo c #9c7e74",
"bp c #a4a5a4",
"bq c #949594",
"br c #d4beac",
"bs c #6c4d45",
"bt c #bc9e94",
"bu c #9c8475",
"bv c #1c0c04",
"bw c #6c463c",
"bx c #74635c",
"by c #0c0304",
"bz c #a48674",
"bA c #242524",
"bB c #543234",
"bC c #bcb3ac",
"bD c #645e5c",
"bE c #3c3e44",
"bF c #ccb6ac",
"bG c #2c2b2c",
"bH c #7c6054",
"bI c #8c6e64",
"bJ c #84625c",
"bK c #74564c",
"bL c #543e3c",
"bM c #a48e8c",
"bN c #4c322c",
"bO c #d4cecc",
"bP c #342224",
"bQ c #544d4c",
"bR c #1c0604",
"bS c #2c2624",
"bT c #4c3c34",
"bU c #8c796c",
"bV c #1c1e24",
"bW c #4c4644",
"bX c #5c5654",
"bY c #c4b4ac",
"bZ c #9c9d9c",
"b0 c #746d6c",
"b1 c #5c4a4c",
"b2 c #b4aeb4",
"b3 c #c4aea4",
"b4 c #dcd6d4",
"b5 c #848584",
"b6 c #846b5c",
/* pixels */
"aR#waxaRaxaxaxaxb5b5b5b5#Bb5bf#Bbfbfbfbfbfbfbfbf#Qbfa1a1a1a1a1a1a1avbqbqavbq#Zav#Z#Z#Z.Q.Q.Q.Q#F#F.daYaYaYaYbpbpbpbp.U#j.U#j#m#m",
"ax#wax#waxaxb5axb5ax#Bb5#Bb5bfb5bfb5#Bbfbfbf#Qbf#Q#K#Q#Ka1a1bqa1bqa1bqavbqav.IavbZav.QbZbZ.Q#F.QaYbZ#F#JaYbpaYbp.Ubp#j.U#j#m.U#m",
"aR.#aRb5aRb5b5b5b5b5b5#B.6#Bbf#Bbfbfbfbfbfbfbfa1.n#Qa1a1bqbqbqa1bqbq.Ibq#Zbq#ZbqbZavbZ.Q.Q#F#F#F#JaYaYbpaYbpbpbpbp#mbp#m.U#j#m#m",
"axaRb5aRb5b5axb5#Bb5#Bb5#Bbfb5bfbfbfbfbf#Qbf#Qbf#Qa1#K#Qbqa1bqa1#Zbqbq#Zbq#ZavbZbZbZbZbZbZ#FbZ#FaYaY#JaYbpbpbpbp.U#j.Ubp#m#m#m#m",
"axb5#wb5b5b5#Bb5b5#B.6bf#Bbfbf#Bbfbfbfbfbfa1#K#Qa1a1a1bqbqbqavbqbq.I.I.I#Z.I#Z.I#Z#FbZ#F#F#J#FaYbpbpbpbpbpbpbp.U#j#m.U#m#m#m#m#m",
"b5aRb5b5#Bb5b5b5bfb5#B#B.6bfbfbfbfbfbfbfa1bfa1bfa1bqbqbq.3bqbqbq.I.I.I#Z.I#ZbZbZbZbZbZbZ#J#FbpbZbp#FbpaYbpbp#mbp#mbp#m#j#m#m#m#m",
"axb5b5axb5#B#B#Bb5bfbfbfbf#Bbfbfbf#Qbf#Qbfa1a1bqbq#Qbqbqbqavavbq.I.I.I.IbZbZbZbZbZ#FaY#FaY.daYaYbpbpbpbpbp.U#j.U#m#m#m#m#m#m#m#m",
"b5axb5#Bb5b5b5b5bf#Bb5#Bbfbfbfbfbfbf#Q#Ka1#Q#K#Qa1bqbqbqbqbqbq#Z.I.I.IbZ.IbZ#Z#ZaY#Z#F.daYaY#JaYbpaYbpbp#mbp#mbp#mbp#m#m#m#ma5#m",
"axb5b5b5#B#Bbf#B#wbfbqb5#Qbfaxa1a1bfbqa1bfa1bqbqbqavbqavbqav#Zbq.IbZ.I#jbqa1.D#Z.Da1.Da5#ZbZbpaYbpbpaYaYbp#m#m#m#m#m#m#m#ma5#ta5",
"axb5b5#Bb5b5#B.6a1#Bbfbfbf.JbSb5bfbfbfa1bfbqava1bZ#Qbfa1bZ.Ibqav#Z.dbqbfaY.z.3.DajaaaXbl.3a1aYa1aY#JaY#mbp#mbpbp#m#m#m#m#7#tb2a5",
"b5#Bb5b5bf#Bbf#Bbqb5b5bfbfbf..bfb5ax#Bbfbf#Qbqbqbfbq#Zavbqav#ZbZbfbZ#7.D#s#f#s.C.V#X.q#s#s.F#4#wb5a1bZ#m#m.U#m#m#m#m#m#m#t#7.ta5",
"b5#Bb5#Bb5bfb5bfb5bf#Q#QbfbZ..a1.J.Jb5bfbfa1bqbq#QbZbpbq#QbZ#Fbq.U#ZaxaV#T.V#n#X.yat#Dbl.z#v#S#VaZa8bqaY#m#j#m#m#m#m#m#7#ta5a5a5",
"b5bfb5bfbfbfbfbf#Bbfbqbfbfa1#9aRalb0.JbfbfbqbqbqbZbZa1bqav#J#Zbqav.Q.5.zaCagbuazazaAbl#l#X#v#L.p.aaZb5aY#m.U#ma5#m#ma5#t#7a5bmbm",
"b5#B.6#Bbf#Bbfbfa1bfbfbqbfaR.Maxa8#a.Jbfbf#Qava1bZ#Qbqbp#Zbfbqb2aU#2akaKaJ.ja4aH.g#l#laAaA#vah#raD.saxbZbpbp#m#m#m#t#ma5#tbma5bm",
"bf#Bbfb5bfbfbfbf#Qb5bfava1b5bybfa8#aa8bfbqbqbqbqbqbq.QbpbZav#m#C.5aK#W.W#g#8bcaJay.gaH.ybu.r#IahaDbQ#wbZ#m#m#j#mb2#ma5a5a5bmbmbm",
"bfb5#Bbfbfbfbfbfbfa1#Qbfbfbq..#Ba8#aa8#Qbqbqavav#ZbZa1.O.U#C.5bCaUbg#6aqbza0.P.m.P#ybkaHaAaA.r#raDbh#w#Z#m#m#m#ma5#ma5#mbma5bmbm",
"bf#Bbfbf#Bbfbfbfbfbqbfbqa1bq..bfa8#a.J#BbpbfbZ.IbZav.3bC#Tap#Gbgaw#Raw#DaEa7.N.P.maH#UaH#l#X#L.5.L.sa8#Z#jb2#t#ma5#ta5bmbmbma5bm",
"bfb5bfbfbfbf#Qbfbf#Qbfbqa1a1..bfaRaob5.6#Bbq#Jbqav#F#Cas#4bub6bsbi.W#g#g#gaW.h.g.mad.m.AbraC#s#V.L.a#aa1#m#mb2a5b2bma5bma5bmbmbm",
"bfbfbfbfbfbfbf#Qbfbqbfbqa1bq..bf.Jao#wbf#KbpbZ#ZbZ#F.Obybb#RbsbibwbJ#g#g#Da7aB.m#y.g#U.g#l.B#h.3.lbEaZbfbp#m.ta5#ta5bmbmbmbmbmbC",
"bfbfbfbfbfbf#Q#K#Qbq#Qbqa1#Q..bf.Jb0a8#B.Ubqbf#Jav#Z#cam#ebNan.Yan.Y#ga4.Yas#l.maH.mbk#gagat.L.l.L#YaM#B#j#m#ma5a5bma5bmbmbm###.",
"bfbfbfbf#Q#Q#K#Qa1bqbfavbqa1..bf.Ja8.Jb5bp.6bpbq#F#FaRa3aq.Z.Zanbs.Y.Y.Naz#oa0.m.m#z#Abc#x.D.l.L#YbW#a#K#m#ma5bmbmbmbmbm####a5##",
"bfbf#Qbfa1bfa1bfa1bqbqbqbqa1..bfaRaob5bqbfbq##bq.I.Q.JaF#6a3agbHbw.c#1#x.NaW.Na4ae#1bHaf.z#XacaDbh.faxaY#ma5bmbmbmbm##a5##bm####",
"bfbfbf#Qbfbqa1bqbqbqa1avbqbq..bf.JaZaRbqbf#Jb5#F#F#F#B#6#ea3.4aI#3#zaQaQ#gaPar#M#1aqaJ#G#G.D.l.Lbha8bZ#m#mbmbm##bm##bmbm########",
"#Qbf#Qbfbqbf#Q#Qbqbqbq#Zbqa1..bf.Ja8a8#QbZbqb..IbZ#Qa9.FbN.ZbaaTaT#zbw#AaraG.h#D.Pbo.W#GaU.DbAaD.saxbpa5#ma5bmb2##bmbm####bm####",
"bfa1#Ka1a1bqbqbqbq#Qbqbp#Q#K..bfaR.J#w#Q#Kavbp..bq#Qa9ao#Ib6.Z.4bwaT.x.7#g.oaBbUaq#G#GbgacbC#EaD.s#wbpa5#mbm#.bmbmbC##bm########",
"a1bfa1bfbq#Qbqa1#Q#Zbqbfbqb2..a#.........M....#9..#B#4a9bd#qbN.eaeaTanb6aBaCaE.8buawa..T#ebS.E.LaMb5bpa5bma5##a5###.bm##########",
"a1#Qbq#QbqbqbqbqbfbZ#Fbqbfbq..#waxb0aZ.JaZbfb5..#a.Jb0.u#i.Zar#M#3anbHbibU#7.iaEbdbaam.p.0b.aD#daZbf#mbma5bmbmbmbm##############",
"bfbqbfbqa1bqa1bqbq#QbqaY#Zbf..#Fa8bXaZ#a#waZb.aZ#wbQ#W#4bT#IbabNbKbi#e.RbQ.q#0aE#0bPauac#0bQ#d.Hb5bZbmbmbmbm##a5##############aX",
"a1a1bqa1bqbqbqavbqbZbqavbqbZ...Ja8b0bD#wal.6b5b5#a#a.8.FbLba#RbKanan.8.F#r#V.a#ram#0#0bQ.F.faZb5bZ#mbC#.bm################aXaL.b",
"a1bqa1bqbqbqavbqbf.UbZbf#Q#Z.M#FaRaZb5bf#Qbpal#Z#Q#Ba9#BbLagbN#R#Rb1bya9aDbAbV.GbPbWb1b0#5#Z.d.d#ma5##bma5bm##############aX.baX",
"a1bqbqbqavbqavbqbZ#Zbf#Zbp#Z..b5b5aRb0b5#mbZ#J.U.I.OaR.u#Ibaaw#RbR#e#r.0bVbA.G.GbhbX#Tb4bOa1#Z.t#m.tbmbm##############aLaX##aXaX",
"a1bqa1bqbqav.IavbqaYavbZ#Fa1..av.Jb0bq#QbZ#J.Ubq#Z#7ao#BbT#6a.aubPacbPaD.Lbh.aaZ#T#O#CbY#f#Z#Z.6#m#ma5################aX.baXaXaX",
"a1bqbqavbqbqav#ZbqbZbZavbZbZ..a1aRa8#wav#F#Fbp#F.Uav.G#rbybS#0#0#r#0#0aF.a.F#D.Cak.K.Sbu#q.r#VaZb5bZbmbmbm########.b##.baXaXaXaX",
"bqbqbqbqavbq#ZbqbZ#ZbZ#ZbZbZ..bqaRa8aRav#F#F#F.U.U#Fav#maRbhaD#r#0aFbh#Hab.V#H#8aAaz#pa0#q.Z#0#VaZb5#jbm#.##aX##.b##aX.baX.baXaX",
"bq.3bqavbq#ZavbZavbZbZavbZ#F..a1.#a8aRbq#F#Fbp.Ub2#F.Q.UaxaoaoaM#6#5bCbC#N#0aN.R#DbjaAbj.q.r.9#r.a#a.Ia5####.b.baL.baXaXaXaXaXaX",
"avbqav.IavbZbqbZ#ZbZbZbZbZbZ..bqb5a8aRbZbp#F.U#Jbq.U.Ub2.3#Q#w.u#Waaaa#H#f.DaE.g.yaAbj#l#p#RbvaF#0aM.n#m####aX.baX.baX.baXaXaX.1",
"bq#ZbqavbZavbZavbZbZ.QbZbZaY..a1axa8b5.I#Fbp.U.Ub2b2.UaUb2.Q#7.VaabFaU.FaE#Pa4.y.yadaH.ma0.B.pacaD#bbf.t##.b##aX.baXaXaXaX.1.1.1",
"avbqbZ.IavbZ#ZbZbZbZ#FbZbZ#F..bqb5al.#bZbp#Fbpbp.Q.QaLbMaVaKapbY.2bx.iai#x.Cai.y.gaH.m.A#DaN#4#r.GaMbf.t##.baX.baX.baX.1aXbeaXbe",
"#Zbq#ZavbZbZbZbZ#Z#F#J#F#FaY..bqb5alb5bZ#Jbpbp.Ub2b2#2#O#2#ObMbx.W.ra4bU.i#P#g.N.N#Uay.g#la7#r.5aD.sax#j##aX.baXaXaXaXaX.1.1be.1",
"bq#ZavbZavbZ#ZbZ#FbZ#FbZbZ#J...I.#alb5bZbp#J.Ubp#maSbO#kbM#cbiawbsbHaq.r#xa7.haH.g#y.m.A.Kb#blaMbGbh#wbp##aXaX.baXaXaX.1beaXbebe",
"#ZavbZ.IbZbZbZbZbZbZaYbZ#ZaY..bZ.6.#b5#J.I#t#Jb2.U.UaSbyaS#R.W#RbH.XbH#g.R#na4.maH#y.g.AaA.B.T#FaD.aaZbq##aX.baX.1.1.1.1bebebebe",
"bqbZavbZ#ZbZbZ.QaYbZ#Zbp#maY..#Q#wal.6.I.bbq#tbpb2b2a9#iaqauanaw#3bHbsbHaqaObjaz.y#Uad#Mbi#W.0#0bG#d#abq##.baX.1aXaXbeaXbe.1bebe",
"#ZbZbZbZbZ.QbZbZbZbpbpaYbp#F..bZbf#w#wbqbqbmbmbp#mb2.8aFaw#M.Zanan.YbsbH#g#MaJ#y#1#1araB#Dbl.pbSaD.salbZ##.baX.1#C.1.1bebebebebe",
"bZavbZ#ZbZbZbZ#Favb2#m#ZbZaY..bZb5aZbp.I#m#mbp##bpbC.u.Tb1agan.XbKanbIbJb6a2#gbcar#g#1aAb#bbbA#0bh.Hbq.t.baXaX.1be.1bebebebebebe",
"#ZbZbZ.QbZaY#F#JbZaYaY#Fbp#m..bfb5#Bb5bq#t#t#FbZ#FaY#B#6bT.9anbsanbwaI.W.W#n#A#M#1.P#pb6.q.QbS.a#bb5#m##aXaXaXbe.1bebe.1bebe.wa6",
"bZ#ZbZbZ#FbZaY#FbpbZbp#m#F#Z..b2#B#waUavb2#m..#.##aY#c.F#6.Z.4bBaTaQaqar#o#O.4.S.P.m.Pbu#WaLbGbGaMbfbmaX.1.1aXbebebebebe.wbea6.w",
"bZ#FbZ#F#JaYaY#J.U#Z#m#mbqbZ..#B#B#4#BbZbZbpbm..#Z.U.u.Fa3bU#MagbB#MbRaIan#ObcaHaf.S.y#g.9#FbVbE#b#K#.aX.1be.1bebe.1bebea6bea6.w",
"bZbZ#FbZ#F#F#J#F#mbZ.UbpbZ##..#9by....by........#9#w.u#4bdbt.4.7#o.v.WbsbKb3awbHbua4bd.T#ebA.G.EaMbq##aXaXbeaXaXbebebe.wbe.wa6a6",
"#FbZ#JaY#JaYaYbpbp#m.I#mbZaY..bZb5#w#abf.#bqbq..b5.u#4afa.bB.7.vaTa4aqbiaqbFaEaEau#L#0#rbAbG#YbhalbZ.bbe.1bebe.1bebea6bea6a6a6a6",
"bZaYbZaYaY#JbpaYbpaYbp.Ubm#m...Ub5bX#w.fbqal..b5.u#5#cbg.7bBaT#za4a4#ga4bxaNbTao#r#0aD.E.GbE#b#abq#maXbe.1bebebea6.wbea6.wa6a6a6",
"aYbZaYbpaYbpaYbpbpbp#m#m#mbp..bZbfal#w#Q.#.#.n.6#w#5#cbg.ZaI#3aIbKbi#RaEau.T#h#ramaDaFbhaM.H.#.I#t##be.1aXbe.w.wbea6bea6a6a6a6a6",
"#JaYbpbZbpbpbpbpbp#mbpbmav#Jb.bqbq.JalbpbZ.d.ba1bZ#Q#B.ubTaIbaan#R.Zam.8#0by#S.0#0bWaZa8bfbZ#m#.aX.1be.1bebea6a6bea6.wa6a6a6a6a6",
"aYaY#JaYbpbpbpbpbp#maYbmbZ#mbybpbfa8bqbZ#t.t.nbm#j#ma9a9aubL.Tbia##V#r.9#0#rbWaF.s#a#B#Jbm####aX.1bebebebebe.wbea6.wa6a6a6a6#u#u",
"bZbpaYbpbpbpbp.Ubp#mbpbpa5bm..#mb5b5#Z#Jbp#.#..t#m#j.H#BbWbXa3bPamam#ram.GbW#Sax.Ja1bp##be.1.baXbe.1bebebebe.wbea6a6a6a6a6bn#ubn",
"aYbpbpbpaYbp#mbp#mbp#maYbm#m#Ebpbf.Jbfbqbm.b.d.b.w.d#LbA...0#rbPaDbAbhaF.aa8b5a1bZa5##.baX.1aXbe.1bebebe.wbea6a6a6a6a6a6#ua6bn#u",
"aYbpaYbp.Ubpbp#mbp#m.U#tb2bpbZbpbq#B#Z#mbp.t.b.t#j.b.ta5#B.fbWaD.G.abE#abfbf#m#.##aXaXaX.1#CaX.wbebebea6bea6.wa6a6a6a6a6bn#ubnbn",
"bpbpbpbpbp#m.U#j#m#m#m#m#m#m#m#mbqav#J#m#tbm#.#..t#.#.#j.I#waZ#bbD#a#wbqbpbm##.baXaX.1aXbebebebebebebe.wa6.wa6a6a6a6#ua6#ubnbn#u",
"bpbp.Ubp#mbp#j.U#m#m#m#m#m#m#m#mbZbpbp#mbm.t#.#.#.#.#.#.#j#Z.nb5#Kbq#J#t#..b.baX.1aX.1be.1bebebebe.wbea6bea6a6a6a6#ua6#ubn#ubnbn",
"bpbp#j.U#j#m#m#m#m#m#ma5#tb2#ma5#m#mb2a5bm#.bm#.#..b.b###.a5.t.tbmbm.baLaX.1aXaX.1.1.1be.1be.wbebe.wbea6.wa6a6.wa6#ub4bn#ubnbnbn",
"#j.Ubp#mbp#m.U#m#m#m#m#m#7#ta5#mbma5a5bmbmbm#.#.#.#.#.#.#.#..b##.b.baXaX.1aXaXaXbe.1bebe.1.wbe.wbe.wa6.wa6a6a6a6b4#ubn#ubnbnbnbn",
".U#j.U#j#m#m#m#m#m#m#t#7#ta5b2#ta5bm#tbmbmbm########.b.b.b.baX.baXaLaXaXaX.1be.1be.1bebe.w.w.w.w.wa6a6a6a6a6a6#u#ubn#ubnbnbn.k.k",
"#j.U#j#m.U#m#m#m#m#m#7#ma5#ta5a5bmbmbmbmbmbm####bm##aLaX.baL.baLaXaXaXaXaXbeaXbebe.1be.wbe.w.w.wa6a6.wa6a6a6#u#ubnbnbnbnbn.k.k.k",
"#m#j#m.U#m#m#m#m#m#m#ta5a5a5bma5bm.t#.#.####bC########aX##.baX.baXaX#C#C#CaXbeaXbebebe.w.w.w.w.wa6a6a6a6a6#ubnbn#ubnbnbn.kbn.k.k",
"#j.U#m#m#m#m#m#m#ma5a5bmbmbmbm#.bm#.bC#.bC#.##bC##.baLaX##aXaLaXaX#C#C#Cbebebebebebebe.w.w.wa6.wa6.wa6#ua6bna6#ubnbnbnbn.k.k.k.k"
};
SIMPLE  =                    T                                                  BITPIX  =                    8                                                  NAXIS   =                    2                                                  NAXIS1  =                   64                                                  NAXIS2  =                   64                                                  HISTORY Written by XV 3.10                                                      COMMENT CREATOR: XV Version 3.10  Rev: 12/16/94  Quality = 75, Smoothing = 0    END                                                                                                                                                                                                                                                                                                                                                                                                                                                                                                                                                                                                                                                                                                                                                                                                                                                                                                                                                                                                                                                                                                                                                                                                                                                                                                                                                                                                                                                                                                                                                                                                                                                                                                                                                                                                                                                                                                                                                                                                                                                                                                                                                                                                                                                                                                                                                                                                             ਨ১ߦަܥۤڤ{dV`kڢ­^G36EAi٢xΡ6#&*0$J>Cy١ oIU3("!&%9FDxؠt{0BG\V"'*%J=PkנxxzBHKOSD r-C0I_u՟ w~~}}o}sAFJI\YUb.IL#!3>J^nԞ Xa{ vn}u+>DUYX^Zg>g$/0.8CTkӞ{m xwy9+:FYn[ja`-50%%)6Kyӝ  
~zt7+ 6gW`ai]GY&;2]ѝw u\7~>:?@LNQwd&>[ќ{]PB9<@cp%9vyt)+[Л NA%JUKSGfg0>hru*CXϛhyLO<PQ`OvmoaW$^k"1Gn͚ |~r=d=AJJ]Xfa>gk!Jz3'3Sx̙ ~v{k0PcJgThjp}>]/,Eh˙}PhTcRi_fUwIK1Dd¾˘ w[eUfiYgNwV.Kzɘ wŚeiU[|q^ee&4Sɗ v·kkxpu~zyq)7ZȖ uպ]^Y~{G01Yǖ t}wۊYP=/Zŕ tfgYQm1eyY(#AiĔ sF3',;K߱nD,WdÔ s:%(..(*0<DYwԻ~WVeÓ wof@Q0'*3(KBaŷ qy/KaRW(%=<HX͑ax}E<<PWO|2&8*GSno |tp^{yklr]DIQYNOpZ&TB#"+/M]^cqZbo~dfNx@-J;aYXfM,b-'/.OFn}nczd pypx?%?JNjY}kcM#22Dh     v} 8 ANpHan_F](1,X{z{ |d.rE7QB*aJ{ns4R~ ytt~]<?L?AVN5)M|uk$1P~ {fNY48FJ[ed_"=ln$'Ou ~fx<N2<fQ^fkfgYfez5F` |rw4lBBLY\[hq {|X0Xj!'6Fi yqs#V7OYP[^YYxw_;&%(7[ h}QWXQkbaxExFN&9_ ~gysVWh`bcIt|¥U*Em rly쾃sfPd|_dn{}4.Nx tjv̴sRjuxuW".O{tkvЇh_VT,$0P|umxѕX<&!3T	xq{δ:mqC7/C_ ~x൉~|>CX`v ׶]r|{'п                                                                                                                                                                                                                                                                                                                                                                                                                                                                                                                                                                                                                                                                                                                                                                                                                                                                                                                                                                                                                                                                                                                                                                                                                                                                                                                                                                                                                                                                                                                                                                                                                                                                                                                                