/* XPM */
static char *whandling[] = {
/* width height num_colors chars_per_pixel */
"    64    64      132            2",
/* colors */
".. c #040204",
".# c #747674",
".a c #acb2ac",
".b c #3c3e3c",
".c c #949694",
".d c #c4cecc",
".e c #5c5a54",
".f c #242224",
".g c #d4dedc",
".h c #848684",
".i c #a4a6a4",
".j c #bcc2bc",
".k c #9c9e9c",
".l c #14120c",
".m c #4c4e4c",
".n c #d4cecc",
".o c #646a64",
".p c #34322c",
".q c #8c8e8c",
".r c #e4dedc",
".s c #7c7e7c",
".t c #b4bab4",
".u c #444644",
".v c #d4d6d4",
".w c #a49a9c",
".x c #5c625c",
".y c #dce6e4",
".z c #a4aeac",
".A c #cccac4",
".B c #a49e9c",
".C c #1c1a14",
".D c #343a34",
".E c #948e8c",
".F c #0c0a0c",
".G c #dcded4",
".H c #747274",
".I c #847e7c",
".J c #9c9694",
".K c #ccd6d4",
".L c #8c8684",
".M c #aca6a4",
".N c #c4cac4",
".O c #545654",
".P c #bcbab4",
".Q c #dcdee4",
".R c #7c7a74",
".S c #b4b2ac",
".T c #44423c",
".U c #cccecc",
".V c #c4c2bc",
".W c #14161c",
".X c #d4d2cc",
".Y c #6c6a64",
".Z c #e4e2dc",
".0 c #4c4a44",
".1 c #dcdadc",
".2 c #64625c",
".3 c #a4a29c",
".4 c #3c3a34",
".5 c #94928c",
".6 c #040604",
".7 c #5c5e5c",
".8 c #9ca29c",
".9 c #141614",
"#. c #343634",
"## c #8c928c",
"#a c #7c827c",
"#b c #1c1e1c",
"#c c #0c0e0c",
"#d c #dce2dc",
"#e c #84827c",
"#f c #9c9a94",
"#g c #2c2e2c",
"#h c #8c8a84",
"#i c #acaaa4",
"#j c #bcbebc",
"#k c #b4b6b4",
"#l c #ccd2cc",
"#m c #c4c6c4",
"#n c #6c6e6c",
"#o c #646664",
"#p c #74767c",
"#q c #3c423c",
"#r c #949a94",
"#s c #5c5a5c",
"#t c #242624",
"#u c #848a84",
"#v c #a4aaa4",
"#w c #9c9ea4",
"#x c #141214",
"#y c #4c4e54",
"#z c #d4ced4",
"#A c #343234",
"#B c #8c8e94",
"#C c #e4dee4",
"#D c #7c7e84",
"#E c #b4babc",
"#F c #444a44",
"#G c #d4dad4",
"#H c #a49aa4",
"#I c #acaeac",
"#J c #cccacc",
"#K c #a49ea4",
"#L c #1c1a1c",
"#M c #343a3c",
"#N c #948e94",
"#O c #dcdedc",
"#P c #74727c",
"#Q c #2c2a2c",
"#R c #bcbabc",
"#S c #dce2e4",
"#T c #7c7a7c",
"#U c #b4b2b4",
"#V c #444244",
"#W c #ccced4",
"#X c #c4c2c4",
"#Y c #545254",
"#Z c #d4d2d4",
"#0 c #6c6a6c",
"#1 c #e4e2e4",
"#2 c #4c4a4c",
"#3 c #dcdae4",
"#4 c #646264",
"#5 c #a4a2a4",
"#6 c #3c3a3c",
"#7 c #949294",
"#8 c #04060c",
"#9 c #0c0e14",
"a. c #848284",
"a# c #9c9a9c",
"aa c #8c8a8c",
"ab c #acaaac",
/* pixels */
".I.I.I.I.Ia.#ea.a..La..L.h.L.L.Laa#haa#h.qaa.q.E.q.E.q.5#7.5#7.5#7.c.c.J.c.J#fa##fa##fa#.k.k.k.k.B.8.B#5.3#5#5.i#5.i.i.i.M#vab#i",
".I.s.I#ea..Ia.#e.L#e.La..L.Laa.L#u#h.qaaaa.E.q.q.E##.5#B.5#7.5.c#7.c.J.c#r.J#r.J#ra##f.ka#.B.k.B.k#5.3#5.8.3.i.3.i.i.i.M#v.M#vab",
".I.Ia..Ia.#e.La..La..L.L.L.h.Laaaaaa#h.q.q.q.E.q.E#7.E#7.5#7.c#7.c.J.c.J.J#ra#a#a##f.k.k.k.B.k.k.3.B.8#5#5.i.i.i.i.M.i#i#vababab",
"a..Ia..I.L#ea.a..L.h.L.L.Laa.L#h#h.qaa.q.q.E.q.E##.E###7.5#7.5.c.J.c.J#r.Ja##fa##fa#.ka#.B.k.B#5.8#5#5.3.i#5.i.M.i.M.iababab#i#I",
".Ia.#ea..I.L.La..L.L.L.Laa#haa.Eaa#h.E.q.E.q.E###7.5#7#7.5.c.c.c.c.J#ra#a##fa##fa#.k.k.B.k.B.8.B.8#5.3.i#5.i.M.i.M#vab#v#iab#Iab",
"#e.Ia.a.a.a..La..L.h.Laa.L.L.Eaa.qaa.q.E##.E###N.5#7.5.c#7.c.c.J.c.J#fa##r#fa#.k#f.k.k.k.3.k#5.3#5#5.i.3.i.i.i#i.i#iab#iabab#i#I",
"a.a..L.L#e.La..L.h.L#u.Laaaa#haa#h.E.q.E.q.5#N.5#7.5#7.c.c.J.c.J.ca##fa#a#a#.k.k.k.B.k.B.8.B.3#5.3.i.i.i.M.i.M.iab#vab#i#I#I#I#I",
".I.L#ea.a..h#u.L#u#haaaa#h.qaa.q.q.q.E.q#N##.5###7.5.c.J#7.c.J#r.J#ra##f#f.k#f.w.k.k.B.8#K.8#5.3#5#5.M.i.i.M.i#i#vab#iab#Iab.S#I",
"a.a..L.L.h.L.L#u.L.L#uaa.qaa.E.q.E.q.5###7.5#7#7.c#7.c.c.J.c.J.Ja##fa#a#a#.k.k.k.k.B#w.3.3#5#5.i.i.i.i.i.M#vababababab#I#I#I#I#U",
"#e.La..L.h.L.haaaa.L.Eaa#haaaa.E.q.E#N.E.E.E#N.5.5.c.J.c.c.J#ra#.c#f#f.ka##f.k.B.k.B.k#K.3.3#5#5.3#5.i.i.M.i#i#v#i#I#I#I#I.S#I.S",
".La..L.L.haa#haaaa.haa.Laa.Laaaaaaaaaa.q#B.E#N.E#7.5.5#7.5.c#7.c.J.c.ca##ra#a#a#.k.k.k.8.k#w.B.8.3#5.3.i.iababab#Iab#I#I.S#I#U#U",
"a..La..L#u.Laa#u#Q.u.W#L#9#L.W.C.9.C.W.C.W.C.W.9.W.9.W.C.W.C#L.9#L.W#L.W.C.W.C.9.W.C.C.9#L.9.2#9#fa#.k.B.i.i#v#i#I#I#I.S#I#U.a.S",
".L.h.L.L.Laa#haa.6#4#P.H#Y#g#A#A#g#A#A#g#A#A.p#A.p#A.p#g#A#g#A#A#g#A.p#A#g#A#g#A#A#g#A#V.H#P#y..aa.q.5.c.k#5#iab#I#I.S#I.S#I#U#U",
".L.L.Laaaa#haa#h#8.H#V.b#Y............................................................#V#B.k.O...##T#aaa.J.8.M#Iab.S#I#U#I#U.S#k",
".L.L.Laa#h#uaa#h.6.q#waa#Y............................................................#V.k#V#s...O.2.Y.#aaa#.i#i#I#I.S#I#U.S#U#k",
".Laa.L#haaaaaaaa#8aa.q.q.m............................................................#Va##w.u...u#2.O#0#e.c#5ab.S#I.S#U.S#U#k#k",
"aa.Laaaa#h.q#h.q..#A#L#g#L............................................................#c#A#A.f.6#..b#2.2.s#7.3#I#I#U#U#U#k#k#k#k",
".Laa#h.qaa.q.qaa.F.qaa.qaa.qaaaaaaaaaaaaaaaa.q#uaaaa#uaaaaaaaaaaaaaaaaaa#uaaaaaa.q#uaaaa.qaa#s#Q#Q#..u.7.#.5.8ab#U.a.S#k.S#k#U.P",
"aa#haaaa.q.E.q.q..#O#O.U#O.U#O#O#O#O#O#O#d#O#O#O#O#O#C#d#O#O#d#O#O#O#O#O#O#O#O#O.1#O#O#O.U#O.q..#t#A.T#s.R###5ab.S#U#k#k#k#k#k.P",
"#haa#h.E.q.q.E.q..#O#C#O.U#C.U#1.U#l#O#z.U#O#z.U#C.U.U#O#z.U#O#l#z#O.U#l#C.U#z#O#Z.U#C.U#C.U.q..#t#A#q.e#p#7.3#I.S#U#k#U#k#k.P#k",
"aa.q.q.q.E.q.E.q..#O#O.U#C#O#O.U#C#O.U#O#O#J#O#O.U#C#O#Z#O#O#z#O#O#z#O#C.U#O#O.U#O.1#O#O.U#C.q..#t#A#V#s.R.5.8#I#U#k#k.P#k.P#R#R",
"#h.qaa.q.q.E.q.E..#O#z#O.U#O#z#O#O.U#C#O#z#O#O#z#O#O.U.1#C.U#O#C.U#O#O.U#C#O.U#C#O#z#O#z#O#O.q..#t#A.T.7#p#7.i#I#k#k#k#k.P.t.P#R",
".q.E.q.E.E.5.E.E..#d.1#O#O.U#O.U#C#O.U#O#O#z#O#O#z#O#O.U#O#O.U#O#C.U#O#O.U#1#O.U#O#O.U#O#z#O.q..#t#A#V.e.s.5#5.S#U#k.P#k#R#R#E#j",
".q.E.q.5.q.E##.E..#O#Z#O.U#C#C#O.U#C#O#z#O#O.U#C#O.U#C#O#z#O#C.U#O#C.U#C#O.U#C#O.U#C#O#1#O.U.q..#Q#.#q#s.R#7.i.a#k#k.t.P.t.P#j#j",
".q.q.E.q#7.5#7.5..#O.Q.r.Q.U#O.U#O#O.U#O#C.U#O#O.U#C#O.U#O#C.U#d#O.U#O#O.U#C#O.U#O#z.U#O.U.1.q..#t#A.u#s.s.c.i.S#k.P#k#R#R#j#j#j",
".E.q.5.5.5#N###7...r.U#O.U#O#z#O#C.U#C#O.U#1#O#z#O#d.U#C#O.U#O#C.U#C#O#z#O#O#z#O#C#O#O#z#O#Zaa..#t.p.u#s.s#7#5.S#k#k#R.t#R.P#j.j",
".E.5###N#7.5#7.5...Q#O#C#O.n#O#I#I#I#I#I#I#O.U#O#z#O#O.U#O#O.U#O#O.U#O#O.U#O#O.U#O#z#d.1#O.1.8..#t#..T#s.##7.i#I#U.P.P#j#j#j#j#j",
".q#7.5#7.5#7#7.5..#O.U#O#W.U#A#9#x#L#c..#x#A#A#A#g#A#A#A#A#A#A#A#A#A#A#A#A#A#A#A#A#g#A#A#A#A#g....#9#L.9#x.l.k.i#I#I#k.t.P#j.j.V",
"#7.5#7.5#7.5#7#7..#O#O.n#O.U..#0#V#V#Y.............................................................p#P#p.b...q.J#5.i#U#k#j#j#j.j",
"##.5#7.5#7.c.c.c..#O#z#O#C#m..#D.8.q#Y............................................................#V#w.b#s...R.h.q#r.i.S.t#j.j#X",
"#7#7.c.c.c.c.5.c..#O#O#O.U#m...saaaa#Y............................................................#qa#a##2#8.7#o.#.ha##I#k#j.V#m",
".5.c#7.c.J.c.J.c..#O.U.r.Q#m..#g#L#A.9............................................................#9.p#A#b...u#Y.2.###.i#k#j.j#X",
"#7.5.c.c.J.c.J.c..#O#C#O.U.n...saaaa.qaaaa#uaa.qaaaaaa#uaaaaaaaaaaaa.q#uaaaaaa.q#u.qaaaa.qaaaaaa#u.q.qaa#2..#6#V.O#n#h.i#k#j.j#m",
".c.J#7.J.c#f.c#f..#O#O.U.Q.U..#J#O#O#O#O#O#C#O#O#O#O#O#O#O#O#O#O#d#O#O#C#O#d#O#O#C#O#O#O#O#O#O#O.Q.r#O.Qa.#8#g.D.m#o.h.8.S#j#m#m",
".c.c.J.c.c.J.c.J..#O#z#O.n#m..#R#O#O#C#d#O#O#O#C#O#C#O#C#O#O#1#O#O#C#O#O#O#O#C#O#O#O#C#O#O#O.r#O#O#O#O.r#D..#g.4#F#o.h.8#U.j.V#m",
".c.J.c.c.J#fa#.c..#O#O.r.Q#m..#R#W#O.U.Q#O#z#O#O.U#O#O#l#O#1#J#O#O.U#O#C.U#C#O.U#O#C.U#O.r#W#O#C.U.Q#z#O#n..#Q#..0#o.h.3#k.j#m.N",
".c.J.c#fa#a##r#f..#Ia#.k.kaa..#j#O.n#O.r#W#O.Z#W.r.Q.n.Q.r.U#O#C.U#O#C.U#O#O.U#C#O.U#O.Q.U#O#C.U#O.r#O.U.s..#g#.#F#o.h.8#k#X#m.N",
".J#r.Ja##f#fa##f#V#V.W#L.9.9..#j.U.Q#O.U#O#C.U#O#O.U#O.1#W#O#O.U#C#O.U#O#O#z#O#O.n.Q.r.U.r#O.U#1.U.Q.U#C#n..#Q#.#2#o#u#5#k.V#m#J",
".c#fa##ra#a##f#r#7.h.##s#2#6..#R.r.U.r#O#W#O.r#W.r#O.n#O#O.n#O#O.U#C#O#z#O#O#W#O#O.U.Q#O#W#O#O.U.r#O#O.U.s..#g.4#F#o#h.i.t#m.N.A",
"a#.c#fa##f#fa#a#.c.q#T.Y.O#F..#R.Q#O#W#O.r.U#O.r#W#O.Q.X.Q#O#W.r.Q.U.r#O#W.r#O#z#O#C.U.r#O.n.Q.r#W#d#W#C.h..#g#.#2#o#u.i.t#X#m.U",
"#fa##fa#a#.k.k#f#f.5.h.##0.7...P#O#z#O#O#W.r.Q.U#O.r.U#O#O#z.1#O.U#C#O.U#O#O.U#O#O#z#O#O.U#C#O.U#O.r#O.Ua..6#g#6#2#oaa.i#k#m.A.U",
"#r#fa##fa#.k.k.ka#.J.q.L.s.#..#R.U#O#C.U.r#S.U#C#O.U.Q#O#z#O#O.U#C#O.U#O.r#W#O#C.U#O#O.U.Q#O#l#O#z#O#W#Oa...#g#..m#o#u.i#R#m.N.U",
"a#a##f.k.k.B.k.B.ka##f.c.q#h..#R.Q.U#O.Q.U#3#O#z#O.r.U.r#O.n.Q.r.U#S#O#z#O#S.U#O.r#W#O#C.U#O#C#J#O#O.r#W.h.6#Q.4#2#oaa.i.t.N#J.U",
"#f.k.ka#.k.k.B.k.B.8.ka#a##r..#E.n#O.U.r#O.X#O#O.U.Q.1#W.1#O.U.Q.r.U#O#O.U#O#d#z#O#S.U.r#O#l#O.Q.n.Q.U#O.I.F#g.D.m.o.q#v#j#m.U#l",
".ka#.B.k.B.B.8#5.3.k#5.3.8.B..#j#O.U.Q#O#W#d.r#W.r#O.n#O.r#l#C#O.U.Q.r.U#C#O.n.1#O.U.r#O#W#O.Q.n#O#O#C.Ua..6#Q#6.0#o.q.i#j.A.U#l",
"#f.k.B.k.k.3.B.k#5#5.3#5#5.3..#R.U#C#d#Z#C#O#z#O.1#W#O#O#z#O#O.U#C#O.U.Q#O.U#O.Q.U.r.Q.U#C.r.U#O.U#O#Z#Oa...#g.4.m.o.q#i#j.N#l#l",
".ka#.k.B.k.3#5.3#5.i#5.i.i#5..#j#O#O#O#O#O#O#O#O.r#O#O#C#O.Q#O#O#O#d#C#O.r.Q#O#O.r#O#O#O#O#O.Q#O.1#C.1#Oa..6#g#M.m#o.q#i#j#J#l#Z",
".B.k.B.8.B#5.8.3#5.3.i.i.i.i...s#K#K#H#K#H#H#K#H#w#K#w#H.w#K#H#Ha#.w#K.ka##K.wa##Ka#a##K#Ha##Ka#.Ba#.Ba##s#8#g#6.m.Y.qab.j.N#l.K",
".k.B.8.B#5.8#5#5.i.i#5.M.i.i...sa#a#.ka#.k.ka#a#.ka#a#.k.ka#.k.k.ka#a##w.ka##wa#.ka#.ka#a#.k.kaaa#.k.ka#.e#x.p#6.m.o###I#j.U#l.v",
".B.8.B#5.3#5#5.3.i.i.i.i.M.i.F.9.9.C.9.C.W.C.9#L.9#L.9#L.9#L.C.W#L.9#L.9#L.W.C#L.W.C.W.C#L.9#L.W.C.W#L.9#9#b#A#q.O#n#7#I.j.U.K.v",
".k.3#5.8#5.3.i.i.i.i.M#vab.i.i#5.5#T.x#2.b#.#A#A#A.p#A.p#.#A#.#A#.#A#.#.#.#.#.#.#..4#.#.#..4.4#..4#M.D#6.b.b#q.0.7.##r.S#m#l#l#G",
"#5.k#5.3#5.i.3.i.M.i.i#i.iab.M.8#7a.#n#s.m.u.T#V.T.u.u#V.u.u.u.u.u.u.u.0.u.0#F#2#F#2#F#2#2#F#2.m#2.m.m.m.m.m.O.O.Y#a.k#k#m#l.v#G",
".3#5.3.8.i.i.i.i.i.M#iabab#v.i#5#f.q#T#n#4.7.7#s.7.7.7.7.7.7.7.2.7.2#4.7#4.x#4.2#4.2#o#o#o#o.o#o.o#o.Y.o.o#0#n.##a.cab#j.d#l.v#G",
".3#5#5#5.i.i.i.i.M#vab#vab#i#I#v#5#f.q.h.s.s.R.s.s.s.s.s.I#a#e#a#e#D#e.ha..h.h.h#u.h#u#u#u#haa#u#h.q.q.q.q##.5#r.3.z.t.N.U.v#G#G",
"#5.3.i.i.i.M.i.M#v.M#vabababab#i.i#5.k.J.c#7.c.5.c.c.c#r.c#f.ca#a##f.ka#.k.k.8.8.B.8#5.i.i.i.i.i#v#v#i#iab#i#I.a#k#j.N.U.K.v#G#G",
".i#5.i.i.i.i.M#vababab#i#I#Iab#I#Iab.i.M.i.i.i.i.i.i#i#i#iab#Iab#I#I#I#I.S.a.S#U#k#k#k.t#k.P.t.P#j#R#j#j.j.j.j.j.N.N#l.K.v#G#G#O",
"#5.i.i.i.M#i#vab#vab#i#Iab#I#I.S#I.S#I#I.S#I.S.a.S#U#k#k#k#k#k.t.P.P#R#j#j#j#j.j.j#X.V#X#m#m#m#m#m.N.A.N#J.U#W#l#W.X.K.v#G.g.1.g",
".3.i.i.M.i.iab#iab#iab#I#I#I.S#I.S.a#U.S#U#U#k#k#k#k.t.P.t#j#j#R#j#j.j#j.j.j#m#X#m#m#m#m.N.N#J.A.U.U.U#l#Z#l.X.v.v.v#G#G#G.G.g#O",
".i.M.i#i#vab#i#vabab#I#I.S#I.S#I#U#U#U#k#k#k#k.P#R.P#E#R#j#j#j.j#j.j#X.V#m#X#m#m.N.N.A.N#J.U.U.U.U.U.X#l#Z.K.v.K.v#G#G.1#G#O.g.G",
".M.i.M.i.M#vabab#I#i#I#I#I.S#I#U#U.S#k#U#k.P#k.t.t#R.P#j#j#j#j.V.j#X.j.V#m#m.N#m.N#J.N.A.U.U.U#l.X#l#Z.X.K.v.v#G#G#G#G.g.g.G#O#d",
".i.iab#vabab#i#Iab#I#I.S#I.S#I#U.S#U#k#k#k#k.P#R.P#R#E#j#j#j.j.V.j#X#m#m#m#m#m.A.A.N#J.U.U.U.U#l#l#Z.K.X.v.K#G#G#G.1.g.1.G#O#d#d",
"#i.M#vabab#iab#I#Iab.S#I#U.a#U.S#k#k#U.P#k.P#E.t.P#j#j#j.j#j.V.j#X.V#m#m#m.N.N#J.N#J.U.U.U.U#l#l#l.X.X.K#G.v#G#G#G#G.G.g#d#O#d#d",
".M#vab#iab#I#I#I#I.S#I.S.S#U#U#U#k#k#k#k.P.P#R#R#R#j#j#j.j.V.j#X#m.j#m#m.N.A.N#J.U.U.U.U.U.U#l#l.v.K.v#G.v#G#G.1.g#O#O#O#O#d#d#S",
"ababab#vab#iab.S#I.S#I#U.a#U.S#k#k#k.P.P#k#R.t#j#j#j#j.V.j#X.j#X#m#m.N#m#J.N.A.U.N.U.U.U#l#Z#l.v.K.v.v#G#G#G#G.g#O.G.g#d#d#d#d.y"
};
SIMPLE  =                    T                                                  BITPIX  =                    8                                                  NAXIS   =                    2                                                  NAXIS1  =                   64                                                  NAXIS2  =                   64                                                  HISTORY Written by XV 3.10                                                      END                                                                                                                                                                                                                                                                                                                                                                                                                                                                                                                                                                                                                                                                                                                                                                                                                                                                                                                                                                                                                                                                                                                                                                                                                                                                                                                                                                                                                                                                                                                                                                                                                                                                                                                                                                                                                                                                                                                                                                                                                                                                                                                                                                                                                                                                                                                                                                                                                                                                                             ᨨ১ߦަݥܤۤڢڡء~{z{||}}~~ءylb^[Z[[\\]^]^^^_``aaabbcdddeeffhggjlt֠kZMEBBBCCCDDDEEEFGFFGHHHHIIJJJKKKLMLSZi֟{aL=522222233335455556756567777798:9:>H[s՟
3>QmӞY0:Miҝ Y/9LhҜ܄.8Lgћ ߃ .9KgМρ.7Kfϛނ-8JfΚσ-7Je̙|x ރ-7Je̘vh\σ-7Id˙{gWI߄-8Jdʗt\I; }-7IdɗCB o,7Icɖ ~ -5HcǕo+6Hcƕ ~ -6IcŔ ߂0:Keœ J9BSkÓ -1                    00 HQ`tR                      BI^ft S                   A@[ w kBCS                    2tu=113112122131022102010101121  ݭܠ (3AZxϋ(1C\|܎ (2CZ|΍ )2BZzߎ (2BZzݍ)2BZyߍ (2AYy͍'1@Yxߍ (2AYx
Y*,5C[x00                        11 	5=Ja|R                           BI CJWjQ                             CB[ Y_hwsC?S                            CYtxcsrP021111111111111111111111111110BsuN )C`~                                                                                                                                                                                                                                                                                                                                                                                                                                                                                                                                                                                                                                                                                                                                                                                                                                                                                                                                                                                                                                                                                                                                                                                                                                                                                                                                                                                                                                                                                                                                                                                                                                                                                                                                