/* XPM */
static char * 4_xpm[] = {
"15 15 3 1",
" 	c None",
".	c #000000000000",
"X	c #FFFF00000000",
"     .....     ",
"   ..XXXXX..   ",
"  .XXXXXXXXX.  ",
" .XXXXXXXXXXX. ",
" .XXXXXXXXXXX. ",
".XXXXXXXXXXXXX.",
".XXXXXXXXXXXXX.",
".XXXXXXXXXXXXX.",
".XXXXXXXXXXXXX.",
".XXXXXXXXXXXXX.",
" .XXXXXXXXXXX. ",
" .XXXXXXXXXXX. ",
"  .XXXXXXXXX.  ",
"   ..XXXXX..   ",
"     .....     "};
