/* XPM */
static char * 5_xpm[] = {
"15 15 3 1",
" 	c #000000000000",
".	c #FFFF00000000",
"X	c None",
"               ",
"XXXXXXXXXXXXXXX",
"XXXXXXXXXXXXXXX",
"XXXXXXXXXXXXXXX",
"XXXXXXXXXXXXXXX",
"XXXXXXXXXXXXXXX",
"XXX         XXX",
"XXX ....... XXX",
"XXXX ..... XXXX",
"XXXX ..... XXXX",
"XXXXX ... XXXXX",
"XXXXX ... XXXXX",
"XXXXXX . XXXXXX",
"XXXXXX . XXXXXX",
"XXXXXXX XXXXXXX"};
