/* XPM */
static char * as_maximize_a_pressed_xpm[] = {
/* width height num_colors chars_per_pixel */
"15 15 5 1",
/* colors */
" 	c #5f5f5f",
".	c white",
"X	c gray75",
"o	c gray70",
"O	c black",
/* pixels */
"              .",
" XXXXXXXXXXXX..",
" XooooooooooX..",
" XoOOOOOOOOoX..",
" XoOOOOOOOOoX..",
" XoOOOOOOOOoX..",
" XoOOOOOOOOoX..",
" XoOOOOOOOOoX..",
" XoOOOOOOOOoX..",
" XoOOOOOOOOoX..",
" XoOOOOOOOOoX..",
" XooooooooooX..",
" XXXXXXXXXXXX..",
" ..............",
"..............."};
