/* XPM */
static char * as_menu_b_pressed_xpm[] = {
/* width height num_colors chars_per_pixel */
"15 15 6 1",
/* colors */
" 	c #5f5f5f",
".	c white",
"X	c gray75",
"o	c black",
"O	c gray40",
"+	c gray70",
/* pixels */
"              .",
" XXXXXXXXXXXX..",
" XooooooooooX..",
" XoO+++++++oX..",
" XooO++++++oX..",
" XoooO+++++oX..",
" XooooO++++oX..",
" XoooooO+++oX..",
" XooooooO++oX..",
" XoooooooO+oX..",
" XooooooooOoX..",
" XooooooooooX..",
" XXXXXXXXXXXX..",
" ..............",
"..............."};
