/* XPM */
static char * as_minimize_a_xpm[] = {
/* width height num_colors chars_per_pixel */
"15 15 5 1",
/* colors */
" 	c white",
".	c #5f5f5f",
"X	c gray75",
"o	c gray70",
"O	c black",
/* pixels */
"              .",
" XXXXXXXXXXXX..",
" XooooooooooX..",
" XooooooooooX..",
" XooooooooooX..",
" XoooOOOOoooX..",
" XoooOOOOoooX..",
" XoooOOOOoooX..",
" XoooOOOOoooX..",
" XooooooooooX..",
" XooooooooooX..",
" XooooooooooX..",
" XXXXXXXXXXXX..",
" ..............",
"..............."};
