/* XPM */
static char * as_menu_a_pressed_xpm[] = {
/* width height num_colors chars_per_pixel */
"15 15 5 1",
/* colors */
" 	c #5f5f5f",
".	c white",
"X	c gray75",
"o	c black",
"O	c gray70",
/* pixels */
"              .",
" XXXXXXXXXXXX..",
" XoOOOOOOOOOX..",
" XooOOOOOOOOX..",
" XoooOOOOOOOX..",
" XooooOOOOOOX..",
" XoooooOOOOOX..",
" XooooooOOOOX..",
" XoooooooOOOX..",
" XooooooooOOX..",
" XoooooooooOX..",
" XooooooooooX..",
" XXXXXXXXXXXX..",
" ..............",
"..............."};
