/* XPM */
static char * as1_5_iconize_p_xpm[] = {
"20 20 6 1",
" 	c None",
".	c #000000",
"+	c #212121",
"@	c #0C0C0C",
"#	c #323232",
"$	c #FFFFFF",
"                  . ",
"                 +@#",
"                 +@#",
"                 +@#",
"                 +@#",
"                 +@#",
"                 +@#",
"                 +@#",
"                 +@#",
"                 +@#",
"                 +@#",
"                 +@#",
"                 +@#",
"   $$$           +@#",
"   $$$           +@#",
"   $$$           +@#",
"                 +@#",
"                 +@#",
"                 +@#",
"                 +@#"};
