/* XPM */
static char * button_iconify_pressed_xpm[] = {
"15 15 73 1",
" 	c None",
".	c #000000",
"+	c #080808",
"@	c #121212",
"#	c #1B1B1B",
"$	c #252525",
"%	c #2E2E2E",
"&	c #383838",
"*	c #424242",
"=	c #4B4B4B",
"-	c #040404",
";	c #0E0E0E",
">	c #181818",
",	c #212121",
"'	c #2B2B2B",
")	c #343434",
"!	c #3E3E3E",
"~	c #484848",
"{	c #939393",
"]	c #010101",
"^	c #0A0A0A",
"/	c #141414",
"(	c #1E1E1E",
"_	c #272727",
":	c #313131",
"<	c #3A3A3A",
"[	c #444444",
"}	c #4E4E4E",
"|	c #FFFFFF",
"1	c #4A4A4A",
"2	c #545454",
"3	c #505050",
"4	c #5A5A5A",
"5	c #090909",
"6	c #131313",
"7	c #1C1C1C",
"8	c #262626",
"9	c #303030",
"0	c #393939",
"a	c #434343",
"b	c #565656",
"c	c #606060",
"d	c #0F0F0F",
"e	c #191919",
"f	c #222222",
"g	c #2C2C2C",
"h	c #363636",
"i	c #3F3F3F",
"j	c #494949",
"k	c #5C5C5C",
"l	c #666666",
"m	c #3C3C3C",
"n	c #454545",
"o	c #4F4F4F",
"p	c #626262",
"q	c #6B6B6B",
"r	c #555555",
"s	c #686868",
"t	c #515151",
"u	c #5B5B5B",
"v	c #575757",
"w	c #616161",
"x	c #070707",
"y	c #101010",
"z	c #242424",
"A	c #2D2D2D",
"B	c #373737",
"C	c #404040",
"D	c #0D0D0D",
"E	c #161616",
"F	c #636363",
"G	c #4C4C4C",
"H	c #696969",
".......+@#$%&*=",
"......-;>,')!~{",
".....]^/(_:<[}{",
"...|||||||||12{",
"...|||||||||34{",
"...|567890a|bc{",
"...|defghij|kl{",
"..||||||mno|pq{",
"..||||||*=r|sq{",
".-|>,')|~tu|qq{",
"]^|(_:<|}vw|qq{",
"xy|zABC|||||qq{",
"DE||||||4Fqqqq{",
"67890aGbcHqqqq{",
"e{{{{{{{{{{{{{{"};
