/* XPM */
static char * button_kill_pressed_xpm[] = {
"15 15 80 1",
" 	c None",
".	c #000000",
"+	c #080808",
"@	c #121212",
"#	c #1B1B1B",
"$	c #252525",
"%	c #2E2E2E",
"&	c #383838",
"*	c #424242",
"=	c #4B4B4B",
"-	c #040404",
";	c #0E0E0E",
">	c #181818",
",	c #212121",
"'	c #2B2B2B",
")	c #343434",
"!	c #3E3E3E",
"~	c #484848",
"{	c #939393",
"]	c #010101",
"^	c #0A0A0A",
"/	c #141414",
"(	c #1E1E1E",
"_	c #272727",
":	c #313131",
"<	c #3A3A3A",
"[	c #444444",
"}	c #4E4E4E",
"|	c #070707",
"1	c #101010",
"2	c #1A1A1A",
"3	c #242424",
"4	c #2D2D2D",
"5	c #373737",
"6	c #404040",
"7	c #4A4A4A",
"8	c #545454",
"9	c #030303",
"0	c #0D0D0D",
"a	c #161616",
"b	c #202020",
"c	c #2A2A2A",
"d	c #333333",
"e	c #3D3D3D",
"f	c #464646",
"g	c #505050",
"h	c #5A5A5A",
"i	c #1C0200",
"j	c #FFFFFF",
"k	c #262626",
"l	c #303030",
"m	c #393939",
"n	c #565656",
"o	c #606060",
"p	c #151515",
"q	c #363636",
"r	c #525252",
"s	c #5C5C5C",
"t	c #666666",
"u	c #020202",
"v	c #260C0A",
"w	c #1F1F1F",
"x	c #4F4F4F",
"y	c #585858",
"z	c #626262",
"A	c #6B6B6B",
"B	c #442B28",
"C	c #555555",
"D	c #5E5E5E",
"E	c #686868",
"F	c #422826",
"G	c #646464",
"H	c #5D5D5D",
"I	c #636363",
"J	c #131313",
"K	c #1C1C1C",
"L	c #434343",
"M	c #4C4C4C",
"N	c #696969",
"O	c #191919",
".......+@#$%&*=",
"......-;>,')!~{",
".....]^/(_:<[}{",
".....|12345678{",
"....90abcdefgh{",
"...ijjjklmjjno{",
"...jpjjjqjjrst{",
"..uvpwjjjjxyzA{",
"..+@#$BjjjCDEA{",
".-;j,FjjjjjGAj{",
"]^/jjjj[}jjjjj{",
"|12pjj678HjjjA{",
"0abcdefghIAAAA{",
"JKklmLMnoNAAAA{",
"O{{{{{{{{{{{{{{"};
