/* XPM */
static char *afterstep[] = {
/* columns rows colors chars-per-pixel */
"51 52 50 1",
"   c #201c20",
".  c #302830",
"X  c #313531",
"o  c #262d2b",
"O  c #272707",
"+  c #020369",
"@  c #1d1f5a",
"#  c #007500",
"$  c #1a5e1a",
"%  c #384040",
"&  c #621412",
"*  c #403840",
"=  c #737705",
"-  c #525613",
";  c #424642",
":  c #504c50",
">  c #525652",
",  c #605c60",
"<  c #604c60",
"1  c #666566",
"2  c #727674",
"3  c #507850",
"4  c #12139a",
"5  c #0000f8",
"6  c #0707d4",
"7  c #018c01",
"8  c #00b800",
"9  c #00d300",
"0  c #03f403",
"q  c #8d0505",
"w  c #ae0807",
"e  c #882420",
"r  c #c90000",
"t  c #ef0000",
"y  c #c05050",
"u  c #887188",
"i  c #8e9103",
"p  c #abad00",
"a  c #8b8f25",
"s  c #ced200",
"d  c #eef204",
"f  c #c0c420",
"g  c #8c8d8c",
"h  c #adafad",
"j  c #a098a0",
"k  c #e4aae4",
"l  c #c6cac6",
"z  c None",
"x  c #f0f4f0",
"c  c #e09490",
/* pixels */
"zzzzzzzzzzzzzzzzzzzzzzzzzzzzzzzzzzzzzzzzzzzzzzzzzzz",
"zzzzzzzzzzzzzzzzzzzzzzzzzzzzzzzzzzzzzzzzzzzzzzzzzzz",
"zzzzzzzzzzzzzzzzzzzzzzzzzxchgxzzzzzzzzzzzzzzzzzzzzz",
"zzzzzzzzzzzzzzzzzzzzzzxxyqww..gzzzzzzzzzzzzzzzzzzzz",
"zzzzzzzzzzzzzzzzzzzzzzzyqwwqo*X:lzzzzzzzzzzzzzzzzzz",
"zzzzzzzzzzzzzzzzzzzzzx2qw&O&e*;*.1xzzzzzzzzzzzzzzzz",
"zzzzzzzzzzzzzzzzzzzx2X.qwrwtr%*;**X2zzzzzzzzzzzzzzz",
"zzzzzzzzzzzzzzzzzzjX*X OqwrwqX*X;;;;*hzzzzzzzzzzzzz",
"zzzzzzzzzzzzzzzzj*X*;X.&trwwre&%;*;;:;1lzzzzzzzzzzz",
"zzzzzzzzzzzxxxjX*;*;**;&r&wwwrr&Xo&*;*>gzzzzzzzzzzz",
"zzzzzzzzzzzzfppi-.X**;**;**ewwrrwwt&;:;hzzzzzzzzzzz",
"zzzzzzzzzzl*-fpsssp=OX*;;;**&wqwttt;;:;xzzzzzzzzzzz",
"zzzzzzzzl1.  s=-ipssssi-OX%;X &tte;,;:>zzzzzzzzzzzz",
"zzzzzzl1X;*o ip-==-=ssdsdpi-iiqt::>;>;uzzzzzzzzzzzz",
"zzzzx2.**;*. -sXOO=dd==issdddpe;::>;:;hzzzzzzzzzzzz",
"zzz2X%;:;%;.o s--sddd-=i-sddd3::,:::;*lzzzzzzzzzzzz",
"zzX*:*;;X**;o isdddi;:o-idda:>:>::;::>:jzzzzzzzzzzz",
"zz:X;*:*>;;;oo-sds>::::.if>,:::::;;:>Xu12lzzzzzzzzz",
"zzg o;::*;::o  di;;>;;>>3:>:>::;::>;o2kk>*jzzzzzzzz",
"zzh  X;;;;::Xo ppo-=>:::>,:>::;::>;<juuu:>,1lzzzzzz",
"zzz   X;;;;;Xo =dsdp::>:,:>:::>::; hkkj<<>:>:jzzzzz",
"zzz;   *::;:*  =ddda:>:1>:::;::>>.*jjkku:,>>,:>lzzz",
"zzzj    o>X>XoOddda:,,:>>,:::,;$773<uckkk<:>:>>>gxz",
"zzzl     X::XXOdf>>1,>>::::>, 999000ujukkku**<>>1,l",
"zzzz      o>>;:a:,>>>>>>:>>: 87#7709$uuujkkkk1,>::h",
"zzzz>      *::>>>:>,1::>>:1oO07$7099<<7ukukku1>,>Xz",
"zzzzj       .>>>,:>>:;:,,>;.$0X79981>$83uuku<,,%ojz",
"zzzzl       o>,,:>,*6@1>@:;oO00097<>2o89.<u1,,:ooxz",
"zzzzzo       >>>:::X@5@@542X$7007<u>:#08,u<11Xoouzz",
"zzzzz:       >:,,:*.+5556<1;o770008990071121Xo  xzz",
"zzzzzx       ;:::>Xo45556,11:$7790000082,u,Xo ogxzz",
"zzzzzzh      :>:,1X 6645541>,>$7$7777$71,,Xoo 2zzzz",
"zzzzzzzh     .>>>XXo6++45542111$77777$211..o jzzzzz",
"zzzzzzzzj    *,>1,:.4@@+4554,>1413>33,g,ooo hzzzzzz",
"zzzzzzzzzg    X,,>,1>,X@+4556%%6:1>11,;... jzzzzzzz",
"zzzzzzzzzz2    X111,>,>X@+45555611g12>ooo jzzzzzzzz",
"zzzzzzzzzzz2    .,,11,1,.@+4656422>1:ooo hzzzzzzzzz",
"zzzzzzzzzzzxX    XX11,11,o@++++<211>o.o lzzzzzzzzzz",
"zzzzzzzzzzzzxo    .1>11121:@++@111*.ooolzzzzzzzzzzz",
"zzzzzzzzzzzzzl     1>1111,11111,2X.o.Xlzzzzzzzzzzzz",
"zzzzzzzzzzzzzzl     ,1211,121111.oo.olzzzzzzzzzzzzz",
"zzzzzzzzzzzzzzzh     >,21112211X..oXlzzzzzzzzzzzzzz",
"zzzzzzzzzzzzzzzzh     :1,11,21...oXxzzzzzzzzzzzzzzz",
"zzzzzzzzzzzzzzzzzj     11122>X..o*xzzzzzzzzzzzzzzzz",
"zzzzzzzzzzzzzzzzzz2     ,12;.ooo:xzzzzzzzzzzzzzzzzz",
"zzzzzzzzzzzzzzzzzzxX     1:..o.>xzzzzzzzzzzzzzzzzzz",
"zzzzzzzzzzzzzzzzzzzzX     o.oo;xzzzzzzzzzzzzzzzzzzz",
"zzzzzzzzzzzzzzzzzzzzx     .oo>xzzzzzzzzzzzzzzzzzzzz",
"zzzzzzzzzzzzzzzzzzzzzx    oo1zzzzzzzzzzzzzzzzzzzzzz",
"zzzzzzzzzzzzzzzzzzzzzzl   o2zzzzzzzzzzzzzzzzzzzzzzz",
"zzzzzzzzzzzzzzzzzzzzzzzl  gzzzzzzzzzzzzzzzzzzzzzzzz",
"zzzzzzzzzzzzzzzzzzzzzzzzhjzzzzzzzzzzzzzzzzzzzzzzzzz"
};
