/* XPM */
static char *tile[] = {
/* width height num_colors chars_per_pixel */
"    64    64      223            2",
/* colors */
".. c #98a6ab",
".# c #5e686f",
".a c #5d676e",
".b c #5c666d",
".c c #5c666d",
".d c #5b656c",
".e c #5a646b",
".f c #59636a",
".g c #586269",
".h c #586269",
".i c #586168",
".j c #576067",
".k c #565f66",
".l c #555e65",
".m c #555e65",
".n c #545d64",
".o c #535c63",
".p c #525b62",
".q c #515a61",
".r c #515960",
".s c #515960",
".t c #50585f",
".u c #4f575e",
".v c #4e565d",
".w c #4d555c",
".x c #4d555c",
".y c #4c545b",
".z c #4b535a",
".A c #4a5259",
".B c #4a5158",
".C c #4a5158",
".D c #495057",
".E c #484f56",
".F c #474e55",
".G c #464d54",
".H c #454c53",
".I c #454c53",
".J c #444b52",
".K c #444b51",
".L c #434a50",
".M c #42494f",
".N c #42494f",
".O c #41484e",
".P c #40474d",
".Q c #3f464c",
".R c #3f454b",
".S c #3f454b",
".T c #3e444a",
".U c #3d4349",
".V c #3c4248",
".W c #3b4147",
".X c #3b4147",
".Y c #3a4046",
".Z c #393f45",
".0 c #393e44",
".1 c #393e44",
".2 c #383d43",
".3 c #373c42",
".4 c #363b41",
".5 c #353a40",
".6 c #353a40",
".7 c #34393f",
".8 c #34383e",
".9 c #070809",
"#. c #33383d",
"## c #32373c",
"#a c #32373c",
"#b c #31363b",
"#c c #30353a",
"#d c #586168",
"#e c #545d64",
"#f c #525b62",
"#g c #4f575e",
"#h c #4d555c",
"#i c #4c545b",
"#j c #4a5158",
"#k c #495057",
"#l c #464d54",
"#m c #454c53",
"#n c #434a50",
"#o c #41484e",
"#p c #3f454b",
"#q c #383d43",
"#r c #373c42",
"#s c #34393f",
"#t c #34383e",
"#u c #32373c",
"#v c #2f3439",
"#w c #2f3338",
"#x c #2f3338",
"#y c #2e3237",
"#z c #2d3136",
"#A c #2c3035",
"#B c #2b2f34",
"#C c #2b2f34",
"#D c #515960",
"#E c #50585f",
"#F c #4b535a",
"#G c #484f56",
"#H c #484f56",
"#I c #444b52",
"#J c #3e444a",
"#K c #3e444a",
"#L c #3b4147",
"#M c #3a4046",
"#N c #3a4046",
"#O c #383d43",
"#P c #34393f",
"#Q c #33383d",
"#R c #31363b",
"#S c #2f3439",
"#T c #2e3237",
"#U c #2a2e33",
"#V c #2a2d32",
"#W c #292c31",
"#X c #282b30",
"#Y c #282b30",
"#Z c #272b2f",
"#0 c #262a2e",
"#1 c #25292d",
"#2 c #4c545b",
"#3 c #4b535a",
"#4 c #495057",
"#5 c #444b52",
"#6 c #40474d",
"#7 c #373c42",
"#8 c #363b41",
"#9 c #34383e",
"a. c #31363b",
"a# c #2e3237",
"aa c #2b2f34",
"ab c #2a2e33",
"ac c #2a2e33",
"ad c #272b2f",
"ae c #24282c",
"af c #24282c",
"ag c #24272b",
"ah c #23262a",
"ai c #222529",
"aj c #212428",
"ak c #202327",
"al c #202327",
"am c #474e55",
"an c #474e55",
"ao c #444b51",
"ap c #3d4349",
"aq c #3d4349",
"ar c #393f45",
"as c #393f45",
"at c #30353a",
"au c #2f3338",
"av c #24272b",
"aw c #23262a",
"ax c #202226",
"ay c #1f2125",
"az c #1e2024",
"aA c #1d2023",
"aB c #1c1f22",
"aC c #1c1f22",
"aD c #1b1e21",
"aE c #1b1d20",
"aF c #3f464c",
"aG c #363b41",
"aH c #34383e",
"aI c #30353a",
"aJ c #2d3136",
"aK c #2d3136",
"aL c #2a2d32",
"aM c #2a2d32",
"aN c #262a2e",
"aO c #23262a",
"aP c #202327",
"aQ c #202226",
"aR c #1d2023",
"aS c #1a1c1f",
"aT c #191b1e",
"aU c #181a1d",
"aV c #181a1d",
"aW c #17191c",
"aX c #16181b",
"aY c #16171a",
"aZ c #151619",
"a0 c #3c4248",
"a1 c #3c4248",
"a2 c #25292d",
"a3 c #222529",
"a4 c #1f2125",
"a5 c #1b1e21",
"a6 c #1b1e21",
"a7 c #1a1c1f",
"a8 c #181a1d",
"a9 c #16181b",
"b. c #151619",
"b# c #141618",
"ba c #131517",
"bb c #121416",
"bc c #111315",
"bd c #111214",
"be c #111214",
"bf c #101113",
"bg c #353a40",
"bh c #33383d",
"bi c #2f3439",
"bj c #2c3035",
"bk c #2c3035",
"bl c #292c31",
"bm c #292c31",
"bn c #222529",
"bo c #202226",
"bp c #1f2125",
"bq c #1c1f22",
"br c #17191c",
"bs c #17191c",
"bt c #141618",
"bu c #141618",
"bv c #131517",
"bw c #111214",
"bx c #101113",
"by c #0f1012",
"bz c #0e0f11",
"bA c #0d0e10",
"bB c #0c0d0f",
"bC c #0c0d0e",
/* pixels */
"................................................................................................................................",
"...#.a.b.c.d.e.f.g.h.i.j.k.l.m.n.o.p.q.r.s.t.u.v.w.x.y.z.A.B.C.D.E.F.G.H.I.J.K.L.M.N.O.P.Q.R.S.T.U.V.W.X.Y.Z.0.1.2.3.4.5.6.7.8.9",
"...a.b.c.d.e.f.g.h.i.j.k.l.m.n.o.p.q.r.s.t.u.v.w.x.y.z.A.B.C.D.E.F.G.H.I.J.K.L.M.N.O.P.Q.R.S.T.U.V.W.X.Y.Z.0.1.2.3.4.5.6.7.8.9.9",
"...b.c.d.e.f.g.h.i.j.k.l.m.n.o.p.q.r.s.t.u.v.w.x.y.z.A.B.C.D.E.F.G.H.I.J.K.L.M.N.O.P.Q.R.S.T.U.V.W.X.Y.Z.0.1.2.3.4.5.6.7.8#..9.9",
"...c.d.e.f.g.h.i.j.k.l.m.n.o.p.q.r.s.t.u.v.w.x.y.z.A.B.C.D.E.F.G.H.I.J.K.L.M.N.O.P.Q.R.S.T.U.V.W.X.Y.Z.0.1.2.3.4.5.6.7.8#.##.9.9",
"...d.e.f.g.h.i.j.k.l.m.n.o.p.q.r.s.t.u.v.w.x.y.z.A.B.C.D.E.F.G.H.I.J.K.L.M.N.O.P.Q.R.S.T.U.V.W.X.Y.Z.0.1.2.3.4.5.6.7.8#.###a.9.9",
"...e.f.g.h.i.j.k.l.m.n.o.p.q.r.s.t.u.v.w.x.y.z.A.B.C.D.E.F.G.H.I.J.K.L.M.N.O.P.Q.R.S.T.U.V.W.X.Y.Z.0.1.2.3.4.5.6.7.8#.###a#b.9.9",
"...f.g.h.i.j.k.l.m.n.o.p.q.r.s.t.u.v.w.x.y.z.A.B.C.D.E.F.G.H.I.J.K.L.M.N.O.P.Q.R.S.T.U.V.W.X.Y.Z.0.1.2.3.4.5.6.7.8#.###a#b#c.9.9",
"...g#d.i.j.k.l#e.n.o#f.q.r.s.t#g.v#h#i.y.z.A#j#k.D.E.F#l.H#m.J.K#n.M#o.O.P.Q.R#p.T.U.V.W.X.Y.Z.0#q.2#r.4.5#s.7#t#.###u#b#c#v.9.9",
"..#d.i.j.k.l#e.n.o#f.q.r.s.t#g.v#h#i.y.z.A#j#k.D.E.F#l.H#m.J.K#n.M#o.O.P.Q.R#p.T.U.V.W.X.Y.Z.0#q.2#r.4.5#s.7#t#.###u#b#c#v#w.9.9",
"...i.j.k.l#e.n.o#f.q.r.s.t#g.v#h#i.y.z.A#j#k.D.E.F#l.H#m.J.K#n.M#o.O.P.Q.R#p.T.U.V.W.X.Y.Z.0#q.2#r.4.5#s.7#t#.###u#b#c#v#w#x.9.9",
"...j.k.l#e.n.o#f.q.r.s.t#g.v#h#i.y.z.A#j#k.D.E.F#l.H#m.J.K#n.M#o.O.P.Q.R#p.T.U.V.W.X.Y.Z.0#q.2#r.4.5#s.7#t#.###u#b#c#v#w#x#y.9.9",
"...k.l#e.n.o#f.q.r.s.t#g.v#h#i.y.z.A#j#k.D.E.F#l.H#m.J.K#n.M#o.O.P.Q.R#p.T.U.V.W.X.Y.Z.0#q.2#r.4.5#s.7#t#.###u#b#c#v#w#x#y#z.9.9",
"...l#e.n.o#f.q.r.s.t#g.v#h#i.y.z.A#j#k.D.E.F#l.H#m.J.K#n.M#o.O.P.Q.R#p.T.U.V.W.X.Y.Z.0#q.2#r.4.5#s.7#t#.###u#b#c#v#w#x#y#z#A.9.9",
"..#e.n.o#f.q.r.s.t#g.v#h#i.y.z.A#j#k.D.E.F#l.H#m.J.K#n.M#o.O.P.Q.R#p.T.U.V.W.X.Y.Z.0#q.2#r.4.5#s.7#t#.###u#b#c#v#w#x#y#z#A#B.9.9",
"...n.o#f.q.r.s.t#g.v#h#i.y.z.A#j#k.D.E.F#l.H#m.J.K#n.M#o.O.P.Q.R#p.T.U.V.W.X.Y.Z.0#q.2#r.4.5#s.7#t#.###u#b#c#v#w#x#y#z#A#B#C.9.9",
"...o#f.q#D#E.t#g.v#h#i.y#F.A#j#k#G#H.F#l.H#I.J.K#n.M#o.O.P.Q.S#J#K.U.V#L#M#N.Z.0#O.2#r.4.5#P.7#t#Q###R#b#c#S#w#T#y#z#A#B#C#U.9.9",
"..#f.q#D#E.t#g.v#h#i.y#F.A#j#k#G#H.F#l.H#I.J.K#n.M#o.O.P.Q.S#J#K.U.V#L#M#N.Z.0#O.2#r.4.5#P.7#t#Q###R#b#c#S#w#T#y#z#A#B#C#U#V.9.9",
"...q#D#E.t#g.v#h#i.y#F.A#j#k#G#H.F#l.H#I.J.K#n.M#o.O.P.Q.S#J#K.U.V#L#M#N.Z.0#O.2#r.4.5#P.7#t#Q###R#b#c#S#w#T#y#z#A#B#C#U#V#W.9.9",
"..#D#E.t#g.v#h#i.y#F.A#j#k#G#H.F#l.H#I.J.K#n.M#o.O.P.Q.S#J#K.U.V#L#M#N.Z.0#O.2#r.4.5#P.7#t#Q###R#b#c#S#w#T#y#z#A#B#C#U#V#W#X.9.9",
"..#E.t#g.v#h#i.y#F.A#j#k#G#H.F#l.H#I.J.K#n.M#o.O.P.Q.S#J#K.U.V#L#M#N.Z.0#O.2#r.4.5#P.7#t#Q###R#b#c#S#w#T#y#z#A#B#C#U#V#W#X#Y.9.9",
"...t#g.v#h#i.y#F.A#j#k#G#H.F#l.H#I.J.K#n.M#o.O.P.Q.S#J#K.U.V#L#M#N.Z.0#O.2#r.4.5#P.7#t#Q###R#b#c#S#w#T#y#z#A#B#C#U#V#W#X#Y#Z.9.9",
"..#g.v#h#i.y#F.A#j#k#G#H.F#l.H#I.J.K#n.M#o.O.P.Q.S#J#K.U.V#L#M#N.Z.0#O.2#r.4.5#P.7#t#Q###R#b#c#S#w#T#y#z#A#B#C#U#V#W#X#Y#Z#0.9.9",
"...v#h#i.y#F.A#j#k#G#H.F#l.H#I.J.K#n.M#o.O.P.Q.S#J#K.U.V#L#M#N.Z.0#O.2#r.4.5#P.7#t#Q###R#b#c#S#w#T#y#z#A#B#C#U#V#W#X#Y#Z#0#1.9.9",
"..#h#2#3#F.A#j#4#G#H.F#l.I#I#5.K#n.N#o#6.P.Q.S#J#K.U.V#L#M#N.Z.0#O#7#r#8.5#P#9#t#Q###Ra.#c#S#w#Ta##z#Aaaabac#V#W#X#Yad#0#1ae.9.9",
"..#2#3#F.A#j#4#G#H.F#l.I#I#5.K#n.N#o#6.P.Q.S#J#K.U.V#L#M#N.Z.0#O#7#r#8.5#P#9#t#Q###Ra.#c#S#w#Ta##z#Aaaabac#V#W#X#Yad#0#1aeaf.9.9",
"..#3#F.A#j#4#G#H.F#l.I#I#5.K#n.N#o#6.P.Q.S#J#K.U.V#L#M#N.Z.0#O#7#r#8.5#P#9#t#Q###Ra.#c#S#w#Ta##z#Aaaabac#V#W#X#Yad#0#1aeafag.9.9",
"..#F.A#j#4#G#H.F#l.I#I#5.K#n.N#o#6.P.Q.S#J#K.U.V#L#M#N.Z.0#O#7#r#8.5#P#9#t#Q###Ra.#c#S#w#Ta##z#Aaaabac#V#W#X#Yad#0#1aeafagah.9.9",
"...A#j#4#G#H.F#l.I#I#5.K#n.N#o#6.P.Q.S#J#K.U.V#L#M#N.Z.0#O#7#r#8.5#P#9#t#Q###Ra.#c#S#w#Ta##z#Aaaabac#V#W#X#Yad#0#1aeafagahai.9.9",
"..#j#4#G#H.F#l.I#I#5.K#n.N#o#6.P.Q.S#J#K.U.V#L#M#N.Z.0#O#7#r#8.5#P#9#t#Q###Ra.#c#S#w#Ta##z#Aaaabac#V#W#X#Yad#0#1aeafagahaiaj.9.9",
"..#4#G#H.F#l.I#I#5.K#n.N#o#6.P.Q.S#J#K.U.V#L#M#N.Z.0#O#7#r#8.5#P#9#t#Q###Ra.#c#S#w#Ta##z#Aaaabac#V#W#X#Yad#0#1aeafagahaiajak.9.9",
"..#G#H.F#l.I#I#5.K#n.N#o#6.P.Q.S#J#K.U.V#L#M#N.Z.0#O#7#r#8.5#P#9#t#Q###Ra.#c#S#w#Ta##z#Aaaabac#V#W#X#Yad#0#1aeafagahaiajakal.9.9",
"..aman#l.I#Iao.K#n.N.O#6.P.Q.S.Tapaq.V#L.Yaras.0#O.3#r#8.5#P.8#t#Q#a#Rat#c#Sau#Ta##z#Aaaabac#V#W#X#Zad#0#1aeavagawaiajakalax.9.9",
"..an#l.I#Iao.K#n.N.O#6.P.Q.S.Tapaq.V#L.Yaras.0#O.3#r#8.5#P.8#t#Q#a#Rat#c#Sau#Ta##z#Aaaabac#V#W#X#Zad#0#1aeavagawaiajakalaxay.9.9",
"..#l.I#Iao.K#n.N.O#6.P.Q.S.Tapaq.V#L.Yaras.0#O.3#r#8.5#P.8#t#Q#a#Rat#c#Sau#Ta##z#Aaaabac#V#W#X#Zad#0#1aeavagawaiajakalaxayaz.9.9",
"...I#Iao.K#n.N.O#6.P.Q.S.Tapaq.V#L.Yaras.0#O.3#r#8.5#P.8#t#Q#a#Rat#c#Sau#Ta##z#Aaaabac#V#W#X#Zad#0#1aeavagawaiajakalaxayazaA.9.9",
"..#Iao.K#n.N.O#6.P.Q.S.Tapaq.V#L.Yaras.0#O.3#r#8.5#P.8#t#Q#a#Rat#c#Sau#Ta##z#Aaaabac#V#W#X#Zad#0#1aeavagawaiajakalaxayazaAaB.9.9",
"..ao.K#n.N.O#6.P.Q.S.Tapaq.V#L.Yaras.0#O.3#r#8.5#P.8#t#Q#a#Rat#c#Sau#Ta##z#Aaaabac#V#W#X#Zad#0#1aeavagawaiajakalaxayazaAaBaC.9.9",
"...K#n.N.O#6.P.Q.S.Tapaq.V#L.Yaras.0#O.3#r#8.5#P.8#t#Q#a#Rat#c#Sau#Ta##z#Aaaabac#V#W#X#Zad#0#1aeavagawaiajakalaxayazaAaBaCaD.9.9",
"..#n.N.O#6.P.Q.S.Tapaq.V#L.Yaras.0#O.3#r#8.5#P.8#t#Q#a#Rat#c#Sau#Ta##z#Aaaabac#V#W#X#Zad#0#1aeavagawaiajakalaxayazaAaBaCaDaE.9.9",
"...N.O#6aF.Q.S.Tapaq.V#L.Yaras.1#O.3aG#8.6#P.8aH#Q#a#RataI#Sau#yaJaK#Aaa#UaLaM#W#X#ZadaN#1aeavaOawaiajaPaQaxayazaRaBaCaDaEaS.9.9",
"...O#6aF.Q.S.Tapaq.V#L.Yaras.1#O.3aG#8.6#P.8aH#Q#a#RataI#Sau#yaJaK#Aaa#UaLaM#W#X#ZadaN#1aeavaOawaiajaPaQaxayazaRaBaCaDaEaSaT.9.9",
"..#6aF.Q.S.Tapaq.V#L.Yaras.1#O.3aG#8.6#P.8aH#Q#a#RataI#Sau#yaJaK#Aaa#UaLaM#W#X#ZadaN#1aeavaOawaiajaPaQaxayazaRaBaCaDaEaSaTaU.9.9",
"..aF.Q.S.Tapaq.V#L.Yaras.1#O.3aG#8.6#P.8aH#Q#a#RataI#Sau#yaJaK#Aaa#UaLaM#W#X#ZadaN#1aeavaOawaiajaPaQaxayazaRaBaCaDaEaSaTaUaV.9.9",
"...Q.S.Tapaq.V#L.Yaras.1#O.3aG#8.6#P.8aH#Q#a#RataI#Sau#yaJaK#Aaa#UaLaM#W#X#ZadaN#1aeavaOawaiajaPaQaxayazaRaBaCaDaEaSaTaUaVaW.9.9",
"...S.Tapaq.V#L.Yaras.1#O.3aG#8.6#P.8aH#Q#a#RataI#Sau#yaJaK#Aaa#UaLaM#W#X#ZadaN#1aeavaOawaiajaPaQaxayazaRaBaCaDaEaSaTaUaVaWaX.9.9",
"...Tapaq.V#L.Yaras.1#O.3aG#8.6#P.8aH#Q#a#RataI#Sau#yaJaK#Aaa#UaLaM#W#X#ZadaN#1aeavaOawaiajaPaQaxayazaRaBaCaDaEaSaTaUaVaWaXaY.9.9",
"..apaq.V#L.Yaras.1#O.3aG#8.6#P.8aH#Q#a#RataI#Sau#yaJaK#Aaa#UaLaM#W#X#ZadaN#1aeavaOawaiajaPaQaxayazaRaBaCaDaEaSaTaUaVaWaXaYaZ.9.9",
"..a0a1#L.Y.Zas.1#O.3.4#8.6#P.8#.#Q#a#bat#v#Sau#yaJaK#Aaa#UaLaM#W#X#Z#0aNa2aeavahawa3ajaPaQaxa4azaRaBa5a6aEa7aTaUa8aWa9aYaZb..9.9",
"..a1#L.Y.Zas.1#O.3.4#8.6#P.8#.#Q#a#bat#v#Sau#yaJaK#Aaa#UaLaM#W#X#Z#0aNa2aeavahawa3ajaPaQaxa4azaRaBa5a6aEa7aTaUa8aWa9aYaZb.b#.9.9",
"..#L.Y.Zas.1#O.3.4#8.6#P.8#.#Q#a#bat#v#Sau#yaJaK#Aaa#UaLaM#W#X#Z#0aNa2aeavahawa3ajaPaQaxa4azaRaBa5a6aEa7aTaUa8aWa9aYaZb.b#ba.9.9",
"...Y.Zas.1#O.3.4#8.6#P.8#.#Q#a#bat#v#Sau#yaJaK#Aaa#UaLaM#W#X#Z#0aNa2aeavahawa3ajaPaQaxa4azaRaBa5a6aEa7aTaUa8aWa9aYaZb.b#babb.9.9",
"...Zas.1#O.3.4#8.6#P.8#.#Q#a#bat#v#Sau#yaJaK#Aaa#UaLaM#W#X#Z#0aNa2aeavahawa3ajaPaQaxa4azaRaBa5a6aEa7aTaUa8aWa9aYaZb.b#babbbc.9.9",
"..as.1#O.3.4#8.6#P.8#.#Q#a#bat#v#Sau#yaJaK#Aaa#UaLaM#W#X#Z#0aNa2aeavahawa3ajaPaQaxa4azaRaBa5a6aEa7aTaUa8aWa9aYaZb.b#babbbcbd.9.9",
"...1#O.3.4#8.6#P.8#.#Q#a#bat#v#Sau#yaJaK#Aaa#UaLaM#W#X#Z#0aNa2aeavahawa3ajaPaQaxa4azaRaBa5a6aEa7aTaUa8aWa9aYaZb.b#babbbcbdbe.9.9",
"..#O.3.4#8.6#P.8#.#Q#a#bat#v#Sau#yaJaK#Aaa#UaLaM#W#X#Z#0aNa2aeavahawa3ajaPaQaxa4azaRaBa5a6aEa7aTaUa8aWa9aYaZb.b#babbbcbdbebf.9.9",
"...3.4bg.6.7.8#.bh#a#bat#vbiau#y#zbjbkaa#U#Vblbm#X#Z#0aNa2aeavahbna3ajaPbobpa4azaRbqa5a6aEa7aTaUbrbsa9aYaZbtbubvbbbcbdbwbxby.9.9",
"...4bg.6.7.8#.bh#a#bat#vbiau#y#zbjbkaa#U#Vblbm#X#Z#0aNa2aeavahbna3ajaPbobpa4azaRbqa5a6aEa7aTaUbrbsa9aYaZbtbubvbbbcbdbwbxbybz.9.9",
"..bg.6.7.8#.bh#a#bat#vbiau#y#zbjbkaa#U#Vblbm#X#Z#0aNa2aeavahbna3ajaPbobpa4azaRbqa5a6aEa7aTaUbrbsa9aYaZbtbubvbbbcbdbwbxbybzbA.9.9",
"...6.7.8#.bh#a#bat#vbiau#y#zbjbkaa#U#Vblbm#X#Z#0aNa2aeavahbna3ajaPbobpa4azaRbqa5a6aEa7aTaUbrbsa9aYaZbtbubvbbbcbdbwbxbybzbAbB.9.9",
"...7.8#.bh#a#bat#vbiau#y#zbjbkaa#U#Vblbm#X#Z#0aNa2aeavahbna3ajaPbobpa4azaRbqa5a6aEa7aTaUbrbsa9aYaZbtbubvbbbcbdbwbxbybzbAbBbC.9.9",
"...8#.bh#a#bat#vbiau#y#zbjbkaa#U#Vblbm#X#Z#0aNa2aeavahbna3ajaPbobpa4azaRbqa5a6aEa7aTaUbrbsa9aYaZbtbubvbbbcbdbwbxbybzbAbBbCbC.9.9",
"...9.9.9.9.9.9.9.9.9.9.9.9.9.9.9.9.9.9.9.9.9.9.9.9.9.9.9.9.9.9.9.9.9.9.9.9.9.9.9.9.9.9.9.9.9.9.9.9.9.9.9.9.9.9.9.9.9.9.9.9.9.9.9",
"...9.9.9.9.9.9.9.9.9.9.9.9.9.9.9.9.9.9.9.9.9.9.9.9.9.9.9.9.9.9.9.9.9.9.9.9.9.9.9.9.9.9.9.9.9.9.9.9.9.9.9.9.9.9.9.9.9.9.9.9.9.9.9"
};

