/* XPM */
static char *ASBConvexBlue_xpm[] = {
/* width height num_colors chars_per_pixel */
"    64    64      184            2",
/* colors */
".. c #041e64",
".# c #3456a4",
".a c #1c3a7c",
".b c #4c72cc",
".c c #34468c",
".d c #4c66ac",
".e c #142e6c",
".f c #3446a4",
".g c #243a94",
".h c #445abc",
".i c #647ad4",
".j c #4466d4",
".k c #2c3e7c",
".l c #142664",
".m c #24469c",
".n c #142e7c",
".o c #547aec",
".p c #445ea4",
".q c #344ea4",
".r c #3c5eac",
".s c #5c72cc",
".t c #344e94",
".u c #24427c",
".v c #3456b4",
".w c #4452ac",
".x c #243664",
".y c #546acc",
".z c #3c4ea4",
".A c #1c3a84",
".B c #5466b4",
".C c #2c4e94",
".D c #142674",
".E c #24468c",
".F c #4c5ea4",
".G c #0c2654",
".H c #3c569c",
".I c #4456ac",
".J c #1c2e6c",
".K c #2c3e94",
".L c #4462bc",
".M c #2c4ea4",
".N c #44529c",
".O c #5472d4",
".P c #4c6ecc",
".Q c #24367c",
".R c #5c7ad4",
".S c #3c4e94",
".T c #34469c",
".U c #1c42a4",
".V c #4c6ae4",
".W c #2c3e8c",
".X c #1c2a6c",
".Y c #2c469c",
".Z c #1c367c",
".0 c #243a84",
".1 c #2c468c",
".2 c #4466bc",
".3 c #3c4aa4",
".4 c #4c66cc",
".5 c #14266c",
".6 c #5c76dc",
".7 c #3c52b4",
".8 c #546ebc",
".9 c #4c5eb4",
"#. c #3c56ac",
"## c #4c5aac",
"#a c #4c62bc",
"#b c #2c4aac",
"#c c #0c1e54",
"#d c #243a74",
"#e c #5472c4",
"#f c #344a8c",
"#g c #14326c",
"#h c #6c86d4",
"#i c #445eb4",
"#j c #3452a4",
"#k c #3c5ebc",
"#l c #5c76cc",
"#m c #3c56b4",
"#n c #546ecc",
"#o c #3c52a4",
"#p c #1c2a74",
"#q c #0c266c",
"#r c #445aac",
"#s c #2c4a9c",
"#t c #243e84",
"#u c #2c4a8c",
"#v c #345aa4",
"#w c #2c4a84",
"#x c #445aa4",
"#y c #344aa4",
"#z c #243e94",
"#A c #445ebc",
"#B c #142a5c",
"#C c #5c7ee4",
"#D c #24428c",
"#E c #243274",
"#F c #546ac4",
"#G c #4c62ac",
"#H c #3c5aa4",
"#I c #4462cc",
"#J c #5476d4",
"#K c #3c529c",
"#L c #244294",
"#M c #1c368c",
"#N c #4c66bc",
"#O c #4c6acc",
"#P c #0c2264",
"#Q c #243e7c",
"#R c #5476cc",
"#S c #3c5ab4",
"#T c #0c2a6c",
"#U c #3456ac",
"#V c #344694",
"#W c #4c66b4",
"#X c #2c4684",
"#Y c #4456a4",
"#Z c #142e74",
"#0 c #647edc",
"#1 c #446ad4",
"#2 c #2c3e84",
"#3 c #445eac",
"#4 c #6482f4",
"#5 c #0c225c",
"#6 c #142a74",
"#7 c #2c4294",
"#8 c #344a9c",
"#9 c #2c428c",
"a. c #3452b4",
"a# c #142a6c",
"aa c #4c62b4",
"ab c #3c5aac",
"ac c #4462b4",
"ad c #3c62bc",
"ae c #1c327c",
"af c #344eac",
"ag c #3c5eb4",
"ah c #5c72d4",
"ai c #344e9c",
"aj c #244284",
"ak c #24366c",
"al c #546ad4",
"am c #3c4eac",
"an c #1c3a8c",
"ao c #5466bc",
"ap c #244694",
"aq c #4c5eac",
"ar c #3c56a4",
"as c #4456b4",
"at c #1c2e74",
"au c #4462c4",
"av c #5472dc",
"aw c #5c7adc",
"ax c #3c4e9c",
"ay c #2c46a4",
"az c #243a8c",
"aA c #2c4694",
"aB c #3c4aac",
"aC c #546ec4",
"aD c #4c62c4",
"aE c #243a7c",
"aF c #5472cc",
"aG c #344a94",
"aH c #143274",
"aI c #2c4284",
"aJ c #3452ac",
"aK c #5c76d4",
"aL c #34529c",
"aM c #546ed4",
"aN c #3c52ac",
"aO c #1c2a7c",
"aP c #445ab4",
"aQ c #1c3274",
"aR c #2c4aa4",
"aS c #243e8c",
"aT c #2c4a94",
"aU c #344aac",
"aV c #243e9c",
"aW c #445ec4",
"aX c #142a64",
"aY c #4c66c4",
"aZ c #4c6ad4",
"a0 c #3c5abc",
"a1 c #0c2a74",
/* pixels */
".V#C.V#J#J#RaF.s.Oahahavah.O#JaK#JaK#J#J#J#J#J.6.Oah#Jav.Oav.O.O.O#J.OaK.O.OaF.P.O.O.O.O.O.O#Jah.OahaFaF#RaFaF.O.Oaw.Oah#l#har.Q",
".o#4.j.O.PaF#e#l#l#l.OaK#J#J.R#JaF#naF#naF.OaF#n#J.O.O.O.O.O.O.OaF.OaF#JaF.OaF#n#R.O#Rah#RaK#J#JaK#J#l#RaF#RaK#J#OaKaM.yao.8#t#6",
"aZ#1.F.F#W.9#N#W#W#W.d.dac.daaaaaa#Gaa#G#Gaa#G#G#G#G#G#Gacaqacaq#3#G#3.F#3#3.p#3.p#3.p#3#3#3#3.p#x#x#r#x.I.I#r#x.w.S#Kax#o.z#q#P",
"#C.O.paq#N#aaY#Nacacacacac.9ac#i#3#i#i#3#i#i#r#iaP#raP#r#rab#rab.I#H.Iab#Y#..Iar.I#.#o#o#Yar#o#o#r#.araN.waN.w#Y#####x#o#oafat.Q",
".b#N.B#N#FaWaDauaD.2aaacaa.L#A.9#A#A.9.h#iaP#iaP#Aac#A#i#A#iaP#i#i#i#i#i#i#i#iaPaP#r#S#SaP#S#r#.ab#r#m#maNasas.I.qax#o#8amaJ#P.5",
"#l.P#A.9auas#kaW.Lau.L.L.L#A#AaW#A#A.hag.h.h.hag.h#A.h.h.haP.h.h.h#A.h#AaPa0aP#S#A#S#m#Sas#S#m#maNaJaJamafamaUaf.z#o.I#j#m.7at.J",
".RaCaaaY.4#I.4aZauad.L.L#A#k.h#k.h#A#A#k.h#k.ha0.h#Sa0#Sa0#Sa0#S#S#S#S#Sa0#S#S#m#S#m#m#m#m#m.7#Uabab#S#m.7.7aNaN#o.q#j.qaN#ba#.5",
"aKaCac#N.4aW#I#kadau.Lad#k#Aa0.h#k#A#k#Aa0#ka0#A#k#A#k#A#Aa0#k.h#k.h#k.hag.h#Sa0#A#S#S#m#S#S#m#U#.#U#..v#..7aN.q.q.q#o.##maR.JaX",
".saF#W.L#Aauauauauad.Ladac#A.L#Aad#A.Lag#Aag#iag#k#i#kag#Sag#Sagagagag#Sag#Sagab#U#S#S#S#v#m#U#U.#.#abaJ.q.q.q.q#oai#Kai#jaJ.JaX",
".Oah#Wac.Lau#Aad.2adacad.Lacad#Aacad#iad#iadag#iag#iagag#iag#i#Sagab.rab.rabab#S#v#.#v#S#vab#U.#.##v#H#U#j.q.q#o#KaL#j.C#j.M.J.J",
"ahah.dacac.L.Lad.Ladacadac.rac#iad#3adac.r#3agacag.r#i.ragab.r.r#3#S.r#Sabab.rabab#Uab#.ab#Uar.##H#H#var#j.q#j#KaL.t.Hai.##j.J.J",
"ah.O.daa#i.L.Lacadacadacacac#iagacac#3.r#3ad#i.r#3ag#3#S.r#i.r#S.rab.rab.rabababababar#U.#ar#U#H.#.#.#ar#j#o.qaL#KaiaL.CaL.q.J.J",
".Oah.2ac#i.L#Aadacac.d.rac#i#i#i#i#i#i#i#i.r#3#iag#3#S#3#Sab#rab#rab#rababababab#..##.ar#Uar#..#.#.H#j.q.q.z.qax.q.t#K#8#j.q#ZaX",
"ah#J#Gaq#i#A#A#A.L.radac#iag#A#i#iag#iag#iaP#S#r#SaP#SaPabaP#S#r#Sab#Sabab#.ab#.ar#.#U#.aN#U#o.##o#j#j.qaNaf.z#y#Kaiai#8.q.q.Ja#",
"#J.saaac#AaW#A#k#A.Lacag#i#iaP.h#iaP#iaPaP#SaPaP#SaPaP#SaP#S#S#SaPabaP#.aP#.#.#m#.#.#.#.#.aNaJ#o#j#j.qafamam.q.3.qaxai#8af#yaHa#",
"#J.Raa#i#iaW#A#A#Aad#i#i#i#i.h#A.h#i.haPagaPaP#SaPaP#SaP#Sas#S.I#m#.aP#.ab#mab#.#jaN#.#.#.#.aN#j#.#j.qafamaNam.3.qax.q#8.qaUat.e",
"#JaF#G#i.9aD.hau.Lacad#3#iagaP#iaPag#iagaP#S#i#S#S#SaPab#S#.#S#.#.#.abab#.#.araJ#.#oaJ#o#j.q.q#j.q.zaf.zafaU.3.q#8ax#8.qaRaJaH.e",
".O#l#G#i.L.L#A.L#iad#3ad#i#i#i.h#i#iagaP#iaP#S#i#S#r#SabaP#.abab#U.##Uab#.ar#.#j#o#.#o#j.z#o#j.z#j#j.q.qam.3af.3#8ai#8aL#yaJat.e",
"aFaF#G#i.9au.hau#kac#i.r#i#iaPag#A#SaP#i#Sab#iabaPab#S#.ab#m#rabab#.#H#Uar#UaraJaraJaraN#j.q#o.q#oai.qaf.3aU.3.q#8axaA.q#yaJ#Z.e",
"aF#R#G#i#a#Aa0.Lag#iad#3#iagaPaP#iaPagaP.raP#SaPab#m#r#S#.#S#.#.#.#U.##..#aN.##.#jaN#o#j#o#o.qai.q#j.z.q#y.z#y.3#8ai#8aL#saJat.e",
"#JaF#GaP.L#A.h.L#Aad#3ag#iaP#SaPagaPabaP#S#r#Sab#S#r#mab#.#.#mabab.##..#aJar#j#.#o#jaN#j.q.q.z#jaL.q.q.qaB#y#y.z#8axaG.q#8aJ#Z.e",
"aK.O#G#3.9#Aa0#Aag#i.r#i.r#i#i#SaPagaP.raP#SabaP#.#S#.ab#mab#.#.#U#..##U#o#U#o#jaJ#o#j#o.z#j.q.qaiai.q.q#y#y.3#8#8ai#VaL#saJata#",
"#JaF#GaP#A#Aa0#A#kagac.r#i#SaPaP#SaP#SaPabaPab#S#.ab#m#.#.#.#.#..#.##..##.ar#j#j#o#jaN#j.q.z.qaiai#jai#y.3#y#y#yaGaxaG.q#8aJ#Z.e",
"aFaF#G#3#A#Aas#k#iag#iag#3#SaP#SaP.raPab#Sab#m#r#S#.aP#.#S#.#.#.#j.##Uab.#aN#j#jaN#j#o.q#o#j.q.zaiai.q#y.q.3#8.3#8aiaGaL#saJ#Z.e",
".O#naa#i#i#Aa0#k#Aadac.r#i#iaPaP#SaP#SaPabaPab#S#.#.#.#.#.#.#.#.#j#.ab#U#j#j#j.q#j.q#o.q.q.qai.qaiaiai.q.3#y.zaiaGaG#8aA#say#ZaX",
".O#n#G#iaP#A.ha0ag#3.rag#3#S#SaP#SaPabab#mab#mab#.#m#.#.#.#U#.#UaJ#vab#j#j#o#j.q.z#j.q.q.qai.q.qaiaiai.q.q#y#y#8#8aGaGaA#s#sata#",
".OaFaa#iaP#Aa0#i#Sagag#3abaP#S#Sab#S#.#S#.#.#.#.#.#.#.#m#.#.aN#..##..##j#jaN.#.q#j.q.z#j.z.q.qaiaLai.q#8.3#8#8#8#8aGaiaA#8aR#Z.e",
"aK.O#G#3aP#S.ha0agag#S.r#SabaPas#mabasab#.ab#m#.#.#.#.#UaN#U#.#U#..##j.q#jar#j#j.q#j.qai.qai.qaiaiaiai#y#8#y.T.T.taG.taA#s#saQa#",
"#JaM#GaP#SaPa0#A#k#i.r#i#3#SaP#SaPab#Sabasab#.#S#.#.#.#.#.aNaJarab#j.M#j#j#j#j#j.q.q.q.q.q.qai.qaiaiai#8.f.T.T.T.taGaiaT#8aR#Z.e",
"aK.O#3#r#SaP.h#kag#i.rag#3#SaPaP#Sabasab#S#.#S#.#.#U#.#UaN#U#.#o#U#j.M#j#o#j.q#o.qai.qax.q#8.q#8.tai#8#s.T#8.T#V#8aGaG.1#s.Y#Za#",
"#JaMaq#r#maPa0.hagagag.r#S#r#S#mab#mab#m#.#.#.#.#.aN#.aN#UaNaJ.##j.q#j.##j.q.q#j.q.q.q.qai.q#8.qaTaT#8#s.T.T.T#8aGaTaGaA#saAata#",
".OaFac#r#.a0aP#k#S#S#rababab#.as#.#.#.#.#.#.#.#.#.#U#.aJ#.#o#UaN.qai#j#.#o.MaiaNai.qai#y.q#8.q#8aTaT#8#s.T#8.TaG#VaAaG.1#s.maQ.e",
"aF#n.p#r#A#m.h#Sag.rag.raP#iaP#i#.#.#mab#m#.aJaJaN#.#.#.#j.q#y.q#U#j.q.q.Mai.q#o.q.q#8#y.q.q#8.Y.t.taA.Y.T.Y.T.T#VaTaGaA#say#qaQ",
".OaF#x#r#i#m#S#Sagagab.rababab#maN#.#.#.#.#.aN#jaN#.#.aNaJ.q.q.q.z.z.q.q#y#y.q.q.q#y.q.q#y.Y#y#8.C.t#s#V.Y.T.T.YaGaAaG#7#s.Ya#at",
"#JaF.pabaP#.#m#S#i.rababab#.#.#.#.#.#.#.#.#o#.aN#.araJ#o#j#o#j.q.q#j.q.zai.q.z.q#8.q#o.q#8.Y#8#8aTaTaT#8.T.Y#7#VaG#VaG#D.Y.ma##Z",
"aKaF#x#raP#ma0#mag#S.rababab#m#.#.#.#.#oaJaraJar#.#j.q.q#oaJaN#j.q.q#o.q#j.qai.q#8ai.q.q#8#s#s#8aAaAaT.Y#7.T#7#7aGaT#V#D.Y.Y#Tat",
"#JaF#xab#i#.#m#S#Sababab#r#S#r#S#.#.#jaNaraJ#o#.aN#j.q.q#j#o#j.q.z.q.q.qax.q.q#8.q#y#8#8.q#8#saAaTaTaG.Y.T.T#7.TaG#VaA#D#7.m.D#Z",
"aKaF.p#raP#m.h#S#Sagab.rab#3#SaPaNaraN#.#jaN#o#jaJ#o.q.q.qaJ.z#j.qai.qai.q.qai.q.q#8#s#s.q.q.TaAaTaGaT#8#8.T.TaA#V#uaA#7.Y.ma#at",
".OaF#xabaP#.#m#m#Sababababab#.abaN#j#.araN.##j#o#j#j#o#j#o.q.q.q#o.qai#8#8#8.qai#8ai#8#8#8#s#saAaG.CaTaA.T.Y.T#VaA.caG#D.Y.Y#T#Z",
"aKaF#xaraP.v#m#mag.rabab#.#.#.#.#j#j#.#.araN#o.q.q#o#.#..q.qai.q#oai.q#8#s#8ai.q#s#8.qai#8.YaA#8aT.1aA#7#7#7#7#7#V.1aG.1.Y.ma#at",
"#J#n#xab#i#m#S#S#U#Uababab#.#.#..zaN#j#o#U#j.q.q.q.q.qai.q.q.q#jai.q#8ai.qai#8#8#8#s#8.Y#s.T#saGaT#uaTaA#V.Y#VaAaG#t#9#D#7.m#6.e",
".OaF#x.I#i#ma0#S#U#.#U#Hab#.#.#.#U#oaJ#o#j.z#j#o.q#j.q.q.qai.q.q.qai#s#8#8.q#8#s#8#8#s.Y#8aA#saG#uaTaAaA#7#VaA#9.1.WaT.1#z#L#Z#6",
"#JaM#x#HaP#maP#m#S#v#..##.#.#.#.#.ar#j#j.q#j#o#j#o#jai.qaiai.qaLai#8#8ai#8ai#s#8#s#8aTaG.YaG.YaTaT#u.caA#V#7#7#V#9#taG.1aSan#6.e",
"#J#n#xabaP#m#m.v#S#v#..#ar#U#.#.#o#j#o#j#K#j#j#o#j#o#jai.qaiai#8aiai#8#sai#8#8aT#8aT.T#saA.YaTaG.1#uaAaA#7#V#7#9#9aj#f#D#L#L#Za#",
".OaM#x#.#r#.#m#m#Sab#U.##o#UaN#.#j#o#j#o#j#oaL.q#j#jai.qai.C.qai.q#8#s#8#8ai#s#8#8aT.TaA#VaT.YaT.1.1.1aA#7#7#7#9#V#2.1#D#D.Y#6.e",
"#JaM#x#H#S#m#m#U#Uab#Uar#j#.#jaN.q#j#o#jar#j.qai#oaL.qaiai.q#yaiai#s#8aG#s#8#8aT.YaG#saT.YaA#VaT.1#u#D#7#9#7#9#9aG#t#9#D#9.m#6a#",
"avaF#x#.aPaN#ma.ab#Uab.##.#jaN#j#j#o#j#o#jaL.qaL.qai.qai.C.qai.q#8.taT#8.t#8aTaGaGaTaA#VaAaAaTaA.1.E.1#9#7#9.K#9.1aI.1#D#D#L#6.e",
".OaM#xar#iaJ#ma.#U#.#U#H#.aN#jaJ#o#oaLai.qai#oaL.qaiai#s.qaiaiaiai#8#8aT#saiaGaT#saGaTaAaTaAaAaT.E#X.1#D#7.W#9#9#9aj#f.1aS#L#6a#",
"avah#H#.#i#m.v.q.vab#U.#.##j.q#y#jaLaiaiaiaiaiaiaiaiaiaiai#s.C#saTaTaTaTaGaTaTaGaTaT.1.1.1.1aT.taj.1.1.1#7#9.WajaI#Xajajapana#a#",
"ah.O#x.IaPaJ#m.v#U#U#..##U.q.q.q#j#jai#jaiaLai#jaiaiai.q.Cai#8aG#saAaGaTaTaTaTaTaTaTaA.EaA#uaT#u.1.E#9#D#9#9#9aI#2.1ajaj#9.U.5#Z",
".Oah.par#.af#m#SaJ.##U.##o#j.q.q#o#o.qai.q.q.q#jai.qai.q#8#8#s#s.T#s#8aA.TaAaAaA#VaAaAaA.1aA#9.1#9.1#7#9#7.W#9#9#t#X#t#D#LaSa##Z",
"aK#J#Yar#.aJ#m#SaJaN.##j#oaf#j.z#j.q.z.q.z.q.z.q#8#y#y#8#y#y#8.Y#8#s.T#s.TaA.TaAaAaT#VaA#7.1#7#DaA#9#L.WaS.K.W#9#2.1#taS#7ana#.J",
"aK#R#K#o.IaN#m#.#j#j#j#o.##o.q.zaf.z#y#y#y#y#y#y#y#y#y#y#y.T.f.T.T#8.T.Y#V#7.Y#7#VaA#7aA#V#9.W#D#7#9#9.K.K.W.K#9#2#9#2aS#LaV#T#g",
"#J#R#Kax.I#.#.aNaf#j#oaL#o.q#o.q.3#y#y.3#y#8.3#y.3#y.3#y#y#y.T.Y.T.T.Y#V.Y.T#7#V#7#7#V#7.W#7#9#9#9#9.WaS.K.W.W.W#2#9#taS#L.ga#aH",
"aKaK.N#K.IamaNaN#o#o#j#K#o.q.z.3.q.z#y#8#y#8#y.3#8#8#y#8#8.T.T.T.Y#VaA#V#7#VaA#V#7#9#9#9#9#9#9#9#9#9.W#9.W.W.W#2#2aI#2.0#7an#TaH",
"#J#J#xar.w#yaN#..q#o#j#K.qax.q#8.z.zaiax.3ai.3ai#8#8#8#8#8.T.Y#V#7.caA#VaA#VaA#V.1#9#9#2#t#9.1.1#taI.W.c.W.W#2#2.kaI#Q#t#Daz#6aH",
".6.O.N#K.I.I#m#yaN#o#o#jax.q.z.zaxaiaxaxaiaxaiaxax#8.3aG#8#8#8aiaGaGaGaG#V.1.c.1.c.1.1aI#9aIaIaIaIajaI#t.W#2#2#2.kaI#X#Q#9#Laea1",
"alaZ.Nax#o#y#y.faJ.qaiai#y#8#8#y#8aiaG#8aGaGaGaGaGaGaGaA.caA.c#V#V#V.1.1.1.1.1#9.1#X#9#XaIaj#2ajaI#X#9aI#9aIaI#2#d#d.k.a#t#Dae#6",
"av.6#x.IaP.7as#SaN#.#o#j#o#jam#o#oaLaxaLaxaiaiaiaiaiaG.t#8aGaG.CaGaTaGaGaA#f.1.1aGaG#f#u#V#u#u#Xaj#t#t#t#t.0#t#QaI.u#wajaSaS.n.5",
"alah#V#8.zay#b#yaf.q.M#8aR#8#y#y#8aTaG#saTaTaGaAaTaTaA#LaA#D#L#7.E#7#D#7#D#D.W#D#D#DaS#DajaS#taj#t#t#t#taz.0.0aE#t#Qaj.Z.A#M.Q#6",
"#nah#YaNaP.7af#baJaJ#j#j#jafaf#j.q.q.q.q.q.q.q.qai.q#8ai#s#s#8#s.Y#s.Y.Y.Y#s.Y.Y#7ap#7#D#L#L#D#Lapap#L#7#L#7#L#9#t.A#D.Aan.ma##5",
"#0.iai#y#ma..7#baf.M.q.M#y#y#yaU#yaR.q#saR#saR#say.YaR.YaRay.Y.mayayay#sayay.Y.maV#z#z#L#z#L#z#L#L#z#z#zaV.g.g.g#LaSaSanaV.Uakak",
".saa.n.QaQata#at#p#paO.naO#Z#Z.e#Ta#a#a#a#.5a##6a#.5a#a##6a##6a#a##6a##6#6a##6#6a#.5a#.5#6a#a##6a#a#a##6a##T#6a1#6.natae.Jak#c#B",
"ao.z..#6.Xa#.l#E.5#p#6#p#6a#a#a#.eat#gat.e.e.e.ea#.e.e.e.e.e.e.ea#a#a#a#a#.e#6.ea##Z.e#Z.e#Z#Z.J#6at.e.e.e.e.e#Z#Z.n#6a##qak.G.x"
};
