/* XPM */
static char * Brush_xpm[] = {
"47 47 63 1",
" 	c None",
".	c #8617492428A2",
"X	c #861751440820",
"o	c #71C6451438E3",
"O	c #965869A638E3",
"+	c #9E798A286185",
"@	c #AEBA14518617",
"#	c #38E330C28E38",
"$	c #2081B2CABEFB",
"%	c #4103AAAA1861",
"&	c #D75C9E7930C2",
"*	c #CF3CC30B9E79",
"=	c #B6DA6DB628A2",
"-	c #79E73CF30000",
";	c #69A63CF31040",
":	c #6185451428A2",
">	c #514496580000",
",	c #C71B49240820",
"<	c #BEFB61850820",
"1	c #BEFB59650000",
"2	c #CF3C69A60820",
"3	c #CF3C71C60820",
"4	c #D75C9E790820",
"5	c #D75C61850000",
"6	c #28A22492D75C",
"7	c #1861B6DA5965",
"8	c #C71BAEBA0000",
"9	c #AEBA28A20000",
"0	c #A69941030000",
"q	c #AEBA51440820",
"w	c #D75C71C60000",
"e	c #E79D7DF70000",
"r	c #DF7D79E70000",
"t	c #71C649240820",
"y	c #C71B49240000",
"u	c #C71B59650000",
"i	c #E79D69A60820",
"p	c #9E7949240820",
"a	c #000000000000",
"s	c #9E7941030000",
"d	c #30C210400000",
"f	c #186100000000",
"g	c #41030C300000",
"h	c #28A220811861",
"j	c #71C628A20000",
"k	c #5965249238E3",
"l	c #08201C710000",
"z	c #8E388617AEBA",
"x	c #492424921861",
"c	c #208100000000",
"v	c #4103410330C2",
"b	c #28A210404103",
"n	c #492449245965",
"m	c #514469A61861",
"M	c #59651C710000",
"N	c #492428A20820",
"B	c #514441032081",
"V	c #59654D341040",
"C	c #596569A65965",
"Z	c #8E3849240820",
"A	c #8E3841030000",
"S	c #A69959651861",
"D	c #D75CCF3CF7DE",
"                                               ",
" ..XooOOOOO+OOOOOOOOOOO@@@@####$$$$%+&*&=-.;.: ",
" >,,<11<<<23332323433<5@@@@666$$$77>>8&4599,0. ",
" >q1<<222254333werrwrw5@@@@666$$$77>>8&45990>t ",
" y,u112<2w3rrr4wrw4w4w3@@@@6666$$77>%84&599q>o ",
" yy,<<<52ww4rre&rerew43@@@@6666$$77>%84iy99>p. ",
" <122<53r3=+ar44rererrw@@@@6666$$7%>%88<y9,s,. ",
" 11<25wrr&dff8e8e48rerwg@@@6666$$7%>>88iy9,,q. ",
" 1<252r44ahaa&te8e4e8eedo@@####$$77>%>><sjX>,o ",
" 21w5w2&dhaaaj-484e8e4edk@@####$$77>>>>=sd.,,t ",
" 2233==aalzaaax8448&dccafffhhaallllllaaffff>q. ",
" <2244dddhvllaae484&&+Ofvbobbnn777m%%OOO;fOMqm ",
" 322w=clhhllafaf+4e8&&9fxxbbhbbvvllllhhggfNMj. ",
" 22wwOdBhlvllaafx448&&rfVxobbnnC7mm>m%%ZjfCjXo ",
" 225w+cBvvlllalfhZ&88erc.xobbnn77mmm%%%p-fOMO. ",
" 3www=canlflallfhs&8e8eckxokbbnCCmm>>>%Z-coMXo ",
" 324rOclxBllhaaahs&8eeec:xkkkvBCCmmm>>>AjcOjXm ",
" 2r3w=clBBllallaBA&eeeef:xokbvnmCmmm>>XA-cojXo ",
" w2w23&flhalalafxs&e&erc:gkkbhvvvvVV>>XZjf.j.m ",
" 2www4raahaalla;VA&&&rrcVxkokxvvvVmV>VX-jcojXo ",
" w323weaaaaalaaMB9&&eerf:MkkkVVvvVVVVXXAjfOjOm ",
" <w4rw2aaaaaaaax;3&83r3c:Mk:kVx:vVVVVXXjjcoMXm ",
" 2<524r#zzzzz#nNBee4ewrc;g.;kBVXvVVtVtX--fOjSo ",
" <223r4DD  zz#bhxeee48wf;M:kxxB:VVVVVttjjc.jXo ",
" <22222DDDzzz#nM;rwew2wfvM;.:;;BXBVtB---jc.MXo ",
" <<<2w3DDzDzz##g;errewwfBM.j.;;X:VVVXt-A-cojS. ",
" ,<5222DzzDzz#nNxewww3wfBgj;;;;ttBtB;-tjjfoMXo ",
" <u<222DzzDzzn#N;eerw53f:M;j;-ttXtBBt--jjfmMX. ",
" ,<<<22Dz*zzzznNxwrw4=daafafafaaaaafaffffaacfO ",
" ,<u<2<Dz  znnaNMww333<avd::VB:::vB:B:V;VfCgo. ",
" <1uu<=vn+hvnhaNxw5ww22ZMggggggggggdggggMaNMjN ",
" 1<1<<snn*+nnllfN2r2322ZAdt;;;t;;tB;;;;j;fCjXC ",
" <11<O-vv&&:.hdfh2=22<2psXZZAAAZAAAAAAA--jqMpo ",
" q1u1XZvv++.hdlfNj=<525s>AZZ-AAAAAAAAjA--jXMSX ",
" 111,mhNC+Ovlfcahj=2<<2ZZqpsppAZAZZAAs-s-9q0q. ",
" qq11dNdhBxhfafaaj=<2<2ppsppspppZsAsA9A-99qy0. ",
" 1q,1:B;+++oddfaaMm<1<uppqsXpZppZZpZApA9A9>qq. ",
" >qy,:Bx+++oddfaaMj<uu<sqsXpXppXZppZspAsA90>>t ",
" >,,q:vB++oChhaaaNx1u<1qX>X>s>pp>pppsp9As9>>>. ",
" 0,qyoBx++.ohdaaagM111<q>Xppqppps>ssq-sp-sp0>t ",
" >0pq.Vh++;ChfafaMg<,11>>>p>sppp>sspsss9s90>p. ",
" 0>>p:xh++.oddlaagM,111q>q0qp>>>X>p>p>ps09s>p. ",
" 0900Bxx++o@dfaaagM1,,1>>>>>>>>s0p0s09099s000. ",
" 0009xNN+hV:afaaagNyq1,1q,qqq>>1>q0>>>s>09000; ",
" 9900Nh++VvvlaaaagM>,yy>q>,>>q0p0>>0>00s00090. ",
" 9009vxO+BoaaaaaagN0y,,,,,>qy>,>,0>0>000s9s00. ",
"                                               "};
