/* XPM */
static char * ComputerPC_xpm[] = {
"48 48 37 1",
" 	c None",
".	c #E79DEBADE79D",
"X	c #DF7DE38DDF7D",
"o	c #DF7DDB6CDF7D",
"O	c #D75CD34CD75C",
"+	c #CF3CCB2BCF3C",
"@	c #C71BCB2BC71B",
"#	c #BEFBBAEABEFB",
"$	c #861782078617",
"%	c #AEBAB2CAAEBA",
"&	c #618561856185",
"*	c #9E799A69A699",
"=	c #965892489658",
"-	c #596559655965",
";	c #000000000000",
":	c #2081208130C2",
">	c #30C220814103",
",	c #30C230C25144",
"<	c #30C220815144",
"1	c #410330C25144",
"2	c #208130C24103",
"3	c #410330C26185",
"4	c #30C241036185",
"5	c #410341034103",
"6	c #410341036185",
"7	c #410338E379E7",
"8	c #514441036185",
"9	c #514461856185",
"0	c #5144514471C6",
"q	c #618551448E38",
"w	c #30C230C26185",
"e	c #38E3FBEE30C2",
"r	c #F7DEF7DEEFBE",
"t	c #79E779E779E7",
"y	c #618579E79658",
"u	c #EFBEEBADEFBE",
"i	c #28A238E328A2",
"         ......XXXXooOOOOOO++@@@@######$$       ",
"         ...XXXoooOOOO++@@######%%%%%%%&&$$     ",
"         ..XXXXoooOOOO++@@#####%%%%%%%*&&&&$$   ",
"         .X+========================%%*&&&&---  ",
"         .X+;;;;;;;;;;;;;;;;;;;;;;;;*%*&&&&---  ",
"         .X@;;;;;;;;;;;;;;;;;;;;;;;;*%*&&&&---  ",
"         .X@;;;;;;;;;;;;;;;;;;;;;;;;*%*&&&&---  ",
"         .X@;;:>:>:>>>,<,1,<,<,>;;;;%%*&&&&---  ",
"         .o@;;>2>2<,,,34343,3,,,;;;;%%*&&&&---  ",
"         .o@;;:>,<,3536767636313;;;;*%*&&&&---  ",
"         .o#;;>2,,36778789867674;;;;*%*&&&&---  ",
"         .o#;;,<,367870707887763;;;;*%*&&&&---  ",
"         .O#;;<,347970qqq0798676;;;;*%*&&&&---  ",
"         .O#;;,118680qqq0q088867;;;;*%*&&&&---  ",
"         .O#;;,,368970q070798786;;;;*%*&&&&---  ",
"         .O#;;,11368870707087867;;;;*%*&&&&---  ",
"         .O#;;<,3477897989898676;;;;***&&&&--   ",
"         .O#;;,1,367688868686763;;;;***&&&&--   ",
"         .O#;;<,w436768677867634;;;;**=&&&&-    ",
"         .O#;;,<,1,3336367633353;;;;**=&&&&-    ",
"         .+#;;>2,,w,3,3434343,3,;;;;**=&&&&     ",
"         .+#;;;;;;;;;;;;;;;;;;;;;;;;**=&&&&     ",
"         .+@;;;;;;;;;;;;;;;;;;;;;;;;**=&&&&     ",
"         .@@;;;;;;;;;;;;;;;;;;;;;;;;**=&&&&     ",
"         .@@@@@###############%%%*****=&&&      ",
"         .++@@#########%%%%%%%%%*ee***=&&&      ",
"         %%%%%%%%%%%%%%%%%%%%%%%******=&&&      ",
"                oro##%*===========****=&&       ",
"             or o#=*ty&&&&&----------------yyyy-",
"          orruo#*=$yyyyy&&&&&&&---;-------yyyy--",
"        o ..oo%*=$yyyyyyyy&&&&&&&------yyyyy----",
"         #%%%%#@++@###===ttyy&-------yyyyy------",
"         #%%%%%%%%%%%%#@@@@@###%%%======--------",
"         #%;;;%%%%%%%%%%%%%%%%%#@@@@@##---------",
"         #%;ee%%%%%%%%%%%%%%%%%%%%%%%%%---------",
"         #%%%%%%%%%%%%%%%%%==$$$$$=%%%%---------",
"        r#%%%%%%%%%%%%%%%%%$$$----*$$$%---------",
"        ###=#%%%%%%%%%%%%%%%%@@@@@@===%---------",
"      **#@*=@*#@*##%%%%%%%%%%%%%%%%%%%%---------",
"    **OO#==#==#==#@*#@*#@*%%%%%%%%%%%%%-------  ",
"  **OOo#$*#$*#$*%#==#==#==t#@*##*#%%%%%-----    ",
"t*+OO%#$=@$=O$=o#$*#$*#$*#X#==#==#=t#*-i--      ",
"t***++.u....==##$=#$=#$%#o#$*#==#=t##--i        ",
" yyyt****++++ru.X...#%=#+%$%%$*%=$+%--i         ",
"      yyyyyt****++++rrruoO##%*%=*O%--i          ",
"             yyyyyt****++++u....o%t-i           ",
"                    yyyyyt***+++*t&i            ",
"                           yyyyyy&&             "};
