/* XPM */
static char * ProjectCenter_Debug_Tile_xpm[] = {
"48 48 54 1",
" 	c None",
".	c #410371C638E3",
"X	c #69A6924869A6",
"o	c #30C279E738E3",
"O	c #30C2820730C2",
"+	c #49244D3438E3",
"@	c #59656DB65965",
"#	c #28A2820730C2",
"$	c #30C2555530C2",
"%	c #9658A2899E79",
"&	c #000000000000",
"*	c #596551445965",
"=	c #082014510000",
"-	c #104014511040",
";	c #B6DA9A699E79",
":	c #AEBA7DF779E7",
">	c #79E76DB669A6",
",	c #596504100000",
"<	c #410310400000",
"1	c #38E324921040",
"2	c #082004100000",
"3	c #DF7DCB2BCF3C",
"4	c #A699A699B6DA",
"5	c #596518610820",
"6	c #69A624921861",
"7	c #71C62CB228A2",
"8	c #861724921040",
"9	c #28A208200000",
"0	c #208149241861",
"q	c #BEFBA289AEBA",
"w	c #9E7928A21861",
"e	c #9E7930C22081",
"r	c #965820811040",
"t	c #104049241040",
"y	c #186100000000",
"u	c #9E79410330C2",
"i	c #596514510820",
"p	c #208165952081",
"a	c #69A61C710820",
"s	c #79E720811040",
"d	c #2081492428A2",
"f	c #186151442081",
"g	c #A69955554924",
"h	c #79E710400000",
"j	c #38E308200000",
"k	c #A69920810820",
"l	c #082028A20820",
"z	c #186130C21861",
"x	c #10402CB21040",
"c	c #28A245141861",
"v	c #B6DAAAAABEFB",
"b	c #8E3818610820",
"n	c #8E388A289E79",
"m	c #59657DF738E3",
"                                            ....",
"                                           XoOO+",
"                                          @oO##o",
"                                         @$OO##o",
"                                       %@oO##O#o",
"                                 @&   X$oOO####o",
"                                 @*  X$OO####OOo",
"                         &&&==@* @* X$O######O#o",
"                    @@@@+&&&-$$+-&$@+oO#O#####Oo",
"               ;:>,<12*34@&&=--11=&&.oO#######Oo",
"            :>55678792&33*&&-1++$-2&20oOOO#X#O#o",
"          q+7wwewrr62&&&@=&&&&-1$-&&2$.$toO##X#o",
"         >5eeewwwer9y&&&@-*=&&&&&&&&&2t=toO#O##o",
"        +eeueeeeewi9y222:3*+&&&&&&&&2tttppOO#OOo",
"       +7uuuuuur,as7a5ii>:*=&&&&%33@2dfttppO#O#o",
"      +&9gggge,8eeewwwrr8hjy&&&&&%33=dftfpp##O#o",
"     +&&yg::75gueewkkkkkkr8j2&&&&333ldffft$oooot",
"    >529+::1::gguewwkkkkkkr8jy&&&&*&df00ddtddl=z",
"   :66y+:1:33:ggueewwkkkkkkr8j2&&&&2x0tl===2222z",
"   +eeug5;333:ggueewwkkkkkkkr892&2l=2222=lp+dxxz",
"  *+weu6g:33;*gggeewwkkkkkrrrr7y-cdttlz00poftzz>",
"  j7we87g:1&&2&<7uewrrrkrr,,hs7y1t0f00ffppftxz> ",
" ><8ww,ugg2&&&&2,ewwwkwrrrj9,872ld0ffttppttxz>  ",
"v968w,eeugy&&&&&awewrrrrrba,hsi&&xzfftpofxzx>   ",
"*968,6weeu<y&&&y5wwrrrrrrrb887y&&22tfp$ftxz>    ",
"1<78h78weee7jyyy6rr8sssrbkb8sj&-c=2l0ftlzz>     ",
"<6s,5s88rwww7777776aj9,sbbbs12&cdl&xdllxx>      ",
"<67,s8888888w8876<9y&yy,8b852&td0l2&x=lz>       ",
"<aa,hsss8888sr885y&&&&y<ss59&tdffx&&llx>        ",
"ja<a6hbbssss888s<y&&&&9,ss9&0fffdz&&ll>         ",
"+1j5ahhhhhsbss8s,y2&29<a7j&zdff0t=&&->          ",
"*j<5aaahhhhbsbbs5<99j,a19&zcff0t=-&&*           ",
"@&55iia5556aa6sssh555a12&z00f0l=l-=&$           ",
" 25,,5,5<<j9yy<hhbbss12=c0ff0l=l-$*$&           ",
" +j,,,,jy22&&2y6hbbsay=dff0tl=--$ n*1           ",
" >9,,,5y&&&&&&yahbb69=cf0ftl==-> n **           ",
"  9<,<iy&&&&&2y5hhh<&1dfdl==--                  ",
"  >9<<<y&&&&&y<hah5&&xd0l=--$                   ",
"   *<<<9y&&29i55a<2&&zt=---$                    ",
"   ;1<<,<<<<5555191&2c=l--@                     ",
"     9<<<ii555111cx&&---->                      ",
"     +=11111111ccd-&&--$                        ",
"   X$..cc1c111c00d2&&-$                         ",
"  X+.mooo..$00fdtl&l&*                          ",
"  +mmmOXOOOppp0ll=&-*                           ",
" +mmmmO###OO$plll=&*                            ",
"+mmm.m+OOOO+fllll$                              ",
"@@@+....+.+0xzxz>                               "};
