/* XPM */
static char *DataPhile[] = {
/* width height num_colors chars_per_pixel */
"    48    48       76            2",
/* colors */
".. c #ffffff",
".# c #aaaaaa",
".a c #000000",
".b c #bb8877",
".c c #aa8866",
".d c #bb8866",
".e c #aa9966",
".f c #eebb88",
".g c #aa7766",
".h c #998866",
".i c #545454",
".j c #ddaa77",
".k c #dd9988",
".l c #eeaa99",
".m c #ccaa77",
".n c #bb7766",
".o c #998855",
".p c #997755",
".q c #dd9977",
".r c #997766",
".s c #996666",
".t c #887755",
".u c #996655",
".v c #886655",
".w c #886644",
".x c #885555",
".y c #776644",
".z c #555555",
".A c #775555",
".B c #776655",
".C c #665544",
".D c #774444",
".E c #775544",
".F c #aa8855",
".G c #554433",
".H c #eebb99",
".I c #333322",
".J c #664444",
".K c #664433",
".L c #ffaa88",
".M c #885544",
".N c #7f7f7f",
".O c #444433",
".P c #553344",
".Q c #555533",
".R c #553333",
".S c #aa6655",
".T c #443333",
".U c #443322",
".V c #332222",
".W c #aa7755",
".X c #332233",
".Y c #554444",
".Z c #442222",
".0 c #665533",
".1 c None",
".2 c #442233",
".3 c #878787",
".4 c #e2d4d4",
".5 c #663333",
".6 c #baafba",
".7 c #bac6ba",
".8 c #ddddcc",
".9 c #9b7f62",
"#. c #eeccdd",
"## c #7f877f",
"#a c #9b7f71",
"#b c #988d76",
"#c c #ccaaaa",
"#d c #8d8276",
"#e c #bbbbaa",
"#f c #dddddd",
"#g c #8d7f62",
"#h c #8d8d76",
"#i c #8d7676",
"#j c #988276",
/* pixels */
".1.1.1.1.1.1.1.1.1.1.1.1.1.1.1.1.1.1.1.1.1.1.1.1.1.1.1.........#.a.1.1.1.1.1.1.1.1.1.1.1.1.1.1.1",
".1.1.1.1.1.1.1.1.1.1.1.1.1.1.1.1.1.1.1.1.1.1.1.........#.#.b.c.b.a.1.1.1.1.1.1.1.1.1.1.1.1.1.1.1",
".1.1.1.1.1.1.1.1.1.........a.1.1.1.1.1.........#.#.d.d.d.b.d.d.d.a.1...1.1.1.1.1.1.1.1.1.1.1.1.1",
".1.1.1.1.1.........#.#.b.c.a.1.........#.#.b.e.b.c.b.e.b.c.b.f.....g.h.i.1...a.1.1.1.1.1.1.1.1.1",
".1.1.1.1.1...d.d.d.d.d.d.d.a.#.#.d.d.d.d.d.d.d.d.d.d.d.f.......j.k.........#.a.1.1.1.1.1.1.1.1.1",
".1.1.1.1.....c.b.c.b.c.b.c.b.c.b.c.b.c.b.c.b.c.l.........m.........#.#.b.c.b.a.1.1.1.1.1.1.1.1.1",
".1.........#.n.c.d.c.n.c.d.c.n.........a.........k.........#.#.d.b.d.d.d.b.d.a.1...1.1.1.1.1.1.1",
".....#.g.c.g.c.b.c.g.c.........#.#.b.e.a.m.........#.#.b.c.b.e.b.c.b.e.b.f.....g.o.i.1...a.1.1.1",
"...p.g.p.g.p.g.p.g.p.g...d.d.d.d.d.d.d.a.#.#.d.d.d.d.d.d.d.d.d.d.d.f.......q.k.........#.a.1.1.1",
"...r.p.s.p.r.p.r.p.l.....c.b.c.b.c.b.c.b.c.b.c.b.c.b.c.b.c.l.........m.........#.#.b.c.b.a.1.1.1",
"...t.u.u.u.t.u.........#.n.c.n.c.d.c.n.c.d.........a.........k.........#.#.d.d.d.b.d.d.d.a.1...1",
"...v.v.v.v.v.....#.g.c.g.c.b.c.g.c.........#.#.b.c.a.m.........#.#.b.e.b.c.b.e.b.c.b.f.....g.h.i",
"...w.x.y.x.w...p.g.p.g.p.g.p.g.p.g...d.d.d.d.d.d.d.a.#.#.d.d.d.d.d.d.d.d.d.d.d.f.......j.k.q.x.i",
"...z.y.A.B.A...s.p.r.p.s.p.r.p.l.....c.b.c.b.c.b.c.b.c.b.c.b.c.b.c.b.c.l.........m.k.c.v.B.v.y.a",
"...C.D.E.D.C...u.u.t.u.u.u.........#.n.c.d.c.n.c.d.c.n.c.d.c.n.f.........k.F.g.g.u.w.x.w.x.y.z.a",
"...z.C.C.G.b...v.v.v.v.v.....#.g.c.g.c.b.c.g.c.g.c.g.c.H.........m.k.c.r.t.u.t.v.v.v.B.v.y.A.I.i",
"...E.J.K.J.d...y.x.w.x.y...p.g.p.g.p.g.p.g.p.g.p.L.......k.q.g.p.u.p.u.p.u.v.u.w.x.w.x.y.M.E.a.N",
"...z.O.P.Q.k...z.B.A.y.A...r.p.s.p.r.p.r.p.l.......k.m.g.p.g.p.r.p.s.t.s.t.u.v.v.B.v.y.A.y.A.a.N",
"...G.R.R.J.....E.D.C.D.E...t.u.u.u.t.u.......k.q.g.p.g.p.g.p.S.p.u.t.u.v.u.w.x.w.x.y.M.E.E.G.a.1",
"...R.O.T.U.....z.C.J.Q.b...v.v.v.v.v...k.t.s.p.r.h.g.h.g.p.r.p.u.t.v.t.v.v.v.B.v.y.A.y.E.C.R.a.#",
"...V.R.U.R.....C.J.K.J.d...w.x.y.x.w...p.n.c.g.F.g.W.g.p.S.p.u.p.u.v.u.w.x.w.x.y.M.E.E.E.D.I.a.1",
"...V.I.X.T.....z.G.Y.G.k...z.y.A.B.A...s.c.g.c.g.h.g.p.r.p.s.t.u.t.v.v.v.B.x.y.A.y.E.C.E.C.a.i.1",
"...G.Z.V.V.....R.R.G.J.....C.D.E.D.C...c.g.F.g.p.g.p.S.p.u.t.u.v.v.w.x.w.x.y.M.E.E.E.D.C.J.a.N.1",
"...Y.V.V.C.....R.O.T.T.....z.C.C.G.b...g.h.g.h.g.p.r.p.u.t.v.t.v.v.v.B.v.y.A.y.E.C.E.C.C.O.a.N.1",
"...G.V.V.D.....V.R.U.R.....E.J.K.J.d...F.g.W.g.p.S.p.u.p.u.v.u.w.x.w.x.y.M.E.E.E.D.E.D.0.Z.a.1.1",
"...Y.a.V.c.....V.I.Z.T.....z.O.P.Q.k...g.h.g.p.r.p.s.t.u.t.v.v.v.B.x.y.A.y.E.C.E.C.D.C.J.I.a.1.1",
"...z.a.V.b.....G.V.V.Z.....G.R.R.J...k.p.g.p.S.p.u.t.u.v.v.w.x.w.x.y.M.E.E.E.D.C.D.0.J.K.a.i.1.1",
"...J.a.V.c.....G.V.V.C.....R.O.T.U...m.g.p.r.p.u.t.v.t.v.v.v.B.v.y.A.y.E.C.E.C.C.C.J.0.J.a.i.1.1",
"...K.a.a.k.....G.Z.V.E.....V.R.U.R...k.p.S.p.u.t.u.v.u.w.x.w.x.y.M.E.E.E.D.E.D.0.J.K.J.G.a.N.1.1",
".1.J.a.a...c...P.a.V.c.....V.I.X.T...c.r.p.s.t.u.v.v.v.v.B.x.y.A.y.E.C.E.C.D.C.J.C.J.G.2.a.3.1.1",
".4.K.a.z...c...z.a.V.d.....G.Z.V.V...S.p.u.t.u.v.v.w.x.w.x.y.M.E.E.C.D.C.D.0.J.K.J.G.5.I.a.N.1.1",
".1.g.a.z...g...J.a.V.e.....Y.V.V.C...p.u.t.v.t.v.y.v.y.v.y.A.y.E.C.E.C.C.0.J.0.J.G.Y.G.Z.a.N.#.#",
".6.F.a.z...w...K.a.a.k.....G.V.V.D...u.t.u.v.u.w.x.w.x.y.M.E.E.E.D.0.D.0.J.K.J.G.5.G.R.a.a.N.N.#",
".7.g.a.#...v.8.J.a.a...g...Y.a.V.c...t.u.v.v.v.v.B.x.y.A.y.E.C.E.C.D.C.J.Q.J.G.Y.G.G.I.a.z.i.N.N",
".1.9.a.#...y#..K.a.z...c...z.a.V.b...u.v.v.w.x.w.x.y.M.E.E.C.D.C.D.0.J.K.J.G.5.G.Z.a.a.i.i##.N.N",
".1#a.a.#...A.8.g.a.z...c...J.a.V.c...t.v.y.v.y.v.y.A.y.E.C.E.C.C.0.J.Q.J.G.Y.I.a.a.i.i.i.i.N##.#",
".1#b.a...E.E#c.F.a.z...y...K.a.a.k...u.w.x.w.x.y.M.E.E.E.D.0.D.0.J.K.J.G.Z.a.a.i.i.i.i.N.N.N.N.#",
".1#d.a...E.E#e.g.a.#...x#f.J.a.a...c.v.v.B.x.y.A.y.E.C.E.C.D.C.J.Q.J.G.a.a.i.i.i.i.N.N.N.N.#.#.#",
".1.1.a...E.a.a#g.a.#...E#..K.a.z...c.x.w.x.y.M.E.E.C.D.C.D.0.J.K.J.a.a.i.i.i.i.N.N.N.N.#.#.#.#.1",
".1.1.a.a.a.i.i#a.a.#...A.8.g.a.z...g.y.x.y.A.y.E.C.E.C.C.0.J.Q.a.a.i.i.i.i.N.N.N.N.N.#.#.#.#.#.1",
".1.1.N.N.i.N.N#h.a...E.E#c.F.a.z...w.x.y.M.E.E.E.D.0.D.0.J.a.a.i.i.i.i.N.N.N.N.N.N.#.#.#.#.#.1.1",
".1.1.1.#.#.#.##i.a...C.A#e.g.a.#...v.y.A.y.E.C.D.C.J.C.a.a.i.i.i.i.N.N.N.N.N.N.#.#.#.#.#.#.1.1.1",
".1.1.1.1.1.1.1.#.a...D.a.a#g.a.#...y.M.E.E.C.D.C.J.a.a.i.i.N.N.N.N.N.N.N.N.#.#.#.#.1.1.1.1.1.1.1",
".1.1.1.1.1.1.1.1.a.a.a.i.i#a.a.#...A.y.E.C.E.C.a.a.i.i.i.N.N.N.N.N.#.N.#.#.#.#.#.#.1.1.1.1.1.1.1",
".1.1.1.1.1.1.1.1.N.N.N.N.N#j.a...E.E.E.E.D.a.a.i.i.i.i.N.N.N.N.#.#.#.#.#.#.#.#.1.1.1.1.1.1.1.1.1",
".1.1.1.1.1.1.1.1.1.#.#.#.##d.a...E.E.C.a.a.i.i.i.i.N.N.N.N.#.#.#.#.#.#.#.#.#.1.1.1.1.1.1.1.1.1.1",
".1.1.1.1.1.1.1.1.1.1.1.1.1.#.a...E.a.a.i.i.N.N.N.N.N.#.#.#.#.1.1.1.1.1.1.1.1.1.1.1.1.1.1.1.1.1.1",
".1.1.1.1.1.1.1.1.1.1.1.1.1.1.a.a.a.i.N.N.N.#.#.#.#.#.1.1.1.1.1.1.1.1.1.1.1.1.1.1.1.1.1.1.1.1.1.1"
};
