/* XPM */
static char *radio[] = {
/* width height num_colors chars_per_pixel */
"    48    48      122            2",
/* colors */
".. c #000000",
".# c #000700",
".a c None",
".b c #0f0700",
".c c #0f0f00",
".d c #0f0f0f",
".e c #100f00",
".f c #101710",
".g c #1f1700",
".h c #1f1710",
".i c #1f1f1f",
".j c #201700",
".k c #201f00",
".l c #201f1f",
".m c #202720",
".n c #2f1f00",
".o c #2f1f1f",
".p c #2f2720",
".q c #302700",
".r c #302f2f",
".s c #303730",
".t c #3f1710",
".u c #3f2700",
".v c #3f2f00",
".w c #3f2f2f",
".x c #400000",
".y c #400700",
".z c #401710",
".A c #402720",
".B c #402f00",
".C c #403730",
".D c #403f3f",
".E c #4f0000",
".F c #4f0700",
".G c #4f1710",
".H c #4f2f2f",
".I c #4f3700",
".J c #4f3730",
".K c #4f3f3f",
".L c #500000",
".M c #500700",
".N c #502720",
".O c #503700",
".P c #503f00",
".Q c #5f0000",
".R c #5f0700",
".S c #5f3f00",
".T c #5f3f3f",
".U c #5f4700",
".V c #600700",
".W c #600f0f",
".X c #603730",
".Y c #603f00",
".Z c #604700",
".0 c #6f0700",
".1 c #6f4700",
".2 c #6f4f00",
".3 c #700f0f",
".4 c #703730",
".5 c #704f00",
".6 c #705700",
".7 c #7f1710",
".8 c #7f1f1f",
".9 c #7f5700",
"#. c #801f1f",
"## c #802720",
"#a c #803730",
"#b c #803f3f",
"#c c #804f4f",
"#d c #805700",
"#e c #805f00",
"#f c #8f2720",
"#g c #8f2f2f",
"#h c #8f5f00",
"#i c #902f2f",
"#j c #903730",
"#k c #906700",
"#l c #906760",
"#m c #9f3730",
"#n c #9f3f3f",
"#o c #9f6700",
"#p c #9f6f00",
"#q c #a03f3f",
"#r c #a04740",
"#s c #a04f4f",
"#t c #a06f00",
"#u c #af4740",
"#v c #af4f4f",
"#w c #af5750",
"#x c #af7700",
"#y c #b04f4f",
"#z c #b05750",
"#A c #bf5750",
"#B c #bf6760",
"#C c #c05f5f",
"#D c #c06760",
"#E c #c07770",
"#F c #cf6760",
"#G c #cf6f6f",
"#H c #d06f6f",
"#I c #d07770",
"#J c #d09790",
"#K c #df7770",
"#L c #df7f7f",
"#M c #df8780",
"#N c #e07f7f",
"#O c #e08780",
"#P c #e08f8f",
"#Q c #e09790",
"#R c #e09f9f",
"#S c #e0a7a0",
"#T c #ef8780",
"#U c #ef8f8f",
"#V c #ef9790",
"#W c #efafaf",
"#X c #f08f8f",
"#Y c #f09790",
"#Z c #f09f9f",
"#0 c #f0a7a0",
"#1 c #f0afaf",
"#2 c #f0b7b0",
"#3 c #f0bfbf",
/* pixels */
".a.a.a.a.a.a.a.a.a.a.a.a.a.a.a.a.a.a.a.a.a.a.a.a.a.a.a.a.a.a.a.a.a.a.a.a.a.a.a.a.a.a.a.a.a.a.a.a",
".a.a.a.a.a.a.a.a.a.a.a.a.a.a.a.a.a.a.a.a.a.a.a.a.a.a.a.a.a.a.a.a.a.a.a.a.a.a.a.a.a.a.a.a.a.a.a.a",
".a.a.a.a.a.a.a.a.a.a.a.a.a.a.a.a.a.a.a.a.a.a.a.a.a.a.a.a.a.a.a.a.a.a.a.a.a.a.a.a.a.a.a.a.a.a.a.a",
".a.a.a.a.a.a.a.a.a.a.a.a.a.a.a.a.a.a.a.a.a.a.a.a.a.a.a.a.a.a.a.a.a.a.a.a.a.a.a.a.a.a.a.a.a.a.a.a",
".a.a.a.a.a#V#U#N#Z#Y#Y#Z#T#X#X#T#T#T#O#K#N#K#K#H#H#H#H#H#H#H#D#F#F#F#F#C#q#u#z#A#E#L.a.a.a.a.a.a",
".a.a.a#Z#U#T#X#X#X#Y#X#N#T#U#T#T#U#O#N#N#K#L#K#G#G#F#F#D#C#C#C#D#F#C#v#q#u#y#C#C#C#C#A#D#C#F.a.a",
".a#Q#U#X#Y#X#U#K#N#H#C#C#X#Z#Y#Y#Y#X#X#X#U#U#T#T#T#O#N#N#L#K#H#F#z#u#q#v#z#C#C#C#A#C#C#A#A#z#C.a",
"#Q#X#X#X#0#Y#X#N#C#u#m#q#C#F#C#C#C#D#C#D#D#F#F#G#H#I#T#T#U#X#U#A#u#r#z#A#A#A#C#C#C#C#z#y#r#m#m#A",
"#X#R#2#2#2#1#0#U#A#r#m#r#u.#.k.B.v.I.I.O.S.O.Z.2.1.5#u#A#A#I#T#N#H#F#C#C#A#C#C#A#C#z#u#n#i#j#i#n",
"#P#R#1#2#2#1#Z#T#A#r#m#u#r.#.g.Z.I.Z.2.B.P.Z.B.O.Z.I.I.Z.I.B#F#X#O#L#H#D#C#D#C#z#u#q#j#i#i#f###f",
"#O#R#1#1#1#1#0#U#A#u#j#u#q.e.k.1.9.5.2.2.5.9.1.2#d.U.Y#e.5.P#C#X#T#K#K#H#D#C#A#r#j#i#f#f###..8#.",
"#O#R#1#1#1#1#Z#X#A#q#m#u#q.b.b.u.2.O.I.S.B.q.2.Z.I.Z.5.Z.1#k#H#U#N#K#H#G#D#C#y#y#j.7#..8.7.7.7.3",
"#O#R#0#1#1#2#Z#N#A#r#m#v#n.#.n.2.1.S.Z.1.Z.S.6.Z.O.9.9.P.S.9#H#U#N#I#G#F#C#C#v#r#q#..7.3.3.7.7.7",
"#O#R#0#1#1#0#0#N#A#r#m#u#m.#.q.U.B.1.Z.u.S.Y.B.S.5.S.S.9.9#e#H#T#L#H#H#F#C#A#y#q#r#..V.3.3.3.7.3",
"#O#R#0#1#1#1#0#N#A#r#m#y#m.b.u.Z.Z.Z.Z.S.2.2.P.1.9.S.U#d.Z.I#H#U#K#H#G#F#F#A#z#q#q#..W.3.W.7.7.7",
"#O#Q#1#1#1#2#Z#N#C#r#m#y#i.#.g.B.1.B.B.P.B.q.Z.S.B.1.5.5.5#h#K#T#K#H#G#F#D#C#y#q#q.8.0.3.7.3.7.3",
"#O#R#1#1#1#1#Y#T#C#q#n#y#j.c.P.2.Z.U.Z.1.U.S.9.Z.B.9.Z.I.P.9#K#T#K#G#F#F#C#A#y#n#q#..0.3.3.7.7.W",
"#O#R#1#1#1#1#Y#T#C#r#q#y#i...P.S.q.2.1.B.1.Y.I.Z.2.Z.2#e#d#h#L#T#K#H#G#G#C#C#v#m#n.8.0.W.3.3.7.3",
"#O#Q#1#1#2#0#Z#U#C#r#q#y#i.k.5#e#e#e.2.2#h.2.O.5.9.O.S.9.S.O#L#T#I#H#G#F#C#A#y#m#m#..0.3.3.7.7.3",
"#O#R#1#2#1#1#Z#X#D#u#q#y#i.n.I.2#o.S.O#d.Z.P#e.9.O.9#k#d.9#k#T#T#I#H#F#F#C#A#v#m#m#..0.W.3.W.7.3",
"#O#R#1#1#2#1#Z#X#F#u#r#y##.n#k#d#h#e.9#h.5.Y#h.9.P#d.5.B.2#t#T#T#K#H#G#F#C#z#y#m#n.8.V.0.3.7.3.3",
"#O#R#1#2#1#1#Z#Y#F#u#u#v#i.I#t.9.1#h.2.P#e.2.I.5.5.6#e#d.9#p#T#T#I#H#G#F#C#A#v#m#m#..Q.3.3.3.7.W",
"#O#R#1#2#1#Z#Z#Y#G#v#u#u#K#U#T#K#I#I#F#C#D#A#e#t#k.Z.1.9.S.9#U#T#I#H#G#F#C#A#v#m#n#..V.0.W.7.3.3",
"#O#R#1#0.i.i#O#Y#F#y#u#v#N#Z#X#X#X#T#X#U#T#T#T#O#T#N#O#N#K#L#X#T#H#H#F#F#C#z#y#m#n#..V.0.3.3.3.3",
"#O#R#Z.J.f.h#b#Z#H#u#u#u#I#T#O#O#T#X#U#T#U#T#T#T#T#T#T#T#X#X#X#O#I#H#H#F#C#A#y#m#n#..L.R.W.3.3.W",
"#O#R#0.f.d.d.A#U#H#r#q#m.i.I.Z.Z.2.9#o#v#y#z#C#C#B#D#H#L#T#X#X#T#F#D#D#D#C#A#y#m#n#..M.V.0.W.3.3",
"#O#Q#0.f.d.#.t#O#K#u#n#j.i.9#k.9.1.Z.P.I.I.q.q.u.I.O.Z.2.9#G#X#O#C#u#u#z#C#z#y#m#n#..L.V.0.0.3.0",
"#P#R#2#P#a.t.G#U#K#r#m#i.i.Z#d#e#e#h#h#e.9.9.9.6.2.1.Z.S.O#A#X#N#c.r.w#n#v#A#y#n#q#..L.R.V.0.0.W",
"#P#Q#1#0#Z#J#V#O#O#u#n#g.i.n.k.j.u.v.u.B.B.I.O.Y.2.9.6.9.5#G#Y#H.o.d.d.r#j#A#z#q#n#..L.R.V.V.0.3",
"#O#R#2#1#Z#V#P#O#T#u#j#g.i#k#d.9.5.Z.S.I.B.n.n.n.q.n.n.v.n#C#Y#K.r.d.f.m###u#A#q#q##.L.R.Q.V.0.0",
"#O#R#1#1#S#V#V#P#O#y#j#f.i#k#h#k#k#h#k#h#e#h.9.9.9.5.1.S.B#C#Y#I#l.w.m.N.8#q#z#q#q##.L.M.M.V.V.V",
"#N#R#2#W.r.p#E#M#T#y#j#g.n#p#h#k#h#h#e#h#e#h#h#e#h#e#h#e.9#K#X#K#D#v#g#g#g#y#A#r#q#..L.L.M.R.R.V",
"#O#R#2.D.#.#.X#O#O#z#n#r.I#x#t#k#k#k#h#h#h#h#e#e#d#d.9.9.5#N#X#L#L#K#K#I#F#C#z#r#q##.L.F.F.R.Q.V",
"#N#R#3.C.d.d.t#D#T#H#C#Z#Z#X#T#N#K#F#A#k#k#d.9#d#e#e#d#d#e#N#Y#K#H#F#C#H#D#C#A#u#u##.E.F.M.M.R.Q",
"#N#R#1#O.4.t.z#G#O#Z#Z#0#0#0#0#0#0#0#Z#0#Z#X#O#K#I#H#G#F#D#X#X#L#F#w#s#a#r#C#C#u#r#f.L.F.E.F.M.R",
"#H#X#T#T#N#C#C#H#N#Z#Y#0#0#Z#Z#0#1#0#0#Y#Z#0#0#Z#0#0#0#1#Z#Z#U#T#H.i.i.p#a#r#A#v#u#f.F.F.E.F.F.L",
"#z#r#u#q#C#G#G#G#O#T#T#X#Y#X#X#X#X#T#Y#Z#Z#Y#Y#Y#0#0#0#0#Z#U#T#T#y.i.h.l.H#j#C#y#u#g.E.F.M.F.F.F",
".a#r#i#j#g#f#m#q#A#C#H#G#H#G#K#K#L#T#T#T#T#T#T#T#T#N#O#T#N#L#H#K#G.s.m.i.J#j#C#y#v#f.F.E.F.y.E.F",
".a.a.a.a.a.a#D#A#r#r#n#j#n#j#n#n#u#A#F#G#F#H#G#G#F#H#D#F#H#H#G#H#H#B.T.K###v#C#y#u##.F.F.L.F.L.a",
".a.a.a.a.a.a.a.a.a.a.a.a#F#A#r#n#n#a#g#i#m#n#n#u#y#A#A#y#z#C#D#F#F#G#C#A#A#C#A#v#u#f.E.F.E.L.a.a",
".a.a.a.a.a.a.a.a.a.a.a.a.a.a.a.a.a.a#D#z#n#q#n#m#j#j#i#j#i#i#q#q#n#q#n#n#n#n#n#i#i.7.x.F.L.a.a.a",
".a.a.a.a.a.a.a.a.a.a.a.a.a.a.a.a.a.a.a.a.a.a.a.a.a#I#F#A#r#n#g#####i#i#i#i#i#f#j#g.3.L.x.a.a.a.a",
".a.a.a.a.a.a.a.a.a.a.a.a.a.a.a.a.a.a.a.a.a.a.a.a.a.a.a.a.a.a.a.a#O#F#r#j#g#g.W.Q.L.V.Q.a.a.a.a.a",
".a.a.a.a.a.a.a.a.a.a.a.a.a.a.a.a.a.a.a.a.a.a.a.a.a.a.a.a.a.a.a.a.a.a.a.a.a.a.a.a.a.a.a.a.a.a.a.a",
".a.a.a.a.a.a.a.a.a.a.a.a.a.a.a.a.a.a.a.a.a.a.a.a.a.a.a.a.a.a.a.a.a.a.a.a.a.a.a.a.a.a.a.a.a.a.a.a",
".a.a.a.a.a.a.a.a.a.a.a.a.a.a.a.a.a.a.a.a.a.a.a.a.a.a.a.a.a.a.a.a.a.a.a.a.a.a.a.a.a.a.a.a.a.a.a.a",
".a.a.a.a.a.a.a.a.a.a.a.a.a.a.a.a.a.a.a.a.a.a.a.a.a.a.a.a.a.a.a.a.a.a.a.a.a.a.a.a.a.a.a.a.a.a.a.a",
".a.a.a.a.a.a.a.a.a.a.a.a.a.a.a.a.a.a.a.a.a.a.a.a.a.a.a.a.a.a.a.a.a.a.a.a.a.a.a.a.a.a.a.a.a.a.a.a"
};
