/* XPM */
/* By R-o-Z <=> roz@dot-net.net */
static char * ShutDown_xpm[] = {
"48 48 31 1",
"5	c None",
" 	c #000000000000",
".	c #71C671C671C6",
"X	c #71C675D671C6",
"o	c #79E779E779E7",
"O	c #79E77DF779E7",
"+	c #861782078617",
"@	c #861786178617",
"#	c #8E388A288E38",
"$	c #8E388E388E38",
"%	c #965892489658",
"&	c #965896589658",
"*	c #9E799A699E79",
"=	c #9E799E799E79",
"-	c #FFFFFFFFFFFF",
";	c #86177DF779E7",
":	c #B6DAAAAAAEBA",
">	c #A699A289A699",
",	c #D75CDB6CDF7D",
"<	c #A699A699A699",
"1	c #AEBAAAAAAEBA",
"2	c #AEBAAEBAAEBA",
"3	c #B6DAB2CAB6DA",
"4	c #B6DAB6DAB6DA",
"6	c #BEFBBAEABEFB",
"7	c #BEFBBEFBBEFB",
"8	c #C71BC30BC71B",
"9	c #C71BC71BC71B",
"0	c #CF3CCB2BCF3C",
"q	c #CF3CCF3CCF3C",
"w	c #D75CD34CD75C",
"                                                ",
" ............XXXoooOOOO+++@@@####$$$%%%&&&****=-",
" ...........XXXoooOOOO+++@@@####$$$%%%&&&****==-",
" ...   ....XXXoooOOOO+++@@@####$$$%%%&&&&  ;-==-",
" ..     ..XXXoooOOOO+++@@@####$$$%%%&&&&  ;:-=>-",
" ..      XXXoooOOOO+++@@@####$$$%%%&&&&  ;:,-=>-",
" ..       XoooOOOO+++@@@####$$$%%%&&&&  ;:,-->>-",
" ...       ooOOOO+++@@@####$$$%%%&&&&  ;:,-->><-",
" ....       OOOO+++@@@####$$$%%%&&&&  ;:,-->><<-",
" ....X       OO+++@@@####$$$%%%&&&*  ;:,-->><<<-",
" ...XXX       +++@@@####$$$%%%&&&*  ;:,-->><<<<-",
" ..XXXoo       +@@@####$$$%%%&&&&  ;:,-->><<<<1-",
" .XXXoooO       @@####$$$%%%&&&&  ;:,-->><<<<11-",
" XXXoooOOO       ####$$$%%%&&&&  ;:,-->><<<<111-",
" XXoooOOOO+       ##$$$%%%&&&&  ;:,-->><<<<1112-",
" XoooOOOO+++       $$$%%%&&&&  ;:,-->><<<<11122-",
" oooOOOO+++@@       $%%%&&&&  ;:,-->><<<<111222-",
" ooOOOO+++@@@#       %%&&&*  ;:,-->><<<<1112223-",
" oOOOO+++@@@###       &&&*  ;:,-->><<<<11122233-",
" OOOO+++@@@####$       &&  ;:,-->><<<<111222333-",
" OOO+++@@@####$$$         ;:,-->><<<<1112223333-",
" OO+++@@@####$$$%%       ;:,-->><<<<11122233334-",
" O+++@@@####$$$%%%&     ;:,-->><<<<111222333344-",
" +++@@@####$$$%%%&&&   55,-->><<<<1112223333444-",
" ++@@@####$$$%%%&&&&  ;55---><<<<11122233334446-",
" +@@@####$$$%%%&&&*  ;:,-----<<<111222333344466-",
" @@@####$$$%%%&&&*  ;:,-------<1112223333444666-",
" @@####$$$%%%&&&&  ;:,---------1122233334446667-",
" @####$$$%%%&&&&  ;:,-->>-------222333344466677-",
" ####$$$%%%&&&&  ;:,-->><<-------23333444666777-",
" ###$$$%%%&&&&  ;:,-->><<<<-------3334446667777-",
" ##$$$%%%&&&&  ;:,-->><<<<11-------344466677778-",
" #$$$%%%&&&&  ;:,-->><<<<1112-------44666777788-",
" $$$%%%&&&*  ;:,-->><<<<111222-------6667777888-",
" $$%%%&&&*  ;:,-->><<<<11122233-------677778889-",
" $%%%&&&&  ;:,-->><<<<1112223333-------77788899-",
" %%%&&&&  ;:,-->><<<<111222333344-------7888999-",
" %%&&&&  ;:,-->><<<<11122233334446-------889990-",
" %&&&&  ;:,-->><<<<1112223333444666-------99900-",
" &&&&  ;:,-->><<<<111222333344466677-------9000-",
" &&&  ;:,-->><<<<11122233334446667777-------00q-",
" &*  ;:,-->><<<<1112223333444666777788-------qq-",
" ** ;:,-->><<<<111222333344466677778889------qq-",
" **;:,-->><<<<11122233334446667777888999-----qq-",
" **---->><<<<1112223333444666777788899900----ww-",
" *====>><<<<11122233334446667777888999000qqqqww-",
" ===>>><<<<11122233334446667777888999000qqqqwww-",
"------------------------------------------------"};
