/* XPM */
/* By  Neptho T. */
static char *[] = {
/* width height num_colors chars_per_pixel */
"    64    64       36            1",
/* colors */
". c #000000",
"# c #061375",
"a c #05094f",
"b c #020325",
"c c #061f88",
"d c #01010f",
"e c #060f63",
"f c #061a7d",
"g c #050c59",
"h c #000005",
"i c #030539",
"j c #022392",
"k c #010211",
"l c #060a59",
"m c #000007",
"n c #05228d",
"o c #06187d",
"p c #05074f",
"q c #03042f",
"r c #02021d",
"s c #071675",
"t c #02021d",
"u c #022496",
"v c #01010f",
"w c #000005",
"x c #040539",
"y c #000102",
"z c #061b83",
"A c #01010a",
"B c #060a63",
"C c #060e6d",
"D c #00010a",
"E c #040643",
"F c #000003",
"G c #010115",
"H c #000102",
/* pixels */
"C#ofnjuunfsfccnjoabGAmDrippiAyAbixqbGwwdtGmHHyFHHwdbqiiiEpge#s##",
"##fnjjujcs#fcjjn#xrdmmAbEBBqmhvbiqbGmFmtrGmH.H..FAGqiiiEpBe#soo#",
"#fcjjjnnf##fnjjzeqkAmmkqpCBbwwvbqbGdwFdrGGAyH..FmkbqiiEpplC#os##",
"#fnjujczo#ocjun#abdAmDGxgCaGywGbqbdmywGbtGAwFHFmdrqqxEapllC#so##",
"ocnjjcoo##snjjfexGADAdbpeeEdywdrrGAyFAGtrGAmyhmAGbiiiEEpllC##CCC",
"ocnjnf####fnujsBiGmmAGiB#giAFwAGGdwHFdrrrGdAmmAvrbqixEEppCCCllCC",
"fnjnf#lC##zjunCEbdmmkrEe#pbmHwDkdmFHwdrrrrGddAdGrbqixEppBllBple#",
"cnnc#lpe#ocujfgirAmAGqaeeabmHwmAAwHFDGbrbrGGGkGrbqqqiEapppppppg#",
"cncsCppC#fnun#airAAGbiB#eEbmHFwmwH.yDkttrbGtGGrbqqqiiapaEEaapBCo",
"ccf#BppeocjjfeEqGddrqEe#girDHHHyyHHwAktGrrrrrrbbbqqiiEEEixEEpBsf",
"cz#gppB#znunoBibGddbiB##BirmH.HHH.HwDdGtrrrrrrbbbbqiixiqqqiEpB#f",
"cslpEaB#cjjceaqbrvGbEg#CEqrmH.....FmmdGGrrrrtrbbbqqqqqqbbbqEagof",
"fCpEEEgsnjjfgEqbtGrqae#gEqrAFH....FwmDdGGttttGrbbbqqbbbtrbqiaesf",
"#gaEEEgfnjn#pxbbrrbxBC#lEqrdwFFH.HHFwmADkGGrGttrbrrbrtGGkrbiaCso",
"epEEEagfjjc#EiqbbrqEBCCBEqrdDmhFHHH.HymmDGGGGGGGrttGGkdddGqxpC##",
"pExiEpecnnfeEqbqqbqElCBpEqbGAmmFH.H..HywmdkkdGGGGGkdAAAAAGbxBC##",
"aiqiEaCcncsBiqqqqqiplBppEiqrdmwH......HywAdddddkdAAmwwwmmdbEpCCl",
"EiqiEB#ccf#pxqqiExEpBBpppxqbGmFH.HHHH...ymAAdddAAwwFyFywmdbEpBlp",
"iqqiEgsfcoeExiqiEEEpBlppaEqbkDy.HFFFwyH.HwmDDDAmwFFHH.HFmGqEpppa",
"iqqiEeoffogExiiEEEEappppaEibdmFHFwmmDmyH.ymmDAmwwH.....FwkqEappE",
"iqqxaCofo#gpxEEEaEEpppppaxibdwHymDAddAwH.FwmmmmyH.....HHmGqEaaEx",
"qqqEB#oo#ClaEEEaaEEaaaaaEiqbAwHwAdGGkdmyHFwwwwyH..HHH..HmGiEEEiq",
"qqiEg##oCCBaEEaaaEEEEEEEEiqrAyHmGttGtdDhHFFFFyH..HFFyH.FmGqEEEqq",
"qqxEB###CCBpEpEpaExxxqqixqqrDHFdGrbbrGAhHHHFFHH.HFwwwyHHmGqxxxqq",
"qiiplC##CCeaapaaEqqqqbbqqqbkhFmGrbbbrGAhHHH.HH..Fwmmmy.HmGqixiqq",
"iixpplCCCCCBppaEEqtrrGrqqqrdywdrqqqqrGAwH......HhmmmwF.Hmrbqqiqq",
"iiEapllCCCClpEEEibGGddGrqbrmHmGqqiqqbGAwH.....HFwmAmwF.FArbqqiiq",
"iEEppplllCCBppExqGdADmdGbrGwhdrixxiqrGDy......HFwmmmmF.HmGbbqiqi",
"ExEpppppBBBBppxibdmwwwAGbrdymGbiEEqqrdmy......HFmmmmwyHHmktbqqii",
"EEEEappplplppEiqGmFHHFAGbGDFArqEEEqbtdw.......HFwmmwwF..wdrbbqix",
"iEEEEEpppppppEqtdFH..FDGrGwwGbiiEiqbkDyH.......Fwmmwwy.HhdGrbqix",
"EEEExiapppppEibGmH...HAGrdhmrqiEExqGdmF........Fwmmmmy..yDGtbqqi",
"iiiqqiipppppEqGAwHH..FdrGDHmrqiEEqbGAwyH.......HhDmmAwH.Hmktbbqq",
"xqqqqbqEpapEibAmyFFH.wdGGwydbqiEiqrdDwH.........FmmmDmFH.hArbbqq",
"qbtbrbbEEapEqGmyHyyHHmGrdFhkbqqiqbGAmyH.........HmDDADwFHFDGbqqq",
"qbtGGrbiaaEEbdhHHwhHyArrmFmGbqqqbrdmwHHH........HwDDDDmwHHmkrbbq",
"brkddGriEaEiGmH.FmyHwGbGwFmGbbbrGdDyFHHFFHH.....HmAdkdAmyHwdrbbq",
"rkdDDdriEppqdyHHFwyHmrbvyFAGtrrGdAwFHHFwwyFH....HmDkGddDwHwdGbbq",
"rdmmDDGiEpEbAFHFwmyFdrrAFwDGGGddDmFFFFFwmmhy....HmdkGGGdmyFdtbqb",
"GAwwDdrEapErwHFFFhHmGbGmHwAddAmmwwFFwwwmADmwHHHHFDkGGGtGAyFdrbbr",
"AwyFmdbEaaqAyHHHHHFGbbGmHHwmmwFyyHHFwmAdddAmFH.HwdGrbbrkDFhdrbbr",
"mFHymdqEppqDH.FH.HmrqqrmHHFyyHHHH.HFwDdGrGGAwH..wkrbqqrGDFwGbbrG",
"wHHymGiEpirw.HH.HwvqibGmH..HHHH...HhDdGbbbGAhH.HmGbqiqbGAymGbbGd",
"y.HyAbEpaqGwHH.HwAriibGmH.HHFwy..HFwdGbqqbrdhH.FArbqxibGDHmrbtdA",
"H..wdqEpxbdH...wdrqxqbGAwymmDmyH.HHmGbqiiqbdwH.hkbqixibdmFArbGDm",
"H.HmGippirAF..HArqEEqbGDADdddDhH..HArqiEEibdF.HwGqiiEibvwwGbbdwF",
"..FdbEppqGDH.HmGqEEiqbGGdGtGdmyH..FdbiEaaxbAF..mrqxEEibdymrqrAFH",
"HHmGipBEbGAFFwdbEaxqbrrrrbrvmyH..HmGqEappirAH.HAbiEEEirmFAbqGmFH",
"ywdqaBlxbGdDDGbEppiqbbbqqbbGAwFHHFAbxEppEiGw..FdbiEEEqGwwGqbdwFH",
"wAriBCBirGddkbiBlaEiiqqiiqbrdmwwHwdbEpppEqdyHHwGqiEEibdymbqbdwHH",
"DkqaeCBqrGGGriaCBpEiiiiEiqbGdAmwFmGippppEbAFHHmrqEEEirmFvbqrAFHF",
"driB#CaqrrbbqageBpEixEEExbGGADmwFDbxpBppxrwFHHDbiEEiqGhwGqqGmwFw",
"rqa##gEqrbqxaC#CppEEEEpxqrGdddAwFvqEBBlEqdyhyhdbiEEirAyAbqbGmwwm",
"bEe##gEqbqEaessCBpppppEibGAdkGGwwGialCpEbAFwywGbiExqGmhGiqbdAmmA",
"iB#o#BEqqEaBsf#lBpppppibrkdGGtGwDbxpBlpxGwywFmGqiEirdwmbiibkAmdG",
"ae##lpExipe#fslpppBglEqrGddrrbdwdqEplBpqdymmFmGqqiqGmFdqiqrGdAGb",
"e#oCBpEEa#fcf#elBBC#BirGkDkrbbAwGiEpBpxrmhmmFDGbqqrAymrixqrkdGbi",
"#oo#BpppCfnnco#CCC##pqGdDDGqqbAmrippppqGwmDwFAGbqbGmFAqiiqrGGbia",
"ofsCBllesnnnco#CC#sexbdDDdbiirwDqEappEbAwAdwFdGtbGAFwGixxqrrbqEg",
"fooCle##cnnnzs###f#pqGADdGqiiGwdqEapaiGwwddyhdGGGdwHAbiiiqqbqEg#",
"fo#CC#fcnjnczs#ofoeEbdAmdbiEiAwGiEapEqdymkdyhDGGdmHwGqxiiiqqEB#o",
"oo#C#ocjjjczfofzcspiGAmDGqEEqmwriEpEirmFdGAFFDddAyHmrixEEiixaeof",
"oo##ocjjjnzfffzcc#EbdmmAriEErwmbiEEiqkwmGGDFFmAmwHhdbixxEEEaB#of",
"####fnjujcfffzcncCirdmmdbxpErwmbEEEibAFDGGmHFmmwFHwGqiiEEEapeooo"
};
