/* XPM */
static char *PixelSlate[] = {
/* width height num_colors chars_per_pixel */
"    48    48      236            2",
/* colors */
".. c #000000",
".# c #353534",
".a c #343333",
".b c #afafaf",
".c c #424344",
".d c #414343",
".e c #302f2f",
".f c #2c2b2b",
".g c #6f7070",
".h c #252524",
".i c #a0a1a0",
".j c #9f9f9f",
".k c #686a69",
".l c #313333",
".m c #616262",
".n c #51504f",
".o c #959595",
".p c #5f6060",
".q c #5e5e5f",
".r c #151514",
".s c #8f8f8f",
".t c #595a5a",
".u c #494847",
".v c #484846",
".w c #c3c2c2",
".x c #0e0d0d",
".y c #515252",
".z c #0a0909",
".A c #818181",
".B c #4a4a4b",
".C c #030302",
".D c #7e7f7e",
".E c #7d7d7d",
".F c #464647",
".G c #31302f",
".H c #767776",
".I c #757575",
".J c #3f4040",
".K c #090b0b",
".L c #717171",
".M c #6f6f6f",
".N c #383839",
".O c #6d6d6d",
".P c #343435",
".Q c #696969",
".R c #313232",
".S c #e2e3e3",
".T c #666766",
".U c #303031",
".V c #2e302f",
".W c #5f5f5f",
".X c #5c5b5c",
".Y c #565756",
".Z c #555555",
".0 c #545354",
".1 c #4e4f4e",
".2 c #4e4d4e",
".3 c #4d4d4d",
".4 c #4b4b4b",
".5 c #4a4b4a",
".6 c #4a494a",
".7 c #494949",
".8 c #474747",
".9 c #464746",
"#. c #8a8a8c",
"## c #444344",
"#a c #434343",
"#b c #424342",
"#c c #414141",
"#d c #3f3f3f",
"#e c #2e2d2b",
"#f c #3d3d3d",
"#g c #373737",
"#h c #353735",
"#i c #353535",
"#j c #343534",
"#k c #6a6869",
"#l c #343334",
"#m c #333333",
"#n c #303130",
"#o c #656464",
"#p c #2f2f2f",
"#q c #aaabab",
"#r c #2d2d2d",
"#s c #2c2d2c",
"#t c #2c2b2c",
"#u c #2b2b2b",
"#v c #2b292b",
"#w c #a4a5a5",
"#x c #272727",
"#y c #232323",
"#z c #212121",
"#A c #171717",
"#B c #c8c8c8",
"#C c #4c4c4b",
"#D c #4c4a4b",
"#E c #494848",
"#F c #131313",
"#G c #474646",
"#H c #454444",
"#I c #0e0f0e",
"#J c #0b0b0b",
"#K c #f2f1f1",
"#L c #3d3c3c",
"#M c #726f70",
"#N c #3a3a39",
"#O c #383837",
"#P c #373636",
"#Q c #353434",
"#R c #343433",
"#S c #434445",
"#T c #30302f",
"#U c None",
"#V c #2d2e2c",
"#W c #2c2c2b",
"#X c #3a3a3c",
"#Y c #d8d7d7",
"#Z c #989898",
"#0 c #626163",
"#1 c #1a1a19",
"#2 c #5d5d5e",
"#3 c #171616",
"#4 c #8e8e8e",
"#5 c #575758",
"#6 c #111010",
"#7 c #8c8c8c",
"#8 c #8b8a8b",
"#9 c #8a8a8a",
"a. c #545555",
"a# c #424140",
"aa c #0c0c0b",
"ab c #858685",
"ac c #858485",
"ad c #4f4f50",
"ae c #4e4f4f",
"af c #4c4d4d",
"ag c #808080",
"ah c #49494a",
"ai c #7c7c7c",
"aj c #7a7a7a",
"ak c #414342",
"al c #747474",
"am c #727272",
"an c #3b3b3c",
"ao c #707070",
"ap c #6e6e6e",
"aq c #383939",
"ar c #6a6a6a",
"as c #333334",
"at c #666666",
"au c #303131",
"av c #606060",
"aw c #29292a",
"ax c #272928",
"ay c #272728",
"az c #5c5c5c",
"aA c #5a5a5a",
"aB c #585858",
"aC c #565656",
"aD c #545454",
"aE c #525252",
"aF c #1c1d1d",
"aG c #505050",
"aH c #1a1b1b",
"aI c #ffffff",
"aJ c #3d3c3a",
"aK c #807f7f",
"aL c #4a4a4a",
"aM c #494a49",
"aN c #474847",
"aO c #464646",
"aP c #454645",
"aQ c #444444",
"aR c #797978",
"aS c #797778",
"aT c #767575",
"aU c #404040",
"aV c #3e3e3e",
"aW c #efefef",
"aX c #3d3c3d",
"aY c #060707",
"aZ c #3a3c3a",
"a0 c #393a39",
"a1 c #383a38",
"a2 c #393839",
"a3 c #383838",
"a4 c #6d6d6c",
"a5 c #363636",
"a6 c #6b6b6a",
"a7 c #343434",
"a8 c #79797b",
"a9 c #333233",
"b. c #323232",
"b# c #313231",
"ba c #313031",
"bb c #303030",
"bc c #2e2e2e",
"bd c #dfdfdf",
"be c #636362",
"bf c #2c2c2c",
"bg c #2a2a2a",
"bh c #3b3a3e",
"bi c #282828",
"bj c #272827",
"bk c #262626",
"bl c #252425",
"bm c #202020",
"bn c #9b9c9c",
"bo c #1e1e1e",
"bp c #cfcfcf",
"bq c #525151",
"br c #1b1a1b",
"bs c #4f4f4e",
"bt c #919292",
"bu c #131413",
"bv c #474746",
"bw c #464545",
"bx c #101010",
"by c #454544",
"bz c #bfbfbf",
"bA c #878888",
"bB c #414140",
"bC c #413f40",
"bD c #403f3f",
"bE c #bbbbbb",
"bF c #3f3f3e",
"bG c #838484",
"bH c #3d3d3c",
"bI c #818282",
"bJ c #4b4b4d",
"bK c #b6b5b6",
"bL c #393938",
"bM c #373736",
"bN c #b2b3b2",
"bO c #373536",
"bP c #363535",
/* pixels */
"#U#U#U#U#U#U#U#U#U#U#U#U#U#U#U#U#U#U#U#U#U#U#U#U#U#U#U#U#U#U#U#U#U#U#U#U#U#U#U#U#U#U#U#U#U#U#U#U",
"#U#U#U#U#U#U#U#U#U#U#U#U#U#U#U#U#U#U#U#U#U#U#U#U#U#U#U#U#U#U#U#U#U#U#U#U.oagav.Z#u#9#U#U#U#U#U#U",
"#U#U#U#U#U#U#U#U#U#U#U#U#U#U#U#U#U#U#U#U#U#U#U#U#U#U#U#U#U#Uagar.Z#i#u..bmaU.m.3#U#u.o#U#U#U#U#U",
"#U#U#U#U#U#U#U#U#U#U#U#U#U#U#U#U#U#U#U#U#U#U#U#9ag.ZaL#u#J..#f.9.9bGbzaIaWbd#7arbIaA#u.I#U#U#U#U",
"#U#U#U#U#U#U#U#U#U#U#U#U#U#U#U#U.jagav.Z#ubm..#y#yaR.sbz.S#U#7#.aga8bt#kaBbM.h#3.zbx..aL#U#U#U#U",
"#U#U#U#U#U#U#U#U#U#Uag.I.ZaU#u..bxaUaoaRabbGbG#4.HbN#Z#Z#kar#5#Pbgbm.s.bbdaU......bb..#u#U#U#U#U",
"#U#U#U#Uag.ZaL#u.r..aU#E.9aB.kam#4.j#wbA#7.qaJ#G#PaS#KbdaWbm......bmaWaIbd........bpaUbm#U#U#U#U",
"#U#U#U#9..#J.I.b.j.b#wab.tahbqbCbc#0.w#Ybz........bdaIaIag.........jaIaIao.......saIaG..#U#U#U#U",
"#U#U#U.jbb...p.k#UbK#BbE#y....bx...jaIaIbb......avaIaIaWbx......aUaIaIaWbx....bmaIaIag...j#U#U#U",
"#U#U#U#YbzbmavaIaIaIaIaU....bx..aUaIaIag......bxaWaIaIav........bzaIaI.j......agbzbzav..ag#U#U#U",
"#U#U#U#Bav..aUaIaIaI.b........bxbdaIbp........agaIaIbp........aGbz.bagbx........#u#uaLar#U#U#U#U",
"#U#U#Ubzag#JbxaIaIaWbm....bx...saWaIbb......bm.jbp.saU........#J#u#i.Z.Zagag#U#U#U#U#U#U#U#U#U#U",
"#U#U#U.b.b#u..aIaIag....bx..#ubzbzav..........bm#uaU.Zarag.o#U#U#U#U#U#U#U#U#U#U#U#U#U#U#U#U#U#U",
"#U#U#U#UbE.....s.j....bmbx..#J#u#u.Z.Zagag.j#U#U#U#U#U#U#U#U#U#U#U#U#U#U#U#U#U#U#U#U#U#U#U#U#U#U",
"#U#U#U#U.sbmbm..........#JaL.Z.Iag.j#U#U#U#U#U#U#U#U#U#U#U#U#U#U#U#U#U#U#U#U#U#U#U#U#U#U#U#U#U#U",
"#U#U#U#U.wbbbmbxbx..aZ.y.c#aa5bcbbawaH.J#u.Z.Zagag#U#U#U#U#U#U#U#U#U#U#U#U#U#U#U#U#U#U#U#U#U#U#U",
"#U#U#U.j#BaFaJaUagbm#yaxa2aUaA.q#o.kamaTbIaSa4.pbq#ca1#a#i.Zavag#9#U#U#U#U#U#U#U#U#U#U#U#U#U#U#U",
"#U#U#U#9bd#1bLagaIao........aobz.o.Ybbba.7aD.L.HbG#9bn#qbE.ibnajby...r#uaU.Zarag.j#U#U#U#U#U#U#U",
"#U#U#U.baGaHa9bzaIaWbx......aGaIaIbz........aobKbnambMbwaD.ObA.o.ibKbK.ibn.I.kaV.V..bmaL#U#U#U#U",
"#U#U#U#UaUaUbmbdaIaIag........aWaIaIaU......bmaIaIaIbm......bm.b.jac.EaCav#7bnbKbz.SbNbm.I#U#U#U",
"#U#U#U#U.Z....bmaUaoagbx.......saIaIbz.........baIaI.j........bpaIaIaIbb......#Z.iacab#F#i#U#U#U",
"#U#U#U#Ua#.z#IbkaFaH#F#I.K....bxag.sbzbb......aUaIaIaWbx......avaIaIaI.j......agaIaIaIaU..#U#U#U",
"#U#U#U#U.8aRbmbqbw#a#N.#.GbkblaF#A#F.KaY.........jbzaIag........bdaIaIaWbx....bxaIaIaIbx#u#U#U#U",
"#U#U#U#UaXarbiaGaGae.Y.2.2bJ.7a#aG.B#p#rbk#zaF#F#6.KaY..........agaIaIaIag.......jaIbd..#i#U#U#U",
"#U#U#U#9.W#abHaG.1.p.q.WbJbeaLahaR#o.8aOaPa##L.P.R#rawbkaFaH#F#I.K..bmaUav......bmaI.b...Z#U#U#U",
"#U#U#UagbeaUbwae.1.q.ZataT#7.YaNai.3aObyaD###aak#cbBaUaUa3a5b#bc.fbkblaF#A#F.KaY..bbbm...I#U#U#U",
"#U#U#U.Z.Ebo.1.1.2afbJa..T.2.3.XapaNbyaBab.HazbB.5bybw#d.1#faX#X#Xa0#g#lb##pbgbibk#zbuaU.j#U#U#U",
"#U#U#U.7.Hbi.2.2.D.Dao.m#5.u.8ar.p.9#H.OaE.Yar#M.5aA.M.7#9#2#X#NaqaVa3bMa5#i#j.a.aba.C#U#U#U#U#U",
"#U#U#U.nar#A.3bJ.5aeazaralbI.A#8araA.0#b.dak.Fbw.B.5aV#f#aaR.4.TamavbMa5#ia7.aa9b.bjbm#U#U#U#U#U",
"#U#U#U#QazbkbJ.5aL.7.v.8.8aPby.A.Yat.gagagajaraAaGaV#f#faXan#Na0aebMbOa5#ia7#mb.b#aFaL#U#U#U#U#U",
"#U#U.obhbv#l.5ah#E.YaGaGaP#H#H.o.vakbBaUaUbwa.beap.D.DaR.TaC.4#O#O#g#Pa5.##Ra9b#.U#Far#U#U#U#U#U",
"#U#UagaEbHanbsbJaLazavabbeaQ.3bIbybBaUaU#d#daVaX#L#X#NaVadava6.E.E.H#oaE.Fb..l#n#T.z#9#U#U#U#U#U",
"#U#U.Zbs#u.7aMaL.7.mavbIaEbv.p.Mbya#aG.oaG#aaB.k#Xa0aqa3a3bMa5.#a7#N#D#2.QaiaG#T#p..#U#U#U#U#U#U",
"#U#UaU.T#u.v.8#GaP#H#H#a#H#a.O.X#S.7ab.I.IaK#9#0.m.ZaQ#g#P#i#j#l.ab.b.b#.Ubb#T#p#z#u#U#U#U#U#U#U",
"#U#Ua7.qax.8aOapag.A.Ha4azbqa8bqbD#dbFaVbF##aBbD.tal.Da2bGaS#N.ab.b.au.Ubb.ebcbc#3.Z#U#U#U#U#U#U",
"#U#U.GaE#eaOaP#HaQ#aafaCat.g#.azaj.QaB.y#Xa0aqa3a3aVaVa3aMatatae#h#j#mb#.Gbcbc#s#I.I#U#U#U#U#U#U",
"#U.j#g#Hbbby#H###aak#cbBaUaU.L#a#abq#0.T.D.D.EataA.2aZa7.ab.#Sa3b.a9as#m#m#m#V#taY.o#U#U#U#U#U#U",
"#Uag.U#h#g#H#a#a.y#CaUaUaU#d.MbBaX#X#Xa0.Na3bM.2.t#o.Haiaiar#2.6#P#T#pbc#r#s#tbj#J#U#U#U#U#U#U#U",
"#Uavb.#zaQ#a#a.Fagavac.n#d.0.X#L#X#Naq.Na3bMa5#i#j.a#mb.b#.cad.m.Iaiaiapava9#vaF#i#U#U#U#U#U#U#U",
"#U.Ibu#6#aak#cbBaU.5a.#d#f#oby#Xa0aqa3a3bMa5#ia7.aa9b.b#aubb#T#pbcbc#sa2bwb#aw.r.Z#U#U#U#U#U#U#U",
"#U#U...rakbBaUaUaU#daV#faXbJ#da0aqa3#gbMbP#j#l.ab.b.b#.Ubb#T#pbc#r#s#t#tawaxay#Jag#U#U#U#U#U#U#U",
"#U#UaUbx#e.e#LbD#daV#faX#X#Na0.Na3bMa5#i#j#l.ab.b.au.Ubb.ebcbc#r#s#t#uawayay#x.C.j#U#U#U#U#U#U#U",
"#U#U.j.Z#i#u#J..aabxbobo#W.fa3a3bMa5#i#j.a#mb.b#aubb#T#pbcbc#rbf#t#vaway#x#xbmbm#U#U#U#U#U#U#U#U",
"#U#U#U#U#U#U#U#U#9ag.Z.Z#u#u.....x.xbrbrbkbib#aubb#T#pbc#r#s#t#tawaxay#xbkbk#AaU#U#U#U#U#U#U#U#U",
"#U#U#U#U#U#U#U#U#U#U#U#U#U#U#U#Uagag.Z.Z#ubm...Caa.x#A#1#z#y.fawaxay#xbkbkblbxav#U#U#U#U#U#U#U#U",
"#U#U#U#U#U#U#U#U#U#U#U#U#U#U#U#U#U#U#U#U#U#U#U.jag.I.ZaL#ubm...C#J#I#F#AaFbm.zag#U#U#U#U#U#U#U#U",
"#U#U#U#U#U#U#U#U#U#U#U#U#U#U#U#U#U#U#U#U#U#U#U#U#U#U#U#U#U#U#U.jagar.ZaU#u.r#J#U#U#U#U#U#U#U#U#U",
"#U#U#U#U#U#U#U#U#U#U#U#U#U#U#U#U#U#U#U#U#U#U#U#U#U#U#U#U#U#U#U#U#U#U#U#U#U#U#U#U#U#U#U#U#U#U#U#U"
};
SIMPLE  =                    T                                                  BITPIX  =                    8                                                  NAXIS   =                    2                                                  NAXIS1  =      
             48                                                  NAXIS2  =                   48                                                  HISTORY Written by XV 3.10                                                      END                           
                                                                                                                                                                                                                                                               
                                                                                                                                                                                                                                                               
                                                                                                                                                                                                                                                               
                                                                                                                                                                                                                                                               
                                                                                                                                                                                                                                                               
                                                                                                                                                                                                                                                               
                                                                                                                                                                                                                                                               
                                                                                                                                                                                                                                                               
                                                                                                                                                                                                                                                               
                                                                           ªªªªªªªªªªªªªªªªªªªªªªªªªªªªªªªªªªªªªªªªªªªªªªªªªªªªªªªªªªªªªªªªªªªªªªªªªªªªªªªŸ€jU@+ªªªªªªªªªªªªªªªªªªªªªªªªªªªªªªªªŸ€uUJ+ 
&$`ªªªªªªªªªªªªªªªªŠ€UU++
!DCCF€`„P?S[<:988866543321BOau||n`2*5ªªªªªªªª€067DCCQK@@@?o@<::9886MYdv||j]I6//.-,+'ªªªªªªªªŸ7D0DDCCBA@@@qCCQaf~~}fZM;432C8223333-+•ªªªªªªªª0R-FEDDCLVfoŠ\ziXQ:9888>>8IffN64310..,uªªªªªªªª4^(GFn€vl\QyQ??>>>CX?Yt~8ƒw9322000/..Uªªªªªªªª@f+GGFEDDCDCm[CI
…uuŠaaUD76543322100//!+ªªªªªªªªUN+IIJIa`RF_oDAP•PCXi:988866449J]i|P//
`6654322' ªªªªªªªªIv(MM~~paWHGj_FDmRVjpJZoIŠ]:98>86654330ªªªªªªªªU}NNMLKTfMM[nGDX…v\@JDE?N=<::9731/*(&!@Ÿªªªªªª€b@ENN^UfuŒVG|MFDTCCBA@@@861.+&$





5U`€ŠªªªªªªªªªªªªªªªªªªªÂ0 
ªªªªªªªªÈ`
€uU@+
ªªªªªªªªªªªªªªªªªªªªªªª


